<svg xmlns="http://www.w3.org/2000/svg" width="90.735" height="130.391"><g fill="#020202"><path d="M86.897 101.319c-4.183-3.347-8.46-10.327-8.46-36.729 0-15.895-12.484-24.976-22.595-28.597 3.057-2.246 5.052-5.854 5.052-9.929 0-6.797-5.529-12.327-12.326-12.327s-12.327 5.53-12.327 12.327c0 3.755 1.693 7.117 4.349 9.38-10.342 3.193-24.23 12.382-24.23 29.146 0 26.402-4.276 33.383-8.46 36.729-3.215 2.572-4.569 6.295-3.451 9.485.892 2.541 3.233 4.119 6.11 4.119h21.132c.782 8.656 8.052 15.467 16.908 15.467 8.856 0 16.146-6.809 16.926-15.467h18.712c2.878 0 5.22-1.579 6.111-4.12 1.119-3.19-.236-6.912-3.451-9.484zm-38.329-82.81c4.165 0 7.555 3.389 7.555 7.555s-3.39 7.554-7.555 7.554c-4.166 0-7.554-3.389-7.554-7.554s3.389-7.555 7.554-7.555zm.032 107.11c-6.223 0-11.364-4.674-12.123-10.695h10.338c.203 0 .396-.033.585-.081.188.048.381.081.584.081h12.738c-.76 6.02-5.9 10.695-12.122 10.695zm37.245-16.395c-.08.229-.325.929-1.607.929H47.983c-.203 0-.396.033-.584.081a2.353 2.353 0 0 0-.585-.081H10.56c-1.281 0-1.526-.698-1.607-.928-.348-.991.107-2.722 1.929-4.179 5.324-4.259 10.251-12.107 10.251-40.456 0-9.87 5.741-16.082 10.558-19.554 5.312-3.83 11.76-5.917 15.709-6.109 3.948.192 10.396 2.279 15.708 6.109 4.816 3.472 10.559 9.684 10.559 19.554 0 28.349 4.927 36.197 10.251 40.456 1.819 1.456 2.274 3.186 1.927 4.178z"/><path d="M28.387 21.77L7.654 23.422C29.831-.631 56.717 5.551 57.002 5.62A2.386 2.386 0 0 0 58.145.986C56.908.68 28.82-5.876 4.899 19.389L4.776.109 0 .145l.19 28.658 28.572-2.271-.375-4.762z"/></g></svg>