
<svg version="1.1" xmlns="http://www.w3.org/2000/svg" xmlns:xlink="http://www.w3.org/1999/xlink" x="0px" y="0px"
	 width="90.735px" height="130.391px" viewBox="0 0 90.735 130.391" enable-background="new 0 0 90.735 130.391"
	 xml:space="preserve">
<g>
	<path fill="#020202" d="M86.897,101.319c-4.183-3.347-8.46-10.327-8.46-36.729c0-15.895-12.484-24.976-22.595-28.597
		c3.057-2.246,5.052-5.854,5.052-9.929c0-6.797-5.529-12.327-12.326-12.327s-12.327,5.53-12.327,12.327
		c0,3.755,1.693,7.117,4.349,9.38C30.248,38.637,16.36,47.826,16.36,64.59c0,26.402-4.276,33.383-8.46,36.729
		c-3.215,2.572-4.569,6.295-3.451,9.485c0.892,2.541,3.233,4.119,6.11,4.119h21.132c0.782,8.656,8.052,15.467,16.908,15.467
		c8.856,0,16.146-6.809,16.926-15.467h18.712c2.878,0,5.22-1.579,6.111-4.12C91.467,107.613,90.112,103.891,86.897,101.319z
		 M48.568,18.509c4.165,0,7.555,3.389,7.555,7.555s-3.39,7.554-7.555,7.554c-4.166,0-7.554-3.389-7.554-7.554
		S44.403,18.509,48.568,18.509z M48.6,125.619c-6.223,0-11.364-4.674-12.123-10.695h10.338c0.203,0,0.396-0.033,0.585-0.081
		c0.188,0.048,0.381,0.081,0.584,0.081h12.738C59.962,120.944,54.822,125.619,48.6,125.619z M85.845,109.224
		c-0.08,0.229-0.325,0.929-1.607,0.929H47.983c-0.203,0-0.396,0.033-0.584,0.081c-0.188-0.048-0.382-0.081-0.585-0.081H10.56
		c-1.281,0-1.526-0.698-1.607-0.928c-0.348-0.991,0.107-2.722,1.929-4.179c5.324-4.259,10.251-12.107,10.251-40.456
		c0-9.87,5.741-16.082,10.558-19.554c5.312-3.83,11.76-5.917,15.709-6.109c3.948,0.192,10.396,2.279,15.708,6.109
		c4.816,3.472,10.559,9.684,10.559,19.554c0,28.349,4.927,36.197,10.251,40.456C85.737,106.502,86.192,108.232,85.845,109.224z"/>
	<path fill="#020202" d="M28.387,21.77L7.654,23.422C29.831-0.631,56.717,5.551,57.002,5.62c1.279,0.314,2.569-0.466,2.886-1.744
		c0.316-1.279-0.464-2.573-1.743-2.89C56.908,0.68,28.82-5.876,4.899,19.389L4.776,0.109L0,0.145l0.19,28.658l28.572-2.271
		L28.387,21.77z"/>
</g>
</svg>
