<svg xmlns="http://www.w3.org/2000/svg" width="142.772" height="128.972"><path d="M99.798 128.972H46.222a2.386 2.386 0 0 1-2.386-2.386v-12.988a2.386 2.386 0 0 1 2.386-2.386h14.661v-9.027H13.981C6.272 102.185 0 95.913 0 88.203V13.981C0 6.272 6.272 0 13.981 0h114.811c7.709 0 13.98 6.272 13.98 13.981v74.222c0 7.71-6.271 13.981-13.98 13.981H84.325v9.027h15.474a2.386 2.386 0 0 1 2.386 2.386v12.988a2.388 2.388 0 0 1-2.387 2.387zm-51.19-4.772h48.804v-8.217H81.939a2.386 2.386 0 0 1-2.386-2.386V99.799a2.386 2.386 0 0 1 2.386-2.386h46.853c5.077 0 9.209-4.132 9.209-9.21V13.981c0-5.078-4.132-9.208-9.209-9.208H13.981c-5.078 0-9.208 4.131-9.208 9.208v74.222c0 5.078 4.131 9.21 9.208 9.21h49.288a2.386 2.386 0 0 1 2.386 2.386v13.799a2.386 2.386 0 0 1-2.386 2.386H48.608v8.216zm77.625-36.628H16.541a2.385 2.385 0 0 1-2.386-2.386v-68.46a2.386 2.386 0 0 1 2.386-2.386h109.692a2.386 2.386 0 0 1 2.386 2.386v68.46a2.386 2.386 0 0 1-2.386 2.386zM18.927 82.801h104.92V19.112H18.927v63.689z"/></svg>