
<svg version="1.1" xmlns="http://www.w3.org/2000/svg" xmlns:xlink="http://www.w3.org/1999/xlink" x="0px" y="0px"
	 width="142.772px" height="128.972px" viewBox="0 0 142.772 128.972" enable-background="new 0 0 142.772 128.972"
	 xml:space="preserve">
<g>
	<g>
		<path d="M99.798,128.972H46.222c-1.318,0-2.386-1.068-2.386-2.386v-12.988c0-1.318,1.068-2.386,2.386-2.386h14.661v-9.027H13.981
			C6.272,102.185,0,95.913,0,88.203V13.981C0,6.272,6.272,0,13.981,0h114.811c7.709,0,13.98,6.272,13.98,13.981v74.222
			c0,7.71-6.271,13.981-13.98,13.981H84.325v9.027h15.474c1.317,0,2.386,1.067,2.386,2.386v12.988
			C102.184,127.903,101.116,128.972,99.798,128.972z M48.608,124.2h48.804v-8.217H81.939c-1.317,0-2.386-1.068-2.386-2.386V99.799
			c0-1.317,1.068-2.386,2.386-2.386h46.853c5.077,0,9.209-4.132,9.209-9.21V13.981c0-5.078-4.132-9.208-9.209-9.208H13.981
			c-5.078,0-9.208,4.131-9.208,9.208v74.222c0,5.078,4.131,9.21,9.208,9.21h49.288c1.318,0,2.386,1.068,2.386,2.386v13.799
			c0,1.317-1.068,2.386-2.386,2.386H48.608V124.2z M126.233,87.572H16.541c-1.318,0-2.386-1.067-2.386-2.386v-68.46
			c0-1.318,1.068-2.386,2.386-2.386h109.692c1.317,0,2.386,1.068,2.386,2.386v68.46C128.619,86.505,127.55,87.572,126.233,87.572z
			 M18.927,82.801h104.92V19.112H18.927V82.801z"/>
	</g>
</g>
</svg>
