
<svg version="1.1" xmlns="http://www.w3.org/2000/svg" xmlns:xlink="http://www.w3.org/1999/xlink" x="0px" y="0px"
	 width="125.758px" height="132.272px" viewBox="0 0 125.758 132.272" enable-background="new 0 0 125.758 132.272"
	 xml:space="preserve">
<g>
	<path d="M28.337,27.185h43.645c1.317,0,2.386-1.068,2.386-2.386s-1.068-2.386-2.386-2.386H28.337c-1.318,0-2.386,1.068-2.386,2.386
		S27.02,27.185,28.337,27.185z"/>
	<path d="M71.982,34.208H28.337c-1.318,0-2.386,1.068-2.386,2.386s1.068,2.386,2.386,2.386h43.645c1.317,0,2.386-1.068,2.386-2.386
		S73.299,34.208,71.982,34.208z"/>
	<path d="M84.984,109.729V2.386C84.984,1.068,83.917,0,82.598,0H2.386C1.068,0,0,1.068,0,2.386v107.342
		c0,1.318,1.068,2.386,2.386,2.386h80.212C83.917,112.114,84.984,111.047,84.984,109.729z M4.772,4.772h9.383v102.57H4.772V4.772z
		 M80.212,107.343H18.928V4.772h61.285V107.343z"/>
	<path d="M125.758,128.427l-0.617-28.652l-28.534,2.696l0.446,4.755l20.625-1.953c-25.558,28.669-56.14,21.618-57.47,21.294
		c-1.278-0.312-2.57,0.465-2.886,1.744s0.463,2.572,1.743,2.89c0.255,0.062,4.452,1.075,11.012,1.075
		c3.142,0,6.826-0.232,10.878-0.912c10.658-1.787,25.838-7.135,39.616-22.186l0.412,19.355L125.758,128.427z"/>
</g>
</svg>
