<svg xmlns="http://www.w3.org/2000/svg" width="125.758" height="132.272"><path d="M28.337 27.185h43.645a2.386 2.386 0 0 0 0-4.772H28.337a2.386 2.386 0 1 0 0 4.772zM71.982 34.208H28.337a2.386 2.386 0 1 0 0 4.772h43.645a2.386 2.386 0 0 0 0-4.772z"/><path d="M84.984 109.729V2.386A2.385 2.385 0 0 0 82.598 0H2.386A2.386 2.386 0 0 0 0 2.386v107.342a2.386 2.386 0 0 0 2.386 2.386h80.212a2.384 2.384 0 0 0 2.386-2.385zM4.772 4.772h9.383v102.57H4.772V4.772zm75.44 102.571H18.928V4.772h61.285v102.571z"/><path d="M125.758 128.427l-.617-28.652-28.534 2.696.446 4.755 20.625-1.953c-25.558 28.669-56.14 21.618-57.47 21.294a2.387 2.387 0 0 0-1.143 4.634c.255.062 4.452 1.075 11.012 1.075a65.85 65.85 0 0 0 10.878-.912c10.658-1.787 25.838-7.135 39.616-22.186l.412 19.355 4.775-.106z"/></svg>