<svg xmlns="http://www.w3.org/2000/svg" width="97.518" height="138.595"><path d="M94.97 17.971H70.991l-1.77-8.255a2.548 2.548 0 0 0-2.491-2.014h-6.438V2.547A2.547 2.547 0 0 0 57.745 0H42.34a2.547 2.547 0 0 0-2.547 2.547v5.155h-7.721a2.548 2.548 0 0 0-2.491 2.014l-1.77 8.255H2.547A2.547 2.547 0 0 0 0 20.519v115.529a2.548 2.548 0 0 0 2.547 2.548H94.97a2.548 2.548 0 0 0 2.548-2.548V20.519a2.548 2.548 0 0 0-2.548-2.548zm-60.839-5.174h8.209a2.547 2.547 0 0 0 2.547-2.547V5.095h10.309v5.155a2.547 2.547 0 0 0 2.548 2.547h6.926l2.76 12.876H31.372l2.759-12.876zM92.422 133.5H5.095V23.066H26.72l-.99 4.621a2.546 2.546 0 0 0 2.491 3.081h42.361a2.548 2.548 0 0 0 2.491-3.081l-.99-4.621h20.34V133.5z"/><path d="M37.227 53.894a2.547 2.547 0 0 0 2.547 2.547h38.853a2.548 2.548 0 0 0 0-5.094H39.774a2.546 2.546 0 0 0-2.547 2.547zM78.626 71.884H39.774a2.547 2.547 0 0 0 0 5.096h38.853a2.548 2.548 0 1 0-.001-5.096zM78.626 93.707H39.774a2.547 2.547 0 0 0 0 5.096h38.853a2.548 2.548 0 1 0-.001-5.096zM26.937 51.346h-9.058a2.547 2.547 0 0 0 0 5.094h9.058a2.547 2.547 0 0 0 0-5.094zM26.937 71.884h-9.058a2.547 2.547 0 0 0 0 5.096h9.058a2.547 2.547 0 0 0 0-5.096zM26.937 93.707h-9.058a2.547 2.547 0 0 0 0 5.096h9.058a2.547 2.547 0 0 0 0-5.096z"/></svg>