
<svg version="1.1" xmlns="http://www.w3.org/2000/svg" xmlns:xlink="http://www.w3.org/1999/xlink" x="0px" y="0px"
	 width="97.518px" height="138.595px" viewBox="0 0 97.518 138.595" enable-background="new 0 0 97.518 138.595"
	 xml:space="preserve">
<g>
	<path d="M94.97,17.971H70.991l-1.77-8.255c-0.252-1.175-1.29-2.014-2.491-2.014h-6.438V2.547C60.292,1.141,59.152,0,57.745,0H42.34
		c-1.407,0-2.547,1.141-2.547,2.547v5.155h-7.721c-1.201,0-2.239,0.839-2.491,2.014l-1.77,8.255H2.547
		C1.141,17.971,0,19.111,0,20.519v115.529c0,1.407,1.141,2.548,2.547,2.548H94.97c1.407,0,2.548-1.141,2.548-2.548V20.519
		C97.518,19.111,96.377,17.971,94.97,17.971z M34.131,12.797h8.209c1.407,0,2.547-1.141,2.547-2.547V5.095h10.309v5.155
		c0,1.407,1.141,2.547,2.548,2.547h6.926l2.76,12.876H31.372L34.131,12.797z M92.422,133.5H5.095V23.066h21.625l-0.99,4.621
		c-0.161,0.752,0.026,1.537,0.51,2.135c0.483,0.598,1.211,0.946,1.981,0.946h42.361c0.77,0,1.497-0.348,1.981-0.946
		c0.483-0.598,0.671-1.383,0.51-2.135l-0.99-4.621h20.34V133.5z"/>
	<path d="M37.227,53.894c0,1.407,1.141,2.547,2.547,2.547h38.853c1.407,0,2.548-1.141,2.548-2.547s-1.141-2.547-2.548-2.547H39.774
		C38.367,51.346,37.227,52.487,37.227,53.894z"/>
	<path d="M78.626,71.884H39.774c-1.407,0-2.547,1.141-2.547,2.548s1.141,2.548,2.547,2.548h38.853c1.407,0,2.548-1.141,2.548-2.548
		S80.034,71.884,78.626,71.884z"/>
	<path d="M78.626,93.707H39.774c-1.407,0-2.547,1.141-2.547,2.548s1.141,2.548,2.547,2.548h38.853c1.407,0,2.548-1.141,2.548-2.548
		S80.034,93.707,78.626,93.707z"/>
	<path d="M26.937,51.346h-9.058c-1.407,0-2.547,1.141-2.547,2.547s1.141,2.547,2.547,2.547h9.058c1.407,0,2.547-1.141,2.547-2.547
		S28.344,51.346,26.937,51.346z"/>
	<path d="M26.937,71.884h-9.058c-1.407,0-2.547,1.141-2.547,2.548s1.141,2.548,2.547,2.548h9.058c1.407,0,2.547-1.141,2.547-2.548
		S28.344,71.884,26.937,71.884z"/>
	<path d="M26.937,93.707h-9.058c-1.407,0-2.547,1.141-2.547,2.548s1.141,2.548,2.547,2.548h9.058c1.407,0,2.547-1.141,2.547-2.548
		S28.344,93.707,26.937,93.707z"/>
</g>
</svg>
