
<svg version="1.1" xmlns="http://www.w3.org/2000/svg" xmlns:xlink="http://www.w3.org/1999/xlink" x="0px" y="0px"
	 width="149.325px" height="125.116px" viewBox="0 0 149.325 125.116" enable-background="new 0 0 149.325 125.116"
	 xml:space="preserve">
<g>
	<path d="M21.094,18.32h5.807c1.318,0,2.386-1.068,2.386-2.386s-1.068-2.386-2.386-2.386h-5.807c-1.318,0-2.386,1.068-2.386,2.386
		S19.776,18.32,21.094,18.32z"/>
	<path d="M38.512,18.32h5.807c1.318,0,2.386-1.068,2.386-2.386s-1.068-2.386-2.386-2.386h-5.807c-1.318,0-2.386,1.068-2.386,2.386
		S37.194,18.32,38.512,18.32z"/>
	<path d="M55.93,18.32h5.807c1.318,0,2.386-1.068,2.386-2.386s-1.068-2.386-2.386-2.386H55.93c-1.318,0-2.386,1.068-2.386,2.386
		S54.612,18.32,55.93,18.32z"/>
	<path d="M91.653,38.408c-1.102-0.721-2.581-0.413-3.303,0.691l-8.805,13.466H50.569c-1.318,0-2.386,1.068-2.386,2.386V87.24
		c0,1.317,1.068,2.386,2.386,2.386h31.65c1.318,0,2.386-1.068,2.386-2.386V54.952c0-0.372-0.092-0.719-0.243-1.032l7.982-12.209
		C93.066,40.607,92.756,39.129,91.653,38.408z M79.833,84.854H52.955V57.338h23.469l-8.791,13.445l-4.548-5.456
		c-0.844-1.013-2.348-1.15-3.361-0.306c-1.012,0.844-1.149,2.349-0.305,3.36l6.613,7.935c0.455,0.546,1.127,0.858,1.833,0.858
		c0.046,0,0.092-0.001,0.138-0.004c0.755-0.043,1.445-0.442,1.859-1.076l9.971-15.25V84.854z"/>
	<path d="M148.219,97.921l-11.845-7.534V2.386c0-1.318-1.068-2.386-2.386-2.386H2.386C1.068,0,0,1.068,0,2.386v105.799
		c0,1.317,1.068,2.386,2.386,2.386h112.82l1.142,9.167c0.119,0.958,0.804,1.749,1.734,2.006c0.93,0.256,1.924-0.073,2.517-0.835
		l5.927-7.615l6.56,10.685c0.359,0.586,0.954,0.988,1.632,1.104c0.134,0.022,0.268,0.034,0.401,0.034
		c0.544,0,1.077-0.187,1.505-0.535l9.681-7.869c1.01-0.82,1.176-2.299,0.374-3.322l-7.216-9.215l8.031-1.919
		c0.932-0.223,1.641-0.981,1.799-1.927S149.028,98.436,148.219,97.921z M131.603,4.772V26.45H4.772V4.772H131.603z M4.772,105.799
		V31.222h126.831v56.13l-16.674-10.606c-0.78-0.496-1.777-0.496-2.556-0.003c-0.781,0.494-1.207,1.395-1.093,2.312l3.331,26.745
		H4.772z M134.737,100.397c-0.79,0.189-1.431,0.768-1.698,1.534c-0.268,0.768-0.127,1.618,0.374,2.258l8.063,10.298l-5.749,4.674
		l-6.936-11.298c-0.409-0.667-1.119-1.091-1.901-1.135c-0.044-0.002-0.088-0.003-0.132-0.003c-0.733,0-1.43,0.338-1.883,0.92
		l-4.503,5.785l-3.729-29.938l24.261,15.433L134.737,100.397z"/>
</g>
</svg>
