<svg xmlns="http://www.w3.org/2000/svg" width="149.325" height="125.116"><path d="M21.094 18.32h5.807a2.386 2.386 0 1 0 0-4.772h-5.807a2.386 2.386 0 1 0 0 4.772zM38.512 18.32h5.807a2.386 2.386 0 1 0 0-4.772h-5.807a2.386 2.386 0 1 0 0 4.772zM55.93 18.32h5.807a2.386 2.386 0 1 0 0-4.772H55.93a2.386 2.386 0 1 0 0 4.772zM91.653 38.408a2.386 2.386 0 0 0-3.303.691l-8.805 13.466H50.569a2.386 2.386 0 0 0-2.386 2.386V87.24a2.386 2.386 0 0 0 2.386 2.386h31.65a2.386 2.386 0 0 0 2.386-2.386V54.952c0-.372-.092-.719-.243-1.032l7.982-12.209a2.385 2.385 0 0 0-.691-3.303zm-11.82 46.446H52.955V57.338h23.469l-8.791 13.445-4.548-5.456a2.386 2.386 0 1 0-3.666 3.054l6.613 7.935a2.385 2.385 0 0 0 3.83-.222l9.971-15.25v24.01z"/><path d="M148.219 97.921l-11.845-7.534V2.386A2.386 2.386 0 0 0 133.988 0H2.386A2.386 2.386 0 0 0 0 2.386v105.799a2.386 2.386 0 0 0 2.386 2.386h112.82l1.142 9.167a2.387 2.387 0 0 0 4.251 1.171l5.927-7.615 6.56 10.685a2.385 2.385 0 0 0 3.538.603l9.681-7.869a2.385 2.385 0 0 0 .374-3.322l-7.216-9.215 8.031-1.919a2.386 2.386 0 0 0 .725-4.336zM131.603 4.772V26.45H4.772V4.772h126.831zM4.772 105.799V31.222h126.831v56.13l-16.674-10.606a2.387 2.387 0 0 0-3.649 2.309l3.331 26.745H4.772zm129.965-5.402a2.387 2.387 0 0 0-1.324 3.792l8.063 10.298-5.749 4.674-6.936-11.298a2.386 2.386 0 0 0-3.916-.218l-4.503 5.785-3.729-29.938 24.261 15.433-6.167 1.472z"/></svg>