<svg xmlns="http://www.w3.org/2000/svg" width="155.775" height="124.402"><path d="M152.826 44.454c-.867 0-1.726-.38-2.309-1.11C131.246 19.2 105.262 5.903 77.353 5.903c-27.342 0-52.956 12.841-72.121 36.154a2.952 2.952 0 0 1-4.561-3.749C20.979 13.605 48.212 0 77.353 0c29.74 0 57.362 14.085 77.776 39.661a2.948 2.948 0 0 1-.466 4.147 2.924 2.924 0 0 1-1.837.646z"/><path d="M130.823 72.884a2.95 2.95 0 0 1-2.309-1.11c-13.446-16.845-31.56-26.121-51.004-26.121-19.049 0-36.903 8.958-50.275 25.223a2.95 2.95 0 1 1-4.559-3.748C37.188 49.472 56.663 39.75 77.51 39.75c21.276 0 41.028 10.064 55.617 28.341a2.95 2.95 0 0 1-2.304 4.793zM111.261 100.394a2.952 2.952 0 0 1-2.31-1.11C100.687 88.928 89.57 83.225 77.65 83.225c-11.678 0-22.635 5.506-30.854 15.503a2.95 2.95 0 1 1-4.559-3.748c9.361-11.387 21.938-17.656 35.414-17.656 13.553 0 26.645 6.661 35.916 18.277a2.95 2.95 0 0 1-2.306 4.793z"/><path d="M111.261 100.394a2.952 2.952 0 0 1-2.31-1.11C100.687 88.928 89.57 83.225 77.65 83.225c-11.678 0-22.635 5.506-30.854 15.503a2.95 2.95 0 1 1-4.559-3.748c9.361-11.387 21.938-17.656 35.414-17.656 13.553 0 26.645 6.661 35.916 18.277a2.95 2.95 0 0 1-2.306 4.793zM77.954 124.403c-4.407 0-8.642-2.138-11.619-5.864a2.95 2.95 0 1 1 4.612-3.683c1.878 2.353 4.366 3.646 7.006 3.646 2.585 0 5.035-1.249 6.899-3.518a2.951 2.951 0 0 1 4.559 3.748c-3.004 3.657-7.075 5.671-11.457 5.671z"/></svg>