
<svg version="1.1" xmlns="http://www.w3.org/2000/svg" xmlns:xlink="http://www.w3.org/1999/xlink" x="0px" y="0px"
	 width="155.775px" height="124.402px" viewBox="0 0 155.775 124.402" enable-background="new 0 0 155.775 124.402"
	 xml:space="preserve">
<g>
	<g>
		<path d="M152.826,44.454c-0.867,0-1.726-0.38-2.309-1.11C131.246,19.2,105.262,5.903,77.353,5.903
			c-27.342,0-52.956,12.841-72.121,36.154c-1.036,1.259-2.896,1.441-4.155,0.405c-1.259-1.035-1.44-2.896-0.406-4.154
			C20.979,13.605,48.212,0,77.353,0c29.74,0,57.362,14.085,77.776,39.661c1.018,1.273,0.81,3.131-0.466,4.147
			C154.122,44.243,153.471,44.454,152.826,44.454z"/>
	</g>
	<g>
		<path d="M130.823,72.884c-0.867,0-1.726-0.381-2.309-1.11C115.068,54.929,96.954,45.653,77.51,45.653
			c-19.049,0-36.903,8.958-50.275,25.223c-1.035,1.261-2.896,1.44-4.154,0.406c-1.259-1.035-1.439-2.896-0.405-4.154
			C37.188,49.472,56.663,39.75,77.51,39.75c21.276,0,41.028,10.064,55.617,28.341c1.018,1.274,0.81,3.132-0.465,4.148
			C132.119,72.673,131.468,72.883,130.823,72.884z"/>
	</g>
	<g>
		<path d="M111.261,100.394c-0.867,0-1.727-0.381-2.31-1.11C100.687,88.928,89.57,83.225,77.65,83.225
			c-11.678,0-22.635,5.506-30.854,15.503c-1.034,1.26-2.895,1.44-4.153,0.406c-1.26-1.035-1.441-2.896-0.406-4.154
			c9.361-11.387,21.938-17.656,35.414-17.656c13.553,0,26.645,6.661,35.916,18.277c1.017,1.273,0.809,3.131-0.465,4.147
			C112.557,100.183,111.907,100.393,111.261,100.394z"/>
	</g>
	<g>
		<path d="M111.261,100.394c-0.867,0-1.727-0.381-2.31-1.11C100.687,88.928,89.57,83.225,77.65,83.225
			c-11.678,0-22.635,5.506-30.854,15.503c-1.034,1.26-2.895,1.44-4.153,0.406c-1.26-1.035-1.441-2.896-0.406-4.154
			c9.361-11.387,21.938-17.656,35.414-17.656c13.553,0,26.645,6.661,35.916,18.277c1.017,1.273,0.809,3.131-0.465,4.147
			C112.557,100.183,111.907,100.393,111.261,100.394z"/>
	</g>
	<g>
		<path d="M77.954,124.403c-4.407,0-8.642-2.138-11.619-5.864c-1.018-1.273-0.81-3.131,0.464-4.148
			c1.274-1.015,3.133-0.809,4.148,0.465c1.878,2.353,4.366,3.646,7.006,3.646c2.585,0,5.035-1.249,6.899-3.518
			c1.036-1.259,2.896-1.439,4.153-0.405c1.261,1.034,1.441,2.896,0.406,4.153C86.407,122.389,82.336,124.403,77.954,124.403z"/>
	</g>
</g>
</svg>
