
<svg version="1.1" xmlns="http://www.w3.org/2000/svg" xmlns:xlink="http://www.w3.org/1999/xlink" x="0px" y="0px"
	 width="113.574px" height="106.854px" viewBox="0 0 113.574 106.854" enable-background="new 0 0 113.574 106.854"
	 xml:space="preserve">
<path fill="white" d="M92.667,64.115c-3.166,0-6.159,0.744-8.852,2.037L68.533,39.034c5.524-3.85,9.162-10.331,9.162-17.665
	C77.695,9.586,68.315,0,56.787,0C45.258,0,35.879,9.586,35.879,21.369c0,7.068,3.39,13.327,8.58,17.219L29.106,65.83
	c-2.519-1.102-5.29-1.715-8.198-1.715C9.379,64.115,0,73.701,0,85.484s9.379,21.369,20.908,21.369c10.68,0,19.5-8.23,20.743-18.809
	h30.272c1.243,10.578,10.064,18.809,20.743,18.809c11.528,0,20.907-9.586,20.907-21.369S104.195,64.115,92.667,64.115z
	 M40.146,21.369c0-9.43,7.465-17.101,16.641-17.101s16.641,7.671,16.641,17.101c0,9.429-7.465,17.101-16.641,17.101
	S40.146,30.798,40.146,21.369z M48.116,40.789c2.646,1.239,5.576,1.948,8.671,1.948c2.838,0,5.543-0.586,8.013-1.638l15.377,27.289
	c-4.678,3.579-7.843,9.098-8.333,15.39H41.732c-0.511-6.554-3.916-12.279-8.917-15.836L48.116,40.789z M20.908,102.586
	c-9.176,0-16.641-7.672-16.641-17.102s7.465-17.102,16.641-17.102s16.641,7.672,16.641,17.102S30.084,102.586,20.908,102.586z
	 M92.667,102.586c-9.176,0-16.641-7.672-16.641-17.102s7.465-17.102,16.641-17.102c9.175,0,16.64,7.672,16.64,17.102
	S101.842,102.586,92.667,102.586z"/>
</svg>
