<svg xmlns="http://www.w3.org/2000/svg" width="113.574" height="106.854"><path fill="#fff" d="M92.667 64.115c-3.166 0-6.159.744-8.852 2.037L68.533 39.034c5.524-3.85 9.162-10.331 9.162-17.665C77.695 9.586 68.315 0 56.787 0 45.258 0 35.879 9.586 35.879 21.369c0 7.068 3.39 13.327 8.58 17.219L29.106 65.83a20.4 20.4 0 0 0-8.198-1.715C9.379 64.115 0 73.701 0 85.484s9.379 21.369 20.908 21.369c10.68 0 19.5-8.23 20.743-18.809h30.272c1.243 10.578 10.064 18.809 20.743 18.809 11.528 0 20.907-9.586 20.907-21.369s-9.378-21.369-20.906-21.369zM40.146 21.369c0-9.43 7.465-17.101 16.641-17.101s16.641 7.671 16.641 17.101c0 9.429-7.465 17.101-16.641 17.101s-16.641-7.672-16.641-17.101zm7.97 19.42a20.38 20.38 0 0 0 8.671 1.948c2.838 0 5.543-.586 8.013-1.638l15.377 27.289a21.451 21.451 0 0 0-8.333 15.39H41.732c-.511-6.554-3.916-12.279-8.917-15.836l15.301-27.153zm-27.208 61.797c-9.176 0-16.641-7.672-16.641-17.102s7.465-17.102 16.641-17.102 16.641 7.672 16.641 17.102-7.465 17.102-16.641 17.102zm71.759 0c-9.176 0-16.641-7.672-16.641-17.102s7.465-17.102 16.641-17.102c9.175 0 16.64 7.672 16.64 17.102s-7.465 17.102-16.64 17.102z"/></svg>