
<svg version="1.1" xmlns="http://www.w3.org/2000/svg" xmlns:xlink="http://www.w3.org/1999/xlink" x="0px" y="0px"
	 width="137.732px" height="111.562px" viewBox="0 0 137.732 111.562" enable-background="new 0 0 137.732 111.562"
	 xml:space="preserve">
<g>
	<path fill="white" d="M135.599,0H2.134C0.955,0,0,0.956,0,2.134v107.294c0,1.18,0.955,2.135,2.134,2.135h133.465
		c1.179,0,2.134-0.955,2.134-2.135V2.134C137.732,0.956,136.777,0,135.599,0z M133.465,4.268v22.556H4.268V4.268H133.465z
		 M4.268,107.295V31.091h129.197v76.204H4.268z"/>
	<path fill="white" d="M21.107,18.006h5.888c1.179,0,2.134-0.956,2.134-2.134s-0.955-2.134-2.134-2.134h-5.888c-1.178,0-2.134,0.956-2.134,2.134
		S19.93,18.006,21.107,18.006z"/>
	<path fill="white" d="M38.771,18.006h5.888c1.179,0,2.134-0.956,2.134-2.134s-0.955-2.134-2.134-2.134h-5.888c-1.178,0-2.134,0.956-2.134,2.134
		S37.594,18.006,38.771,18.006z"/>
	<path fill="white" d="M56.436,18.006h5.889c1.178,0,2.134-0.956,2.134-2.134s-0.956-2.134-2.134-2.134h-5.889c-1.178,0-2.134,0.956-2.134,2.134
		S55.258,18.006,56.436,18.006z"/>
	<path fill="white" d="M117.28,44.594H76.626c-1.179,0-2.134,0.957-2.134,2.134s0.955,2.133,2.134,2.133h40.654c1.179,0,2.134-0.955,2.134-2.133
		S118.459,44.594,117.28,44.594z"/>
	<path fill="white" d="M100.271,61.188c1.179,0,2.134-0.955,2.134-2.135c0-1.178-0.955-2.133-2.134-2.133H77.372
		c-1.179,0-2.134,0.955-2.134,2.133c0,1.18,0.955,2.135,2.134,2.135H100.271z"/>
	<path fill="white" d="M62.979,43.833H39.426c-1.178,0-2.134,0.955-2.134,2.133v14.395c0,1.18,0.956,2.135,2.134,2.135h23.553
		c1.178,0,2.134-0.955,2.134-2.135V45.967C65.112,44.789,64.156,43.833,62.979,43.833z M60.845,58.229H41.56V48.102h19.285V58.229z"
		/>
	<path fill="white" d="M117.28,75.998H76.626c-1.179,0-2.134,0.955-2.134,2.133c0,1.18,0.955,2.135,2.134,2.135h40.654
		c1.179,0,2.134-0.955,2.134-2.135C119.414,76.953,118.459,75.998,117.28,75.998z"/>
	<path fill="white" d="M100.271,88.322H77.372c-1.179,0-2.134,0.955-2.134,2.133c0,1.18,0.955,2.135,2.134,2.135h22.898
		c1.179,0,2.134-0.955,2.134-2.135C102.404,89.277,101.449,88.322,100.271,88.322z"/>
	<path fill="white" d="M62.979,75.238H39.426c-1.178,0-2.134,0.955-2.134,2.133v14.393c0,1.18,0.956,2.135,2.134,2.135h23.553
		c1.178,0,2.134-0.955,2.134-2.135V77.371C65.112,76.193,64.156,75.238,62.979,75.238z M60.845,89.631H41.56V79.506h19.285V89.631z"
		/>
</g>
</svg>
