<svg xmlns="http://www.w3.org/2000/svg" width="137.732" height="111.562"><g fill="#fff"><path d="M135.599 0H2.134A2.134 2.134 0 0 0 0 2.134v107.294c0 1.18.955 2.135 2.134 2.135h133.465a2.134 2.134 0 0 0 2.134-2.135V2.134A2.135 2.135 0 0 0 135.599 0zm-2.134 4.268v22.556H4.268V4.268h129.197zM4.268 107.295V31.091h129.197v76.204H4.268z"/><path d="M21.107 18.006h5.888a2.134 2.134 0 0 0 0-4.268h-5.888a2.135 2.135 0 0 0 0 4.268zM38.771 18.006h5.888a2.134 2.134 0 0 0 0-4.268h-5.888a2.135 2.135 0 0 0 0 4.268zM56.436 18.006h5.889a2.135 2.135 0 0 0 0-4.268h-5.889a2.135 2.135 0 0 0 0 4.268zM117.28 44.594H76.626a2.135 2.135 0 0 0 0 4.267h40.654a2.133 2.133 0 1 0 0-4.267zM100.271 61.188a2.134 2.134 0 1 0 0-4.268H77.372a2.133 2.133 0 1 0 0 4.268h22.899zM62.979 43.833H39.426a2.134 2.134 0 0 0-2.134 2.133v14.395c0 1.18.956 2.135 2.134 2.135h23.553a2.134 2.134 0 0 0 2.134-2.135V45.967a2.136 2.136 0 0 0-2.134-2.134zm-2.134 14.396H41.56V48.102h19.285v10.127zM117.28 75.998H76.626a2.133 2.133 0 1 0 0 4.268h40.654a2.134 2.134 0 1 0 0-4.268zM100.271 88.322H77.372a2.133 2.133 0 1 0 0 4.268h22.898a2.134 2.134 0 0 0 .001-4.268zM62.979 75.238H39.426a2.134 2.134 0 0 0-2.134 2.133v14.393c0 1.18.956 2.135 2.134 2.135h23.553a2.134 2.134 0 0 0 2.134-2.135V77.371a2.135 2.135 0 0 0-2.134-2.133zm-2.134 14.393H41.56V79.506h19.285v10.125z"/></g></svg>