<svg xmlns="http://www.w3.org/2000/svg" width="82.543" height="113.639"><path fill="#fff" d="M69.357 113.639h-56.17C5.916 113.639 0 107.723 0 100.452V13.186C0 5.915 5.916 0 13.187 0h56.171c7.271 0 13.186 5.915 13.186 13.186v87.267c-.001 7.27-5.916 13.186-13.187 13.186zM13.187 4.268c-4.918 0-8.919 4-8.919 8.918v87.267c0 4.918 4.001 8.919 8.919 8.919h56.171c4.918 0 8.918-4.001 8.918-8.919V13.186c0-4.917-4-8.918-8.918-8.918H13.187z"/><path fill="#fff" d="M64.638 76.85H17.906a2.134 2.134 0 0 1-2.134-2.134V18.137c0-1.178.956-2.134 2.134-2.134h46.731c1.179 0 2.134.956 2.134 2.134v56.579a2.133 2.133 0 0 1-2.133 2.134zM20.04 72.582h42.464V20.271H20.04v52.311zM41.769 100.713c-4.465 0-8.099-3.634-8.099-8.1s3.633-8.1 8.099-8.1 8.1 3.634 8.1 8.1-3.635 8.1-8.1 8.1zm0-11.932c-2.113 0-3.831 1.719-3.831 3.832s1.718 3.832 3.831 3.832 3.832-1.719 3.832-3.832-1.719-3.832-3.832-3.832z"/><path fill="#fff" d="M53.203 48.976H30.266a2.135 2.135 0 0 1 0-4.268h22.938a2.134 2.134 0 1 1-.001 4.268zM53.203 63.346H30.266a2.134 2.134 0 0 1 0-4.268h22.938a2.133 2.133 0 1 1-.001 4.268zM53.203 34.604H30.266a2.135 2.135 0 0 1 0-4.268h22.938a2.134 2.134 0 1 1-.001 4.268z"/></svg>