
<svg version="1.1" xmlns="http://www.w3.org/2000/svg" xmlns:xlink="http://www.w3.org/1999/xlink" x="0px" y="0px"
	 width="82.543px" height="113.639px" viewBox="0 0 82.543 113.639" enable-background="new 0 0 82.543 113.639"
	 xml:space="preserve">
<g>
	<g>
		<path fill="white" d="M69.357,113.639H13.187C5.916,113.639,0,107.723,0,100.452V13.186C0,5.915,5.916,0,13.187,0h56.171
			c7.271,0,13.186,5.915,13.186,13.186v87.267C82.543,107.723,76.628,113.639,69.357,113.639z M13.187,4.268
			c-4.918,0-8.919,4-8.919,8.918v87.267c0,4.918,4.001,8.919,8.919,8.919h56.171c4.918,0,8.918-4.001,8.918-8.919V13.186
			c0-4.917-4-8.918-8.918-8.918H13.187z"/>
	</g>
	<g>
		<path fill="white" d="M64.638,76.85H17.906c-1.178,0-2.134-0.955-2.134-2.134V18.137c0-1.178,0.956-2.134,2.134-2.134h46.731
			c1.179,0,2.134,0.956,2.134,2.134v56.579C66.771,75.895,65.816,76.85,64.638,76.85z M20.04,72.582h42.464V20.271H20.04V72.582z"/>
	</g>
	<g>
		<path fill="white" d="M41.769,100.713c-4.465,0-8.099-3.634-8.099-8.1s3.633-8.1,8.099-8.1c4.466,0,8.1,3.634,8.1,8.1
			S46.234,100.713,41.769,100.713z M41.769,88.781c-2.113,0-3.831,1.719-3.831,3.832s1.718,3.832,3.831,3.832
			c2.113,0,3.832-1.719,3.832-3.832S43.882,88.781,41.769,88.781z"/>
	</g>
	<g>
		<path fill="white" d="M53.203,48.976H30.266c-1.178,0-2.134-0.956-2.134-2.134s0.956-2.134,2.134-2.134h22.938c1.179,0,2.134,0.956,2.134,2.134
			S54.382,48.976,53.203,48.976z"/>
	</g>
	<g>
		<path fill="white" d="M53.203,63.346H30.266c-1.178,0-2.134-0.955-2.134-2.134s0.956-2.134,2.134-2.134h22.938c1.179,0,2.134,0.955,2.134,2.134
			S54.382,63.346,53.203,63.346z"/>
	</g>
	<g>
		<path fill="white" d="M53.203,34.604H30.266c-1.178,0-2.134-0.956-2.134-2.134s0.956-2.134,2.134-2.134h22.938c1.179,0,2.134,0.956,2.134,2.134
			S54.382,34.604,53.203,34.604z"/>
	</g>
</g>
</svg>
