
<svg version="1.1" xmlns="http://www.w3.org/2000/svg" xmlns:xlink="http://www.w3.org/1999/xlink" x="0px" y="0px"
	 width="137.253px" height="111.178px" viewBox="0 0 137.253 111.178" enable-background="new 0 0 137.253 111.178"
	 xml:space="preserve">
<g>
	<path fill="white" d="M117.519,88.005h-96.48c-1.178,0-2.134,0.955-2.134,2.134s0.956,2.134,2.134,2.134h96.48c1.179,0,2.134-0.955,2.134-2.134
		S118.697,88.005,117.519,88.005z"/>
	<path fill="white" d="M135.119,0H2.134C0.956,0,0,0.956,0,2.134v106.91c0,1.179,0.956,2.134,2.134,2.134h132.985
		c1.179,0,2.134-0.955,2.134-2.134V2.134C137.253,0.956,136.298,0,135.119,0z M132.985,4.268v22.459H4.268V4.268H132.985z
		 M4.268,106.91V30.995h128.718v75.916H4.268z"/>
	<path fill="white" d="M21.94,74.931c0.985,0.802,2.249,1.202,3.789,1.202c1.402,0,2.503-0.169,3.305-0.509c0.955-0.4,1.433-0.809,1.433-1.225
		c0-0.6-0.301-0.9-0.901-0.9c-0.216,0-0.655,0.131-1.317,0.393c-0.74,0.293-1.556,0.439-2.45,0.439
		c-0.863,0-1.633-0.239-2.311-0.717c-0.771-0.539-1.317-1.324-1.641-2.357c-0.308-0.97-0.462-1.994-0.462-3.072
		c0-1.895,0.354-3.366,1.063-4.414c0.786-1.17,1.917-1.756,3.396-1.756c0.647,0,1.355,0.139,2.126,0.416
		c0.631,0.23,1.032,0.347,1.202,0.347c0.601,0,0.901-0.308,0.901-0.925c0-0.462-0.424-0.862-1.271-1.201
		c-0.755-0.293-1.725-0.439-2.911-0.439c-2.172,0-3.805,0.752-4.899,2.254s-1.641,3.408-1.641,5.719c0,1.51,0.239,2.865,0.716,4.066
		C20.53,73.392,21.154,74.284,21.94,74.931z"/>
	<path fill="white" d="M41.165,60.859c-0.292-0.323-0.693-0.485-1.201-0.485s-0.901,0.162-1.179,0.485c-0.216,0.247-0.455,0.731-0.716,1.456
		L33.725,74.47c-0.093,0.262-0.139,0.484-0.139,0.67c0,0.57,0.277,0.854,0.832,0.854c0.339,0,0.585-0.077,0.74-0.231
		c0.092-0.107,0.2-0.346,0.323-0.716l1.271-3.743h6.285l1.271,3.766c0.123,0.34,0.25,0.578,0.381,0.717s0.358,0.208,0.682,0.208
		c0.631,0,0.947-0.277,0.947-0.831c0-0.201-0.046-0.432-0.139-0.693l-4.298-12.154C41.634,61.591,41.396,61.106,41.165,60.859z
		 M37.329,69.616l2.588-7.648l2.565,7.648H37.329z"/>
	<path fill="white" d="M51.978,60.513c-0.354,0-0.635,0.104-0.843,0.312c-0.208,0.207-0.312,0.504-0.312,0.889v13.217
		c0,0.309,0.088,0.562,0.266,0.764c0.177,0.199,0.404,0.3,0.682,0.3s0.508-0.101,0.693-0.3c0.185-0.201,0.277-0.455,0.277-0.764
		v-5.43h2.38c1.463,0,2.634-0.424,3.512-1.271s1.317-1.918,1.317-3.212c0-1.355-0.401-2.445-1.202-3.27
		c-0.801-0.824-1.911-1.236-3.328-1.236H51.978z M57.939,65.019c0,0.816-0.231,1.486-0.693,2.01
		c-0.493,0.57-1.148,0.855-1.964,0.855h-2.542V62.13h2.611c0.801,0,1.433,0.266,1.895,0.797
		C57.708,63.459,57.939,64.156,57.939,65.019z"/>
	<path fill="white" d="M66.258,75.833h7.21c0.23,0,0.423-0.085,0.577-0.255c0.153-0.169,0.231-0.37,0.231-0.601s-0.078-0.432-0.231-0.601
		c-0.154-0.169-0.347-0.255-0.577-0.255h-6.401v-5.545h5.823c0.23,0,0.424-0.084,0.578-0.254c0.153-0.17,0.23-0.37,0.23-0.602
		c0-0.23-0.077-0.431-0.23-0.601c-0.154-0.169-0.348-0.254-0.578-0.254h-5.823v-4.645h6.169c0.232,0,0.424-0.085,0.578-0.255
		c0.154-0.168,0.231-0.369,0.231-0.6c0-0.231-0.077-0.432-0.231-0.602c-0.154-0.169-0.346-0.254-0.578-0.254h-6.978
		c-0.354,0-0.632,0.101-0.832,0.301s-0.3,0.492-0.3,0.878v12.963c0,0.386,0.1,0.678,0.3,0.878S65.903,75.833,66.258,75.833z"/>
	<path fill="white" d="M79.867,75.532c1.017,0.4,2.203,0.601,3.559,0.601c1.494,0,2.696-0.423,3.604-1.271s1.363-1.926,1.363-3.235
		c0-2.172-1.055-3.597-3.166-4.274l-2.426-0.785c-1.355-0.432-2.033-1.164-2.033-2.195c0-0.894,0.285-1.533,0.855-1.918
		c0.523-0.354,1.231-0.531,2.125-0.531c0.74,0,1.463,0.135,2.172,0.404s1.133,0.404,1.271,0.404c0.555,0,0.832-0.277,0.832-0.832
		c0-0.432-0.432-0.832-1.295-1.201c-0.754-0.324-1.671-0.486-2.749-0.486c-1.525,0-2.727,0.324-3.604,0.971
		c-1.018,0.756-1.525,1.811-1.525,3.166c0,1.972,1.062,3.305,3.189,3.997l2.402,0.786c1.324,0.432,1.987,1.286,1.987,2.564
		c0,0.848-0.297,1.502-0.89,1.965c-0.594,0.461-1.367,0.692-2.322,0.692c-0.678,0-1.425-0.153-2.241-0.462
		c-0.247-0.107-0.485-0.216-0.716-0.324c-0.309-0.123-0.57-0.184-0.786-0.184c-0.601,0-0.901,0.315-0.901,0.947
		C78.573,74.792,79.005,75.193,79.867,75.532z"/>
	<path fill="white" d="M21.6,48.702h40.508c1.178,0,2.134-0.956,2.134-2.134s-0.956-2.134-2.134-2.134H21.6c-1.178,0-2.134,0.956-2.134,2.134
		S20.421,48.702,21.6,48.702z"/>
	<path fill="white" d="M21.038,17.957h5.867c1.178,0,2.134-0.956,2.134-2.134s-0.956-2.134-2.134-2.134h-5.867c-1.178,0-2.134,0.956-2.134,2.134
		S19.86,17.957,21.038,17.957z"/>
	<path fill="white" d="M38.64,17.957h5.867c1.178,0,2.134-0.956,2.134-2.134s-0.956-2.134-2.134-2.134H38.64c-1.178,0-2.134,0.956-2.134,2.134
		S37.461,17.957,38.64,17.957z"/>
	<path fill="white" d="M56.24,17.957h5.867c1.178,0,2.134-0.956,2.134-2.134s-0.956-2.134-2.134-2.134H56.24c-1.178,0-2.134,0.956-2.134,2.134
		S55.062,17.957,56.24,17.957z"/>
</g>
</svg>
