<svg xmlns="http://www.w3.org/2000/svg" width="137.253" height="111.178"><g fill="#fff"><path d="M117.519 88.005h-96.48a2.134 2.134 0 0 0 0 4.268h96.48a2.133 2.133 0 1 0 0-4.268z"/><path d="M135.119 0H2.134A2.135 2.135 0 0 0 0 2.134v106.91c0 1.179.956 2.134 2.134 2.134h132.985a2.133 2.133 0 0 0 2.134-2.134V2.134A2.134 2.134 0 0 0 135.119 0zm-2.134 4.268v22.459H4.268V4.268h128.717zM4.268 106.91V30.995h128.718v75.916H4.268z"/><path d="M21.94 74.931c.985.802 2.249 1.202 3.789 1.202 1.402 0 2.503-.169 3.305-.509.955-.4 1.433-.809 1.433-1.225 0-.6-.301-.9-.901-.9-.216 0-.655.131-1.317.393-.74.293-1.556.439-2.45.439a3.912 3.912 0 0 1-2.311-.717c-.771-.539-1.317-1.324-1.641-2.357a10.09 10.09 0 0 1-.462-3.072c0-1.895.354-3.366 1.063-4.414.786-1.17 1.917-1.756 3.396-1.756.647 0 1.355.139 2.126.416.631.23 1.032.347 1.202.347.601 0 .901-.308.901-.925 0-.462-.424-.862-1.271-1.201-.755-.293-1.725-.439-2.911-.439-2.172 0-3.805.752-4.899 2.254s-1.641 3.408-1.641 5.719c0 1.51.239 2.865.716 4.066.463 1.14 1.087 2.032 1.873 2.679zM41.165 60.859c-.292-.323-.693-.485-1.201-.485s-.901.162-1.179.485c-.216.247-.455.731-.716 1.456L33.725 74.47a2.057 2.057 0 0 0-.139.67c0 .57.277.854.832.854.339 0 .585-.077.74-.231.092-.107.2-.346.323-.716l1.271-3.743h6.285l1.271 3.766c.123.34.25.578.381.717s.358.208.682.208c.631 0 .947-.277.947-.831 0-.201-.046-.432-.139-.693l-4.298-12.154c-.247-.726-.485-1.211-.716-1.458zm-3.836 8.757l2.588-7.648 2.565 7.648h-5.153zM51.978 60.513c-.354 0-.635.104-.843.312-.208.207-.312.504-.312.889v13.217c0 .309.088.562.266.764.177.199.404.3.682.3s.508-.101.693-.3c.185-.201.277-.455.277-.764v-5.43h2.38c1.463 0 2.634-.424 3.512-1.271s1.317-1.918 1.317-3.212c0-1.355-.401-2.445-1.202-3.27-.801-.824-1.911-1.236-3.328-1.236h-3.442zm5.961 4.506c0 .816-.231 1.486-.693 2.01-.493.57-1.148.855-1.964.855H52.74V62.13h2.611c.801 0 1.433.266 1.895.797.462.532.693 1.229.693 2.092zM66.258 75.833h7.21c.23 0 .423-.085.577-.255.153-.169.231-.37.231-.601s-.078-.432-.231-.601a.75.75 0 0 0-.577-.255h-6.401v-5.545h5.823c.23 0 .424-.084.578-.254a.87.87 0 0 0 .23-.602.87.87 0 0 0-.23-.601.752.752 0 0 0-.578-.254h-5.823V62.22h6.169a.746.746 0 0 0 .578-.255.86.86 0 0 0 .231-.6.868.868 0 0 0-.231-.602.749.749 0 0 0-.578-.254h-6.978c-.354 0-.632.101-.832.301s-.3.492-.3.878v12.963c0 .386.1.678.3.878s.477.304.832.304zM79.867 75.532c1.017.4 2.203.601 3.559.601 1.494 0 2.696-.423 3.604-1.271s1.363-1.926 1.363-3.235c0-2.172-1.055-3.597-3.166-4.274l-2.426-.785c-1.355-.432-2.033-1.164-2.033-2.195 0-.894.285-1.533.855-1.918.523-.354 1.231-.531 2.125-.531.74 0 1.463.135 2.172.404s1.133.404 1.271.404c.555 0 .832-.277.832-.832 0-.432-.432-.832-1.295-1.201-.754-.324-1.671-.486-2.749-.486-1.525 0-2.727.324-3.604.971-1.018.756-1.525 1.811-1.525 3.166 0 1.972 1.062 3.305 3.189 3.997l2.402.786c1.324.432 1.987 1.286 1.987 2.564 0 .848-.297 1.502-.89 1.965-.594.461-1.367.692-2.322.692-.678 0-1.425-.153-2.241-.462a27.42 27.42 0 0 1-.716-.324c-.309-.123-.57-.184-.786-.184-.601 0-.901.315-.901.947.001.461.433.862 1.295 1.201zM21.6 48.702h40.508a2.135 2.135 0 0 0 0-4.268H21.6a2.135 2.135 0 0 0 0 4.268zM21.038 17.957h5.867a2.135 2.135 0 0 0 0-4.268h-5.867a2.135 2.135 0 0 0 0 4.268zM38.64 17.957h5.867a2.135 2.135 0 0 0 0-4.268H38.64a2.135 2.135 0 0 0 0 4.268zM56.24 17.957h5.867a2.135 2.135 0 0 0 0-4.268H56.24a2.135 2.135 0 0 0 0 4.268z"/></g></svg>