<svg xmlns="http://www.w3.org/2000/svg" width="137.253" height="111.178"><g fill="#fff"><path d="M135.119 0H2.134A2.135 2.135 0 0 0 0 2.134v106.91c0 1.179.956 2.134 2.134 2.134h132.985a2.133 2.133 0 0 0 2.134-2.134V2.134A2.134 2.134 0 0 0 135.119 0zm-2.134 4.268v22.459H4.268V4.268h128.717zM4.268 106.91V30.995h128.718v75.916H4.268z"/><path d="M19.734 17.957h5.867a2.135 2.135 0 0 0 0-4.268h-5.867a2.135 2.135 0 0 0 0 4.268zM37.336 17.957h5.867a2.135 2.135 0 0 0 0-4.268h-5.867a2.135 2.135 0 0 0 0 4.268zM54.938 17.957h5.866a2.135 2.135 0 0 0 0-4.268h-5.866a2.135 2.135 0 0 0 0 4.268zM61.436 74.922H18.992a2.134 2.134 0 0 0 0 4.268h42.443a2.134 2.134 0 0 0 .001-4.268zM61.436 89.961H18.992a2.134 2.134 0 0 0 0 4.268h42.443a2.134 2.134 0 0 0 .001-4.268zM24.403 62.331c1.694 0 3.069-.48 4.125-1.443s1.583-2.254 1.583-3.871v-9.404a1.07 1.07 0 0 0-.289-.751c-.193-.208-.427-.312-.705-.312s-.512.104-.705.312a1.064 1.064 0 0 0-.289.751v9.174c0 1.278-.37 2.256-1.109 2.934-.663.586-1.533.879-2.611.879-1.094 0-1.964-.301-2.611-.902-.74-.662-1.109-1.632-1.109-2.91v-9.174c0-.292-.096-.543-.289-.751-.193-.208-.428-.312-.705-.312s-.512.104-.705.312a1.064 1.064 0 0 0-.289.751v9.404c0 1.617.528 2.908 1.583 3.871s2.43 1.442 4.125 1.442zM37.296 62.192c.277 0 .508-.1.693-.301.185-.199.277-.446.277-.738v-6.147h5.292a.748.748 0 0 0 .578-.254c.154-.169.231-.37.231-.601s-.077-.431-.231-.601a.75.75 0 0 0-.578-.254h-5.292v-4.875h6.169a.747.747 0 0 0 .578-.254c.154-.169.231-.37.231-.601s-.078-.431-.231-.601-.346-.254-.578-.254h-6.978c-.354 0-.632.101-.832.3-.2.201-.3.493-.3.878v13.264c0 .292.092.539.277.738a.903.903 0 0 0 .694.301zM51.807 61.153c1.001.785 2.233 1.178 3.697 1.178 1.833 0 3.266-.539 4.298-1.617.893-.939 1.34-2.072 1.34-3.396V54.66a1.21 1.21 0 0 0-.289-.82c-.193-.223-.497-.335-.913-.335h-3.558a.797.797 0 0 0-.578.254.845.845 0 0 0-.254.624c0 .247.084.455.254.624a.797.797 0 0 0 .578.254h2.772v2.125c0 .986-.331 1.768-.993 2.346-.663.578-1.548.867-2.657.867-.74 0-1.414-.205-2.022-.613a4.195 4.195 0 0 1-1.421-1.605c-.554-1.094-.832-2.411-.832-3.951 0-1.956.354-3.466 1.063-4.529.754-1.125 1.856-1.687 3.304-1.687.77 0 1.533.17 2.288.508.539.247.97.37 1.294.37.631 0 .947-.308.947-.924 0-.446-.416-.839-1.248-1.178-.924-.385-1.987-.578-3.189-.578-2.141 0-3.805.801-4.991 2.403-1.001 1.356-1.502 3.212-1.502 5.569.001 3.156.871 5.414 2.612 6.769zM119.475 74.922H77.031a2.133 2.133 0 1 0 0 4.268h42.443a2.133 2.133 0 1 0 .001-4.268zM119.475 89.961H77.031a2.133 2.133 0 1 0 0 4.268h42.443a2.133 2.133 0 1 0 .001-4.268z"/></g></svg>