
<svg version="1.1" xmlns="http://www.w3.org/2000/svg" xmlns:xlink="http://www.w3.org/1999/xlink" x="0px" y="0px"
	 width="137.253px" height="111.178px" viewBox="0 0 137.253 111.178" enable-background="new 0 0 137.253 111.178"
	 xml:space="preserve">
<g>
	<path d="M135.119,0H2.134C0.956,0,0,0.956,0,2.134v106.91c0,1.179,0.956,2.134,2.134,2.134h132.985
		c1.179,0,2.134-0.955,2.134-2.134V2.134C137.253,0.956,136.298,0,135.119,0z M132.985,4.268v22.459H4.268V4.268H132.985z
		 M4.268,106.91V30.995h128.718v75.916H4.268z"/>
	<path d="M19.734,17.957h5.867c1.178,0,2.134-0.956,2.134-2.134s-0.956-2.134-2.134-2.134h-5.867c-1.178,0-2.134,0.956-2.134,2.134
		S18.556,17.957,19.734,17.957z"/>
	<path d="M37.336,17.957h5.867c1.178,0,2.134-0.956,2.134-2.134s-0.956-2.134-2.134-2.134h-5.867c-1.178,0-2.134,0.956-2.134,2.134
		S36.158,17.957,37.336,17.957z"/>
	<path d="M54.938,17.957h5.866c1.178,0,2.134-0.956,2.134-2.134s-0.956-2.134-2.134-2.134h-5.866c-1.178,0-2.134,0.956-2.134,2.134
		S53.759,17.957,54.938,17.957z"/>
	<path d="M61.436,74.922H18.992c-1.178,0-2.134,0.955-2.134,2.134s0.956,2.134,2.134,2.134h42.443c1.178,0,2.134-0.955,2.134-2.134
		S62.614,74.922,61.436,74.922z"/>
	<path d="M61.436,89.961H18.992c-1.178,0-2.134,0.955-2.134,2.134s0.956,2.134,2.134,2.134h42.443c1.178,0,2.134-0.955,2.134-2.134
		S62.614,89.961,61.436,89.961z"/>
	<path d="M24.403,62.331c1.694,0,3.069-0.48,4.125-1.443s1.583-2.254,1.583-3.871v-9.404c0-0.292-0.097-0.543-0.289-0.751
		c-0.193-0.208-0.427-0.312-0.705-0.312s-0.512,0.104-0.705,0.312c-0.193,0.208-0.289,0.458-0.289,0.751v9.174
		c0,1.278-0.37,2.256-1.109,2.934c-0.663,0.586-1.533,0.879-2.611,0.879c-1.094,0-1.964-0.301-2.611-0.902
		c-0.74-0.662-1.109-1.632-1.109-2.91v-9.174c0-0.292-0.096-0.543-0.289-0.751c-0.193-0.208-0.428-0.312-0.705-0.312
		s-0.512,0.104-0.705,0.312c-0.193,0.208-0.289,0.458-0.289,0.751v9.404c0,1.617,0.528,2.908,1.583,3.871
		S22.708,62.331,24.403,62.331z"/>
	<path d="M37.296,62.192c0.277,0,0.508-0.1,0.693-0.301c0.185-0.199,0.277-0.446,0.277-0.738v-6.147h5.292
		c0.231,0,0.423-0.084,0.578-0.254c0.154-0.169,0.231-0.37,0.231-0.601s-0.077-0.431-0.231-0.601
		c-0.154-0.169-0.347-0.254-0.578-0.254h-5.292v-4.875h6.169c0.231,0,0.424-0.084,0.578-0.254c0.154-0.169,0.231-0.37,0.231-0.601
		s-0.078-0.431-0.231-0.601s-0.346-0.254-0.578-0.254h-6.978c-0.354,0-0.632,0.101-0.832,0.3c-0.2,0.201-0.3,0.493-0.3,0.878v13.264
		c0,0.292,0.092,0.539,0.277,0.738C36.788,62.093,37.019,62.192,37.296,62.192z"/>
	<path d="M51.807,61.153c1.001,0.785,2.233,1.178,3.697,1.178c1.833,0,3.266-0.539,4.298-1.617c0.893-0.939,1.34-2.072,1.34-3.396
		V54.66c0-0.323-0.096-0.597-0.289-0.82c-0.193-0.223-0.497-0.335-0.913-0.335h-3.558c-0.216,0-0.409,0.085-0.578,0.254
		c-0.17,0.169-0.254,0.377-0.254,0.624c0,0.247,0.084,0.455,0.254,0.624c0.169,0.169,0.362,0.254,0.578,0.254h2.772v2.125
		c0,0.986-0.331,1.768-0.993,2.346c-0.663,0.578-1.548,0.867-2.657,0.867c-0.74,0-1.414-0.205-2.022-0.613
		c-0.609-0.408-1.083-0.943-1.421-1.605c-0.554-1.094-0.832-2.411-0.832-3.951c0-1.956,0.354-3.466,1.063-4.529
		c0.754-1.125,1.856-1.687,3.304-1.687c0.77,0,1.533,0.17,2.288,0.508c0.539,0.247,0.97,0.37,1.294,0.37
		c0.631,0,0.947-0.308,0.947-0.924c0-0.446-0.416-0.839-1.248-1.178c-0.924-0.385-1.987-0.578-3.189-0.578
		c-2.141,0-3.805,0.801-4.991,2.403c-1.001,1.356-1.502,3.212-1.502,5.569C49.196,57.54,50.066,59.798,51.807,61.153z"/>
	<path d="M119.475,74.922H77.031c-1.179,0-2.134,0.955-2.134,2.134s0.955,2.134,2.134,2.134h42.443c1.179,0,2.134-0.955,2.134-2.134
		S120.653,74.922,119.475,74.922z"/>
	<path d="M119.475,89.961H77.031c-1.179,0-2.134,0.955-2.134,2.134s0.955,2.134,2.134,2.134h42.443c1.179,0,2.134-0.955,2.134-2.134
		S120.653,89.961,119.475,89.961z"/>
</g>
</svg>
