<svg xmlns="http://www.w3.org/2000/svg" width="138.462" height="112.386"><g fill="#fff"><path d="M135.724 0H2.738A2.74 2.74 0 0 0 0 2.738v106.91a2.74 2.74 0 0 0 2.738 2.738h132.986a2.741 2.741 0 0 0 2.738-2.738V2.738A2.74 2.74 0 0 0 135.724 0zM5.476 26.727V5.476h127.51v21.251H5.476zm127.51 5.476v74.707H5.476V32.203h127.51z"/><path d="M26.207 13.689H20.34c-1.51 0-2.738 1.228-2.738 2.738s1.228 2.738 2.738 2.738h5.867c1.51 0 2.738-1.228 2.738-2.738s-1.229-2.738-2.738-2.738zM43.807 13.689H37.94c-1.51 0-2.738 1.228-2.738 2.738s1.228 2.738 2.738 2.738h5.867c1.51 0 2.738-1.228 2.738-2.738s-1.228-2.738-2.738-2.738zM61.408 13.689h-5.867c-1.51 0-2.738 1.228-2.738 2.738s1.228 2.738 2.738 2.738h5.867c1.51 0 2.738-1.228 2.738-2.738s-1.229-2.738-2.738-2.738zM21.522 82.108c.734 0 1.298-.191 1.706-.602.214-.248.418-.684.66-1.408l2.006-5.908h9.742l2.011 5.959c.239.656.491 1.12.771 1.417.343.364.864.542 1.591.542 1.4 0 2.203-.732 2.203-2.009 0-.406-.09-.867-.269-1.371l-7.252-20.509c-.448-1.317-.887-2.192-1.333-2.668-.611-.676-1.444-1.018-2.477-1.018-1.039 0-1.862.347-2.443 1.025-.418.477-.851 1.344-1.324 2.652l-7.333 20.518c-.181.511-.269.947-.269 1.332.002 1.301.734 2.048 2.01 2.048zm5.756-11.975l3.524-10.412 3.492 10.412h-7.016zM50.773 81.834h7.878c2.753 0 4.958-.808 6.559-2.408 1.432-1.489 2.158-3.415 2.158-5.724 0-3.162-1.252-5.318-3.727-6.429 1.802-1.197 2.713-3.147 2.713-5.818 0-2.021-.72-3.665-2.141-4.885-1.394-1.196-3.251-1.803-5.522-1.803h-7.917c-.771 0-1.392.249-1.847.739-.444.478-.668 1.102-.668 1.854v21.88c0 .753.225 1.377.667 1.854.454.491 1.076.74 1.847.74zm11.955-8.209c0 1.283-.354 2.283-1.077 3.05-.799.821-1.908 1.221-3.389 1.221h-5.559v-8.463h5.52c1.438 0 2.526.372 3.327 1.139.792.758 1.178 1.757 1.178 3.053zm-1.788-9.15c-.64.686-1.542 1.018-2.757 1.018h-5.48v-6.787h5.52c2.488 0 3.647 1.034 3.647 3.257 0 1.064-.3 1.881-.93 2.512zM78.714 81.405c.416-.451.628-1.022.628-1.696v-8.971c0-3.108-.051-5.848-.149-8.184a159.971 159.971 0 0 0 2.958 5.595l6.901 12.244c.625 1.121 1.59 1.715 2.791 1.715 1.573 0 2.476-.903 2.476-2.478V56.892c0-.674-.211-1.244-.628-1.697-.848-.918-2.381-.917-3.229.001-.416.452-.628 1.023-.628 1.696v9.01c0 3.21.04 5.924.118 8.111a104.335 104.335 0 0 0-2.927-5.561l-6.901-12.244c-.624-1.122-1.589-1.715-2.791-1.715-1.573 0-2.476.902-2.476 2.476v22.738c0 .675.211 1.245.628 1.697.852.922 2.385.92 3.229.001zM102.49 58.862h6.221v20.886c0 .653.221 1.215.656 1.667.442.46.989.693 1.625.693.637 0 1.184-.233 1.625-.693.436-.453.657-1.014.657-1.667V58.862h6.182c.552 0 1.047-.213 1.433-.616.382-.401.576-.883.576-1.431 0-.547-.194-1.029-.577-1.432a1.94 1.94 0 0 0-1.432-.615H102.49c-.526 0-1.008.213-1.393.616a2.012 2.012 0 0 0-.577 1.431c0 .543.185 1.022.547 1.419.371.41.863.628 1.423.628z"/></g></svg>