
<svg version="1.1" xmlns="http://www.w3.org/2000/svg" xmlns:xlink="http://www.w3.org/1999/xlink" x="0px" y="0px"
	 width="138.462px" height="112.386px" viewBox="0 0 138.462 112.386" enable-background="new 0 0 138.462 112.386"
	 xml:space="preserve">
<g>
	<path fill="white" d="M135.724,0H2.738C1.228,0,0,1.228,0,2.738v106.91c0,1.51,1.228,2.738,2.738,2.738h132.986c1.51,0,2.738-1.229,2.738-2.738
		V2.738C138.462,1.228,137.234,0,135.724,0z M5.476,26.727V5.476h127.51v21.251H5.476z M132.986,32.203v74.707H5.476V32.203H132.986
		z"/>
	<path fill="white" d="M26.207,13.689h-5.867c-1.51,0-2.738,1.228-2.738,2.738s1.228,2.738,2.738,2.738h5.867c1.51,0,2.738-1.228,2.738-2.738
		S27.716,13.689,26.207,13.689z"/>
	<path fill="white" d="M43.807,13.689H37.94c-1.51,0-2.738,1.228-2.738,2.738s1.228,2.738,2.738,2.738h5.867c1.51,0,2.738-1.228,2.738-2.738
		S45.317,13.689,43.807,13.689z"/>
	<path fill="white" d="M61.408,13.689h-5.867c-1.51,0-2.738,1.228-2.738,2.738s1.228,2.738,2.738,2.738h5.867c1.51,0,2.738-1.228,2.738-2.738
		S62.917,13.689,61.408,13.689z"/>
	<path fill="white" d="M21.522,82.108c0.734,0,1.298-0.191,1.706-0.602c0.214-0.248,0.418-0.684,0.66-1.408l2.006-5.908h9.742l2.011,5.959
		c0.239,0.656,0.491,1.12,0.771,1.417c0.343,0.364,0.864,0.542,1.591,0.542c1.4,0,2.203-0.732,2.203-2.009
		c0-0.406-0.09-0.867-0.269-1.371l-7.252-20.509c-0.448-1.317-0.887-2.192-1.333-2.668c-0.611-0.676-1.444-1.018-2.477-1.018
		c-1.039,0-1.862,0.347-2.443,1.025c-0.418,0.477-0.851,1.344-1.324,2.652l-7.333,20.518c-0.181,0.511-0.269,0.947-0.269,1.332
		C19.514,81.361,20.246,82.108,21.522,82.108z M27.278,70.133l3.524-10.412l3.492,10.412H27.278z"/>
	<path fill="white" d="M50.773,81.834h7.878c2.753,0,4.958-0.808,6.559-2.408c1.432-1.489,2.158-3.415,2.158-5.724
		c0-3.162-1.252-5.318-3.727-6.429c1.802-1.197,2.713-3.147,2.713-5.818c0-2.021-0.72-3.665-2.141-4.885
		c-1.394-1.196-3.251-1.803-5.522-1.803h-7.917c-0.771,0-1.392,0.249-1.847,0.739c-0.444,0.478-0.668,1.102-0.668,1.854v21.88
		c0,0.753,0.225,1.377,0.667,1.854C49.38,81.585,50.002,81.834,50.773,81.834z M62.728,73.625c0,1.283-0.354,2.283-1.077,3.05
		c-0.799,0.821-1.908,1.221-3.389,1.221h-5.559v-8.463h5.52c1.438,0,2.526,0.372,3.327,1.139
		C62.342,71.33,62.728,72.329,62.728,73.625z M60.94,64.475c-0.64,0.686-1.542,1.018-2.757,1.018h-5.48v-6.787h5.52
		c2.488,0,3.647,1.034,3.647,3.257C61.87,63.027,61.57,63.844,60.94,64.475z"/>
	<path fill="white" d="M78.714,81.405c0.416-0.451,0.628-1.022,0.628-1.696v-8.971c0-3.108-0.051-5.848-0.149-8.184
		c1.07,2.114,2.062,3.988,2.958,5.595l6.901,12.244c0.625,1.121,1.59,1.715,2.791,1.715c1.573,0,2.476-0.903,2.476-2.478V56.892
		c0-0.674-0.211-1.244-0.628-1.697c-0.848-0.918-2.381-0.917-3.229,0.001c-0.416,0.452-0.628,1.023-0.628,1.696v9.01
		c0,3.21,0.04,5.924,0.118,8.111c-0.977-1.991-1.957-3.854-2.927-5.561l-6.901-12.244c-0.624-1.122-1.589-1.715-2.791-1.715
		c-1.573,0-2.476,0.902-2.476,2.476v22.738c0,0.675,0.211,1.245,0.628,1.697C76.337,82.326,77.87,82.324,78.714,81.405z"/>
	<path fill="white" d="M102.49,58.862h6.221v20.886c0,0.653,0.221,1.215,0.656,1.667c0.442,0.46,0.989,0.693,1.625,0.693
		c0.637,0,1.184-0.233,1.625-0.693c0.436-0.453,0.657-1.014,0.657-1.667V58.862h6.182c0.552,0,1.047-0.213,1.433-0.616
		c0.382-0.401,0.576-0.883,0.576-1.431c0-0.547-0.194-1.029-0.577-1.432c-0.386-0.403-0.88-0.615-1.432-0.615H102.49
		c-0.526,0-1.008,0.213-1.393,0.616c-0.383,0.401-0.577,0.883-0.577,1.431c0,0.543,0.185,1.022,0.547,1.419
		C101.438,58.644,101.93,58.862,102.49,58.862z"/>
</g>
</svg>
