
<svg version="1.1" xmlns="http://www.w3.org/2000/svg" xmlns:xlink="http://www.w3.org/1999/xlink" x="0px" y="0px"
	 width="137.253px" height="111.178px" viewBox="0 0 137.253 111.178" enable-background="new 0 0 137.253 111.178"
	 xml:space="preserve">
<g>
	<path fill="white" d="M135.119,0H2.134C0.956,0,0,0.956,0,2.134v106.91c0,1.179,0.956,2.134,2.134,2.134h132.985
		c1.179,0,2.134-0.955,2.134-2.134V2.134C137.253,0.956,136.298,0,135.119,0z M132.985,4.268v22.459H4.268V4.268H132.985z
		 M4.268,106.91V30.995h128.718v75.916H4.268z"/>
	<path fill="white" d="M19.735,17.957h5.866c1.178,0,2.134-0.956,2.134-2.134s-0.956-2.134-2.134-2.134h-5.866c-1.178,0-2.134,0.956-2.134,2.134
		S18.557,17.957,19.735,17.957z"/>
	<path fill="white" d="M37.336,17.957h5.867c1.178,0,2.134-0.956,2.134-2.134s-0.956-2.134-2.134-2.134h-5.867c-1.178,0-2.134,0.956-2.134,2.134
		S36.158,17.957,37.336,17.957z"/>
	<path fill="white" d="M54.938,17.957h5.867c1.178,0,2.134-0.956,2.134-2.134s-0.956-2.134-2.134-2.134h-5.867c-1.178,0-2.134,0.956-2.134,2.134
		S53.759,17.957,54.938,17.957z"/>
	<path fill="white" d="M85.222,57.726l-15.399-8.889c-0.66-0.382-1.473-0.381-2.133,0l-15.398,8.889c-0.66,0.381-1.067,1.085-1.067,1.848v17.78
		c0,0.763,0.407,1.467,1.067,1.848l15.398,8.89c0.33,0.19,0.699,0.286,1.067,0.286s0.736-0.096,1.066-0.286l15.399-8.89
		c0.66-0.381,1.067-1.085,1.067-1.848v-17.78C86.289,58.811,85.882,58.106,85.222,57.726z M68.756,53.147L79.2,59.177l-10.513,5.256
		l-10.899-4.954L68.756,53.147z M68.756,83.779l-13.265-7.657v-13l12.357,5.616c0.281,0.128,0.582,0.191,0.883,0.191
		c0.327,0,0.654-0.075,0.954-0.226l12.336-6.168v13.586L68.756,83.779z"/>
	<path fill="white" d="M43.248,64.662h-18.36l2.591-3.238c0.736-0.92,0.587-2.263-0.333-2.999c-0.921-0.736-2.264-0.587-2.999,0.333l-5.365,6.705
		c-0.02,0.024-0.033,0.052-0.052,0.077c-0.033,0.046-0.064,0.093-0.094,0.142c-0.04,0.064-0.075,0.13-0.107,0.198
		c-0.024,0.049-0.046,0.098-0.066,0.149c-0.03,0.077-0.052,0.154-0.073,0.233c-0.012,0.047-0.027,0.093-0.036,0.141
		c-0.024,0.128-0.039,0.257-0.039,0.386c0,0.002,0,0.005,0,0.007s0,0.005,0,0.007c0,0.129,0.015,0.258,0.039,0.386
		c0.009,0.048,0.023,0.094,0.036,0.141c0.021,0.079,0.043,0.156,0.073,0.233c0.02,0.052,0.042,0.101,0.066,0.149
		c0.032,0.068,0.068,0.134,0.107,0.198c0.03,0.049,0.061,0.096,0.094,0.142c0.019,0.025,0.032,0.053,0.052,0.077l5.365,6.707
		c0.421,0.526,1.042,0.801,1.667,0.801c0.467,0,0.938-0.153,1.332-0.468c0.92-0.736,1.069-2.079,0.333-2.999l-2.592-3.24h18.36
		c1.178,0,2.134-0.955,2.134-2.134S44.426,64.662,43.248,64.662z"/>
	<path fill="white" d="M118.932,67.715c0.024-0.051,0.048-0.102,0.068-0.154c0.029-0.074,0.051-0.15,0.07-0.227
		c0.014-0.049,0.028-0.097,0.038-0.147c0.022-0.12,0.035-0.241,0.036-0.363c0-0.01,0.003-0.018,0.003-0.027
		s-0.003-0.018-0.003-0.027c-0.001-0.122-0.014-0.243-0.036-0.363c-0.01-0.051-0.024-0.099-0.038-0.147
		c-0.02-0.076-0.041-0.152-0.07-0.227c-0.021-0.053-0.044-0.104-0.068-0.154c-0.031-0.066-0.066-0.131-0.104-0.193
		c-0.031-0.05-0.062-0.098-0.097-0.145c-0.018-0.024-0.031-0.052-0.051-0.076l-5.365-6.705c-0.737-0.921-2.08-1.067-2.999-0.333
		c-0.92,0.736-1.069,2.079-0.333,2.999l2.592,3.238h-18.36c-1.179,0-2.134,0.955-2.134,2.134s0.955,2.134,2.134,2.134h18.36
		l-2.592,3.24c-0.736,0.92-0.587,2.263,0.333,2.999c0.394,0.314,0.864,0.468,1.332,0.468c0.625,0,1.246-0.274,1.667-0.801
		l5.365-6.707c0.02-0.024,0.033-0.052,0.051-0.076c0.034-0.047,0.065-0.095,0.097-0.145C118.865,67.846,118.9,67.781,118.932,67.715
		z"/>
</g>
</svg>
