<svg xmlns="http://www.w3.org/2000/svg" width="137.253" height="111.178"><g fill="#fff"><path d="M135.119 0H2.134A2.135 2.135 0 0 0 0 2.134v106.91c0 1.179.956 2.134 2.134 2.134h132.985a2.133 2.133 0 0 0 2.134-2.134V2.134A2.134 2.134 0 0 0 135.119 0zm-2.134 4.268v22.459H4.268V4.268h128.717zM4.268 106.91V30.995h128.718v75.916H4.268z"/><path d="M19.735 17.957h5.866a2.135 2.135 0 0 0 0-4.268h-5.866a2.135 2.135 0 0 0 0 4.268zM37.336 17.957h5.867a2.135 2.135 0 0 0 0-4.268h-5.867a2.135 2.135 0 0 0 0 4.268zM54.938 17.957h5.867a2.135 2.135 0 0 0 0-4.268h-5.867a2.135 2.135 0 0 0 0 4.268zM85.222 57.726l-15.399-8.889a2.13 2.13 0 0 0-2.133 0l-15.398 8.889a2.133 2.133 0 0 0-1.067 1.848v17.78c0 .763.407 1.467 1.067 1.848l15.398 8.89a2.14 2.14 0 0 0 2.133 0l15.399-8.89a2.133 2.133 0 0 0 1.067-1.848v-17.78c0-.763-.407-1.468-1.067-1.848zm-16.466-4.579l10.444 6.03-10.513 5.256-10.899-4.954 10.968-6.332zm0 30.632l-13.265-7.657v-13l12.357 5.616a2.128 2.128 0 0 0 1.837-.035l12.336-6.168v13.586l-13.265 7.658zM43.248 64.662h-18.36l2.591-3.238a2.134 2.134 0 0 0-3.332-2.666l-5.365 6.705c-.02.024-.033.052-.052.077a2.326 2.326 0 0 0-.267.489c-.03.077-.052.154-.073.233-.012.047-.027.093-.036.141a2.097 2.097 0 0 0-.039.386v.014c0 .129.015.258.039.386.009.048.023.094.036.141a1.678 1.678 0 0 0 .139.382 2.096 2.096 0 0 0 .201.34c.019.025.032.053.052.077l5.365 6.707a2.132 2.132 0 0 0 2.999.333 2.134 2.134 0 0 0 .333-2.999l-2.592-3.24h18.36a2.134 2.134 0 0 0 .001-4.268zM118.932 67.715c.024-.051.048-.102.068-.154.029-.074.051-.15.07-.227.014-.049.028-.097.038-.147.022-.12.035-.241.036-.363 0-.01.003-.018.003-.027l-.003-.027a2.107 2.107 0 0 0-.036-.363c-.01-.051-.024-.099-.038-.147a2.116 2.116 0 0 0-.07-.227 2.388 2.388 0 0 0-.269-.492c-.018-.024-.031-.052-.051-.076l-5.365-6.705a2.134 2.134 0 0 0-3.332 2.666l2.592 3.238h-18.36a2.133 2.133 0 1 0 0 4.268h18.36l-2.592 3.24a2.134 2.134 0 0 0 3.332 2.666l5.365-6.707c.02-.024.033-.052.051-.076.034-.047.065-.095.097-.145.037-.064.072-.129.104-.195z"/></g></svg>