<svg xmlns="http://www.w3.org/2000/svg" width="84.842" height="114.254"><path fill="#fff" d="M82.708 13.017h-7.814l-.001-10.883A2.134 2.134 0 0 0 72.759 0H2.134A2.135 2.135 0 0 0 0 2.134c0 .062.013.12.018.18-.005.061-.018.12-.018.182v95.958c0 .474.158.935.449 1.309.355.458 8.836 11.24 20.334 14.414.017.005.035.003.051.007a2.1 2.1 0 0 0 .517.07h61.357a2.133 2.133 0 0 0 2.134-2.134V15.15a2.133 2.133 0 0 0-2.134-2.133zM58.583 4.268h12.042l.001 8.749H21.425c-1.008-.078-14.642-1.268-16.855-8.749H58.583zM4.268 97.69V11.271c4.542 3.951 11.529 5.338 14.949 5.798v92.066C11.742 106.068 5.89 99.606 4.268 97.69zm76.306 12.297h-57.09V17.284h57.09v92.703z"/></svg>