
<svg version="1.1" xmlns="http://www.w3.org/2000/svg" xmlns:xlink="http://www.w3.org/1999/xlink" x="0px" y="0px"
	 width="84.842px" height="114.254px" viewBox="0 0 84.842 114.254" enable-background="new 0 0 84.842 114.254"
	 xml:space="preserve">
<path d="M82.708,13.017h-7.814L74.893,2.134C74.893,0.956,73.938,0,72.759,0H58.583h-6.368H2.134C0.956,0,0,0.956,0,2.134
	c0,0.062,0.013,0.12,0.018,0.18C0.013,2.375,0,2.434,0,2.496v95.958c0,0.474,0.158,0.935,0.449,1.309
	c0.355,0.458,8.836,11.24,20.334,14.414c0.017,0.005,0.035,0.003,0.051,0.007c0.167,0.042,0.337,0.07,0.517,0.07h61.357
	c1.179,0,2.134-0.955,2.134-2.134V15.15C84.842,13.972,83.887,13.017,82.708,13.017z M58.583,4.268h12.042l0.001,8.749H21.425
	C20.417,12.939,6.783,11.749,4.57,4.268h47.645H58.583z M4.268,97.69V11.271c4.542,3.951,11.529,5.338,14.949,5.798v92.066
	C11.742,106.068,5.89,99.606,4.268,97.69z M80.574,109.987h-57.09V17.284h57.09V109.987z"/>
</svg>
