<svg xmlns="http://www.w3.org/2000/svg" width="82.056" height="115.004"><path fill="#fff" d="M79.922 115.004H2.134A2.134 2.134 0 0 1 0 112.87V2.134C0 .956.956 0 2.134 0h77.788c1.179 0 2.134.956 2.134 2.134v110.737a2.133 2.133 0 0 1-2.134 2.133zm-75.654-4.267h73.521V4.268H4.268v106.469z"/><path fill="#fff" d="M65.661 51.91h-47.97a2.135 2.135 0 0 1-2.134-2.134V34.325c0-1.178.956-2.134 2.134-2.134h47.97c1.179 0 2.134.956 2.134 2.134v15.452a2.133 2.133 0 0 1-2.134 2.133zm-45.836-4.267h43.702V36.458H19.825v11.185zM65.661 84.102h-47.97a2.134 2.134 0 0 1 0-4.268h47.97a2.133 2.133 0 1 1 0 4.268zM35.842 21.007h-18.15a2.135 2.135 0 0 1 0-4.268h18.15a2.135 2.135 0 0 1 0 4.268zM65.661 98.266h-47.97a2.134 2.134 0 0 1 0-4.268h47.97a2.133 2.133 0 1 1 0 4.268zM65.661 69.938h-47.97a2.134 2.134 0 0 1 0-4.268h47.97a2.133 2.133 0 1 1 0 4.268z"/></svg>