
<svg version="1.1" xmlns="http://www.w3.org/2000/svg" xmlns:xlink="http://www.w3.org/1999/xlink" x="0px" y="0px"
	 width="82.056px" height="115.004px" viewBox="0 0 82.056 115.004" enable-background="new 0 0 82.056 115.004"
	 xml:space="preserve">
<g>
	<g>
		<path fill="white" d="M79.922,115.004H2.134c-1.178,0-2.134-0.955-2.134-2.134V2.134C0,0.956,0.956,0,2.134,0h77.788
			c1.179,0,2.134,0.956,2.134,2.134v110.737C82.056,114.049,81.101,115.004,79.922,115.004z M4.268,110.737h73.521V4.268H4.268
			V110.737z"/>
	</g>
	<g>
		<path fill="white" d="M65.661,51.91h-47.97c-1.178,0-2.134-0.956-2.134-2.134V34.325c0-1.178,0.956-2.134,2.134-2.134h47.97
			c1.179,0,2.134,0.956,2.134,2.134v15.452C67.795,50.955,66.84,51.91,65.661,51.91z M19.825,47.643h43.702V36.458H19.825V47.643z"
			/>
	</g>
	<g>
		<path fill="white" d="M65.661,84.102h-47.97c-1.178,0-2.134-0.955-2.134-2.134s0.956-2.134,2.134-2.134h47.97c1.179,0,2.134,0.955,2.134,2.134
			S66.84,84.102,65.661,84.102z"/>
	</g>
	<g>
		<path fill="white" d="M35.842,21.007h-18.15c-1.178,0-2.134-0.956-2.134-2.134s0.956-2.134,2.134-2.134h18.15c1.178,0,2.134,0.956,2.134,2.134
			S37.02,21.007,35.842,21.007z"/>
	</g>
	<g>
		<path fill="white" d="M65.661,98.266h-47.97c-1.178,0-2.134-0.955-2.134-2.134s0.956-2.134,2.134-2.134h47.97c1.179,0,2.134,0.955,2.134,2.134
			S66.84,98.266,65.661,98.266z"/>
	</g>
	<g>
		<path fill="white" d="M65.661,69.938h-47.97c-1.178,0-2.134-0.955-2.134-2.134s0.956-2.134,2.134-2.134h47.97c1.179,0,2.134,0.955,2.134,2.134
			S66.84,69.938,65.661,69.938z"/>
	</g>
</g>
</svg>
