
<svg version="1.1" xmlns="http://www.w3.org/2000/svg" xmlns:xlink="http://www.w3.org/1999/xlink" x="0px" y="0px"
	 width="105.827px" height="115.49px" viewBox="0 0 105.827 115.49" enable-background="new 0 0 105.827 115.49"
	 xml:space="preserve">
<g>
	<path fill="white" d="M0,102.857c0-26.766,0-53.534,0-80.3c0.055-0.089,0.137-0.17,0.159-0.268c1.189-5.113,4.406-7.851,9.235-7.853
		c3.854-0.001,7.707,0.001,11.561-0.003c0.361,0,0.721-0.033,1.126-0.053c0-1.711-0.009-3.285,0.003-4.859
		c0.021-3.092,1.125-5.675,3.422-7.445c1.2-0.925,2.691-1.399,4.051-2.077C52.5,0,75.443,0,98.387,0
		c1.736,0.575,3.391,1.286,4.742,2.706c1.438,1.508,2.139,3.41,2.698,5.415c0,33.083,0,66.166,0,99.248
		c-0.566,2.002-1.255,3.908-2.696,5.416c-1.356,1.418-3.008,2.129-4.744,2.705c-28.938,0-57.875,0-86.812,0
		c-0.151-0.07-0.298-0.177-0.456-0.207c-4.173-0.793-7.368-3.184-9.391-7.217C0.925,106.465,0.562,104.601,0,102.857z
		 M23.114,110.667c0.382,0.025,0.545,0.046,0.708,0.046c24.248,0.001,48.497,0.007,72.745-0.006c3.091-0.001,4.881-2.04,4.882-5.487
		c0.005-31.648,0.006-63.298-0.001-94.948c-0.001-3.556-1.805-5.494-5.083-5.495c-21.63-0.005-43.261-0.006-64.892,0.001
		c-3.269,0.001-5.017,1.952-5.017,5.532c0,30.032,0,60.066-0.005,90.099c0,0.787-0.025,1.578-0.107,2.359
		C26.041,105.685,24.943,108.238,23.114,110.667z M21.982,19.337c-0.174-0.055-0.27-0.111-0.364-0.111
		c-4.235-0.007-8.473-0.029-12.708,0.002c-1.281,0.01-2.418,0.512-3.319,1.565c-1.016,1.187-1.22,2.635-1.22,4.178
		C4.377,43.087,4.375,61.204,4.375,79.32c0,7.066-0.027,14.133,0.008,21.199c0.033,6.867,5.387,11.519,11.206,9.793
		c3.988-1.182,6.439-4.916,6.441-9.943c0.011-26.648,0.005-53.297,0.003-79.945C22.033,20.057,22,19.691,21.982,19.337z"/>
	<path fill="white" d="M66.142,50.529c0-4.622-0.002-9.244,0.001-13.865c0.002-2.107,0.813-3.01,2.773-3.012c8.436-0.01,16.871-0.01,25.307,0
		c1.979,0.003,2.751,0.869,2.751,3.006c0.001,9.243,0.001,18.486,0,27.73c0,2.142-0.771,3.013-2.745,3.015
		c-8.436,0.011-16.871,0.011-25.307,0c-1.98-0.002-2.778-0.922-2.779-3.121C66.141,59.697,66.142,55.113,66.142,50.529z
		 M92.568,38.601c-7.377,0-14.657,0-21.994,0c0,7.972,0,15.878,0,23.833c7.357,0,14.66,0,21.994,0
		C92.568,54.469,92.568,46.588,92.568,38.601z"/>
	<path fill="white" d="M46.203,24.078c-3.545,0-7.091,0.014-10.637-0.006c-1.72-0.01-2.836-1.446-2.426-3.051
		c0.268-1.049,1.109-1.774,2.257-1.778c7.263-0.019,14.526-0.023,21.789,0.001c1.403,0.005,2.35,1.061,2.339,2.431
		c-0.011,1.402-0.994,2.394-2.479,2.402c-3.614,0.021-7.229,0.007-10.843,0.007C46.203,24.082,46.203,24.08,46.203,24.078z"/>
	<path fill="white" d="M81.544,24.079c-3.442,0-6.884,0.005-10.326-0.007c-0.442-0.001-0.901-0.028-1.325-0.155
		c-0.962-0.289-1.524-1.174-1.521-2.271c0.002-1.096,0.571-1.965,1.535-2.262c0.358-0.11,0.746-0.147,1.12-0.147
		c7.021-0.008,14.043-0.008,21.064-0.001c0.374,0,0.761,0.034,1.121,0.137c0.939,0.271,1.578,1.193,1.601,2.233
		c0.022,1.073-0.634,2.057-1.615,2.332c-0.394,0.11-0.815,0.134-1.225,0.135C88.496,24.083,85.02,24.079,81.544,24.079z"/>
	<path fill="white" d="M46.361,33.647c3.371,0,6.742-0.004,10.113,0.005c0.443,0.001,0.899,0.021,1.329,0.127
		c1.053,0.262,1.739,1.235,1.721,2.352c-0.018,1.078-0.683,2.001-1.693,2.262c-0.429,0.11-0.885,0.135-1.328,0.136
		c-6.812,0.008-13.622,0.005-20.433,0.005c-0.172,0-0.345,0.006-0.516-0.003c-1.51-0.085-2.471-1.027-2.48-2.425
		c-0.009-1.398,0.949-2.398,2.451-2.445c1.582-0.05,3.165-0.014,4.747-0.014C42.303,33.646,44.332,33.647,46.361,33.647z"/>
	<path fill="white" d="M46.354,48.083c3.371,0,6.742-0.001,10.113,0.002c0.343,0,0.689,0,1.027,0.057c1.238,0.208,2.046,1.184,2.03,2.417
		c-0.016,1.197-0.792,2.129-1.986,2.342c-0.37,0.065-0.753,0.066-1.13,0.066c-6.742,0.004-13.484,0.004-20.227,0
		c-0.377,0-0.76-0.002-1.13-0.069c-1.204-0.218-1.966-1.138-1.978-2.347c-0.012-1.21,0.739-2.154,1.934-2.386
		c0.369-0.071,0.752-0.079,1.129-0.08C39.542,48.081,42.947,48.083,46.354,48.083z"/>
	<path fill="white" d="M46.306,62.539c3.441,0,6.884-0.004,10.325,0.006c0.443,0.002,0.901,0.025,1.326,0.148
		c0.938,0.271,1.561,1.206,1.568,2.248c0.008,1.043-0.601,1.992-1.53,2.283c-0.39,0.121-0.813,0.158-1.222,0.16
		c-6.952,0.008-13.904,0.004-20.857,0.002c-0.104,0-0.206,0.002-0.31,0c-1.538-0.033-2.552-1.018-2.532-2.458
		c0.02-1.399,1.011-2.364,2.492-2.385c1.445-0.02,2.892-0.005,4.337-0.005C42.037,62.539,44.172,62.539,46.306,62.539z"/>
	<path fill="white" d="M46.287,81.824c-3.477-0.001-6.952,0.004-10.429-0.008c-0.409,0-0.832-0.023-1.223-0.141
		c-0.927-0.275-1.556-1.225-1.562-2.262c-0.006-1.035,0.612-1.998,1.535-2.283c0.389-0.121,0.813-0.148,1.222-0.149
		c6.952-0.009,13.905-0.007,20.857-0.001c0.376,0,0.762,0.014,1.126,0.104c1.045,0.26,1.729,1.227,1.711,2.357
		c-0.016,1.084-0.682,2.006-1.686,2.266c-0.362,0.094-0.748,0.112-1.123,0.113C53.24,81.828,49.764,81.825,46.287,81.824z"/>
	<path fill="white" d="M81.533,76.974c3.544,0,7.088-0.006,10.633,0.004c1.377,0.003,2.189,0.562,2.518,1.684c0.38,1.305-0.26,2.646-1.465,3.018
		c-0.326,0.1-0.678,0.142-1.018,0.143c-7.088,0.006-14.177,0.008-21.265-0.004c-1.522-0.002-2.447-0.816-2.554-2.176
		c-0.124-1.598,0.845-2.652,2.518-2.662C74.444,76.962,77.989,76.975,81.533,76.974z"/>
	<path fill="white" d="M46.211,96.258c-3.545,0-7.091,0.016-10.636-0.007c-1.864-0.012-2.994-1.674-2.313-3.355
		c0.405-0.998,1.149-1.479,2.13-1.479c7.262-0.008,14.524-0.018,21.787,0.007c1.401,0.005,2.353,1.056,2.347,2.423
		c-0.006,1.398-0.993,2.4-2.473,2.41c-3.614,0.022-7.229,0.008-10.842,0.008C46.211,96.263,46.211,96.261,46.211,96.258z"/>
	<path fill="white" d="M81.502,96.26c-3.51-0.001-7.021,0.005-10.53-0.005c-1.403-0.004-2.288-0.648-2.544-1.803
		c-0.311-1.394,0.42-2.664,1.721-2.961c0.3-0.068,0.615-0.078,0.923-0.078c7.02-0.004,14.039-0.008,21.059,0
		c1.946,0.002,3.079,1.443,2.546,3.191c-0.339,1.108-1.16,1.652-2.542,1.654C88.59,96.265,85.045,96.261,81.502,96.26z"/>
</g>
</svg>
