<svg xmlns="http://www.w3.org/2000/svg" width="105.827" height="115.49"><g fill="#fff"><path d="M0 102.857v-80.3c.055-.089.137-.17.159-.268 1.189-5.113 4.406-7.851 9.235-7.853 3.854-.001 7.707.001 11.561-.003.361 0 .721-.033 1.126-.053 0-1.711-.009-3.285.003-4.859.021-3.092 1.125-5.675 3.422-7.445 1.2-.925 2.691-1.399 4.051-2.077L98.387 0c1.736.575 3.391 1.286 4.742 2.706 1.438 1.508 2.139 3.41 2.698 5.415v99.248c-.566 2.002-1.255 3.908-2.696 5.416-1.356 1.418-3.008 2.129-4.744 2.705H11.575c-.151-.07-.298-.177-.456-.207-4.173-.793-7.368-3.184-9.391-7.217-.803-1.601-1.166-3.465-1.728-5.209zm23.114 7.81c.382.025.545.046.708.046 24.248.001 48.497.007 72.745-.006 3.091-.001 4.881-2.04 4.882-5.487.005-31.648.006-63.298-.001-94.948-.001-3.556-1.805-5.494-5.083-5.495-21.63-.005-43.261-.006-64.892.001-3.269.001-5.017 1.952-5.017 5.532 0 30.032 0 60.066-.005 90.099 0 .787-.025 1.578-.107 2.359-.303 2.917-1.401 5.47-3.23 7.899zm-1.132-91.33c-.174-.055-.27-.111-.364-.111-4.235-.007-8.473-.029-12.708.002-1.281.01-2.418.512-3.319 1.565-1.016 1.187-1.22 2.635-1.22 4.178.006 18.116.004 36.233.004 54.349 0 7.066-.027 14.133.008 21.199.033 6.867 5.387 11.519 11.206 9.793 3.988-1.182 6.439-4.916 6.441-9.943.011-26.648.005-53.297.003-79.945 0-.367-.033-.733-.051-1.087z"/><path d="M66.142 50.529c0-4.622-.002-9.244.001-13.865.002-2.107.813-3.01 2.773-3.012 8.436-.01 16.871-.01 25.307 0 1.979.003 2.751.869 2.751 3.006v27.73c0 2.142-.771 3.013-2.745 3.015-8.436.011-16.871.011-25.307 0-1.98-.002-2.778-.922-2.779-3.121-.002-4.585-.001-9.169-.001-13.753zm26.426-11.928H70.574v23.833h21.994V38.601zM46.203 24.078c-3.545 0-7.091.014-10.637-.006-1.72-.01-2.836-1.446-2.426-3.051.268-1.049 1.109-1.774 2.257-1.778 7.263-.019 14.526-.023 21.789.001 1.403.005 2.35 1.061 2.339 2.431-.011 1.402-.994 2.394-2.479 2.402-3.614.021-7.229.007-10.843.007v-.006zM81.544 24.079c-3.442 0-6.884.005-10.326-.007-.442-.001-.901-.028-1.325-.155-.962-.289-1.524-1.174-1.521-2.271.002-1.096.571-1.965 1.535-2.262.358-.11.746-.147 1.12-.147 7.021-.008 14.043-.008 21.064-.001.374 0 .761.034 1.121.137.939.271 1.578 1.193 1.601 2.233.022 1.073-.634 2.057-1.615 2.332-.394.11-.815.134-1.225.135-3.477.01-6.953.006-10.429.006zM46.361 33.647c3.371 0 6.742-.004 10.113.005.443.001.899.021 1.329.127 1.053.262 1.739 1.235 1.721 2.352-.018 1.078-.683 2.001-1.693 2.262-.429.11-.885.135-1.328.136-6.812.008-13.622.005-20.433.005-.172 0-.345.006-.516-.003-1.51-.085-2.471-1.027-2.48-2.425-.009-1.398.949-2.398 2.451-2.445 1.582-.05 3.165-.014 4.747-.014h6.089zM46.354 48.083c3.371 0 6.742-.001 10.113.002.343 0 .689 0 1.027.057 1.238.208 2.046 1.184 2.03 2.417-.016 1.197-.792 2.129-1.986 2.342-.37.065-.753.066-1.13.066-6.742.004-13.484.004-20.227 0-.377 0-.76-.002-1.13-.069-1.204-.218-1.966-1.138-1.978-2.347-.012-1.21.739-2.154 1.934-2.386.369-.071.752-.079 1.129-.08 3.406-.004 6.811-.002 10.218-.002zM46.306 62.539c3.441 0 6.884-.004 10.325.006.443.002.901.025 1.326.148.938.271 1.561 1.206 1.568 2.248.008 1.043-.601 1.992-1.53 2.283-.39.121-.813.158-1.222.16-6.952.008-13.904.004-20.857.002-.104 0-.206.002-.31 0-1.538-.033-2.552-1.018-2.532-2.458.02-1.399 1.011-2.364 2.492-2.385 1.445-.02 2.892-.005 4.337-.005l6.403.001zM46.287 81.824c-3.477-.001-6.952.004-10.429-.008-.409 0-.832-.023-1.223-.141-.927-.275-1.556-1.225-1.562-2.262-.006-1.035.612-1.998 1.535-2.283.389-.121.813-.148 1.222-.149a9666.99 9666.99 0 0 1 20.857-.001c.376 0 .762.014 1.126.104 1.045.26 1.729 1.227 1.711 2.357-.016 1.084-.682 2.006-1.686 2.266-.362.094-.748.112-1.123.113-3.475.008-6.951.005-10.428.004zM81.533 76.974c3.544 0 7.088-.006 10.633.004 1.377.003 2.189.562 2.518 1.684.38 1.305-.26 2.646-1.465 3.018-.326.1-.678.142-1.018.143-7.088.006-14.177.008-21.265-.004-1.522-.002-2.447-.816-2.554-2.176-.124-1.598.845-2.652 2.518-2.662 3.544-.019 7.089-.006 10.633-.007zM46.211 96.258c-3.545 0-7.091.016-10.636-.007-1.864-.012-2.994-1.674-2.313-3.355.405-.998 1.149-1.479 2.13-1.479 7.262-.008 14.524-.018 21.787.007 1.401.005 2.353 1.056 2.347 2.423-.006 1.398-.993 2.4-2.473 2.41-3.614.022-7.229.008-10.842.008v-.007zM81.502 96.26c-3.51-.001-7.021.005-10.53-.005-1.403-.004-2.288-.648-2.544-1.803-.311-1.394.42-2.664 1.721-2.961.3-.068.615-.078.923-.078 7.02-.004 14.039-.008 21.059 0 1.946.002 3.079 1.443 2.546 3.191-.339 1.108-1.16 1.652-2.542 1.654-3.545.007-7.09.003-10.633.002z"/></g></svg>