<svg xmlns="http://www.w3.org/2000/svg" width="80.876" height="116.926"><g fill="#fff"><path d="M80.876 12.272a2.134 2.134 0 0 0-2.134-2.134H63.977V2.133A2.133 2.133 0 0 0 61.486.029l-59.71 10.14c-.012.002-.021.007-.033.009-.081.015-.157.041-.235.064-.059.018-.119.032-.175.055-.067.027-.129.063-.192.097-.06.032-.122.06-.178.097-.055.036-.103.08-.154.121-.056.044-.114.086-.165.136-.048.047-.088.1-.131.151-.044.053-.092.103-.131.159-.04.057-.07.121-.104.182-.032.059-.068.114-.095.176-.027.062-.044.128-.066.193-.022.067-.048.133-.063.204-.014.062-.018.126-.025.189-.01.078-.022.154-.024.234-.002.013-.005.024-.005.036v102.52c0 1.179.956 2.134 2.134 2.134h76.608c.139 0 .276-.015.413-.042.058-.011.112-.032.169-.049.075-.021.15-.039.224-.069.064-.026.124-.062.185-.095.06-.031.121-.059.178-.096.07-.046.132-.102.196-.154.037-.032.078-.057.114-.091.005-.004.007-.01.012-.014a2.12 2.12 0 0 0 .199-.234c.023-.03.052-.058.073-.089.056-.081.099-.17.143-.259.018-.035.042-.068.057-.104.03-.069.047-.145.069-.218.019-.06.043-.117.056-.178.012-.055.012-.111.02-.167.011-.085.024-.168.025-.253l.002-.022V12.272zm-4.268 97.223L57.851 89.987a8.287 8.287 0 0 0 .493-2.797c0-4.593-3.737-8.329-8.33-8.329s-8.33 3.736-8.33 8.329c0 .061.008.118.009.178L34 91.031a8.312 8.312 0 0 0-6.518-3.158 8.28 8.28 0 0 0-4.898 1.607L4.268 71.373V14.406h72.341v95.089zM45.951 87.19c0-2.239 1.822-4.062 4.062-4.062s4.062 1.822 4.062 4.062c0 2.241-1.822 4.063-4.062 4.063s-4.062-1.821-4.062-4.063zm-18.47 4.951a4.067 4.067 0 0 1 4.062 4.063c0 2.239-1.822 4.062-4.062 4.062s-4.062-1.822-4.062-4.062a4.067 4.067 0 0 1 4.062-4.063zm32.228-82.002H27.444L59.709 4.66v5.479zM4.268 77.374L19.881 92.81a8.284 8.284 0 0 0-.73 3.395c0 4.593 3.737 8.329 8.33 8.329s8.33-3.736 8.33-8.329a8.43 8.43 0 0 0-.105-1.259l7.202-3.43c1.464 2.397 4.098 4.006 7.105 4.006a8.284 8.284 0 0 0 5.355-1.959l18.361 19.096H4.268V77.374z"/><path d="M13.519 42.691V56.21c0 1.178.956 2.134 2.134 2.134H66.35a2.134 2.134 0 0 0 2.134-2.134V42.691a2.134 2.134 0 0 0-2.134-2.134H15.652a2.134 2.134 0 0 0-2.133 2.134zm4.267 2.134h46.43v9.251h-46.43v-9.251z"/></g></svg>