
<svg version="1.1" xmlns="http://www.w3.org/2000/svg" xmlns:xlink="http://www.w3.org/1999/xlink" x="0px" y="0px"
	 width="80.876px" height="116.926px" viewBox="0 0 80.876 116.926" enable-background="new 0 0 80.876 116.926"
	 xml:space="preserve">
<g>
	<path fill="white" d="M80.876,12.272c0-1.178-0.955-2.134-2.134-2.134H63.977V2.133c0-0.628-0.277-1.225-0.757-1.63
		c-0.481-0.406-1.115-0.579-1.734-0.474L1.776,10.169c-0.012,0.002-0.021,0.007-0.033,0.009c-0.081,0.015-0.157,0.041-0.235,0.064
		c-0.059,0.018-0.119,0.032-0.175,0.055c-0.067,0.027-0.129,0.063-0.192,0.097c-0.06,0.032-0.122,0.06-0.178,0.097
		c-0.055,0.036-0.103,0.08-0.154,0.121c-0.056,0.044-0.114,0.086-0.165,0.136c-0.048,0.047-0.088,0.1-0.131,0.151
		c-0.044,0.053-0.092,0.103-0.131,0.159c-0.04,0.057-0.07,0.121-0.104,0.182c-0.032,0.059-0.068,0.114-0.095,0.176
		c-0.027,0.062-0.044,0.128-0.066,0.193c-0.022,0.067-0.048,0.133-0.063,0.204c-0.014,0.062-0.018,0.126-0.025,0.189
		c-0.01,0.078-0.022,0.154-0.024,0.234C0.003,12.249,0,12.26,0,12.272v102.52c0,1.179,0.956,2.134,2.134,2.134h76.608
		c0.139,0,0.276-0.015,0.413-0.042c0.058-0.011,0.112-0.032,0.169-0.049c0.075-0.021,0.15-0.039,0.224-0.069
		c0.064-0.026,0.124-0.062,0.185-0.095c0.06-0.031,0.121-0.059,0.178-0.096c0.07-0.046,0.132-0.102,0.196-0.154
		c0.037-0.032,0.078-0.057,0.114-0.091c0.005-0.004,0.007-0.01,0.012-0.014c0.073-0.072,0.137-0.152,0.199-0.234
		c0.023-0.03,0.052-0.058,0.073-0.089c0.056-0.081,0.099-0.17,0.143-0.259c0.018-0.035,0.042-0.068,0.057-0.104
		c0.03-0.069,0.047-0.145,0.069-0.218c0.019-0.06,0.043-0.117,0.056-0.178c0.012-0.055,0.012-0.111,0.02-0.167
		c0.011-0.085,0.024-0.168,0.025-0.253c0-0.008,0.002-0.015,0.002-0.022V12.272z M76.608,109.495L57.851,89.987
		c0.313-0.876,0.493-1.814,0.493-2.797c0-4.593-3.737-8.329-8.33-8.329s-8.33,3.736-8.33,8.329c0,0.061,0.008,0.118,0.009,0.178
		l-7.693,3.663c-1.527-1.921-3.879-3.158-6.518-3.158c-1.832,0-3.521,0.602-4.898,1.607L4.268,71.373V14.406h72.341V109.495z
		 M45.951,87.19c0-2.239,1.822-4.062,4.062-4.062s4.062,1.822,4.062,4.062c0,2.241-1.822,4.063-4.062,4.063
		S45.951,89.432,45.951,87.19z M27.481,92.141c2.24,0,4.062,1.822,4.062,4.063c0,2.239-1.822,4.062-4.062,4.062
		s-4.062-1.822-4.062-4.062C23.419,93.963,25.241,92.141,27.481,92.141z M59.709,10.139H27.444L59.709,4.66V10.139z M4.268,77.374
		L19.881,92.81c-0.465,1.038-0.73,2.186-0.73,3.395c0,4.593,3.737,8.329,8.33,8.329s8.33-3.736,8.33-8.329
		c0-0.429-0.043-0.847-0.105-1.259l7.202-3.43c1.464,2.397,4.098,4.006,7.105,4.006c2.038,0,3.906-0.738,5.355-1.959l18.361,19.096
		H4.268V77.374z"/>
	<path fill="white" d="M13.519,42.691v13.519c0,1.178,0.956,2.134,2.134,2.134H66.35c1.179,0,2.134-0.956,2.134-2.134V42.691
		c0-1.178-0.955-2.134-2.134-2.134H15.652C14.474,40.557,13.519,41.513,13.519,42.691z M17.786,44.825h46.43v9.251h-46.43V44.825z"
		/>
</g>
</svg>
