<svg xmlns="http://www.w3.org/2000/svg" width="102.249" height="102.271"><g fill="#fff"><path d="M102.249 51.164c.098 28.149-23.146 51.36-51.611 51.104C22.78 102.017-.331 78.991.003 50.48.329 22.716 23.319-.365 51.844.004c27.678.358 50.511 23.134 50.405 51.16zM51.135 4.435c-25.705 0-46.688 20.959-46.697 46.646-.01 25.725 20.925 46.731 46.593 46.752 25.784.021 46.802-20.926 46.804-46.648.002-25.773-20.952-46.75-46.7-46.75z"/><path d="M51.573 35.596c8.597.211 15.457 7.464 15.082 16.001-.387 8.801-7.613 15.445-16.012 15.097-8.443-.35-15.234-7.316-15.057-15.869.185-8.805 7.544-15.503 15.987-15.229zm-.475 4.454c-6.172.008-11.057 4.938-11.045 11.147.012 6.119 4.932 11.016 11.068 11.02 6.185.004 11.102-4.912 11.099-11.096-.003-6.177-4.927-11.079-11.122-11.071zM84.487 50.173c0 .347.021.696-.004 1.042-.089 1.201-1.011 2.109-2.153 2.142-1.19.032-2.194-.859-2.238-2.128-.131-3.847-.667-7.622-2.269-11.146-5.005-11.006-13.537-16.991-25.635-17.82-.381-.026-.762-.04-1.143-.073-1.266-.109-2.164-1.059-2.131-2.242.033-1.198.973-2.252 2.235-2.135 2.857.267 5.805.345 8.529 1.138 12.85 3.74 20.893 12.226 24.056 25.243.472 1.943.59 3.973.871 5.962a4.787 4.787 0 0 0-.118.017zM22.14 60.138c1.134.107 1.767.775 2.187 1.799 2.405 5.859 6.286 10.486 11.678 13.828 2.432 1.508 5.049 2.569 7.797 3.365.731.213 1.491.743 1.957 1.346.541.701.341 1.613-.243 2.311-.634.756-1.448.965-2.433.717-5.562-1.4-10.448-4.043-14.652-7.936-3.672-3.398-6.412-7.445-8.28-12.082-.695-1.725.297-3.385 1.989-3.348z"/><path d="M51.163 57.805c-3.672.017-6.696-2.997-6.697-6.669 0-3.633 2.965-6.635 6.59-6.672 3.681-.039 6.713 2.933 6.752 6.617.038 3.663-2.97 6.707-6.645 6.724zm2.179-6.639a2.234 2.234 0 0 0-2.123-2.253c-1.205-.052-2.284.974-2.305 2.189-.02 1.17.963 2.206 2.137 2.254 1.219.049 2.266-.951 2.291-2.19z"/></g></svg>