
<svg version="1.1" xmlns="http://www.w3.org/2000/svg" xmlns:xlink="http://www.w3.org/1999/xlink" x="0px" y="0px"
	 width="102.249px" height="102.271px" viewBox="0 0 102.249 102.271" enable-background="new 0 0 102.249 102.271"
	 xml:space="preserve">
<g>
	<path fill="white" d="M102.249,51.164c0.098,28.149-23.146,51.36-51.611,51.104C22.78,102.017-0.331,78.991,0.003,50.48
		C0.329,22.716,23.319-0.365,51.844,0.004C79.522,0.362,102.355,23.138,102.249,51.164z M51.135,4.435
		c-25.705,0-46.688,20.959-46.697,46.646c-0.01,25.725,20.925,46.731,46.593,46.752c25.784,0.021,46.802-20.926,46.804-46.648
		C97.837,25.412,76.883,4.435,51.135,4.435z"/>
	<path fill="white" d="M51.573,35.596c8.597,0.211,15.457,7.464,15.082,16.001c-0.387,8.801-7.613,15.445-16.012,15.097
		c-8.443-0.35-15.234-7.316-15.057-15.869C35.771,42.02,43.13,35.322,51.573,35.596z M51.098,40.05
		c-6.172,0.008-11.057,4.938-11.045,11.147c0.012,6.119,4.932,11.016,11.068,11.02c6.185,0.004,11.102-4.912,11.099-11.096
		C62.217,44.944,57.293,40.042,51.098,40.05z"/>
	<path fill="white" d="M84.487,50.173c0,0.347,0.021,0.696-0.004,1.042c-0.089,1.201-1.011,2.109-2.153,2.142
		c-1.19,0.032-2.194-0.859-2.238-2.128c-0.131-3.847-0.667-7.622-2.269-11.146c-5.005-11.006-13.537-16.991-25.635-17.82
		c-0.381-0.026-0.762-0.04-1.143-0.073c-1.266-0.109-2.164-1.059-2.131-2.242c0.033-1.198,0.973-2.252,2.235-2.135
		c2.857,0.267,5.805,0.345,8.529,1.138c12.85,3.74,20.893,12.226,24.056,25.243c0.472,1.943,0.59,3.973,0.871,5.962
		C84.566,50.161,84.526,50.167,84.487,50.173z"/>
	<path fill="white" d="M22.14,60.138c1.134,0.107,1.767,0.775,2.187,1.799c2.405,5.859,6.286,10.486,11.678,13.828
		c2.432,1.508,5.049,2.569,7.797,3.365c0.731,0.213,1.491,0.743,1.957,1.346c0.541,0.701,0.341,1.613-0.243,2.311
		c-0.634,0.756-1.448,0.965-2.433,0.717c-5.562-1.4-10.448-4.043-14.652-7.936c-3.672-3.398-6.412-7.445-8.28-12.082
		C19.456,61.761,20.448,60.101,22.14,60.138z"/>
	<path fill="white" d="M51.163,57.805c-3.672,0.017-6.696-2.997-6.697-6.669c0-3.633,2.965-6.635,6.59-6.672c3.681-0.039,6.713,2.933,6.752,6.617
		C57.846,54.744,54.838,57.788,51.163,57.805z M53.342,51.166c0.022-1.188-0.933-2.202-2.123-2.253
		c-1.205-0.052-2.284,0.974-2.305,2.189c-0.02,1.17,0.963,2.206,2.137,2.254C52.27,53.405,53.317,52.405,53.342,51.166z"/>
</g>
</svg>
