
<svg version="1.1" xmlns="http://www.w3.org/2000/svg" xmlns:xlink="http://www.w3.org/1999/xlink" x="0px" y="0px"
	 width="126.985px" height="113.351px" viewBox="0 0 126.985 113.351" enable-background="new 0 0 126.985 113.351"
	 xml:space="preserve">
<g>
	<path d="M126.062,0.376c-0.579-0.397-1.317-0.486-1.972-0.235L82.743,15.95L45.104,0.166c-0.013-0.005-0.026-0.006-0.039-0.011
		c-0.091-0.036-0.186-0.055-0.281-0.078c-0.073-0.018-0.145-0.043-0.219-0.054c-0.094-0.013-0.188-0.008-0.282-0.008
		c-0.078,0-0.156-0.008-0.233,0c-0.085,0.009-0.168,0.036-0.252,0.056c-0.085,0.02-0.171,0.033-0.254,0.063
		c-0.009,0.003-0.018,0.003-0.026,0.007L1.372,16.255C0.546,16.571,0,17.364,0,18.248v92.969c0,0.702,0.346,1.359,0.924,1.758
		c0.361,0.248,0.783,0.376,1.209,0.376c0.257,0,0.515-0.047,0.762-0.141l41.38-15.822l37.66,14.578
		c0.031,0.012,0.063,0.017,0.095,0.027c0.039,0.013,0.077,0.022,0.116,0.032c0.185,0.051,0.372,0.085,0.56,0.085
		c0.188,0,0.376-0.034,0.561-0.084c0.037-0.011,0.072-0.019,0.109-0.031c0.03-0.01,0.062-0.014,0.092-0.025l42.146-16.115
		c0.826-0.316,1.372-1.108,1.372-1.993V2.134C126.985,1.432,126.64,0.774,126.062,0.376z M4.268,19.716L42.146,5.234v88.399
		L4.268,108.118V19.716z M46.413,5.342l34.159,14.325v87.196L46.413,93.64V5.342z M122.718,92.393L84.84,106.877V19.716
		l37.878-14.482V92.393z"/>
	<path d="M65.169,34.497c-5.899,0-10.699,4.799-10.699,10.699c0,1.778,0.448,3.542,1.296,5.106l6.982,15.032
		c0.315,0.678,0.985,1.121,1.732,1.146c0.021,0,0.043,0.001,0.064,0.001c0.724,0,1.392-0.395,1.739-1.032l8.018-14.697
		c0.176-0.29,0.338-0.586,0.442-0.808l0.055-0.1c0.047-0.086,0.087-0.174,0.12-0.265c0.629-1.394,0.948-2.867,0.948-4.383
		C75.868,39.296,71.068,34.497,65.169,34.497z M71.262,48.05c-0.008,0.018-0.016,0.035-0.023,0.053l-0.014,0.025
		c-0.094,0.193-0.195,0.38-0.354,0.643l-6.183,11.33l-5.354-11.527c-0.02-0.042-0.041-0.083-0.063-0.124
		c-0.549-0.994-0.84-2.119-0.84-3.254c0-3.714,3.022-6.737,6.737-6.737c3.715,0,6.736,3.022,6.736,6.737
		C71.905,46.181,71.689,47.142,71.262,48.05z"/>
	<path d="M24.505,40.328c0.365-0.855,0.55-1.747,0.55-2.653c0-3.765-3.063-6.828-6.828-6.828s-6.828,3.063-6.828,6.828
		c0,1.03,0.238,2.031,0.708,2.982c0.022,0.062,0.048,0.125,0.076,0.186l3.774,8.125c0.339,0.73,1.061,1.208,1.866,1.233
		c0.023,0.001,0.046,0.001,0.069,0.001c0.778,0,1.498-0.425,1.873-1.112l4.585-8.403C24.414,40.572,24.466,40.451,24.505,40.328z
		 M20.534,38.756c-0.014,0.03-0.027,0.06-0.04,0.09l-2.449,4.488l-1.86-4.006c-0.044-0.146-0.104-0.288-0.18-0.424
		c-0.225-0.403-0.338-0.817-0.338-1.229c0-1.412,1.148-2.56,2.561-2.56s2.561,1.148,2.561,2.56
		C20.788,38.035,20.703,38.399,20.534,38.756z"/>
	<path d="M30.298,56.33c-3.764,0-6.827,3.063-6.827,6.828c0,1.028,0.238,2.03,0.707,2.981c0.022,0.062,0.047,0.125,0.076,0.186
		l3.774,8.125c0.339,0.73,1.061,1.208,1.866,1.234c0.023,0,0.046,0.001,0.069,0.001c0.778,0,1.498-0.425,1.873-1.111l4.585-8.402
		c0.063-0.117,0.115-0.238,0.155-0.362c0.365-0.855,0.55-1.746,0.55-2.651C37.126,59.393,34.063,56.33,30.298,56.33z M32.604,64.239
		c-0.014,0.03-0.028,0.061-0.041,0.092l-2.448,4.486l-1.861-4.008c-0.043-0.144-0.103-0.284-0.177-0.418
		c-0.226-0.406-0.339-0.821-0.339-1.233c0-1.412,1.148-2.561,2.56-2.561c1.412,0,2.561,1.148,2.561,2.561
		C32.858,63.518,32.773,63.881,32.604,64.239z"/>
	<path d="M96.678,74.372l3.774,8.125c0.339,0.73,1.061,1.208,1.865,1.234c0.023,0,0.047,0.001,0.069,0.001
		c0.779,0,1.498-0.425,1.873-1.111l4.585-8.402c0.063-0.117,0.115-0.238,0.155-0.361c0.365-0.854,0.55-1.745,0.55-2.651
		c0-3.766-3.063-6.829-6.828-6.829s-6.827,3.063-6.827,6.829c0,1.028,0.237,2.029,0.707,2.98
		C96.624,74.249,96.649,74.311,96.678,74.372z M102.722,68.644c1.412,0,2.561,1.149,2.561,2.562c0,0.359-0.085,0.723-0.253,1.079
		c-0.015,0.03-0.028,0.062-0.042,0.093l-2.447,4.486l-1.862-4.008c-0.043-0.144-0.102-0.284-0.177-0.418
		c-0.225-0.406-0.339-0.82-0.339-1.232C100.162,69.793,101.311,68.644,102.722,68.644z"/>
	<path d="M65.169,42.4c-1.832,0-3.322,1.49-3.322,3.322s1.49,3.322,3.322,3.322c1.832,0,3.323-1.49,3.323-3.322
		S67.001,42.4,65.169,42.4z M65.169,46.362c-0.353,0-0.64-0.287-0.64-0.64s0.287-0.64,0.64-0.64c0.354,0,0.641,0.287,0.641,0.64
		S65.522,46.362,65.169,46.362z"/>
</g>
</svg>
