<svg xmlns="http://www.w3.org/2000/svg" width="126.985" height="113.351"><g fill="#fff"><path d="M126.062.376a2.137 2.137 0 0 0-1.972-.235L82.743 15.95 45.104.166c-.013-.005-.026-.006-.039-.011-.091-.036-.186-.055-.281-.078-.073-.018-.145-.043-.219-.054-.094-.013-.188-.008-.282-.008-.078 0-.156-.008-.233 0-.085.009-.168.036-.252.056-.085.02-.171.033-.254.063-.009.003-.018.003-.026.007L1.372 16.255A2.135 2.135 0 0 0 0 18.248v92.969a2.137 2.137 0 0 0 2.133 2.134c.257 0 .515-.047.762-.141l41.38-15.822 37.66 14.578c.031.012.063.017.095.027.039.013.077.022.116.032.185.051.372.085.56.085.188 0 .376-.034.561-.084.037-.011.072-.019.109-.031.03-.01.062-.014.092-.025l42.146-16.115a2.134 2.134 0 0 0 1.372-1.993V2.134a2.138 2.138 0 0 0-.924-1.758zM4.268 19.716L42.146 5.234v88.399L4.268 108.118V19.716zM46.413 5.342l34.159 14.325v87.196L46.413 93.64V5.342zm76.305 87.051L84.84 106.877V19.716l37.878-14.482v87.159z"/><path d="M65.169 34.497c-5.899 0-10.699 4.799-10.699 10.699 0 1.778.448 3.542 1.296 5.106l6.982 15.032a1.983 1.983 0 0 0 1.732 1.146l.064.001a1.98 1.98 0 0 0 1.739-1.032l8.018-14.697c.176-.29.338-.586.442-.808l.055-.1c.047-.086.087-.174.12-.265.629-1.394.948-2.867.948-4.383.002-5.9-4.798-10.699-10.697-10.699zm6.093 13.553l-.023.053-.014.025c-.094.193-.195.38-.354.643l-6.183 11.33-5.354-11.527a2.884 2.884 0 0 0-.063-.124 6.748 6.748 0 0 1-.84-3.254 6.745 6.745 0 0 1 6.737-6.737 6.744 6.744 0 0 1 6.736 6.737 6.647 6.647 0 0 1-.642 2.854zM24.505 40.328c.365-.855.55-1.747.55-2.653 0-3.765-3.063-6.828-6.828-6.828s-6.828 3.063-6.828 6.828c0 1.03.238 2.031.708 2.982.022.062.048.125.076.186l3.774 8.125a2.132 2.132 0 0 0 3.808.122l4.585-8.403c.064-.115.116-.236.155-.359zm-3.971-1.572l-.04.09-2.449 4.488-1.86-4.006a2.126 2.126 0 0 0-.18-.424 2.508 2.508 0 0 1-.338-1.229c0-1.412 1.148-2.56 2.561-2.56s2.561 1.148 2.561 2.56c-.001.36-.086.724-.255 1.081zM30.298 56.33a6.835 6.835 0 0 0-6.827 6.828c0 1.028.238 2.03.707 2.981.022.062.047.125.076.186l3.774 8.125a2.134 2.134 0 0 0 1.866 1.234l.069.001c.778 0 1.498-.425 1.873-1.111l4.585-8.402c.063-.117.115-.238.155-.362.365-.855.55-1.746.55-2.651a6.836 6.836 0 0 0-6.828-6.829zm2.306 7.909l-.041.092-2.448 4.486-1.861-4.008a2.123 2.123 0 0 0-.177-.418 2.522 2.522 0 0 1-.339-1.233 2.563 2.563 0 0 1 2.56-2.561 2.563 2.563 0 0 1 2.561 2.561c-.001.36-.086.723-.255 1.081zM96.678 74.372l3.774 8.125a2.134 2.134 0 0 0 1.865 1.234l.069.001c.779 0 1.498-.425 1.873-1.111l4.585-8.402c.063-.117.115-.238.155-.361a6.71 6.71 0 0 0 .55-2.651c0-3.766-3.063-6.829-6.828-6.829s-6.827 3.063-6.827 6.829a6.67 6.67 0 0 0 .707 2.98c.023.062.048.124.077.185zm6.044-5.728a2.564 2.564 0 0 1 2.561 2.562c0 .359-.085.723-.253 1.079-.015.03-.028.062-.042.093l-2.447 4.486-1.862-4.008a2.065 2.065 0 0 0-.177-.418 2.53 2.53 0 0 1-.339-1.232 2.563 2.563 0 0 1 2.559-2.562z"/><path d="M65.169 42.4c-1.832 0-3.322 1.49-3.322 3.322s1.49 3.322 3.322 3.322 3.323-1.49 3.323-3.322-1.491-3.322-3.323-3.322zm0 3.962a.64.64 0 1 1 .001-1.281.64.64 0 0 1-.001 1.281z"/></g></svg>