
<svg version="1.1" xmlns="http://www.w3.org/2000/svg" xmlns:xlink="http://www.w3.org/1999/xlink" x="0px" y="0px"
	 width="85.409px" height="115.032px" viewBox="0 0 85.409 115.032" enable-background="new 0 0 85.409 115.032"
	 xml:space="preserve">
<g>
	<g>
		<path fill="white" d="M83.275,115.032H2.134c-1.178,0-2.134-0.955-2.134-2.134V2.134C0,0.956,0.956,0,2.134,0h81.142
			c1.179,0,2.134,0.956,2.134,2.134v110.764C85.409,114.077,84.454,115.032,83.275,115.032z M4.268,110.764h76.874V4.268H4.268
			V110.764z"/>
	</g>
	<g>
		<path fill="white" d="M38.656,99.349c-2.3,0-4.405-0.704-6.14-2.089c-2.907-2.319-4.556-6.429-4.201-10.469c0.104-1.174,1.14-2.043,2.312-1.938
			c1.174,0.103,2.042,1.138,1.938,2.312c-0.23,2.614,0.82,5.331,2.612,6.761c1.592,1.271,3.667,1.506,6.167,0.701
			c4.046-1.3,5.548-5.207,4.653-12.22c-4.076,0.661-8.178-0.173-11.874-2.544c-6.813-4.371-10.103-12.728-8-20.322
			c2.545-9.187,8.285-13.988,13.446-17.633c-0.212-1.513-0.436-3.109-0.671-4.798c-2.089-14.987,4.674-18.79,6.796-19.599
			c3.563-1.354,7.541-0.073,9.677,3.122c1.205,1.803,4.429,8.437-4.694,18.11c-1.822,1.932-4.099,3.514-6.516,5.174
			c0.484,3.431,0.907,6.393,1.287,9.001c1.645-0.426,3.387-0.502,5.125-0.193c4.605,0.818,8.812,5.076,10.229,10.354
			c1.457,5.429-0.271,10.703-4.743,14.472c-1.895,1.596-3.887,2.82-5.92,3.665c1.333,9.571-1.181,15.445-7.487,17.473
			C41.28,99.13,39.938,99.349,38.656,99.349z M40.245,46.69c-4.226,3.185-8.099,7.099-10.008,13.989
			c-1.609,5.81,0.938,12.222,6.192,15.593c2.776,1.78,5.805,2.414,8.86,1.932c-1.193-6.472-1.956-10.671-3.109-18.245
			c-1.43,1.868-1.948,4.214-1.35,6.258c0.331,1.132-0.318,2.316-1.449,2.647c-1.13,0.33-2.316-0.317-2.647-1.448
			c-1.079-3.689-0.079-7.726,2.677-10.799c0.611-0.681,1.283-1.283,2.002-1.801C41.065,52.441,40.681,49.767,40.245,46.69z
			 M46.074,57.167c1.299,8.691,2.077,13.023,3.31,19.715c1.332-0.651,2.647-1.517,3.926-2.595c4.316-3.638,3.966-7.891,3.372-10.102
			c-0.987-3.676-3.869-6.729-6.854-7.259C48.533,56.696,47.259,56.785,46.074,57.167z M48.61,21.238
			c-0.463,0-0.935,0.085-1.396,0.261c-2.839,1.081-5.403,5.595-4.089,15.022c0.127,0.914,0.251,1.801,0.371,2.662
			c1.552-1.101,2.969-2.193,4.077-3.368c5.528-5.863,5.82-10.462,4.25-12.811C51.064,21.868,49.869,21.238,48.61,21.238z"/>
	</g>
</g>
</svg>
