<svg xmlns="http://www.w3.org/2000/svg" width="85.409" height="115.032"><path fill="#fff" d="M83.275 115.032H2.134A2.134 2.134 0 0 1 0 112.898V2.134C0 .956.956 0 2.134 0h81.142c1.179 0 2.134.956 2.134 2.134v110.764a2.135 2.135 0 0 1-2.135 2.134zm-79.007-4.268h76.874V4.268H4.268v106.496z"/><path fill="#fff" d="M38.656 99.349c-2.3 0-4.405-.704-6.14-2.089-2.907-2.319-4.556-6.429-4.201-10.469a2.133 2.133 0 1 1 4.25.374c-.23 2.614.82 5.331 2.612 6.761 1.592 1.271 3.667 1.506 6.167.701 4.046-1.3 5.548-5.207 4.653-12.22-4.076.661-8.178-.173-11.874-2.544-6.813-4.371-10.103-12.728-8-20.322 2.545-9.187 8.285-13.988 13.446-17.633-.212-1.513-.436-3.109-.671-4.798-2.089-14.987 4.674-18.79 6.796-19.599 3.563-1.354 7.541-.073 9.677 3.122 1.205 1.803 4.429 8.437-4.694 18.11-1.822 1.932-4.099 3.514-6.516 5.174.484 3.431.907 6.393 1.287 9.001a12.018 12.018 0 0 1 5.125-.193c4.605.818 8.812 5.076 10.229 10.354 1.457 5.429-.271 10.703-4.743 14.472-1.895 1.596-3.887 2.82-5.92 3.665 1.333 9.571-1.181 15.445-7.487 17.473-1.372.441-2.714.66-3.996.66zm1.589-52.659c-4.226 3.185-8.099 7.099-10.008 13.989-1.609 5.81.938 12.222 6.192 15.593 2.776 1.78 5.805 2.414 8.86 1.932-1.193-6.472-1.956-10.671-3.109-18.245-1.43 1.868-1.948 4.214-1.35 6.258a2.133 2.133 0 0 1-4.096 1.199c-1.079-3.689-.079-7.726 2.677-10.799a12.533 12.533 0 0 1 2.002-1.801c-.348-2.375-.732-5.049-1.168-8.126zm5.829 10.477c1.299 8.691 2.077 13.023 3.31 19.715 1.332-.651 2.647-1.517 3.926-2.595 4.316-3.638 3.966-7.891 3.372-10.102-.987-3.676-3.869-6.729-6.854-7.259a7.75 7.75 0 0 0-3.754.241zm2.536-35.929a3.91 3.91 0 0 0-1.396.261c-2.839 1.081-5.403 5.595-4.089 15.022l.371 2.662c1.552-1.101 2.969-2.193 4.077-3.368 5.528-5.863 5.82-10.462 4.25-12.811-.759-1.136-1.954-1.766-3.213-1.766z"/></svg>