
<svg version="1.1" xmlns="http://www.w3.org/2000/svg" xmlns:xlink="http://www.w3.org/1999/xlink" x="0px" y="0px"
	 width="115.25px" height="108.21px" viewBox="0 0 115.25 108.21" enable-background="new 0 0 115.25 108.21" xml:space="preserve">
<g>
	<path fill="white" d="M55.836,44.285c-1.917-0.818-3.939-1.233-6.008-1.233c-6.15,0-11.683,3.654-14.097,9.31
		c-1.606,3.764-1.651,7.928-0.126,11.726c1.526,3.798,4.439,6.773,8.203,8.379c1.917,0.818,3.938,1.233,6.007,1.233
		c6.149,0,11.684-3.654,14.097-9.31C67.229,56.62,63.604,47.601,55.836,44.285z M59.988,62.714
		c-1.742,4.081-5.735,6.718-10.173,6.718c-1.49,0-2.948-0.299-4.333-0.891c-2.716-1.158-4.817-3.306-5.918-6.045
		s-1.068-5.744,0.091-8.46c1.741-4.081,5.734-6.717,10.172-6.717c1.49,0,2.948,0.299,4.333,0.891
		C59.766,50.602,62.38,57.109,59.988,62.714z"/>
	<path fill="white" d="M114.963,35.242L95.13,1.063c-0.593-1.019-1.896-1.367-2.917-0.774c-1.019,0.591-1.365,1.897-0.774,2.916l18.595,32.044
		l-13.664,5.466C91.727,28.487,82.331,18.081,69.38,12.553c-6.237-2.662-12.81-4.011-19.537-4.011
		c-20,0-37.995,11.884-45.845,30.276c-10.784,25.268,1,54.598,26.267,65.381c6.236,2.662,12.809,4.012,19.535,4.012
		c19.999,0,37.994-11.885,45.845-30.277c4.653-10.904,5.096-22.562,2.074-33.162l16.19-6.477c0.576-0.23,1.022-0.699,1.225-1.285
		S115.273,35.778,114.963,35.242z M91.721,76.257c-7.179,16.818-23.634,27.687-41.921,27.687c-6.147,0-12.156-1.234-17.86-3.669
		C8.837,90.414-1.937,63.596,7.923,40.492c7.178-16.817,23.633-27.684,41.92-27.684c6.148,0,12.157,1.234,17.861,3.669
		c11.867,5.065,20.47,14.609,24.705,25.822l-4.815,1.926c-1.274-1.341-3.052-2.148-4.993-2.148c-0.879,0-1.739,0.167-2.557,0.495
		l-6.308,2.534c-1.704,0.685-3.041,1.996-3.765,3.692c-0.725,1.697-0.746,3.569-0.062,5.272c1.055,2.625,3.569,4.321,6.408,4.321
		c0.878,0,1.738-0.166,2.556-0.495l6.309-2.534c1.704-0.685,3.041-1.996,3.765-3.692c0.492-1.152,0.651-2.384,0.495-3.589
		l4.29-1.716C96.363,55.943,95.913,66.434,91.721,76.257z M85.022,49.997c-0.276,0.648-0.784,1.148-1.43,1.407l-6.309,2.534
		c-1.31,0.527-2.897-0.169-3.415-1.458c-0.259-0.646-0.25-1.358,0.027-2.007c0.276-0.648,0.784-1.148,1.43-1.407l6.308-2.534
		c0.311-0.125,0.636-0.188,0.967-0.188c1.069,0,2.054,0.661,2.449,1.645C85.309,48.635,85.3,49.348,85.022,49.997z"/>
</g>
</svg>
