<svg xmlns="http://www.w3.org/2000/svg" width="115.25" height="108.21"><g fill="#fff"><path d="M55.836 44.285a15.306 15.306 0 0 0-20.105 8.077 15.226 15.226 0 0 0-.126 11.726 15.218 15.218 0 0 0 8.203 8.379 15.306 15.306 0 0 0 20.104-8.077c3.317-7.77-.308-16.789-8.076-20.105zm4.152 18.429a11.046 11.046 0 0 1-14.506 5.827c-2.716-1.158-4.817-3.306-5.918-6.045s-1.068-5.744.091-8.46A11.042 11.042 0 0 1 54.16 48.21c5.606 2.392 8.22 8.899 5.828 14.504z"/><path d="M114.963 35.242L95.13 1.063a2.133 2.133 0 1 0-3.691 2.142l18.595 32.044-13.664 5.466c-4.643-12.228-14.039-22.634-26.99-28.162-6.237-2.662-12.81-4.011-19.537-4.011-20 0-37.995 11.884-45.845 30.276-10.784 25.268 1 54.598 26.267 65.381 6.236 2.662 12.809 4.012 19.535 4.012a49.78 49.78 0 0 0 45.845-30.277c4.653-10.904 5.096-22.562 2.074-33.162l16.19-6.477a2.134 2.134 0 0 0 1.054-3.053zM91.721 76.257A45.52 45.52 0 0 1 49.8 103.944c-6.147 0-12.156-1.234-17.86-3.669C8.837 90.414-1.937 63.596 7.923 40.492a45.517 45.517 0 0 1 41.92-27.684 45.25 45.25 0 0 1 17.861 3.669c11.867 5.065 20.47 14.609 24.705 25.822l-4.815 1.926a6.865 6.865 0 0 0-7.55-1.653l-6.308 2.534a6.847 6.847 0 0 0-3.765 3.692 6.84 6.84 0 0 0-.062 5.272 6.869 6.869 0 0 0 6.408 4.321 6.82 6.82 0 0 0 2.556-.495l6.309-2.534a6.847 6.847 0 0 0 3.765-3.692 6.861 6.861 0 0 0 .495-3.589l4.29-1.716c2.631 9.578 2.181 20.069-2.011 29.892zm-6.699-26.26a2.6 2.6 0 0 1-1.43 1.407l-6.309 2.534c-1.31.527-2.897-.169-3.415-1.458a2.606 2.606 0 0 1 .027-2.007 2.6 2.6 0 0 1 1.43-1.407l6.308-2.534a2.58 2.58 0 0 1 .967-.188c1.069 0 2.054.661 2.449 1.645a2.6 2.6 0 0 1-.027 2.008z"/></g></svg>