
<svg version="1.1" xmlns="http://www.w3.org/2000/svg" xmlns:xlink="http://www.w3.org/1999/xlink" x="0px" y="0px"
	 width="87.422px" height="115.547px" viewBox="57.71 41.913 87.422 115.547" enable-background="new 57.71 41.913 87.422 115.547"
	 xml:space="preserve">
<g>
	<path d="M86.747,69.415h45.245c1.179,0,2.134-0.956,2.134-2.134c0-1.178-0.955-2.134-2.134-2.134H86.747
		c-1.178,0-2.134,0.956-2.134,2.134C84.613,68.459,85.569,69.415,86.747,69.415z"/>
	<path d="M131.992,77.375H86.747c-1.178,0-2.134,0.956-2.134,2.134c0,1.178,0.956,2.134,2.134,2.134h45.245
		c1.179,0,2.134-0.956,2.134-2.134C134.126,78.331,133.171,77.375,131.992,77.375z"/>
	<path d="M142.998,41.913H59.844c-1.178,0-2.134,0.956-2.134,2.134v111.279c0,1.179,0.956,2.134,2.134,2.134h83.154
		c1.179,0,2.134-0.955,2.134-2.134V44.047C145.132,42.869,144.177,41.913,142.998,41.913z M61.978,46.181h10.407v107.012H61.978
		V46.181z M140.863,153.191H76.652V46.181h64.211V153.191z"/>
</g>
</svg>
