<svg xmlns="http://www.w3.org/2000/svg" width="87.422" height="115.547" viewBox="57.71 41.913 87.422 115.547"><g fill="#fff"><path d="M86.747 69.415h45.245a2.134 2.134 0 0 0 0-4.268H86.747a2.135 2.135 0 0 0 0 4.268zM131.992 77.375H86.747a2.135 2.135 0 0 0 0 4.268h45.245a2.134 2.134 0 0 0 0-4.268z"/><path d="M142.998 41.913H59.844a2.135 2.135 0 0 0-2.134 2.134v111.279c0 1.179.956 2.134 2.134 2.134h83.154a2.133 2.133 0 0 0 2.134-2.134V44.047a2.134 2.134 0 0 0-2.134-2.134zm-81.02 4.268h10.407v107.012H61.978V46.181zm78.885 107.01H76.652V46.181h64.211v107.01z"/></g></svg>