<svg xmlns="http://www.w3.org/2000/svg" viewBox="0 0 1600 44"><path fill="#C84E36" class="lado1" d="M1600 35l-24.625-26-24.625 26-24.622-26-24.62 26-24.621-26-24.62 26-24.619-26-24.616 26-24.614-26-24.619 26-24.618-26-24.618 26-24.617-26-24.618 26-24.617-26-24.619 26-24.616-26-24.616 26-24.615-26-24.614 26-24.615-26-24.619 26-24.615-26-24.612 26-24.615-26-24.615 26-24.611-26-24.616 26-24.611-26-24.617 26-24.61-26-24.614 26-24.61-26-24.615 26-24.615-26-24.616 26L689.19 9l-24.614 26L639.96 9l-24.615 26-24.614-26-24.616 26-24.614-26-24.615 26-24.614-26-24.615 26-24.614-26-24.615 26-24.614-26-24.615 26-24.613-26-24.614 26-24.614-26-24.613 26L246.13 9l-24.613 26-24.613-26-24.614 26-24.612-26-24.614 26L98.451 9 73.839 35 49.226 9 24.612 35 0 9V0h1600z"/><path fill="#fff" class="lado2" d="M1600 35l-24.625-26-24.625 26-24.622-26-24.62 26-24.621-26-24.62 26-24.619-26-24.616 26-24.614-26-24.619 26-24.618-26-24.618 26-24.617-26-24.618 26-24.617-26-24.619 26-24.616-26-24.616 26-24.615-26-24.614 26-24.615-26-24.619 26-24.615-26-24.612 26-24.615-26-24.615 26-24.611-26-24.616 26-24.611-26-24.617 26-24.61-26-24.614 26-24.61-26-24.615 26-24.615-26-24.616 26L689.19 9l-24.614 26L639.96 9l-24.615 26-24.614-26-24.616 26-24.614-26-24.615 26-24.614-26-24.615 26-24.614-26-24.615 26-24.614-26-24.615 26-24.613-26-24.614 26-24.614-26-24.613 26L246.13 9l-24.613 26-24.613-26-24.614 26-24.612-26-24.614 26L98.451 9 73.839 35 49.226 9 24.612 35 0 9v35h1600z"/></svg>