<svg xmlns="http://www.w3.org/2000/svg" viewBox="0 0 1600 180"><path class="lado2" d="M0 0h1600v180H0z"/><path class="lado1" d="M1600 29.894c-15.673 1.372-17.415-18.531-33.088-17.16-15.676 1.371-13.934 21.273-29.607 22.645-15.672 1.371-17.413-18.532-33.084-17.16-15.673 1.371-13.931 21.274-29.604 22.646-15.67 1.371-17.413-18.532-33.084-17.162-15.671 1.372-13.931 21.274-29.602 22.646-15.669 1.371-17.41-18.532-33.08-17.161-15.668 1.371-13.927 21.273-29.596 22.645-15.672 1.371-17.413-18.532-33.084-17.161s-13.931 21.274-29.602 22.645c-15.67 1.372-17.41-18.532-33.082-17.161-15.669 1.371-13.929 21.274-29.598 22.645-15.67 1.371-17.411-18.532-33.08-17.161-15.67 1.37-13.929 21.273-29.599 22.644-15.669 1.371-17.411-18.532-33.081-17.161-15.67 1.371-13.929 21.273-29.6 22.645-15.668 1.371-17.409-18.532-33.08-17.161-15.668 1.371-13.926 21.274-29.596 22.645-15.667 1.37-17.408-18.532-33.076-17.162-15.667 1.371-13.926 21.274-29.595 22.645-15.668 1.372-17.41-18.531-33.078-17.161-15.67 1.371-13.93 21.273-29.599 22.644-15.668 1.371-17.408-18.531-33.077-17.161-15.667 1.371-13.925 21.273-29.593 22.644-15.669 1.371-17.409-18.532-33.078-17.161-15.667 1.371-13.925 21.273-29.593 22.644-15.666 1.371-17.407-18.532-33.074-17.162-15.669 1.371-13.928 21.273-29.597 22.645-15.67 1.371-17.411-18.532-33.081-17.161s-13.928 21.273-29.598 22.645c-15.669 1.371-17.411-18.532-33.08-17.161-15.669 1.371-13.928 21.274-29.597 22.645-15.668 1.371-17.41-18.532-33.078-17.161s-13.927 21.274-29.595 22.645c-15.669 1.371-17.411-18.533-33.079-17.161-15.669 1.371-13.928 21.273-29.597 22.645-15.669 1.371-17.41-18.532-33.079-17.162-15.668 1.371-13.927 21.274-29.596 22.645-15.668 1.371-17.41-18.532-33.079-17.161-15.668 1.371-13.927 21.273-29.595 22.645-15.668 1.37-17.41-18.532-33.078-17.161-15.668 1.371-13.927 21.274-29.596 22.646-15.668 1.37-17.41-18.533-33.077-17.162-15.669 1.371-13.928 21.274-29.597 22.645-15.667 1.371-17.409-18.531-33.077-17.161-15.669 1.37-13.928 21.272-29.597 22.644-15.667 1.371-17.409-18.531-33.077-17.16-15.668 1.37-13.927 21.273-29.596 22.644-15.667 1.371-17.409-18.531-33.076-17.161-15.669 1.371-13.928 21.274-29.597 22.645C17.409 168.353 15.667 148.451 0 149.821V0h1600v29.894z"/></svg>