
<svg version="1.1" xmlns="http://www.w3.org/2000/svg" xmlns:xlink="http://www.w3.org/1999/xlink" viewBox="0 0 1600 44" enable-background="new 0 0 1600 44" xml:space="preserve">
<polygon fill="white" points="1600,35 1575.375,9 1550.75,35 1526.128,9 1501.508,35 1476.887,9 1452.267,35 1427.648,9 1403.032,35 
	1378.418,9 1353.799,35 1329.181,9 1304.563,35 1279.946,9 1255.328,35 1230.711,9 1206.092,35 1181.476,9 1156.86,35 1132.245,9 
	1107.631,35 1083.016,9 1058.397,35 1033.782,9 1009.17,35 984.555,9 959.94,35 935.329,9 910.713,35 886.102,9 861.485,35 
	836.875,9 812.261,35 787.651,9 763.036,35 738.421,9 713.805,35 689.19,9 664.576,35 639.96,9 615.345,35 590.731,9 566.115,35 
	541.501,9 516.886,35 492.272,9 467.657,35 443.043,9 418.428,35 393.814,9 369.199,35 344.586,9 319.972,35 295.358,9 270.745,35 
	246.13,9 221.517,35 196.904,9 172.29,35 147.678,9 123.064,35 98.451,9 73.839,35 49.226,9 24.612,35 0,9 0,0 1600,0 "/>
<polygon fill="#ECB329" points="1600,35 1575.375,9 1550.75,35 1526.128,9 1501.508,35 1476.887,9 1452.267,35 1427.648,9 1403.032,35 
	1378.418,9 1353.799,35 1329.181,9 1304.563,35 1279.946,9 1255.328,35 1230.711,9 1206.092,35 1181.476,9 1156.86,35 1132.245,9 
	1107.631,35 1083.016,9 1058.397,35 1033.782,9 1009.17,35 984.555,9 959.94,35 935.329,9 910.713,35 886.102,9 861.485,35 
	836.875,9 812.261,35 787.651,9 763.036,35 738.421,9 713.805,35 689.19,9 664.576,35 639.96,9 615.345,35 590.731,9 566.115,35 
	541.501,9 516.886,35 492.272,9 467.657,35 443.043,9 418.428,35 393.814,9 369.199,35 344.586,9 319.972,35 295.358,9 270.745,35 
	246.13,9 221.517,35 196.904,9 172.29,35 147.678,9 123.064,35 98.451,9 73.839,35 49.226,9 24.612,35 0,9 0,44 1600,44 "/>
</svg>
