
<svg version="1.1" xmlns="http://www.w3.org/2000/svg" xmlns:xlink="http://www.w3.org/1999/xlink" viewBox="0 0 1600 180" enable-background="new 0 0 1600 180" xml:space="preserve">
<rect fill='#3FB2B0' class="lado2" width="1600" height="180"/>
<path fill='#ECB329' class="lado1" d="M0,29.894c15.673,1.372,17.415-18.531,33.088-17.16c15.676,1.371,13.934,21.273,29.607,22.645
	c15.672,1.371,17.413-18.532,33.084-17.16c15.673,1.371,13.931,21.274,29.604,22.646c15.67,1.371,17.413-18.532,33.084-17.162
	c15.671,1.372,13.931,21.274,29.602,22.646c15.669,1.371,17.41-18.532,33.08-17.161c15.668,1.371,13.927,21.273,29.596,22.645
	c15.672,1.371,17.413-18.532,33.084-17.161s13.931,21.274,29.602,22.645c15.67,1.372,17.41-18.532,33.082-17.161
	c15.669,1.371,13.929,21.274,29.598,22.645c15.67,1.371,17.411-18.532,33.08-17.161c15.67,1.37,13.929,21.273,29.599,22.644
	c15.669,1.371,17.411-18.532,33.081-17.161c15.67,1.371,13.929,21.273,29.6,22.645c15.668,1.371,17.409-18.532,33.08-17.161
	c15.668,1.371,13.926,21.274,29.596,22.645c15.667,1.37,17.408-18.532,33.076-17.162c15.667,1.371,13.926,21.274,29.595,22.645
	c15.668,1.372,17.41-18.531,33.078-17.161c15.67,1.371,13.93,21.273,29.599,22.644c15.668,1.371,17.408-18.531,33.077-17.161
	c15.667,1.371,13.925,21.273,29.593,22.644c15.669,1.371,17.409-18.532,33.078-17.161c15.667,1.371,13.925,21.273,29.593,22.644
	c15.666,1.371,17.407-18.532,33.073-17.162c15.67,1.371,13.929,21.273,29.598,22.645c15.67,1.371,17.411-18.532,33.08-17.161
	c15.67,1.371,13.928,21.273,29.598,22.645s17.411-18.532,33.08-17.161c15.67,1.371,13.928,21.274,29.598,22.645
	c15.668,1.371,17.409-18.532,33.078-17.161c15.668,1.371,13.927,21.274,29.595,22.645c15.669,1.371,17.411-18.533,33.079-17.161
	c15.669,1.371,13.928,21.273,29.598,22.645c15.668,1.371,17.41-18.532,33.078-17.162c15.668,1.371,13.927,21.274,29.596,22.645
	c15.668,1.371,17.41-18.532,33.079-17.161c15.669,1.371,13.927,21.273,29.595,22.645c15.668,1.37,17.41-18.532,33.078-17.161
	s13.928,21.274,29.596,22.646c15.668,1.37,17.41-18.533,33.078-17.162c15.668,1.371,13.928,21.274,29.596,22.645
	c15.668,1.371,17.409-18.531,33.077-17.161c15.669,1.37,13.928,21.272,29.597,22.644c15.668,1.371,17.408-18.531,33.076-17.16
	c15.669,1.37,13.928,21.273,29.597,22.644c15.667,1.371,17.409-18.531,33.076-17.161c15.669,1.371,13.928,21.274,29.597,22.645
	c15.667,1.37,17.408-18.531,33.076-17.161V0H0V29.894z"/>
</svg>
