<svg fill="#fff" xmlns="http://www.w3.org/2000/svg" width="720.534" height="710.037"><path fill="#313485" d="M299.645 710.037c-.646 0-1.291-.056-1.917-.165-10.801-1.892-16.679-18.415-22.902-35.907-5.255-14.771-10.688-30.044-18.652-32.944-1.126-.409-2.417-.617-3.835-.617-8.398 0-20.524 7.109-32.25 13.985-12.529 7.347-24.363 14.285-33.438 14.287-2.495.001-4.703-.544-6.561-1.619-9.378-5.427-9.233-22.854-9.081-41.307.131-15.785.266-32.108-6.312-37.633-2.507-2.105-6.538-3.129-12.325-3.129-7.452 0-16.85 1.729-25.938 3.401-9.221 1.696-18.755 3.45-26.482 3.451-7.581 0-12.704-1.711-15.663-5.233-6.913-8.231-.87-24.497 5.528-41.719 5.521-14.861 11.23-30.229 6.887-37.737-4.276-7.391-20.326-10.085-35.847-12.69-18.249-3.063-35.486-5.957-39.212-16.192-3.638-9.992 7.553-23.12 19.402-37.02 10.347-12.138 21.047-24.689 19.53-33.352-1.45-8.274-15.489-16.242-29.066-23.948C15.305 374.752 0 366.065 0 355.018s15.305-19.733 31.508-28.93c13.578-7.707 27.618-15.675 29.067-23.95 1.517-8.662-9.183-21.213-19.53-33.352-11.848-13.898-23.039-27.026-19.402-37.019 3.727-10.236 20.963-13.129 39.213-16.193 15.521-2.606 31.569-5.3 35.846-12.691 4.344-7.508-1.365-22.876-6.886-37.738-6.397-17.221-12.439-33.487-5.527-41.716 2.958-3.522 8.082-5.234 15.664-5.234 7.727 0 17.262 1.755 26.483 3.452 9.088 1.672 18.485 3.401 25.938 3.401 5.786 0 9.818-1.023 12.324-3.128 6.578-5.525 6.442-21.848 6.312-37.633-.153-18.452-.298-35.881 9.08-41.306 1.857-1.075 4.065-1.62 6.561-1.62 9.075 0 20.908 6.939 33.437 14.286 11.726 6.876 23.852 13.986 32.251 13.986 1.419 0 2.71-.208 3.836-.618 7.964-2.899 13.397-18.172 18.651-32.943C281.049 18.58 286.927 2.057 297.728.166 298.354.056 299 0 299.648 0c9.835 0 20.106 12.44 30.98 25.61 10.206 12.36 20.759 25.142 29.639 25.142 8.88 0 19.433-12.781 29.638-25.141C400.78 12.44 411.052 0 420.887 0c.648 0 1.294.056 1.921.166 10.801 1.892 16.679 18.414 22.901 35.906 5.255 14.771 10.688 30.044 18.652 32.944 1.127.41 2.417.618 3.837.618 8.397 0 20.521-7.11 32.247-13.985 12.53-7.348 24.365-14.288 33.441-14.288 2.495 0 4.702.545 6.56 1.62 9.379 5.426 9.234 22.855 9.081 41.308-.131 15.785-.266 32.107 6.312 37.632 2.507 2.105 6.538 3.128 12.324 3.128 7.451 0 16.848-1.729 25.936-3.401 9.221-1.697 18.757-3.452 26.484-3.452 7.582 0 12.706 1.712 15.664 5.234 6.913 8.23.87 24.496-5.527 41.717-5.521 14.862-11.229 30.23-6.886 37.737 4.276 7.391 20.325 10.085 35.845 12.691 18.25 3.064 35.487 5.958 39.213 16.193 3.638 9.992-7.554 23.12-19.401 37.019-10.348 12.138-21.047 24.689-19.53 33.351 1.449 8.275 15.489 16.244 29.067 23.95 16.202 9.197 31.507 17.883 31.507 28.93s-15.304 19.734-31.507 28.93c-13.578 7.707-27.618 15.676-29.067 23.951-1.517 8.661 9.183 21.212 19.529 33.35 11.849 13.899 23.04 27.027 19.402 37.02-3.726 10.236-20.964 13.13-39.213 16.194-15.521 2.605-31.568 5.3-35.845 12.69-4.344 7.508 1.364 22.876 6.886 37.737 6.396 17.222 12.439 33.487 5.526 41.717-2.958 3.522-8.082 5.234-15.665 5.234-7.727 0-17.262-1.755-26.482-3.451-9.088-1.673-18.485-3.401-25.938-3.401-5.786 0-9.817 1.023-12.323 3.128-6.577 5.525-6.442 21.848-6.312 37.632.153 18.452.298 35.881-9.081 41.308-1.857 1.074-4.064 1.619-6.561 1.619-9.075.001-20.91-6.939-33.438-14.286-11.727-6.876-23.852-13.986-32.25-13.986-1.419 0-2.709.208-3.836.617-7.963 2.9-13.396 18.174-18.651 32.944-6.223 17.492-12.1 34.016-22.901 35.907-.626.109-1.272.165-1.92.165-9.836.001-20.107-12.439-30.982-25.61-10.205-12.36-20.758-25.142-29.638-25.142-8.88 0-19.435 12.781-29.641 25.143-10.874 13.168-21.145 25.607-30.979 25.609h-.003zm-47.307-72.634c1.77 0 3.406.269 4.862.799 9.291 3.383 14.712 18.623 20.452 34.757 5.661 15.913 11.515 32.368 20.593 33.958.462.081.919.12 1.398.12h.003c8.421-.002 18.713-12.466 28.667-24.52 11.139-13.49 21.66-26.232 31.954-26.232 10.293 0 20.813 12.741 31.951 26.231 9.953 12.056 20.246 24.521 28.669 24.521.475 0 .946-.04 1.402-.12 9.079-1.59 14.932-18.045 20.593-33.958 5.74-16.134 11.161-31.374 20.451-34.757 1.456-.53 3.092-.799 4.862-.799 9.214 0 21.696 7.319 33.768 14.398 11.632 6.821 23.66 13.875 31.921 13.874 1.989 0 3.644-.398 5.059-1.217 7.866-4.551 7.723-21.903 7.583-38.685-.143-17.238-.277-33.52 7.382-39.954 3.069-2.578 7.732-3.831 14.253-3.831 7.727 0 17.261 1.754 26.48 3.451 9.089 1.672 18.486 3.401 25.939 3.401 6.642 0 11.015-1.362 13.368-4.164 5.789-6.893-.226-23.084-6.042-38.742-6.028-16.227-11.722-31.554-6.671-40.284 4.984-8.613 20.995-11.302 37.945-14.147 16.599-2.786 33.763-5.668 36.892-14.261 3.039-8.351-8.097-21.414-18.867-34.048-11.294-13.249-21.961-25.763-20.201-35.813 1.693-9.669 15.706-17.622 30.542-26.043 14.742-8.368 29.987-17.021 29.987-26.321s-15.245-17.953-29.988-26.321c-14.835-8.42-28.848-16.374-30.541-26.042-1.76-10.051 8.908-22.565 20.202-35.814 10.77-12.633 21.905-25.697 18.866-34.046-3.129-8.593-20.292-11.475-36.891-14.261-16.951-2.846-32.962-5.534-37.946-14.148-5.051-8.729.644-24.057 6.671-40.284 5.817-15.659 11.832-31.85 6.043-38.743-2.354-2.802-6.726-4.164-13.367-4.164-7.454 0-16.853 1.73-25.941 3.402-9.22 1.696-18.754 3.451-26.479 3.451-6.521 0-11.185-1.253-14.254-3.832-7.659-6.434-7.524-22.716-7.382-39.954.14-16.782.283-34.135-7.583-38.686-1.415-.818-3.069-1.216-5.058-1.216-8.262 0-20.291 7.054-31.924 13.875-12.07 7.078-24.553 14.397-33.765 14.397-1.771 0-3.406-.269-4.863-.799-9.291-3.383-14.712-18.623-20.452-34.758-5.659-15.909-11.513-32.364-20.591-33.953A8.15 8.15 0 0 0 420.887 3c-8.422 0-18.714 12.466-28.668 24.521-11.138 13.49-21.658 26.231-31.951 26.231-10.294 0-20.814-12.742-31.953-26.231C318.362 15.465 308.07 3 299.648 3c-.475 0-.947.041-1.403.121-9.079 1.59-14.932 18.044-20.593 33.957-5.74 16.135-11.161 31.375-20.452 34.757-1.456.53-3.092.799-4.863.799-9.214 0-21.697-7.32-33.769-14.398-11.632-6.821-23.66-13.874-31.919-13.874-1.989 0-3.644.398-5.059 1.216-7.865 4.551-7.722 21.903-7.583 38.685.143 17.238.278 33.521-7.381 39.955-3.07 2.578-7.732 3.832-14.254 3.832-7.726 0-17.26-1.754-26.48-3.451-9.088-1.672-18.486-3.402-25.94-3.402-6.641 0-11.013 1.362-13.367 4.164-5.79 6.893.225 23.083 6.042 38.742 6.028 16.228 11.722 31.554 6.67 40.285-4.984 8.614-20.995 11.302-37.946 14.148-16.599 2.787-33.762 5.668-36.89 14.261-3.04 8.35 8.096 21.413 18.866 34.046 11.294 13.249 21.962 25.764 20.202 35.815-1.694 9.668-15.707 17.622-30.542 26.042C18.245 337.065 3 345.718 3 355.018s15.246 17.954 29.989 26.322c14.835 8.42 28.848 16.373 30.541 26.04 1.76 10.052-8.908 22.566-20.202 35.815-10.77 12.634-21.906 25.697-18.866 34.047 3.128 8.592 20.292 11.474 36.89 14.26 16.952 2.846 32.963 5.534 37.947 14.147 5.051 8.73-.643 24.058-6.671 40.284-5.817 15.659-11.832 31.851-6.043 38.744 2.354 2.802 6.726 4.163 13.366 4.163 7.454-.001 16.851-1.729 25.939-3.402 9.221-1.696 18.755-3.45 26.48-3.45 6.522 0 11.185 1.253 14.255 3.832 7.66 6.434 7.525 22.716 7.382 39.955-.139 16.78-.283 34.133 7.583 38.684 1.416.819 3.07 1.217 5.059 1.217 8.261-.001 20.29-7.055 31.922-13.875 12.071-7.078 24.554-14.398 33.767-14.398z"/></svg>