<?xml version="1.0" encoding="utf-8"?>
<!-- Generator: Adobe Illustrator 16.0.0, SVG Export Plug-In . SVG Version: 6.00 Build 0)  -->
<!DOCTYPE svg PUBLIC "-//W3C//DTD SVG 1.1//EN" "http://www.w3.org/Graphics/SVG/1.1/DTD/svg11.dtd">
<svg version="1.1" id="Layer_1" xmlns="http://www.w3.org/2000/svg" xmlns:xlink="http://www.w3.org/1999/xlink" x="0px" y="0px"
	 width="720.534px" height="710.037px" viewBox="0 0 720.534 710.037" enable-background="new 0 0 720.534 710.037"
	 xml:space="preserve">
<g>
	<path fill="#313485" d="M299.645,710.037c-0.646,0-1.291-0.056-1.917-0.165c-10.801-1.892-16.679-18.415-22.902-35.907
		c-5.255-14.771-10.688-30.044-18.652-32.944c-1.126-0.409-2.417-0.617-3.835-0.617c-8.398,0-20.524,7.109-32.25,13.985
		c-12.529,7.347-24.363,14.285-33.438,14.287c-2.495,0.001-4.703-0.544-6.561-1.619c-9.378-5.427-9.233-22.854-9.081-41.307
		c0.131-15.785,0.266-32.108-6.312-37.633c-2.507-2.105-6.538-3.129-12.325-3.129c-7.452,0-16.85,1.729-25.938,3.401
		c-9.221,1.696-18.755,3.45-26.482,3.451c-7.581,0-12.704-1.711-15.663-5.233c-6.913-8.231-0.87-24.497,5.528-41.719
		c5.521-14.861,11.23-30.229,6.887-37.737c-4.276-7.391-20.326-10.085-35.847-12.69c-18.249-3.063-35.486-5.957-39.212-16.192
		c-3.638-9.992,7.553-23.12,19.402-37.02c10.347-12.138,21.047-24.689,19.53-33.352c-1.45-8.274-15.489-16.242-29.066-23.948
		C15.305,374.752,0,366.065,0,355.018c0-11.047,15.305-19.733,31.508-28.93c13.578-7.707,27.618-15.675,29.067-23.95
		c1.517-8.662-9.183-21.213-19.53-33.352c-11.848-13.898-23.039-27.026-19.402-37.019c3.727-10.236,20.963-13.129,39.213-16.193
		c15.521-2.606,31.569-5.3,35.846-12.691c4.344-7.508-1.365-22.876-6.886-37.738c-6.397-17.221-12.439-33.487-5.527-41.716
		c2.958-3.522,8.082-5.234,15.664-5.234c7.727,0,17.262,1.755,26.483,3.452c9.088,1.672,18.485,3.401,25.938,3.401
		c5.786,0,9.818-1.023,12.324-3.128c6.578-5.525,6.442-21.848,6.312-37.633c-0.153-18.452-0.298-35.881,9.08-41.306
		c1.857-1.075,4.065-1.62,6.561-1.62c9.075,0,20.908,6.939,33.437,14.286c11.726,6.876,23.852,13.986,32.251,13.986
		c1.419,0,2.71-0.208,3.836-0.618c7.964-2.899,13.397-18.172,18.651-32.943c6.223-17.492,12.101-34.015,22.902-35.906
		C298.354,0.056,299,0,299.648,0c9.835,0,20.106,12.44,30.98,25.61c10.206,12.36,20.759,25.142,29.639,25.142
		c8.88,0,19.433-12.781,29.638-25.141C400.78,12.44,411.052,0,420.887,0c0.648,0,1.294,0.056,1.921,0.166
		c10.801,1.892,16.679,18.414,22.901,35.906c5.255,14.771,10.688,30.044,18.652,32.944c1.127,0.41,2.417,0.618,3.837,0.618
		c8.397,0,20.521-7.11,32.247-13.985c12.53-7.348,24.365-14.288,33.441-14.288c2.495,0,4.702,0.545,6.56,1.62
		c9.379,5.426,9.234,22.855,9.081,41.308c-0.131,15.785-0.266,32.107,6.312,37.632c2.507,2.105,6.538,3.128,12.324,3.128
		c7.451,0,16.848-1.729,25.936-3.401c9.221-1.697,18.757-3.452,26.484-3.452c7.582,0,12.706,1.712,15.664,5.234
		c6.913,8.23,0.87,24.496-5.527,41.717c-5.521,14.862-11.229,30.23-6.886,37.737c4.276,7.391,20.325,10.085,35.845,12.691
		c18.25,3.064,35.487,5.958,39.213,16.193c3.638,9.992-7.554,23.12-19.401,37.019c-10.348,12.138-21.047,24.689-19.53,33.351
		c1.449,8.275,15.489,16.244,29.067,23.95c16.202,9.197,31.507,17.883,31.507,28.93c0,11.047-15.304,19.734-31.507,28.93
		c-13.578,7.707-27.618,15.676-29.067,23.951c-1.517,8.661,9.183,21.212,19.529,33.35c11.849,13.899,23.04,27.027,19.402,37.02
		c-3.726,10.236-20.964,13.13-39.213,16.194c-15.521,2.605-31.568,5.3-35.845,12.69c-4.344,7.508,1.364,22.876,6.886,37.737
		c6.396,17.222,12.439,33.487,5.526,41.717c-2.958,3.522-8.082,5.234-15.665,5.234c-7.727,0-17.262-1.755-26.482-3.451
		c-9.088-1.673-18.485-3.401-25.938-3.401c-5.786,0-9.817,1.023-12.323,3.128c-6.577,5.525-6.442,21.848-6.312,37.632
		c0.153,18.452,0.298,35.881-9.081,41.308c-1.857,1.074-4.064,1.619-6.561,1.619c-9.075,0.001-20.91-6.939-33.438-14.286
		c-11.727-6.876-23.852-13.986-32.25-13.986c-1.419,0-2.709,0.208-3.836,0.617c-7.963,2.9-13.396,18.174-18.651,32.944
		c-6.223,17.492-12.1,34.016-22.901,35.907c-0.626,0.109-1.272,0.165-1.92,0.165c-9.836,0.001-20.107-12.439-30.982-25.61
		c-10.205-12.36-20.758-25.142-29.638-25.142c-8.88,0-19.435,12.781-29.641,25.143c-10.874,13.168-21.145,25.607-30.979,25.609
		C299.647,710.037,299.646,710.037,299.645,710.037z M252.338,637.403c1.77,0,3.406,0.269,4.862,0.799
		c9.291,3.383,14.712,18.623,20.452,34.757c5.661,15.913,11.515,32.368,20.593,33.958c0.462,0.081,0.919,0.12,1.398,0.12
		c0.001,0,0.002,0,0.003,0c8.421-0.002,18.713-12.466,28.667-24.52c11.139-13.49,21.66-26.232,31.954-26.232
		c10.293,0,20.813,12.741,31.951,26.231c9.953,12.056,20.246,24.521,28.669,24.521c0.475,0,0.946-0.04,1.402-0.12
		c9.079-1.59,14.932-18.045,20.593-33.958c5.74-16.134,11.161-31.374,20.451-34.757c1.456-0.53,3.092-0.799,4.862-0.799
		c9.214,0,21.696,7.319,33.768,14.398c11.632,6.821,23.66,13.875,31.921,13.874c1.989,0,3.644-0.398,5.059-1.217
		c7.866-4.551,7.723-21.903,7.583-38.685c-0.143-17.238-0.277-33.52,7.382-39.954c3.069-2.578,7.732-3.831,14.253-3.831
		c7.727,0,17.261,1.754,26.48,3.451c9.089,1.672,18.486,3.401,25.939,3.401c6.642,0,11.015-1.362,13.368-4.164
		c5.789-6.893-0.226-23.084-6.042-38.742c-6.028-16.227-11.722-31.554-6.671-40.284c4.984-8.613,20.995-11.302,37.945-14.147
		c16.599-2.786,33.763-5.668,36.892-14.261c3.039-8.351-8.097-21.414-18.867-34.048c-11.294-13.249-21.961-25.763-20.201-35.813
		c1.693-9.669,15.706-17.622,30.542-26.043c14.742-8.368,29.987-17.021,29.987-26.321c0-9.3-15.245-17.953-29.988-26.321
		c-14.835-8.42-28.848-16.374-30.541-26.042c-1.76-10.051,8.908-22.565,20.202-35.814c10.77-12.633,21.905-25.697,18.866-34.046
		c-3.129-8.593-20.292-11.475-36.891-14.261c-16.951-2.846-32.962-5.534-37.946-14.148c-5.051-8.729,0.644-24.057,6.671-40.284
		c5.817-15.659,11.832-31.85,6.043-38.743c-2.354-2.802-6.726-4.164-13.367-4.164c-7.454,0-16.853,1.73-25.941,3.402
		c-9.22,1.696-18.754,3.451-26.479,3.451c-6.521,0-11.185-1.253-14.254-3.832c-7.659-6.434-7.524-22.716-7.382-39.954
		c0.14-16.782,0.283-34.135-7.583-38.686c-1.415-0.818-3.069-1.216-5.058-1.216c-8.262,0-20.291,7.054-31.924,13.875
		c-12.07,7.078-24.553,14.397-33.765,14.397c-1.771,0-3.406-0.269-4.863-0.799c-9.291-3.383-14.712-18.623-20.452-34.758
		C437.222,21.165,431.368,4.71,422.29,3.121C421.834,3.041,421.361,3,420.887,3c-8.422,0-18.714,12.466-28.668,24.521
		c-11.138,13.49-21.658,26.231-31.951,26.231c-10.294,0-20.814-12.742-31.953-26.231C318.362,15.465,308.07,3,299.648,3
		c-0.475,0-0.947,0.041-1.403,0.121c-9.079,1.59-14.932,18.044-20.593,33.957c-5.74,16.135-11.161,31.375-20.452,34.757
		c-1.456,0.53-3.092,0.799-4.863,0.799c-9.214,0-21.697-7.32-33.769-14.398c-11.632-6.821-23.66-13.874-31.919-13.874
		c-1.989,0-3.644,0.398-5.059,1.216c-7.865,4.551-7.722,21.903-7.583,38.685c0.143,17.238,0.278,33.521-7.381,39.955
		c-3.07,2.578-7.732,3.832-14.254,3.832c-7.726,0-17.26-1.754-26.48-3.451c-9.088-1.672-18.486-3.402-25.94-3.402
		c-6.641,0-11.013,1.362-13.367,4.164c-5.79,6.893,0.225,23.083,6.042,38.742c6.028,16.228,11.722,31.554,6.67,40.285
		c-4.984,8.614-20.995,11.302-37.946,14.148c-16.599,2.787-33.762,5.668-36.89,14.261c-3.04,8.35,8.096,21.413,18.866,34.046
		c11.294,13.249,21.962,25.764,20.202,35.815c-1.694,9.668-15.707,17.622-30.542,26.042C18.245,337.065,3,345.718,3,355.018
		s15.246,17.954,29.989,26.322c14.835,8.42,28.848,16.373,30.541,26.04c1.76,10.052-8.908,22.566-20.202,35.815
		c-10.77,12.634-21.906,25.697-18.866,34.047c3.128,8.592,20.292,11.474,36.89,14.26c16.952,2.846,32.963,5.534,37.947,14.147
		c5.051,8.73-0.643,24.058-6.671,40.284c-5.817,15.659-11.832,31.851-6.043,38.744c2.354,2.802,6.726,4.163,13.366,4.163
		c7.454-0.001,16.851-1.729,25.939-3.402c9.221-1.696,18.755-3.45,26.48-3.45c6.522,0,11.185,1.253,14.255,3.832
		c7.66,6.434,7.525,22.716,7.382,39.955c-0.139,16.78-0.283,34.133,7.583,38.684c1.416,0.819,3.07,1.217,5.059,1.217
		c8.261-0.001,20.29-7.055,31.922-13.875C230.642,644.723,243.125,637.403,252.338,637.403z"/>
</g>
</svg>
