<?xml version="1.0" encoding="utf-8"?>
<!-- Generator: Adobe Illustrator 16.0.0, SVG Export Plug-In . SVG Version: 6.00 Build 0)  -->
<!DOCTYPE svg PUBLIC "-//W3C//DTD SVG 1.1//EN" "http://www.w3.org/Graphics/SVG/1.1/DTD/svg11.dtd">
<svg version="1.1" id="Layer_1" xmlns="http://www.w3.org/2000/svg" xmlns:xlink="http://www.w3.org/1999/xlink" x="0px" y="0px"
	 width="50.375px" height="57.577px" viewBox="0 0 50.375 57.577" enable-background="new 0 0 50.375 57.577" xml:space="preserve">
<g>
	<path fill="#FFFFFF" d="M35.564,42.184c-0.415,0.529-0.9,1.02-1.234,1.597c-1.886,3.267-3.73,6.557-5.6,9.833
		c-0.357,0.627-0.652,1.357-1.178,1.801c-0.432,0.365-1.242,0.624-1.735,0.467c-0.386-0.125-0.708-0.946-0.755-1.484
		c-0.045-0.52,0.25-1.094,0.48-1.605c1.653-3.675,3.328-7.337,4.996-11.003c0.17-0.376,0.463-0.747,0.478-1.131
		c0.018-0.458-0.064-1.125-0.36-1.329c-0.265-0.182-0.969,0.016-1.318,0.268c-0.576,0.418-1.017,1.021-1.526,1.535
		c-2.403,2.423-4.8,4.853-7.225,7.254c-0.66,0.654-1.31,1.735-2.437,0.775c-1.178-1.004-0.366-1.912,0.275-2.821
		c3.365-4.767,6.715-9.544,10.063-14.321c0.235-0.338,0.439-0.701,0.621-1.072c1.422-2.904,0.501-4.208-2.665-4.19
		c-2.188,0.012-4.387-0.319-6.559-0.643c-0.448-0.067-0.801-0.78-1.197-1.195c0.472-0.241,0.923-0.628,1.419-0.699
		c4.33-0.613,8.088-2.743,12.023-4.417c2.13-0.905,4.322-1.676,6.524-2.392c1.853-0.603,3.416,0.128,4.839,1.33
		c1.182,0.999,2.376,1.998,3.656,2.86c3.107,2.092,3.822,3.703,2.767,7.369c-0.682,2.372-1.719,4.643-2.42,7.01
		c-0.596,2.007-1.173,4.07-1.34,6.144c-0.275,3.395-0.162,6.821-0.336,10.227c-0.03,0.611-0.57,1.612-1.021,1.703
		c-1.086,0.218-1.221-0.779-1.315-1.643c-0.291-2.67-0.602-5.339-0.908-8.007c-0.035-0.307,0.001-0.679-0.16-0.904
		c-0.36-0.505-0.823-0.936-1.245-1.397c-0.336,0.477-0.868,0.913-0.977,1.438c-0.841,4.042-1.6,8.101-2.384,12.155
		c-0.049,0.252-0.007,0.607-0.159,0.742c-0.484,0.426-1.04,0.768-1.568,1.143c-0.321-0.505-0.941-1.028-0.914-1.514
		c0.159-2.729,0.471-5.45,0.738-8.174c0.127-1.284,0.318-2.564,0.39-3.852c0.03-0.562-0.169-1.137-0.263-1.705
		C35.878,42.282,35.722,42.233,35.564,42.184z"/>
	<path fill="#FFFFFF" d="M14.81,16.997c0-1.662,0.085-3.329-0.018-4.985c-0.204-3.298-0.516-6.59-0.774-9.885
		c-0.077-0.984-0.012-1.958,1.24-2.11c1.196-0.146,1.627,0.681,1.797,1.69c0.695,4.122,1.384,8.245,2.072,12.368
		c0.018,0.102-0.008,0.225,0.039,0.306c0.409,0.713,0.83,1.419,1.248,2.128c0.383-0.651,0.961-1.258,1.115-1.959
		c0.845-3.829,1.6-7.677,2.351-11.527c0.185-0.945,0.485-1.838,1.601-1.654c1.042,0.172,1.462,1.011,1.395,2.096
		c-0.305,4.898-0.603,9.796-0.862,14.698c-0.05,0.947-0.492,1.374-1.361,1.584c-1.957,0.471-3.897,1.012-5.854,1.489
		c-1.673,0.408-3.006,1.211-3.342,3.024c-0.342,1.848,0.53,3.199,2.021,4.198c1.885,1.264,4.004,1.582,6.217,1.49
		c0.765-0.031,1.529-0.088,2.614-0.154c-0.575,1.082-0.945,1.984-1.491,2.764c-1.569,2.244-3.16,4.477-4.855,6.625
		c-0.416,0.527-1.26,0.722-1.912,1.057c-0.084,0.043-0.204,0.015-0.307,0.021c-4.797,0.353-6.168-0.496-7.725-5.109
		c-0.658-1.947-0.937-4.023-1.581-5.978c-0.769-2.331-1.53-4.708-2.686-6.855c-1.512-2.812-3.41-5.418-5.13-8.12
		c-0.441-0.692-1.064-1.487-0.15-2.181c0.885-0.671,1.509,0.033,2.066,0.693c1.602,1.895,3.212,3.782,4.818,5.672
		c0.201,0.236,0.357,0.553,0.611,0.694c0.718,0.394,1.476,0.717,2.217,1.067c-0.031-0.775,0.146-1.637-0.128-2.314
		c-1.457-3.588-3.03-7.127-4.555-10.687C5.319,6.718,5.046,6.257,5.08,5.835C5.121,5.342,5.394,4.518,5.672,4.47
		c0.543-0.09,1.338,0.087,1.704,0.466c0.553,0.572,0.835,1.409,1.219,2.14c1.464,2.791,2.902,5.596,4.399,8.369
		c0.339,0.629,0.873,1.154,1.316,1.727C14.478,17.114,14.644,17.056,14.81,16.997z"/>
</g>
</svg>
