<svg fill="#fff" xmlns="http://www.w3.org/2000/svg" width="50.375" height="57.577"><g fill="#FFF"><path d="M35.564 42.184c-.415.529-.9 1.02-1.234 1.597-1.886 3.267-3.73 6.557-5.6 9.833-.357.627-.652 1.357-1.178 1.801-.432.365-1.242.624-1.735.467-.386-.125-.708-.946-.755-1.484-.045-.52.25-1.094.48-1.605 1.653-3.675 3.328-7.337 4.996-11.003.17-.376.463-.747.478-1.131.018-.458-.064-1.125-.36-1.329-.265-.182-.969.016-1.318.268-.576.418-1.017 1.021-1.526 1.535-2.403 2.423-4.8 4.853-7.225 7.254-.66.654-1.31 1.735-2.437.775-1.178-1.004-.366-1.912.275-2.821 3.365-4.767 6.715-9.544 10.063-14.321a8.21 8.21 0 0 0 .621-1.072c1.422-2.904.501-4.208-2.665-4.19-2.188.012-4.387-.319-6.559-.643-.448-.067-.801-.78-1.197-1.195.472-.241.923-.628 1.419-.699 4.33-.613 8.088-2.743 12.023-4.417 2.13-.905 4.322-1.676 6.524-2.392 1.853-.603 3.416.128 4.839 1.33 1.182.999 2.376 1.998 3.656 2.86 3.107 2.092 3.822 3.703 2.767 7.369-.682 2.372-1.719 4.643-2.42 7.01-.596 2.007-1.173 4.07-1.34 6.144-.275 3.395-.162 6.821-.336 10.227-.03.611-.57 1.612-1.021 1.703-1.086.218-1.221-.779-1.315-1.643-.291-2.67-.602-5.339-.908-8.007-.035-.307.001-.679-.16-.904-.36-.505-.823-.936-1.245-1.397-.336.477-.868.913-.977 1.438-.841 4.042-1.6 8.101-2.384 12.155-.049.252-.007.607-.159.742-.484.426-1.04.768-1.568 1.143-.321-.505-.941-1.028-.914-1.514.159-2.729.471-5.45.738-8.174.127-1.284.318-2.564.39-3.852.03-.562-.169-1.137-.263-1.705a12.878 12.878 0 0 0-.47-.153z"/><path d="M14.81 16.997c0-1.662.085-3.329-.018-4.985-.204-3.298-.516-6.59-.774-9.885-.077-.984-.012-1.958 1.24-2.11 1.196-.146 1.627.681 1.797 1.69a7415.49 7415.49 0 0 1 2.072 12.368c.018.102-.008.225.039.306.409.713.83 1.419 1.248 2.128.383-.651.961-1.258 1.115-1.959.845-3.829 1.6-7.677 2.351-11.527.185-.945.485-1.838 1.601-1.654 1.042.172 1.462 1.011 1.395 2.096-.305 4.898-.603 9.796-.862 14.698-.05.947-.492 1.374-1.361 1.584-1.957.471-3.897 1.012-5.854 1.489-1.673.408-3.006 1.211-3.342 3.024-.342 1.848.53 3.199 2.021 4.198 1.885 1.264 4.004 1.582 6.217 1.49.765-.031 1.529-.088 2.614-.154-.575 1.082-.945 1.984-1.491 2.764-1.569 2.244-3.16 4.477-4.855 6.625-.416.527-1.26.722-1.912 1.057-.084.043-.204.015-.307.021-4.797.353-6.168-.496-7.725-5.109-.658-1.947-.937-4.023-1.581-5.978-.769-2.331-1.53-4.708-2.686-6.855-1.512-2.812-3.41-5.418-5.13-8.12-.441-.692-1.064-1.487-.15-2.181.885-.671 1.509.033 2.066.693 1.602 1.895 3.212 3.782 4.818 5.672.201.236.357.553.611.694.718.394 1.476.717 2.217 1.067-.031-.775.146-1.637-.128-2.314-1.457-3.588-3.03-7.127-4.555-10.687-.182-.425-.455-.886-.421-1.308.041-.493.314-1.317.592-1.365.543-.09 1.338.087 1.704.466.553.572.835 1.409 1.219 2.14 1.464 2.791 2.902 5.596 4.399 8.369.339.629.873 1.154 1.316 1.727l.5-.175z"/></g></svg>