<?xml version="1.0" encoding="utf-8"?>
<!-- Generator: Adobe Illustrator 16.0.0, SVG Export Plug-In . SVG Version: 6.00 Build 0)  -->
<!DOCTYPE svg PUBLIC "-//W3C//DTD SVG 1.1//EN" "http://www.w3.org/Graphics/SVG/1.1/DTD/svg11.dtd">
<svg version="1.1" id="Layer_1" xmlns="http://www.w3.org/2000/svg" xmlns:xlink="http://www.w3.org/1999/xlink" x="0px" y="0px"
	 width="50px" height="50px" viewBox="0 0 50 50" enable-background="new 0 0 50 50" xml:space="preserve">
<path fill="#FFFFFF" d="M39.822,27.766c0,3.959-1.541,7.683-4.341,10.481c-2.8,2.8-6.522,4.342-10.481,4.342
	c-3.958,0-7.681-1.542-10.481-4.342c-2.799-2.799-4.341-6.522-4.341-10.481c0-3.958,1.542-7.68,4.341-10.48
	c2.151-2.151,4.849-3.551,7.778-4.088v5.279l15.999-9.239L22.297,0v5.701c-4.915,0.592-9.463,2.789-13.019,6.344
	c-4.199,4.2-6.512,9.783-6.512,15.721c0,5.939,2.312,11.522,6.512,15.724C13.479,47.688,19.062,50,25,50
	c5.938,0,11.521-2.312,15.722-6.513c4.199-4.199,6.512-9.783,6.512-15.722H39.822z"/>
</svg>
