<?xml version="1.0" encoding="utf-8"?>
<!-- Generator: Adobe Illustrator 16.0.0, SVG Export Plug-In . SVG Version: 6.00 Build 0)  -->
<!DOCTYPE svg PUBLIC "-//W3C//DTD SVG 1.1//EN" "http://www.w3.org/Graphics/SVG/1.1/DTD/svg11.dtd">
<svg version="1.1" id="Layer_1" xmlns="http://www.w3.org/2000/svg" xmlns:xlink="http://www.w3.org/1999/xlink" x="0px" y="0px"
	 width="50.692px" height="50.694px" viewBox="0 0 50.692 50.694" enable-background="new 0 0 50.692 50.694" xml:space="preserve">
<g>
	<g>
		<path d="M45.85,50.694H4.844C2.173,50.694,0,48.521,0,45.85V14.773c0-1.381,1.119-2.5,2.5-2.5s2.5,1.119,2.5,2.5v30.92h40.692V5
			H15.685c-1.381,0-2.5-1.119-2.5-2.5s1.119-2.5,2.5-2.5H45.85c2.67,0,4.843,2.173,4.843,4.844V45.85
			C50.692,48.521,48.52,50.694,45.85,50.694z"/>
	</g>
	<g>
		<path d="M36.697,16.686H14.614c-1.381,0-2.5-1.119-2.5-2.5s1.119-2.5,2.5-2.5h22.083c1.381,0,2.5,1.119,2.5,2.5
			S38.078,16.686,36.697,16.686z"/>
	</g>
	<g>
		<path d="M36.697,28.012H14.614c-1.381,0-2.5-1.12-2.5-2.5c0-1.381,1.119-2.5,2.5-2.5h22.083c1.381,0,2.5,1.119,2.5,2.5
			C39.197,26.892,38.078,28.012,36.697,28.012z"/>
	</g>
	<g>
		<path d="M36.697,39.729H14.614c-1.381,0-2.5-1.119-2.5-2.5s1.119-2.5,2.5-2.5h22.083c1.381,0,2.5,1.119,2.5,2.5
			S38.078,39.729,36.697,39.729z"/>
	</g>
</g>
</svg>
