<svg fill="#fff" xmlns="http://www.w3.org/2000/svg" width="50" height="50"><path fill="#FFF" d="M39.822 27.766a14.72 14.72 0 0 1-4.341 10.481A14.725 14.725 0 0 1 25 42.589a14.727 14.727 0 0 1-10.481-4.342 14.727 14.727 0 0 1-4.341-10.481c0-3.958 1.542-7.68 4.341-10.48a14.708 14.708 0 0 1 7.778-4.088v5.279l15.999-9.239L22.297 0v5.701a22.064 22.064 0 0 0-13.019 6.344 22.09 22.09 0 0 0-6.512 15.721A22.095 22.095 0 0 0 9.278 43.49 22.097 22.097 0 0 0 25 50a22.087 22.087 0 0 0 15.722-6.513 22.09 22.09 0 0 0 6.512-15.722h-7.412z"/></svg>