<svg fill="#fff" xmlns="http://www.w3.org/2000/svg" width="113.278" height="105.4"><path fill="#2D8282" d="M93.794 66.615H73.575a3 3 0 1 1 0-6h20.219a3 3 0 1 1 0 6zM93.794 80.644H73.575a3 3 0 1 1 0-6h20.219a3 3 0 1 1 0 6zM38.504 71.734c-10.392 0-18.847-8.454-18.847-18.846s8.455-18.847 18.847-18.847c10.392 0 18.846 8.455 18.846 18.847s-8.454 18.846-18.846 18.846zm0-31.693c-7.083 0-12.847 5.763-12.847 12.847s5.763 12.846 12.847 12.846c7.083 0 12.846-5.763 12.846-12.846s-5.763-12.847-12.846-12.847z"/><path fill="#2D8282" d="M20.758 93.848a3.001 3.001 0 0 1-2.952-2.484c-.382-2.187-2.022-13.323 3.256-17.867 1.583-1.363 4.413-2.673 8.901-1.175 8.457 2.825 9.148 3.056 20.446-.433 1.659-.511 3.286-.212 4.587.843 3.797 3.08 3.508 12.844 2.999 18.39a3.008 3.008 0 0 1-3.261 2.713 3 3 0 0 1-2.713-3.261c.472-5.167.188-10.777-.584-12.724-11.383 3.49-13.534 3.451-23.374.163-1.458-.486-2.497-.478-3.086.03-1.933 1.664-1.974 8.205-1.26 12.287a3 3 0 0 1-2.959 3.518zM93.794 51.761H73.575a3 3 0 1 1 0-6h20.219a3 3 0 1 1 0 6z"/><path fill="#2D8282" d="M98.278 15.641H65.003V7c0-3.86-3.141-7-7-7h-7.267c-3.86 0-7 3.14-7 7v8.641H15c-8.271 0-15 6.729-15 15V90.4c0 8.271 6.729 15 15 15h83.278c8.271 0 15-6.729 15-15V30.641c0-8.271-6.728-15-15-15zM49.736 7c0-.542.458-1 1-1h7.267c.542 0 1 .458 1 1v15.931c0 .542-.458 1-1 1h-7.267c-.542 0-1-.458-1-1V7zm57.542 83.4c0 4.963-4.037 9-9 9H15c-4.962 0-9-4.037-9-9V30.641c0-4.962 4.038-9 9-9h28.736v1.29c0 3.86 3.14 7 7 7h7.267c3.859 0 7-3.14 7-7v-1.29h33.275c4.963 0 9 4.038 9 9V90.4z"/></svg>