<svg fill="#fff" xmlns="http://www.w3.org/2000/svg" width="300" height="547.914"><g fill="#FFF"><path d="M299.999 365.988v-.548c-.062-37.999-.127-77.292-13.599-107.981-7.342-16.723-18.156-29.372-32.616-38.064 2.755-4.194 4.38-7.936 4.396-10.915.018-3.407-1.934-5.813-5.496-6.777-10.144-2.743-18.206-6.349-24.839-10.129 4.374-8.403 8.471-18.833 11.992-31.774 8.989-33.046 3.268-74.383-2.267-114.359-.494-3.571-.98-7.119-1.461-10.66a51.19 51.19 0 0 0-.307-2.231c0-.005 0-.01-.002-.016l-.004-.033-.012-.085c-.004-.025-.014-.047-.017-.071-.841-5.154-2.413-9.865-4.704-13.966C224.906 7.355 213.778 1.023 198.881.068A31.303 31.303 0 0 0 196.809 0c-16.679 0-26.258 12.521-28.1 24.154-1.431 9.037 1.389 17.279 7.485 23.245-19.393-4.634-51.761-11.152-80.37-11.152-8.953 0-17.021.649-23.978 1.93a134.103 134.103 0 0 0-12.915 3.033 1.95 1.95 0 0 0-.336.092c-18.758 5.463-33.836 14.656-44.064 26.974C3.881 81.102-1.195 96.81.237 112.507c.979 10.725 5.042 20.562 11.442 27.698 6.863 7.653 15.759 11.698 25.726 11.698.422 0 .833-.13 1.18-.371.026-.019.364-.254.959-.665-.406 3.41-.698 6.948-.865 10.628-1.492 1.519-6.271 6.565-11.291 13.84-5.509 7.983-12.299 20.222-13.362 33.189-.311 3.795 1.141 9.819 5.063 14.075 3.017 3.274 7.02 5.005 11.575 5.005 5.339 0 11.152-3.694 13.734-9.251 4.604 14.58 12.722 25.871 24.248 33.672 12.228 8.276 27.947 12.473 46.72 12.473l.637-.001c.518-.002 1.027-.015 1.535-.027l.67-.018.755.018a69.96 69.96 0 0 0 1.53.027l.639.001h.001c1.832 0 3.626-.052 5.399-.132-.326 12.834-.391 21.571.886 27.293v62.923c-5.357 2.528-11.347 5.073-18.308 7.779-13.173 5.126-16.435 14.584-15.095 21.727 1.368 7.291 7.136 12.63 14.492 13.797 2.266 7.17 8.976 12.025 17.011 12.027h.003c.627 0 1.262-.04 1.897-.1v37.433a2.058 2.058 0 1 0 4.114 0v-18.654h7.127v18.685a2.057 2.057 0 1 0 4.115 0v-18.685h7.095V477.1a2.058 2.058 0 0 0 2.058 2.058h26.227v37.252c-3.692.275-11.967 1.164-20.353 3.941-15.161 5.02-23.175 13.808-23.175 25.417 0 1.137.921 2.058 2.058 2.058 24.212 0 42.267.018 54.955.035l-.007.053h15.384c-.004-.008-.006-.016-.011-.024.224.002.452.002.666.002l-.002-.03h.107v.053h24.394c.139 0 .275-.015.41-.042.041-.008.078-.025.118-.035.089-.024.18-.047.266-.083.051-.021.096-.052.144-.076.07-.037.143-.069.209-.114.048-.032.09-.072.135-.109.057-.046.117-.086.17-.14.018-.016.03-.038.047-.056.074-.081.147-.163.209-.254.029-.044.048-.091.074-.136.04-.072.084-.141.116-.218.021-.054.033-.109.051-.164.023-.074.052-.145.067-.222a2.07 2.07 0 0 0 .042-.408v-66.699h62.681a2.059 2.059 0 0 0 2.058-2.033c.009-.879 1.07-88.085 1.032-111.138zM235.866 158.72c-15.456 56.817-41.584 62.951-52.1 62.951-13.309 0-25.783-9.29-30.29-22.314 6.226-3.22 10.669-8.654 12.937-15.981 7.928-2.533 17.451-6 27.029-10.497 23.354-10.964 39.104-24.313 46.473-39.194-.632 8.763-1.907 17.16-4.049 25.035zm-110.053.212c-.853-.38-1.7-.79-2.545-1.217-.359-2.329-.876-8.777 2.993-14.882 3.972-6.267 11.381-10.508 22.022-12.605 4.715-.93 10.875-1.427 17.395-1.954 26.251-2.121 64.089-5.184 72.927-41.468 1.035 10.478 1.725 20.806 1.797 30.796-3.27 32.857-46.006 52.118-72.876 61.049.031-.184.066-.363.095-.548l.049-.31c2.536-15.061-6.262-24.022-14.565-27.121-10.148-3.785-21.114-.384-27.292 8.26zm12.078-73.52c.474 0 .954.004 1.435.014 3.535.071 6.995.106 10.283.106 42.765 0 67.012-5.917 78.624-19.184 2.945-3.367 5.093-7.255 6.451-11.714.574 4.198 1.137 8.403 1.674 12.603 1.37 51.086-40.461 54.467-71.01 56.935-6.641.536-12.914 1.043-17.86 2.019-11.826 2.332-20.151 7.211-24.741 14.503-3.394 5.39-3.96 10.893-3.836 14.572-14.116-8.751-25.451-24.1-21.862-42.307 4.001-20.311 23.722-27.547 40.842-27.547zm54.338-29.599l.026.004c.008.001.015.005.022.007 1.7.362 3.354.54 4.948.54 5.849 0 10.858-2.403 14.16-6.919 3.631-4.965 4.317-11.677 1.67-16.323-1.339-2.349-4.69-6.182-12.101-5.465a2.058 2.058 0 0 0 .396 4.096c3.837-.372 6.647.806 8.13 3.406 1.87 3.283 1.288 8.159-1.416 11.857-1.878 2.568-6.307 6.601-14.884 4.792-.3-.087-1.34-.386-3.031-.849-15.085-4.922-18.87-16.738-17.377-26.162 1.577-9.961 9.771-20.682 24.035-20.682.596 0 1.205.02 1.811.058 13.625.874 23.332 6.328 28.852 16.211 2.201 3.94 3.565 8.331 4.277 12.922.401 3.074.598 5.944.595 8.634a62.281 62.281 0 0 1-.271 5.118c-.75 6.704-3.036 12.121-6.938 16.58-10.614 12.13-34.612 17.78-75.526 17.78-3.261 0-6.693-.036-10.201-.106a77.333 77.333 0 0 0-1.517-.015c-5.969 0-11.264.702-15.948 1.937-.342-.015-.676-.039-1.021-.051a2.16 2.16 0 0 0-.59-.083l-.454-.005c-.172-.003-.344-.006-.52-.006l-.229.002c-.214.002-.427.007-.64.013l-.241.005-.231-.005c-.216-.005-.432-.011-.636-.013l-.241-.002c-.176 0-.349.003-.522.006l-.511.005c-.222.012-.38.029-.562.084-13.609.496-25.259 2.743-35.102 6.785-1.602-5.109-4.901-19.163 2.808-30.312 7.953-11.501 25.146-16.944 51.106-16.183 24.519 3.553 46.328 9.165 54.613 11.428a43.46 43.46 0 0 0 3.261.911zM72.591 42.222c6.712-1.234 14.528-1.861 23.232-1.861 4.648 0 9.399.175 14.179.488-14.199 2.502-24.305 8.014-30.155 16.495-9.033 13.096-4.978 28.96-3.195 34.32-7.932 3.825-14.587 8.936-20.032 15.389-2.729 3.234-5.141 6.789-7.25 10.657-.043-.036-.081-.078-.127-.111-6.834-4.851-19.403-22.197-17.486-40.312 1.463-13.829 10.933-24.621 28.145-32.08a130.418 130.418 0 0 1 12.689-2.985zm-35.823 105.56c-17.247-.351-30.541-14.91-32.434-35.648-1.332-14.606 3.414-29.248 13.363-41.23 5.719-6.888 13.083-12.743 21.834-17.47-6.094 5.844-10.815 13.488-11.866 23.421-1.957 18.494 9.891 37.494 19.196 44.099.217.154.454.254.697.314-3.335 7.039-5.747 15.048-7.237 24.074a477.664 477.664 0 0 0-3.553 2.44zm-6.104 75.708c-3.424 0-6.3-1.237-8.549-3.678-2.945-3.196-4.235-7.929-3.988-10.951 1.428-17.41 14.095-33.898 20.389-41.104-.005.593-.004 1.193-.004 1.793-2.026 11.949 2.66 40.003 3.14 42.817-.104 4.493-4.461 11.123-10.988 11.123zm90.469 36.894l-.62-.001a68.69 68.69 0 0 1-1.448-.026l-.857-.018-.772.018c-.48.012-.961.024-1.453.026l-.618.001c-25.89 0-42.59-7.958-53.261-19.232 1.938-.933 4.78-2.779 7.61-6.358a2.057 2.057 0 1 0-3.228-2.552c-3.139 3.97-6.174 5.29-7.23 5.652-8.58-10.634-12.549-23.584-14.177-35.503-5.874-42.989-.933-74.172 14.687-92.684C70.987 96.41 87.84 89.135 111.179 87.536c-10.679 6.01-16.371 15.507-18.168 24.628-1.878 9.53.062 19.749 5.462 28.773 4.943 8.26 12.476 15.084 21.964 19.981.03.017.061.032.091.047a67.88 67.88 0 0 0 5.269 2.438c.124.051.237.102.36.152.004-.016.011-.031.016-.047a2.052 2.052 0 0 0 2.162-.938c5.746-9.425 15.86-10.83 23.333-8.042 7.164 2.673 14.063 10.008 11.946 22.583l-.058.365c-1.221 7.903-6.143 21.163-25.402 21.163a2.058 2.058 0 1 0 0 4.114c4.236 0 8.093-.611 11.529-1.783 5.179 14.715 18.895 24.816 34.085 24.816.318 0 .652-.006.996-.017-8.79 18.7-27.018 34.615-63.631 34.615zm46.72-8.357c9.627-6.516 16.861-15.482 21.668-26.752 9.543-1.664 23.863-8.16 36.352-30.075 6.858 3.903 15.211 7.629 25.736 10.476 2.168.587 2.462 1.684 2.456 2.783-.042 7.715-17.173 26.699-41.66 46.165-22.18 17.632-44.979 31.627-62.044 38.294-.164.026-.324.055-.49.079v.108c-2.993 1.152-5.809 2.08-8.406 2.751-1.757.455-3.201.677-4.414.677-2.135 0-3.085-.723-3.615-1.268-3.223-3.311-3.221-13.861-2.779-31.154 14.613-1.206 27.098-5.25 37.196-12.084zm-36.319 118.702v-71.7c1.482 1.08 3.296 1.617 5.517 1.617h.001c1.565 0 3.347-.264 5.445-.809 2.361-.611 4.83-1.403 7.374-2.335v64.584c-5.359 2.894-11.322 5.704-18.337 8.643zm-33.473 12.602c-1.58-8.421 5.443-14.372 12.542-17.134 6.302-2.451 11.824-4.773 16.816-7.073v13.293c-1.407.567-2.847 1.14-4.339 1.72-11.771 4.579-15.625 12.617-15.356 19.373-4.947-1.312-8.716-5.124-9.663-10.179zm27.461 22.467h-.002c-6.763-.001-12.311-4.398-13.491-10.694-1.579-8.42 5.444-14.37 12.543-17.132 13.156-5.119 22.966-9.674 31.491-14.637l2.736 3.631 15.464 20.522c-13.082 7.846-27.925 13.79-44.199 17.694-1.54.409-3.067.616-4.542.616zm83.538-120.284c.023-.109.036-.22.041-.331.492-11.68 6.705-23.503 17.628-23.503 9.492 0 14.057 9.356 14.385 18.662-.098 1.36-1.437 17.958-9.659 38.72-7.746 19.556-23.323 46.77-53.681 66.249l-18.167-24.11c26.813-16.73 42.106-40.175 49.453-75.687zm-77.526 138.964v-15.421a174.127 174.127 0 0 0 18.336-5.51v20.931h-18.336zm63.198 54.68v37.135l-12.463.002v-37.137h12.463zm-39.307 64.553c2.301-21.757 41.025-23.29 41.364-23.303h33.322v23.385c-6.67-.021-29.85-.08-74.686-.082zm16.242-22.392c-12.547 4.813-19.534 12.494-20.375 22.396-3.948-.002-8.092-.004-12.444-.004 1.616-15.275 21.184-20.582 32.819-22.392zm58.445-5.026l-22.55.002.001-.002h-8.717v-37.135h31.266v37.135zm64.763-41.25H153.984v-73.057c8.663-3.409 16.813-7.474 24.373-12.177 32.358-20.134 48.814-48.763 56.922-69.234 8.78-22.172 9.903-39.355 9.947-40.075.003-.062.005-.127.002-.189-.501-15.712-9.652-22.746-18.5-22.746-5.357 0-10.672 2.592-14.582 7.111-4.303 4.976-6.773 11.944-7.149 20.164-3.17 15.256-7.853 28.194-14.347 39.276a4.098 4.098 0 0 0-2.248-.673 4.11 4.11 0 0 0-4.11 4.111c0 1.458.766 2.732 1.911 3.46a92.393 92.393 0 0 1-10.542 12.424c-.685-1.319-2.047-2.229-3.636-2.229a4.11 4.11 0 0 0-4.11 4.111c0 1.447.752 2.714 1.883 3.445-4.34 3.639-9.082 6.993-14.258 10.097-.513.308-1.033.614-1.557.92v-63.885c14.215-5.871 30.406-15.746 44.858-25.971a4.103 4.103 0 0 0 3.732 2.408 4.11 4.11 0 0 0 4.111-4.109 4.089 4.089 0 0 0-1.332-3.013 354.454 354.454 0 0 0 9.61-7.369c13.778-10.953 28.185-24.129 36.395-35.017 13.898 8.284 24.271 20.336 31.272 36.286 13.126 29.901 13.189 68.758 13.252 106.333v.549c.037 21.053-.845 95.734-1.006 109.049z"/><circle cx="172.026" cy="307.372" r="4.11"/><circle cx="188.403" cy="289.605" r="4.111"/><circle cx="249.499" cy="289.605" r="4.111"/><path d="M263.669 303.262a4.11 4.11 0 0 0 0 8.219 4.11 4.11 0 1 0 0-8.219z"/><circle cx="280.047" cy="289.605" r="4.111"/><circle cx="249.499" cy="250.457" r="4.111"/><path d="M263.669 264.113a4.111 4.111 0 1 0 .005 8.223 4.111 4.111 0 0 0-.005-8.223z"/><circle cx="233.123" cy="345.32" r="4.11"/><circle cx="249.499" cy="327.553" r="4.111"/><path d="M263.669 341.21a4.11 4.11 0 1 0 .003 8.221 4.11 4.11 0 0 0-.003-8.221z"/><circle cx="280.047" cy="327.553" r="4.111"/><circle cx="202.576" cy="383.268" r="4.111"/><circle cx="218.951" cy="365.5" r="4.111"/><circle cx="233.123" cy="383.268" r="4.111"/><circle cx="249.499" cy="365.5" r="4.111"/><path d="M263.669 379.156a4.112 4.112 0 1 0 .005 8.223 4.112 4.112 0 0 0-.005-8.223z"/><circle cx="280.047" cy="365.5" r="4.111"/><circle cx="172.026" cy="421.215" r="4.11"/><circle cx="188.403" cy="403.449" r="4.11"/><circle cx="202.576" cy="421.215" r="4.11"/><circle cx="218.951" cy="403.449" r="4.11"/><circle cx="233.123" cy="421.215" r="4.11"/><circle cx="249.499" cy="403.449" r="4.11"/><path d="M263.669 417.105a4.11 4.11 0 0 0 0 8.219 4.11 4.11 0 1 0 0-8.219z"/><circle cx="280.047" cy="403.449" r="4.11"/><circle cx="172.026" cy="459.163" r="4.11"/><circle cx="188.403" cy="441.396" r="4.11"/><circle cx="202.576" cy="459.163" r="4.11"/><circle cx="218.951" cy="441.396" r="4.11"/><circle cx="233.123" cy="459.163" r="4.11"/><circle cx="249.499" cy="441.396" r="4.11"/><path d="M263.669 455.053a4.11 4.11 0 1 0 .003 8.221 4.11 4.11 0 0 0-.003-8.221z"/><circle cx="280.047" cy="441.396" r="4.11"/><path d="M74.614 186.433a2.057 2.057 0 0 0 1.865-2.233 2.061 2.061 0 0 0-2.233-1.865c-9.919.884-12.919-6.536-13.053-6.882a2.057 2.057 0 1 0-3.853 1.443c.105.283 1.104 2.837 3.706 5.28 2.183 2.049 5.898 4.348 11.576 4.348a22.99 22.99 0 0 0 1.992-.091zM71.272 173.235c5.521 0 10.012-4.491 10.012-10.012v-11.086c0-5.521-4.491-10.012-10.012-10.012-5.521 0-10.013 4.491-10.013 10.012v11.086c0 5.521 4.492 10.012 10.013 10.012zm-5.898-21.098a5.905 5.905 0 0 1 5.898-5.897 5.904 5.904 0 0 1 5.897 5.897v11.086a5.904 5.904 0 0 1-5.897 5.897 5.905 5.905 0 0 1-5.898-5.897v-11.086zM146.384 170.681a2.057 2.057 0 0 0 1.983-2.129 2.049 2.049 0 0 0-2.129-1.983c-10.645.376-15.012 8.253-15.834 12.366a2.053 2.053 0 0 0 2.019 2.455c.954 0 1.81-.669 2.014-1.638.075-.357 1.952-8.718 11.947-9.071zM95.001 235.365c-27.117-8.079-24.508-36.084-24.384-37.273a2.058 2.058 0 0 0-1.827-2.262 2.05 2.05 0 0 0-2.265 1.826c-.035.325-3.132 32.584 27.301 41.652a2.058 2.058 0 0 0 1.175-3.943z"/></g></svg>