<?xml version="1.0" encoding="utf-8"?>
<!-- Generator: Adobe Illustrator 16.0.0, SVG Export Plug-In . SVG Version: 6.00 Build 0)  -->
<!DOCTYPE svg PUBLIC "-//W3C//DTD SVG 1.1//EN" "http://www.w3.org/Graphics/SVG/1.1/DTD/svg11.dtd">
<svg version="1.1" id="Layer_1" xmlns="http://www.w3.org/2000/svg" xmlns:xlink="http://www.w3.org/1999/xlink" x="0px" y="0px"
	 width="300px" height="541.728px" viewBox="0 0 300 541.728" enable-background="new 0 0 300 541.728" xml:space="preserve">
<g>
	<path fill="#FFFFFF" d="M298.958,536.798c-0.009-0.157-0.021-0.325-0.035-0.521c-0.001-0.011-0.003-0.027-0.005-0.039
		c-0.243-2.91-1.392-9.727-6.757-15.112c-3.645-3.662-9.238-6.659-17.818-7.319c-0.712-0.055-1.413-0.141-2.11-0.251
		c-0.24-0.037-0.478-0.091-0.716-0.136c-0.434-0.081-0.866-0.163-1.287-0.265c-0.327-0.077-0.647-0.168-0.97-0.258
		c-0.311-0.089-0.623-0.177-0.927-0.275c-0.383-0.122-0.763-0.255-1.14-0.396c-0.203-0.075-0.402-0.155-0.603-0.235
		c-11.422-4.606-17.587-16.47-20.102-22.617c1.227-0.219,2.451-0.437,3.695-0.662c1.104-0.198,1.854-1.233,1.702-2.344
		c-2.723-19.888-8.014-45.408-24.902-66.423c-11.508-14.314-30.228-26.688-48.853-32.288c-0.282-0.085-0.548-0.173-0.825-0.258
		c3.937-1.1,7.803-2.232,11.571-3.4c0.557-0.171,1.018-0.568,1.269-1.095c0.252-0.527,0.272-1.134,0.058-1.677l-12.156-30.624
		c-7.114-17.445-14.392-35.811-20.416-55.177c19.068-0.799,37.442-5.257,54.707-13.296c0.283-0.008,0.563-0.069,0.824-0.191
		c15.417-7.229,30.094-17.413,43.584-30.233c0.662-0.6,1.268-1.23,1.838-1.878c1.813,0.423,3.733,0.648,5.77,0.649
		c0.001,0,0.003,0,0.003,0c1.171,0,2.381-0.077,3.6-0.229c11.505-1.429,20.486-6.79,25.971-15.505
		c7.169-11.391,8.034-27.606,2.369-44.49c-0.177-0.526-0.555-0.961-1.052-1.208c-0.497-0.248-1.072-0.288-1.599-0.11
		c-8.408,2.822-29.653,9.962-29.653,9.962c-1.086,0.366-1.677,1.537-1.325,2.629c0.012,0.034,1.139,3.529,2.911,9.991
		c0.087,0.319,0.247,0.611,0.47,0.855c0.107,0.118,0.141,0.368,0.075,0.583c-0.077,0.252-0.105,0.518-0.084,0.781
		c0.17,2.055-0.487,4.053-1.804,5.482c-1.009,1.096-2.267,1.699-3.54,1.7c-2.072,0-4.078-1.613-5.651-4.543
		c-3.084-5.746-9.349-18.038-16.658-35.798c-3.625-8.803-8.633-13.267-14.884-13.267c-4.574,0-9.568,2.454-14.889,7.299
		c-0.17-0.513-0.341-1.025-0.507-1.539c2.777-2.698,5.271-6.935,6.306-11.327c0.137-0.58,0.24-1.15,0.323-1.717
		c0.162-0.936,0.269-1.981,0.263-3.096c2.627,1.97,5.737,3.125,8.706,3.125c10.896,0,15.741-9.664,16.643-18.708
		c1.853-18.592-1.318-32.692-9.424-41.91c-6.561-7.461-14.488-9.513-18.152-10.077c0.003-9.348,0.004-14.566,0.004-14.567
		c0-10.385-0.822-25.856-7.929-40.249c-5.19-10.509-12.919-18.663-23.07-24.406c-0.366-0.479-0.92-0.779-1.521-0.819
		c-5.938-3.146-12.65-5.518-20.155-7.069C152.873,0.757,144.816,0,136.152,0c-17.538,0-32.668,3.166-45.259,9.446
		c-4.655,0.945-34.953,8.534-54.431,48.831c-8.887,18.387-10.212,38.482-3.637,55.135c5.614,14.218,16.558,24.895,31.657,30.941
		c1.169,2.359,2.319,4.553,3.417,6.65c5.256,10.033,9.408,17.958,9.41,31.664v5.262l-6.91-4.677
		c-0.567-0.384-1.289-0.466-1.927-0.219c-0.64,0.247-1.118,0.792-1.28,1.457l-11.034,45.321c-0.227,0.932,0.21,1.9,1.06,2.347
		l7.528,3.96c-7.357,13.996-9.991,34.803-8.027,63.05c0.378,5.425,0.786,11.293,1.227,17.4c-4.467-24.107-7.846-42.659-8.036-43.697
		c-0.216-1.511-3.812-23.967-24.452-23.967c-1.422,0-2.911,0.109-4.424,0.326c-7.086,1.012-12.503,4.114-16.101,9.222
		c-7.287,10.34-4.379,25.112-4.257,25.712c0.151,0.785,15.156,79.013,22.579,111.616c0.374,1.639,0.739,3.266,1.102,4.876
		c9.188,40.841,16.447,73.101,87.594,73.101c7.102,0,12.839,0.17,18.388,0.333c4.983,0.149,9.691,0.288,14.919,0.288
		c10.984,0,14.967,5.802,15.041,10.77c0.122,8.201-8.199,12.874-16.089,13.108c-18.661,0.553-26.137,0.561-48.127,0.487
		c-9.771-0.033-21.93-0.073-39.561-0.073c-15.76,0-24.007,10.947-24.007,21.762c0,10.256,7.606,21.295,24.308,21.295h86.205
		c17.161,0,31.736-4.658,42.149-13.473c10.937-9.255,16.718-22.688,16.718-38.85c0-13.769-0.916-27.788-6.652-38.951
		c5.686,8.066,11.055,20.78,13.623,43.034c0.065,0.567,0.358,1.083,0.812,1.428c0.366,0.278,0.812,0.427,1.267,0.427
		c0.108,0,0.218-0.01,0.326-0.026c1.93-0.304,3.872-0.616,5.824-0.931l0.15,43.493c0,0.02,0.006,0.037,0.006,0.057
		c0.004,0.121,0.014,0.24,0.037,0.355c0.023,0.114,0.061,0.226,0.103,0.333c0.007,0.019,0.01,0.038,0.017,0.056
		c0.053,0.123,0.116,0.24,0.19,0.352c0.001,0.002,0.002,0.005,0.003,0.007c0.077,0.112,0.163,0.221,0.263,0.317
		c0.097,0.098,0.203,0.183,0.316,0.258c0.015,0.01,0.031,0.017,0.046,0.024c0.101,0.064,0.204,0.121,0.313,0.167
		c0.015,0.007,0.032,0.01,0.048,0.015c0.111,0.043,0.226,0.08,0.342,0.104c0.008,0,0.015,0,0.021,0.002
		c0.126,0.023,0.255,0.039,0.388,0.039c0.003,0,0.005,0,0.008,0l38.776-0.134l38.777-0.134c1.13-0.004,2.053-0.904,2.085-2.034
		c0-0.009,0-0.036,0-0.084c0-0.117-0.003-0.361-0.021-0.706C298.96,536.85,298.958,536.82,298.958,536.798z M221.277,493.704
		c6.783-1.113,13.741-2.301,20.974-3.578c1.55,4.044,4.728,10.914,10.134,16.837c-13.346,2.82-25.849,5.508-31.039,6.624
		L221.277,493.704z M56.52,502.856c17.623,0,29.779,0.041,39.546,0.074c22.061,0.073,29.556,0.065,48.266-0.489
		c13.25-0.393,20.271-9.234,20.151-17.354c-0.11-7.413-6.098-14.895-19.227-14.895c-5.166,0-9.843-0.139-14.795-0.286
		c-5.58-0.165-11.349-0.335-18.513-0.335c-67.798,0-74.389-29.292-83.51-69.833c-0.363-1.613-0.73-3.244-1.104-4.888
		C19.928,362.319,4.937,284.162,4.781,283.352c-0.028-0.136-2.684-13.609,3.572-22.488c2.908-4.127,7.372-6.647,13.271-7.49
		c1.319-0.188,2.607-0.284,3.832-0.284c17.531,0,20.204,19.542,20.308,20.372c0.005,0.041,0.011,0.08,0.018,0.119
		c0.1,0.546,7.772,42.688,15.479,83.533c1.886,19.669,4.165,37.498,6.925,47.215c0.257,0.905,1.083,1.522,2.011,1.522
		c0.047,0,0.093-0.002,0.141-0.005c0.881-0.06,1.768-0.125,2.655-0.188c4.931,8.382,12.85,14.835,23.452,18.971
		c11.191,4.366,21.459,4.688,22.691,4.711c1.211,0.131,11.838,1.251,18.847,1.251c50.487,0,59.723,19.806,59.723,58.814
		c0,29.69-20.953,48.137-54.681,48.137H56.821c-13.899,0-20.122-8.594-20.122-17.109C36.699,511.968,42.902,502.856,56.52,502.856z
		 M77.309,192.985l1.675,1.133l0.418,0.283l0.418,0.283l1.675,1.133l31.362,21.228l1.674,1.133l0.418,0.284l0.419,0.283l1.674,1.133
		l29.148,19.729l0.999,15.944c-1.143-0.068-2.292-0.159-3.446-0.265c-0.716-0.067-1.431-0.136-2.15-0.217
		c-0.188-0.021-0.377-0.046-0.565-0.069c-0.173-0.02-0.347-0.041-0.522-0.062c-0.743-0.092-1.49-0.19-2.238-0.296
		c-6.838-0.977-13.889-2.611-21.226-4.92c-0.558-0.176-1.114-0.347-1.674-0.53c-0.139-0.046-0.28-0.095-0.419-0.141
		c-0.139-0.046-0.279-0.095-0.418-0.141c-0.558-0.185-1.114-0.37-1.674-0.562c-2.208-0.761-4.441-1.576-6.706-2.456
		c-6.044-3.54-12.281-5.409-18.046-5.409c-1.767,0-3.471,0.177-5.095,0.509l-1.516-0.797l-1.675-0.88l-0.418-0.221l-0.418-0.219
		l-1.675-0.881l-6.715-3.53l-1.48-0.779l-0.387-0.203l-0.391-0.206l-1.483-0.78l-6.242-3.283l9.935-40.806L77.309,192.985z
		 M71.607,149.061c-0.468-0.892-0.945-1.805-1.429-2.74c4.047,1.159,7.919,1.754,11.554,1.754c1.178,0,2.348-0.062,3.483-0.183
		c1.042-0.111,1.841-0.976,1.87-2.023c0.08-2.855,0.253-5.516,0.508-8.004c4.733,3.141,10.713,4.809,17.728,4.809
		c1.156,0,2.093-0.937,2.093-2.093c0-0.878-0.542-1.627-1.308-1.938c-0.243-0.099-0.507-0.155-0.785-0.155
		c-7.86,0-13.32-2.217-17.116-5.375c-0.522-0.434-1.012-0.885-1.472-1.352c-0.123-0.124-0.238-0.25-0.356-0.375
		c-0.122-0.129-0.244-0.256-0.36-0.388c-0.497-0.557-0.958-1.13-1.382-1.716c-2.85-3.942-4.095-8.425-4.628-11.881l-0.057-0.365
		c-1.571-9.328,2.726-20.462,13.977-23.696c5.834-1.678,13.114-0.675,18.71,5.788c0.448,0.518,0.887,1.07,1.312,1.659
		c0.1,0.139,0.2,0.28,0.299,0.424c0.097,0.141,0.195,0.283,0.291,0.428c1.019,1.539,1.959,3.298,2.793,5.311
		c0.223,0.539,0.647,0.934,1.148,1.137l-0.255,0.629l13.811,27.056c0.413,0.809,1.301,1.26,2.197,1.114
		c0.896-0.144,1.597-0.85,1.736-1.748c0.13-0.85,1.426-9.474,1.867-20.138l30.45-2.965c1.433,11.006,6.723,18.959,13.213,18.959
		c6.079,0,11.166-6.773,12.958-17.254c0.322-1.876,0.522-3.822,0.602-5.805l13.524-1.163c0,4.953-0.001,10.394-0.001,16.284
		l0.004,2.328c0.015,5.396,0.033,11.949-0.503,18.995c-0.925-0.647-1.96-1.269-3.131-1.853c-0.001-0.002-0.003-0.002-0.005-0.002
		c-1.437-0.716-2.973-1.079-4.565-1.079c-1.547,0-3.07,0.343-4.574,0.895c-0.408,0.149-0.813,0.314-1.219,0.493
		c-0.421,0.186-0.841,0.383-1.259,0.594c-1.823,0.922-3.616,2.062-5.384,3.185c-0.072,0.046-0.145,0.092-0.217,0.138
		c-2.338,1.485-4.748,2.999-7.086,3.9c-0.339,0.131-0.678,0.258-1.015,0.383c-1.862,0.69-3.703,1.3-5.483,1.836
		c-0.398,0.119-0.792,0.234-1.183,0.347c-0.355,0.103-0.707,0.202-1.056,0.299c-1.34,0.37-2.632,0.698-3.855,0.989
		c-6.167,1.463-10.585,1.954-10.655,1.962c-0.803,0.086-1.484,0.628-1.751,1.391s-0.07,1.611,0.503,2.179
		c0.163,0.161,1.252,1.215,3.24,2.71c0.417,0.314,0.881,0.649,1.378,0.997c0.115,0.081,0.224,0.159,0.343,0.242
		c0.115,0.079,0.24,0.162,0.36,0.242c0.446,0.304,0.919,0.615,1.421,0.934c0.133,0.085,0.263,0.168,0.4,0.255
		c1.168,0.729,2.481,1.492,3.929,2.257c0.371,0.196,0.747,0.393,1.137,0.589c0.4,0.203,0.812,0.404,1.232,0.605
		c1.896,0.906,3.993,1.794,6.279,2.62c5.98,2.164,13.29,3.882,21.885,4.313c-7.399,8.876-17.29,19.71-30.672,19.71
		c-6.085,0-12.563-2.27-19.256-6.746c-4.611-3.084-9.618-7.021-14.459-10.829c-10.323-8.117-16.862-13.093-21.033-13.093
		c-1.657,0-2.648,0.755-3.188,1.39c-1.115,1.31-1.412,3.301-0.933,6.266c0.433,2.682,0.726,5.642,1.036,8.774
		c0.716,7.249,1.542,15.568,4.505,23.616c-0.559,0.392-0.894,1.029-0.894,1.712v5.39l-31.362-21.227v-8.097
		C81.493,167.93,76.912,159.186,71.607,149.061z M64.66,139.899c-0.186-0.08-0.379-0.152-0.563-0.234
		c-0.793-0.348-1.57-0.715-2.337-1.092c-11.799-5.812-20.404-14.954-25.041-26.699c-6.147-15.567-4.867-34.438,3.512-51.775
		c9.973-20.632,23.066-32.302,33.611-38.812c2.684-1.656,5.2-2.981,7.459-4.031c0.731-0.34,1.438-0.653,2.111-0.938
		c0.611-0.258,1.195-0.494,1.754-0.71c1.823-0.706,3.365-1.203,4.525-1.535c0.006,0.237,0.013,0.488,0.024,0.752
		c0.157,3.996,0.862,11.029,3.557,19.437c3.811,11.888,12.508,28.863,32.297,42.222c6.975,4.708,8.515,20.575,8.183,35.212
		c-0.414,0.425-0.652,1.018-0.59,1.655c0.043,0.447,0.23,0.842,0.503,1.159c-0.187,4.824-0.556,9.426-0.978,13.332l-11.53-22.588
		c-6.631-15.878-19.428-18.513-28.388-15.937c-10.3,2.96-19.43,13.672-16.949,28.414l0.049,0.309
		c1.071,6.937,3.777,12.559,7.874,16.673c-0.37,2.824-0.635,5.867-0.777,9.151c-4.716,0.198-9.882-0.76-15.44-2.817
		c-0.253-0.095-0.504-0.178-0.76-0.276c-0.518-0.201-1.02-0.418-1.528-0.63C65.047,140.058,64.851,139.981,64.66,139.899z
		 M136.152,4.186c5.682,0,11.075,0.343,16.131,1.006c-6.85,3.461-17.258,10.294-23.304,21.903c-0.533,1.025-0.136,2.289,0.89,2.823
		c0.309,0.161,0.639,0.237,0.965,0.237c0.756,0,1.486-0.41,1.859-1.126c0.968-1.859,2.072-3.582,3.263-5.186
		c5.388-7.259,12.616-11.973,17.801-14.665c2.854-1.483,5.085-2.354,6.045-2.705c5.483,1.168,10.491,2.771,15.037,4.802
		c-6.63,3.04-18.709,10.044-25.416,22.923c-0.535,1.026-0.136,2.29,0.89,2.823c0.309,0.161,0.639,0.237,0.965,0.237
		c0.755,0,1.484-0.411,1.857-1.127c0.968-1.859,2.073-3.582,3.264-5.186c5.388-7.259,12.616-11.973,17.8-14.665
		c2.461-1.279,4.455-2.1,5.575-2.528c19.34,10.877,28.816,31.024,28.816,61.038c0,0-0.005,10.262-0.007,27.777l-13.542,1.165
		c-0.607-12.902-6.335-22.707-13.542-22.707c-7.625,0-13.599,10.974-13.599,24.983c0,0.625,0.016,1.24,0.04,1.851l-29.981,2.921
		c0.252-14.835-1.489-31.992-10.047-37.769C95.597,51.201,93.878,19.075,93.871,12.672C105.672,7.034,119.801,4.186,136.152,4.186z
		 M223.705,155.869c-6.568,0-10.927-6.757-10.927-11.225c0,0,0.001-40.035,0.001-51.025c3.295,0.625,9.756,2.582,15.059,8.649
		c7.266,8.314,10.073,21.323,8.343,38.665C235.832,144.437,233.901,155.869,223.705,155.869z M205.912,179.697
		c0.053,0.15,0.102,0.303,0.153,0.453c0.053,0.157,0.105,0.314,0.159,0.471c0.208,0.604,0.416,1.193,0.625,1.792
		c0.453,1.305,0.907,2.613,1.357,3.898c0.141,0.404,0.281,0.805,0.422,1.207c0.209,0.597,0.417,1.191,0.624,1.784
		c0.051,0.15,0.104,0.299,0.155,0.448c0.053,0.15,0.104,0.3,0.156,0.45c0.21,0.604,0.417,1.205,0.624,1.805
		c5.278,15.348,9.287,29.321,3.854,36.981c-3.394,4.783-10.418,7.108-21.479,7.108c-32.869,0-54.636-6.182-66.545-18.9
		c-1.746-1.864-3.225-3.814-4.49-5.825c-0.472-0.749-0.913-1.506-1.327-2.271c-0.101-0.187-0.203-0.374-0.301-0.561
		c-0.096-0.186-0.189-0.372-0.282-0.557c-0.364-0.726-0.705-1.458-1.024-2.196c-3.519-8.139-4.389-16.892-5.184-24.926
		c-0.315-3.199-0.615-6.222-1.069-9.03c-0.292-1.81-0.13-2.559-0.045-2.8c0.011-0.001,0.021-0.002,0.034-0.002
		c2.935,0,11.176,6.48,18.446,12.198c4.904,3.856,9.974,7.843,14.719,11.018c7.394,4.945,14.655,7.453,21.583,7.453
		c12.282,0,21.586-7.554,28.886-15.464c1.912-2.07,3.684-4.165,5.338-6.155c0.437-0.527,0.868-1.048,1.288-1.557
		c0.007-0.008,0.014-0.016,0.02-0.024c0.156-0.188,0.304-0.365,0.457-0.55c0.07-0.085,0.139-0.167,0.209-0.251
		c0.028-0.008,0.057-0.016,0.086-0.024c0.348-0.104,0.699-0.237,1.057-0.407c0.033,0.097,0.067,0.194,0.1,0.292
		c0.106,0.324,0.218,0.647,0.326,0.972c0.151,0.455,0.306,0.909,0.459,1.364C205.508,178.493,205.707,179.097,205.912,179.697z
		 M270.236,213.753c0.278-1.317,0.01-2.684-0.731-3.747c-0.98-3.56-1.748-6.169-2.24-7.792c4.95-1.663,18.195-6.115,25.699-8.634
		c4.477,14.77,3.547,29.201-2.58,38.934c-4.861,7.724-12.581,12.294-22.943,13.581c-1.047,0.13-2.084,0.196-3.083,0.196
		c0,0-0.002,0-0.003,0c-1.068,0-2.097-0.084-3.096-0.229c0.08-0.143,0.165-0.283,0.24-0.427c2.584-4.8,3.043-10.266,1.084-15.344
		c-0.771-2.003-1.86-3.777-3.19-5.296c0.482,0.079,0.924,0.109,1.304,0.109c2.458-0.001,4.81-1.083,6.619-3.051
		C269.343,219.852,270.396,216.843,270.236,213.753z M190.912,106.01c0,2.411-0.196,4.773-0.582,7.022
		c-1.363,7.982-5.078,13.774-8.831,13.774c-5.014,0-9.412-9.718-9.412-20.797s4.398-20.797,9.412-20.797
		C186.513,85.213,190.912,94.932,190.912,106.01z M164.125,160.941c-0.121-0.08-0.233-0.157-0.35-0.237
		c-0.403-0.273-0.789-0.54-1.14-0.792c0.746-0.132,1.57-0.287,2.451-0.464c0.252-0.051,0.511-0.104,0.774-0.159
		c0.274-0.057,0.549-0.114,0.834-0.176c1.056-0.228,2.18-0.486,3.36-0.779c3.648-0.904,7.82-2.132,12.092-3.779
		c2.8-1.079,5.467-2.773,8.045-4.412c3.651-2.32,7.1-4.513,10.189-4.513c0.702,0,1.365,0.116,2.013,0.348
		c0.232,0.083,0.462,0.179,0.69,0.293c0.478,0.239,0.927,0.489,1.36,0.744c0.028,0.017,0.055,0.034,0.084,0.051
		c1.196,0.714,2.222,1.495,3.077,2.342c0.535,0.529,1.005,1.085,1.406,1.666c0.136,0.196,0.262,0.397,0.381,0.599
		c0.108,0.182,0.218,0.361,0.312,0.547c0.631,1.224,0.989,2.55,1.086,3.974c0.067,0.974,0.012,1.992-0.172,3.057
		c-0.054,0.311-0.111,0.623-0.187,0.943c-0.286,1.214-0.711,2.381-1.221,3.476c-0.88,1.89-2.019,3.558-3.15,4.884
		c-0.005,0.007-0.01,0.012-0.015,0.018c-0.199,0.232-0.397,0.456-0.595,0.666c-0.27,0.287-0.532,0.548-0.792,0.79
		c-0.844,0.788-1.61,1.328-2.186,1.56c-0.135,0.054-0.257,0.091-0.368,0.111c-0.061,0.01-0.128,0.03-0.181,0.03
		c-0.266,0-0.521-0.01-0.784-0.013c-9.764-0.1-17.869-2.017-24.072-4.283c-2.696-0.986-5.042-2.034-6.999-3.027
		c-1.53-0.777-2.904-1.555-4.123-2.301c-0.513-0.314-0.993-0.62-1.45-0.919C164.374,161.105,164.245,161.021,164.125,160.941z
		 M117.043,212.016c0.999,1.753,2.144,3.471,3.447,5.141l-3.447-2.333V212.016z M198.693,244.639
		c-15.472,7.575-29.896,11.102-45.4,11.102c-0.63,0-1.263-0.013-1.897-0.026l-1.09-17.396c-0.04-0.646-0.379-1.238-0.916-1.603
		l-4.429-2.997c12.331,4.396,28.113,6.562,47.604,6.562c12.516,0,20.658-2.902,24.893-8.873c6.86-9.671,1.964-25.6-4.008-42.783
		c0.126-0.121,0.245-0.241,0.375-0.361c2.054-1.92,3.312-2.323,4.006-2.323c3.003,0,6.088,8.459,8.743,16.388
		c0.372,1.107,0.748,2.242,1.131,3.4c1.785,5.397,3.763,11.363,6.181,17.134c-0.991,0.579-1.983,1.205-2.976,1.92
		c-3.493,2.52-6.963,4.928-10.313,7.162c-0.182,0.121-0.333,0.27-0.463,0.432c-7.529,5.004-14.15,8.866-20.61,12.053
		C199.236,244.441,198.954,244.512,198.693,244.639z M224.423,234.417c2.922-1.972,5.919-4.065,8.933-6.239
		c0.742-0.535,1.488-1.01,2.234-1.458c0.488-0.296,0.979-0.574,1.468-0.831c0.116-0.062,0.232-0.117,0.349-0.175
		c0.117-0.061,0.235-0.121,0.354-0.178c0.513-0.251,1.026-0.479,1.537-0.687c2.382-0.968,4.729-1.485,6.954-1.485
		c5.658,0,10.42,3.231,12.427,8.433c1.288,3.342,1.427,7.957-1.161,12.383c-0.152,0.262-0.325,0.522-0.497,0.782
		c-0.317,0.478-0.659,0.954-1.045,1.423c-0.089,0.109-0.191,0.216-0.285,0.324c-0.088,0.103-0.182,0.208-0.274,0.311
		c-0.391,0.435-0.806,0.864-1.263,1.287c-0.056,0.051-0.103,0.103-0.158,0.154c-5.174,4.916-10.655,9.527-16.323,13.732
		l-13.204-27.684L224.423,234.417z M154.638,291.342c-0.144,0.003-0.29,0.002-0.434,0.005c-0.146,0.003-0.291,0.003-0.438,0.007
		c-0.58,0.008-1.158,0.02-1.74,0.021c-0.215,0.002-0.428,0.008-0.644,0.008c-31.179,0-56.037-10.063-65.512-14.516
		c-1.558-0.732-2.708-1.316-3.394-1.674c-0.335-0.177-0.566-0.301-0.677-0.363c-0.027-0.018-0.051-0.038-0.077-0.056
		c-0.196-0.138-0.378-0.28-0.567-0.419c-0.461-0.338-0.907-0.68-1.336-1.028c-0.141-0.115-0.281-0.23-0.418-0.345
		c-0.137-0.116-0.285-0.229-0.418-0.345c-0.596-0.519-1.147-1.05-1.675-1.587c-4.925-5.018-6.847-10.813-5.161-16.197
		c0.892-2.849,2.71-5.225,5.161-6.968c0.532-0.378,1.086-0.733,1.675-1.049c0.136-0.073,0.279-0.137,0.418-0.207
		c0.138-0.069,0.278-0.138,0.418-0.203c0.54-0.252,1.096-0.482,1.675-0.683c0.319-0.11,0.643-0.212,0.971-0.306
		c0.824-0.235,1.681-0.416,2.566-0.543c0.241-0.035,0.485-0.062,0.731-0.089c0.251-0.026,0.502-0.055,0.757-0.073
		c0.521-0.038,1.049-0.062,1.585-0.062c0.686,0,1.383,0.037,2.086,0.099c4.483,0.396,9.273,2.036,13.981,4.815
		c0.097,0.058,0.199,0.107,0.304,0.149c2.835,1.104,5.625,2.108,8.381,3.031c0.559,0.188,1.118,0.377,1.674,0.557
		c0.141,0.046,0.279,0.086,0.418,0.131c0.14,0.045,0.279,0.088,0.419,0.132c0.559,0.178,1.118,0.356,1.674,0.526
		c8.405,2.571,16.458,4.276,24.272,5.142c0.682,0.075,1.361,0.139,2.041,0.203c0.164,0.015,0.327,0.031,0.491,0.046
		c0.175,0.015,0.352,0.034,0.526,0.049c0.661,0.056,1.318,0.098,1.976,0.141c0.369,0.024,0.739,0.055,1.107,0.075
		c0.562,0.031,1.122,0.049,1.683,0.07c0.14,0.006,0.28,0.013,0.42,0.018c0.14,0.005,0.28,0.012,0.42,0.016
		c0.561,0.018,1.12,0.026,1.68,0.036c0.545,0.008,1.091,0.021,1.634,0.021c15.24,0,30.03-3.445,45.144-10.524l10.779,29.562
		c-16.695,7.562-34.441,11.69-52.848,12.323C155.791,291.308,155.215,291.329,154.638,291.342z M213.451,277.161l-10.799-29.613
		c5.781-2.92,11.713-6.382,18.295-10.694l13.327,27.938C227.525,269.547,220.57,273.682,213.451,277.161z M246.251,219.179
		c-2.84,0-5.728,0.625-8.634,1.823c-2.259-5.466-4.162-11.215-5.939-16.588c-0.386-1.163-0.763-2.303-1.135-3.415
		c-3.895-11.625-6.883-19.244-12.714-19.244c-1.849,0-3.78,0.85-5.879,2.584c-0.618-1.768-1.24-3.555-1.858-5.352
		c4.193-4.097,9.029-7.493,13.41-7.493c4.391,0,8.096,3.592,11.012,10.675c7.381,17.931,13.72,30.367,16.843,36.184
		c0.384,0.719,0.783,1.36,1.19,1.936C250.596,219.568,248.479,219.179,246.251,219.179z M77.309,242.725l0.259,0.136
		c-0.087,0.042-0.173,0.085-0.259,0.129c-4.402,2.267-7.695,5.951-9.155,10.611c-1.017,3.246-3.204,14.62,11.343,24.727
		c0.053,0.036,0.108,0.07,0.164,0.102c1.235,0.7,30.74,17.141,71.723,17.141c0.635,0,1.267-0.017,1.9-0.025
		c6.136,19.925,13.597,38.762,20.88,56.621l11.312,28.5c-4.935,1.498-10.033,2.933-15.232,4.311
		c-0.899,0.237-1.803,0.475-2.709,0.708c-0.224,0.059-0.446,0.118-0.671,0.175c-0.217,0.058-0.431,0.115-0.648,0.171
		c-0.868,0.222-1.743,0.441-2.617,0.658c-23.369,5.85-48.645,10.407-72.682,13.097c-0.582,0.064-1.162,0.126-1.743,0.189
		c-0.149,0.016-0.299,0.033-0.449,0.048c-0.152,0.017-0.305,0.034-0.457,0.051c-0.576,0.061-1.155,0.129-1.729,0.188
		c-3.776,0.39-7.506,0.72-11.197,1.011c-0.587,0.048-1.176,0.095-1.761,0.14c-0.153,0.011-0.31,0.024-0.464,0.035
		c-0.144,0.012-0.289,0.025-0.433,0.035c-0.3,0.021-0.607,0.051-0.907,0.071c-0.486-1.904-0.958-4.073-1.414-6.464
		c-0.591-3.101-1.158-6.577-1.701-10.343c-0.336-2.332-0.663-4.781-0.979-7.316c-0.815-6.488-1.572-13.573-2.275-20.931
		c-1.854-19.415-3.333-40.675-4.512-57.621c-1.885-27.114,0.672-47.473,7.601-60.789L77.309,242.725z M77.643,405.299
		c3.614-0.301,7.27-0.649,10.959-1.042c9.967,17.102,26.618,18.404,40.615,19.5c2.263,0.177,4.4,0.344,6.494,0.569
		c6.777,0.73,12.768,1.707,18.073,2.854c-4.832-0.521-10.09-0.775-15.8-0.775c-7.054,0-18.378-1.225-18.492-1.236
		c-0.067-0.008-0.137-0.012-0.205-0.013c-0.103,0-10.457-0.162-21.432-4.471C88.856,417.152,82.1,412.001,77.643,405.299z
		 M136.159,420.164c-2.155-0.231-4.321-0.402-6.616-0.58c-13.595-1.064-27.528-2.17-36.38-15.834
		c25.562-2.95,52.432-7.977,76.89-14.389c2.163,0.803,4.443,1.575,6.873,2.304c17.859,5.372,35.79,17.213,46.796,30.903
		c8.379,10.425,18.596,26.914,23.739,62.381c-0.813,0.146-1.612,0.288-2.417,0.432c-0.611,0.108-1.229,0.219-1.835,0.327
		c-0.682,0.121-1.354,0.238-2.031,0.358c-0.68,0.119-1.36,0.238-2.035,0.357c-2.795,0.489-5.547,0.965-8.266,1.428
		c-3.248,0.555-6.453,1.093-9.614,1.614c-0.561,0.092-1.115,0.182-1.673,0.273c-0.141,0.022-0.28,0.045-0.419,0.068
		c-0.14,0.022-0.279,0.044-0.419,0.067c-0.558,0.091-1.118,0.183-1.673,0.272c-1.445,0.235-2.884,0.466-4.316,0.693
		c-2.151-17.242-6.83-38.13-22.295-51.951C182.998,432.211,167.513,423.543,136.159,420.164z M269.359,517.258
		c0.622,0.146,1.251,0.267,1.886,0.373c0.16,0.028,0.319,0.059,0.479,0.084c0.759,0.114,1.522,0.207,2.297,0.266
		c5.807,0.447,9.991,2.097,13.007,4.262c4.414,3.169,6.32,7.44,7.145,10.67c0.252,0.984,0.405,1.876,0.495,2.605
		c0,0.001,0,0.001,0,0.001l-36.622,0.126l-36.623,0.126l-0.062-17.904c4.827-1.04,19.491-4.192,34.656-7.393
		c0.02-0.003,0.039-0.008,0.06-0.012c3.931,3.325,8.268,5.57,12.944,6.716C269.133,517.206,269.247,517.232,269.359,517.258z"/>
	<path fill="#FFFFFF" d="M108.988,119.684c0.202,0.99,1.074,1.675,2.049,1.675c0.136,0,0.273-0.013,0.412-0.041
		c1.133-0.228,1.869-1.33,1.642-2.463c-0.703-3.52-4.017-9.78-11.618-11.757c-0.714-0.186-1.454-0.347-2.245-0.451
		c-0.183-0.023-0.379-0.031-0.566-0.051c-0.211-0.021-0.428-0.036-0.645-0.052c-0.257-0.018-0.502-0.052-0.768-0.062
		c-1.169-0.033-2.125,0.863-2.165,2.018c-0.011,0.293,0.039,0.572,0.139,0.828c0.059,0.154,0.141,0.295,0.234,0.429
		c0.075,0.11,0.161,0.212,0.257,0.306c0.36,0.354,0.844,0.585,1.388,0.604c0.111,0.003,0.209,0.021,0.319,0.028
		c1.139,0.061,2.179,0.219,3.11,0.467c3.979,1.062,6.152,3.591,7.294,5.625C108.676,118.302,108.957,119.541,108.988,119.684z"/>
	<path fill="#FFFFFF" d="M118.35,304.913c0.113,0.547,0.232,1.112,0.363,1.7c0.031,0.143,0.062,0.283,0.095,0.427
		c0.031,0.139,0.065,0.283,0.097,0.423c0.127,0.554,0.26,1.122,0.401,1.702c2.58,10.606,7.69,25.241,16.487,26.918
		c0.584,0.111,1.169,0.167,1.755,0.167c0.646,0,1.292-0.077,1.941-0.213c0.538-0.113,1.078-0.274,1.619-0.48
		c0.138-0.053,0.274-0.108,0.411-0.167c0.135-0.058,0.27-0.106,0.404-0.169c0.521-0.243,1.046-0.544,1.571-0.875
		c3.839-2.42,7.767-7.16,11.862-14.318c0.574-1.002,0.227-2.281-0.777-2.855c-0.988-0.564-2.235-0.234-2.823,0.731
		c-0.01,0.017-0.023,0.029-0.033,0.046c-3.109,5.434-6.078,9.333-8.816,11.638c-0.528,0.444-1.048,0.827-1.559,1.152
		c-0.132,0.085-0.265,0.172-0.397,0.247c-0.136,0.08-0.27,0.148-0.404,0.219c-0.549,0.286-1.087,0.506-1.612,0.645
		c-0.816,0.218-1.603,0.264-2.356,0.119c-5.573-1.061-10.103-11.896-12.868-22.515c-0.148-0.569-0.291-1.138-0.429-1.707
		c-0.035-0.141-0.068-0.283-0.102-0.425c-0.034-0.142-0.07-0.285-0.103-0.427c-0.135-0.572-0.263-1.14-0.387-1.704
		c-0.429-1.96-0.792-3.861-1.083-5.642c-0.096-0.587-0.188-1.164-0.268-1.724c-0.165-1.143-1.225-1.936-2.371-1.772
		c-1.143,0.165-1.938,1.227-1.772,2.371C117.315,299.273,117.686,301.695,118.35,304.913z"/>
	<path fill="#FFFFFF" d="M161.918,69.655c0.419,0.307,0.875,0.621,1.37,0.938c0.107,0.068,0.215,0.136,0.326,0.205
		c0.125,0.077,0.252,0.154,0.382,0.231c0.452,0.27,0.934,0.539,1.444,0.806c0.595,0.312,1.231,0.618,1.91,0.917
		c4.359,1.92,10.464,3.488,18.8,3.488c1.156,0,2.094-0.937,2.094-2.093c0-1.156-0.938-2.093-2.094-2.093
		c-2.611,0-4.966-0.171-7.102-0.458c-3.176-0.427-5.849-1.117-8.071-1.923c-1.041-0.378-1.982-0.78-2.833-1.192
		c-0.541-0.262-1.045-0.526-1.513-0.792c-0.136-0.077-0.272-0.153-0.402-0.229c-0.113-0.067-0.221-0.134-0.329-0.201
		c-0.47-0.288-0.899-0.573-1.289-0.85c-0.038-0.026-0.077-0.054-0.114-0.081c-2.132-1.538-3.042-2.799-3.083-2.857
		c-0.639-0.954-1.93-1.215-2.89-0.583c-0.966,0.636-1.232,1.934-0.597,2.899C158.041,65.958,159.209,67.667,161.918,69.655z"/>
</g>
</svg>
