<svg fill="#fff" xmlns="http://www.w3.org/2000/svg" width="88.146" height="114.524"><path fill="#2D8282" d="M85.146 114.524H3a3 3 0 0 1-3-3V3a3 3 0 0 1 3-3h82.146a3 3 0 0 1 3 3v108.524a3 3 0 0 1-3 3zm-79.146-6h76.146V6H6v102.524z"/><path fill="#2D8282" d="M43.856 84.754c-14.491 0-26.28-11.789-26.28-26.281 0-14.493 11.789-26.282 26.28-26.282 14.492 0 26.281 11.789 26.281 26.282.001 14.492-11.788 26.281-26.281 26.281m0-48.182c-12.077 0-21.9 9.826-21.9 21.901 0 12.074 9.823 21.9 21.9 21.9 12.078 0 21.901-9.826 21.901-21.9.001-12.075-9.822-21.901-21.901-21.901"/><path fill="#2D8282" d="M41.664 69.424c-.48 0-.961-.16-1.363-.48l-10.951-8.76a2.189 2.189 0 0 1-.342-3.08 2.186 2.186 0 0 1 3.075-.343l9.316 7.454 13.948-15.947a2.195 2.195 0 0 1 3.094-.202c.911.795 1 2.178.205 3.09l-15.33 17.522a2.2 2.2 0 0 1-1.652.746"/></svg>