<svg fill="#fff" xmlns="http://www.w3.org/2000/svg" width="171.4" height="112.244"><g fill="#2D8282"><path d="M156.4 0H15C6.729 0 0 6.729 0 15v82.244c0 8.271 6.729 15 15 15h141.4c8.271 0 15-6.729 15-15V15c0-8.271-6.728-15-15-15zm9 97.244c0 4.963-4.037 9-9 9H15c-4.963 0-9-4.037-9-9V15c0-4.963 4.037-9 9-9h141.4c4.963 0 9 4.037 9 9v82.244z"/><path d="M38.896 57.1c7.949 0 14.416-6.467 14.416-14.415 0-7.949-6.467-14.416-14.416-14.416S24.48 34.736 24.48 42.685C24.479 50.633 30.946 57.1 38.896 57.1zm0-22.831c4.641 0 8.416 3.775 8.416 8.416 0 4.64-3.775 8.415-8.416 8.415s-8.416-3.775-8.416-8.415c-.001-4.641 3.775-8.416 8.416-8.416zM51.306 60.595c-1.146-.93-2.634-1.205-4.081-.758-7.882 2.434-8.24 2.316-14.216.318-3.609-1.205-5.92-.117-7.226 1.006-4.146 3.57-2.913 11.998-2.624 13.652a3.005 3.005 0 0 0 3.468 2.438 3.002 3.002 0 0 0 2.443-3.467c-.581-3.375-.275-7.301.628-8.076.135-.115.635-.121 1.409.139 7.001 2.338 8.873 2.441 16.527.139.348 1.701.438 5.037.164 8.037a3.003 3.003 0 0 0 2.991 3.274 2.998 2.998 0 0 0 2.983-2.725c.848-9.211-.874-12.686-2.466-13.977zM149.903 32.745H79.518a3 3 0 0 0-3 3v40.526a3 3 0 0 0 3 3h70.386a3 3 0 0 0 3-3V35.745a3 3 0 0 0-3.001-3zm-26.277 23.177l-13.009-6.456a8.044 8.044 0 0 1 4.916-1.678c4.464 0 8.095 3.632 8.095 8.096l-.002.038zm-16.082-1.282l13.811 6.854a8.068 8.068 0 0 1-5.821 2.483c-4.464 0-8.095-3.631-8.095-8.094a7.977 7.977 0 0 1 .105-1.243zm-5.936 3.319l-5.062-2.785 5.373-2.884a14.01 14.01 0 0 0-.481 3.593c0 .708.07 1.398.17 2.076zm27.766-4.699l4.397 2.611-4.384 2.545c.15-.823.24-1.667.24-2.533a14.002 14.002 0 0 0-.253-2.623zm17.529 20.011H82.518V38.745h32.09c-.158.053-.318.098-.469.179L88.845 52.498a3.001 3.001 0 0 0-.027 5.273l26.053 14.332a3.006 3.006 0 0 0 2.952-.033l23.38-13.574a3 3 0 0 0 .025-5.175l-24.139-14.333a3 3 0 0 0-.563-.243h30.378v34.526z"/></g></svg>