<svg fill="#fff" xmlns="http://www.w3.org/2000/svg" width="304.561" height="296.999"><path fill="#2D8282" d="M186.16 296.999l-33.88-25.086-33.881 25.086-19.669-37.28-41.408 7.837-1.541-42.114-40.731-10.846 16.887-38.617L0 148.499l31.938-27.48-16.887-38.618 40.731-10.845 1.542-42.116 41.407 7.837L118.399 0l33.881 25.085L186.16 0l19.67 37.278 41.407-7.836 1.541 42.116 40.73 10.845-16.886 38.617 31.938 27.48-31.938 27.48 16.885 38.617-40.729 10.846-1.543 42.116-41.406-7.839-19.669 37.279zM101.969 253l18.476 35.018 31.835-23.57 31.835 23.57L202.591 253l38.904 7.364 1.449-39.579 38.267-10.189-15.861-36.274 30.012-25.823-30.012-25.823 15.862-36.274-38.268-10.189-1.447-39.578-38.905 7.363L184.115 8.98 152.28 32.551 120.445 8.98l-18.476 35.017-38.904-7.364-1.448 39.578-38.267 10.19 15.862 36.275-30.013 25.823 30.012 25.824-15.863 36.273 38.268 10.189 1.448 39.577L101.969 253z"/></svg>