<?xml version="1.0" encoding="utf-8"?>
<!-- Generator: Adobe Illustrator 16.0.0, SVG Export Plug-In . SVG Version: 6.00 Build 0)  -->
<!DOCTYPE svg PUBLIC "-//W3C//DTD SVG 1.1//EN" "http://www.w3.org/Graphics/SVG/1.1/DTD/svg11.dtd">
<svg version="1.1" id="Layer_1" xmlns="http://www.w3.org/2000/svg" xmlns:xlink="http://www.w3.org/1999/xlink" x="0px" y="0px"
	 width="30.855px" height="31.693px" viewBox="0 0 30.855 31.693" enable-background="new 0 0 30.855 31.693" xml:space="preserve">
<path fill="#2D8282" d="M28.855,12.175h-9.921V2c0-1.104-0.896-2-2-2h-3.256c-1.104,0-2,0.896-2,2v10.175H2c-1.104,0-2,0.896-2,2
	v2.926c0,1.104,0.896,2,2,2h9.679v10.593c0,1.104,0.896,2,2,2h3.256c1.104,0,2-0.896,2-2V19.1h9.921c1.104,0,2-0.895,2-2v-2.926
	C30.855,13.07,29.96,12.175,28.855,12.175z"/>
</svg>
