<?xml version="1.0" encoding="utf-8"?>
<!-- Generator: Adobe Illustrator 16.0.0, SVG Export Plug-In . SVG Version: 6.00 Build 0)  -->
<!DOCTYPE svg PUBLIC "-//W3C//DTD SVG 1.1//EN" "http://www.w3.org/Graphics/SVG/1.1/DTD/svg11.dtd">
<svg version="1.1" id="Layer_1" xmlns="http://www.w3.org/2000/svg" xmlns:xlink="http://www.w3.org/1999/xlink" x="0px" y="0px"
	 width="300px" height="547.914px" viewBox="0 0 300 547.914" enable-background="new 0 0 300 547.914" xml:space="preserve">
<g>
	<path fill="#FFFFFF" d="M299.999,365.988v-0.548c-0.062-37.999-0.127-77.292-13.599-107.981
		c-7.342-16.723-18.156-29.372-32.616-38.064c2.755-4.194,4.38-7.936,4.396-10.915c0.018-3.407-1.934-5.813-5.496-6.777
		c-10.144-2.743-18.206-6.349-24.839-10.129c4.374-8.403,8.471-18.833,11.992-31.774c8.989-33.046,3.268-74.383-2.267-114.359
		c-0.494-3.571-0.98-7.119-1.461-10.66c-0.087-0.752-0.189-1.496-0.307-2.231c0-0.005,0-0.01-0.002-0.016
		c-0.002-0.011-0.003-0.022-0.004-0.033l-0.012-0.085c-0.004-0.025-0.014-0.047-0.017-0.071c-0.841-5.154-2.413-9.865-4.704-13.966
		c-6.157-11.024-17.285-17.356-32.182-18.311C198.191,0.022,197.493,0,196.809,0c-16.679,0-26.258,12.521-28.1,24.154
		c-1.431,9.037,1.389,17.279,7.485,23.245c-19.393-4.634-51.761-11.152-80.37-11.152c-8.953,0-17.021,0.649-23.978,1.93
		C67.369,39,63.065,40.018,58.931,41.21c-0.113,0.019-0.225,0.052-0.336,0.092c-18.758,5.463-33.836,14.656-44.064,26.974
		C3.881,81.102-1.195,96.81,0.237,112.507c0.979,10.725,5.042,20.562,11.442,27.698c6.863,7.653,15.759,11.698,25.726,11.698
		c0.422,0,0.833-0.13,1.18-0.371c0.026-0.019,0.364-0.254,0.959-0.665c-0.406,3.41-0.698,6.948-0.865,10.628
		c-1.492,1.519-6.271,6.565-11.291,13.84c-5.509,7.983-12.299,20.222-13.362,33.189c-0.311,3.795,1.141,9.819,5.063,14.075
		c3.017,3.274,7.02,5.005,11.575,5.005c5.339,0,11.152-3.694,13.734-9.251c4.604,14.58,12.722,25.871,24.248,33.672
		c12.228,8.276,27.947,12.473,46.72,12.473l0.637-0.001c0.518-0.002,1.027-0.015,1.535-0.027l0.67-0.018l0.755,0.018
		c0.507,0.013,1.014,0.025,1.53,0.027l0.639,0.001c0.001,0,0,0,0.001,0c1.832,0,3.626-0.052,5.399-0.132
		c-0.326,12.834-0.391,21.571,0.886,27.293v62.923c-5.357,2.528-11.347,5.073-18.308,7.779
		c-13.173,5.126-16.435,14.584-15.095,21.727c1.368,7.291,7.136,12.63,14.492,13.797c2.266,7.17,8.976,12.025,17.011,12.027
		c0.001,0,0.002,0,0.003,0c0.627,0,1.262-0.04,1.897-0.1v16.719c0,0.001,0,0.001,0,0.003v20.711c0,1.136,0.921,2.058,2.057,2.058
		s2.057-0.922,2.057-2.058v-18.654h7.127v18.685c0,1.137,0.921,2.058,2.057,2.058c1.137,0,2.058-0.921,2.058-2.058v-18.685h7.095
		l0,48.509c0,0.545,0.216,1.068,0.603,1.454c0.386,0.386,0.909,0.604,1.455,0.604h26.227v37.252
		c-3.692,0.275-11.967,1.164-20.353,3.941c-15.161,5.02-23.175,13.808-23.175,25.417c0,1.137,0.921,2.058,2.058,2.058
		c24.212,0,42.267,0.018,54.955,0.035c-0.003,0.018-0.004,0.035-0.007,0.053h15.384c-0.004-0.008-0.006-0.016-0.011-0.024
		c0.224,0.002,0.452,0.002,0.666,0.002c0-0.01-0.002-0.021-0.002-0.03c0.035,0,0.072,0,0.107,0c0,0.018,0,0.035,0,0.053h24.157
		c0.139,0,0.216,0,0.229,0c0.002,0,0.005,0,0.008,0c0.139,0,0.275-0.015,0.41-0.042c0.041-0.008,0.078-0.025,0.118-0.035
		c0.089-0.024,0.18-0.047,0.266-0.083c0.051-0.021,0.096-0.052,0.144-0.076c0.07-0.037,0.143-0.069,0.209-0.114
		c0.048-0.032,0.09-0.072,0.135-0.109c0.057-0.046,0.117-0.086,0.17-0.14c0.018-0.016,0.03-0.038,0.047-0.056
		c0.074-0.081,0.147-0.163,0.209-0.254c0.029-0.044,0.048-0.091,0.074-0.136c0.04-0.072,0.084-0.141,0.116-0.218
		c0.021-0.054,0.033-0.109,0.051-0.164c0.023-0.074,0.052-0.145,0.067-0.222c0.027-0.134,0.042-0.271,0.042-0.408l0,0v-27.507
		v-39.192h62.681c1.127,0,2.044-0.907,2.058-2.033C298.976,476.247,300.037,389.041,299.999,365.988z M235.866,158.72
		c-15.456,56.817-41.584,62.951-52.1,62.951c-13.309,0-25.783-9.29-30.29-22.314c6.226-3.22,10.669-8.654,12.937-15.981
		c7.928-2.533,17.451-6,27.029-10.497c23.354-10.964,39.104-24.313,46.473-39.194C239.283,142.448,238.008,150.845,235.866,158.72z
		 M125.813,158.932c-0.853-0.38-1.7-0.79-2.545-1.217c-0.359-2.329-0.876-8.777,2.993-14.882
		c3.972-6.267,11.381-10.508,22.022-12.605c4.715-0.93,10.875-1.427,17.395-1.954c26.251-2.121,64.089-5.184,72.927-41.468
		c1.035,10.478,1.725,20.806,1.797,30.796c-3.27,32.857-46.006,52.118-72.876,61.049c0.031-0.184,0.066-0.363,0.095-0.548
		l0.049-0.31c2.536-15.061-6.262-24.022-14.565-27.121C142.957,146.887,131.991,150.288,125.813,158.932z M137.891,85.412
		c0.474,0,0.954,0.004,1.435,0.014c3.535,0.071,6.995,0.106,10.283,0.106c42.765,0,67.012-5.917,78.624-19.184
		c2.945-3.367,5.093-7.255,6.451-11.714c0.574,4.198,1.137,8.403,1.674,12.603c1.37,51.086-40.461,54.467-71.01,56.935
		c-6.641,0.536-12.914,1.043-17.86,2.019c-11.826,2.332-20.151,7.211-24.741,14.503c-3.394,5.39-3.96,10.893-3.836,14.572
		c-14.116-8.751-25.451-24.1-21.862-42.307C101.05,92.648,120.771,85.412,137.891,85.412z M192.229,55.813
		c0.009,0.002,0.019,0.002,0.026,0.004c0.008,0.001,0.015,0.005,0.022,0.007c1.7,0.362,3.354,0.54,4.948,0.54
		c5.849,0,10.858-2.403,14.16-6.919c3.631-4.965,4.317-11.677,1.67-16.323c-1.339-2.349-4.69-6.182-12.101-5.465
		c-1.13,0.11-1.959,1.115-1.849,2.247c0.109,1.13,1.113,1.955,2.245,1.849c3.837-0.372,6.647,0.806,8.13,3.406
		c1.87,3.283,1.288,8.159-1.416,11.857c-1.878,2.568-6.307,6.601-14.884,4.792c-0.3-0.087-1.34-0.386-3.031-0.849
		c-15.085-4.922-18.87-16.738-17.377-26.162c1.577-9.961,9.771-20.682,24.035-20.682c0.596,0,1.205,0.02,1.811,0.058
		c13.625,0.874,23.332,6.328,28.852,16.211c2.201,3.94,3.565,8.331,4.277,12.922c0.401,3.074,0.598,5.944,0.595,8.634
		c-0.019,1.703-0.111,3.412-0.271,5.118c-0.75,6.704-3.036,12.121-6.938,16.58c-10.614,12.13-34.612,17.78-75.526,17.78
		c-3.261,0-6.693-0.036-10.201-0.106c-0.509-0.01-1.016-0.015-1.517-0.015c-5.969,0-11.264,0.702-15.948,1.937
		c-0.342-0.015-0.676-0.039-1.021-0.051c-0.193-0.055-0.393-0.083-0.59-0.083l-0.454-0.005c-0.172-0.003-0.344-0.006-0.52-0.006
		l-0.229,0.002c-0.214,0.002-0.427,0.007-0.64,0.013l-0.241,0.005l-0.231-0.005c-0.216-0.005-0.432-0.011-0.636-0.013l-0.241-0.002
		c-0.176,0-0.349,0.003-0.522,0.006l-0.511,0.005c-0.222,0.012-0.38,0.029-0.562,0.084c-13.609,0.496-25.259,2.743-35.102,6.785
		c-1.602-5.109-4.901-19.163,2.808-30.312c7.953-11.501,25.146-16.944,51.106-16.183c24.519,3.553,46.328,9.165,54.613,11.428
		C190.019,55.241,191.116,55.548,192.229,55.813z M72.591,42.222c6.712-1.234,14.528-1.861,23.232-1.861
		c4.648,0,9.399,0.175,14.179,0.488c-14.199,2.502-24.305,8.014-30.155,16.495c-9.033,13.096-4.978,28.96-3.195,34.32
		c-7.932,3.825-14.587,8.936-20.032,15.389c-2.729,3.234-5.141,6.789-7.25,10.657c-0.043-0.036-0.081-0.078-0.127-0.111
		c-6.834-4.851-19.403-22.197-17.486-40.312C33.22,63.458,42.69,52.666,59.902,45.207C63.956,44.032,68.187,43.033,72.591,42.222z
		 M36.768,147.782c-17.247-0.351-30.541-14.91-32.434-35.648C3.002,97.528,7.748,82.886,17.697,70.904
		c5.719-6.888,13.083-12.743,21.834-17.47c-6.094,5.844-10.815,13.488-11.866,23.421c-1.957,18.494,9.891,37.494,19.196,44.099
		c0.217,0.154,0.454,0.254,0.697,0.314c-3.335,7.039-5.747,15.048-7.237,24.074C38.667,146.468,37.455,147.305,36.768,147.782z
		 M30.664,223.49c-3.424,0-6.3-1.237-8.549-3.678c-2.945-3.196-4.235-7.929-3.988-10.951c1.428-17.41,14.095-33.898,20.389-41.104
		c-0.005,0.593-0.004,1.193-0.004,1.793c-2.026,11.949,2.66,40.003,3.14,42.817C41.548,216.86,37.191,223.49,30.664,223.49z
		 M121.133,260.384l-0.62-0.001c-0.489-0.002-0.969-0.014-1.448-0.026l-0.857-0.018l-0.772,0.018
		c-0.48,0.012-0.961,0.024-1.453,0.026l-0.618,0.001c-25.89,0-42.59-7.958-53.261-19.232c1.938-0.933,4.78-2.779,7.61-6.358
		c0.705-0.891,0.554-2.185-0.338-2.89c-0.89-0.704-2.185-0.553-2.89,0.338c-3.139,3.97-6.174,5.29-7.23,5.652
		c-8.58-10.634-12.549-23.584-14.177-35.503c-5.874-42.989-0.933-74.172,14.687-92.684c11.221-13.297,28.074-20.572,51.413-22.171
		c-10.679,6.01-16.371,15.507-18.168,24.628c-1.878,9.53,0.062,19.749,5.462,28.773c4.943,8.26,12.476,15.084,21.964,19.981
		c0.03,0.017,0.061,0.032,0.091,0.047c1.697,0.873,3.45,1.691,5.269,2.438c0.124,0.051,0.237,0.102,0.36,0.152
		c0.004-0.016,0.011-0.031,0.016-0.047c0.824,0.166,1.699-0.179,2.162-0.938c5.746-9.425,15.86-10.83,23.333-8.042
		c7.164,2.673,14.063,10.008,11.946,22.583l-0.058,0.365c-1.221,7.903-6.143,21.163-25.402,21.163c-1.136,0-2.058,0.921-2.058,2.057
		s0.921,2.057,2.058,2.057c4.236,0,8.093-0.611,11.529-1.783c5.179,14.715,18.895,24.816,34.085,24.816
		c0.318,0,0.652-0.006,0.996-0.017C175.974,244.469,157.746,260.384,121.133,260.384z M167.853,252.027
		c9.627-6.516,16.861-15.482,21.668-26.752c9.543-1.664,23.863-8.16,36.352-30.075c6.858,3.903,15.211,7.629,25.736,10.476
		c2.168,0.587,2.462,1.684,2.456,2.783c-0.042,7.715-17.173,26.699-41.66,46.165c-22.18,17.632-44.979,31.627-62.044,38.294
		c-0.164,0.026-0.324,0.055-0.49,0.079v0.108c-2.993,1.152-5.809,2.08-8.406,2.751c-1.757,0.455-3.201,0.677-4.414,0.677h0
		c-2.135,0-3.085-0.723-3.615-1.268c-3.223-3.311-3.221-13.861-2.779-31.154C145.27,262.905,157.755,258.861,167.853,252.027z
		 M131.534,370.729v-71.7c1.482,1.08,3.296,1.617,5.517,1.617c0,0,0,0,0.001,0c1.565,0,3.347-0.264,5.445-0.809
		c2.361-0.611,4.83-1.403,7.374-2.335l0,64.584C144.512,364.98,138.549,367.79,131.534,370.729z M98.061,383.331
		c-1.58-8.421,5.443-14.372,12.542-17.134c6.302-2.451,11.824-4.773,16.816-7.073v13.293c-1.407,0.567-2.847,1.14-4.339,1.72
		c-11.771,4.579-15.625,12.617-15.356,19.373C102.777,392.198,99.008,388.386,98.061,383.331z M125.522,405.798
		c-0.001,0-0.002,0-0.002,0c-6.763-0.001-12.311-4.398-13.491-10.694c-1.579-8.42,5.444-14.37,12.543-17.132
		c13.156-5.119,22.966-9.674,31.491-14.637l2.736,3.631l15.464,20.522c-13.082,7.846-27.925,13.79-44.199,17.694
		C128.524,405.591,126.997,405.798,125.522,405.798z M209.06,285.514c0.023-0.109,0.036-0.22,0.041-0.331
		c0.492-11.68,6.705-23.503,17.628-23.503c9.492,0,14.057,9.356,14.385,18.662c-0.098,1.36-1.437,17.958-9.659,38.72
		c-7.746,19.556-23.323,46.77-53.681,66.249l-18.167-24.11C186.42,344.471,201.713,321.026,209.06,285.514z M131.534,424.478
		v-15.421c6.323-1.534,12.443-3.372,18.336-5.51v20.931H131.534z M194.732,479.158v37.135l-12.463,0.002v-37.137H194.732z
		 M155.425,543.711c2.301-21.757,41.025-23.29,41.364-23.303h7.481h25.841v23.385C223.441,543.772,200.261,543.713,155.425,543.711z
		 M171.667,521.319c-12.547,4.813-19.534,12.494-20.375,22.396c-3.948-0.002-8.092-0.004-12.444-0.004
		C140.464,528.436,160.032,523.129,171.667,521.319z M230.112,516.293l-22.55,0.002c0.001,0,0.001-0.002,0.001-0.002h-8.717v-37.135
		h31.266V516.293z M294.875,475.043H153.984l0-73.057c8.663-3.409,16.813-7.474,24.373-12.177
		c32.358-20.134,48.814-48.763,56.922-69.234c8.78-22.172,9.903-39.355,9.947-40.075c0.003-0.062,0.005-0.127,0.002-0.189
		c-0.501-15.712-9.652-22.746-18.5-22.746c-5.357,0-10.672,2.592-14.582,7.111c-4.303,4.976-6.773,11.944-7.149,20.164
		c-3.17,15.256-7.853,28.194-14.347,39.276c-0.646-0.422-1.417-0.673-2.248-0.673c-2.269,0-4.11,1.839-4.11,4.111
		c0,1.458,0.766,2.732,1.911,3.46c-3.153,4.459-6.659,8.588-10.542,12.424c-0.685-1.319-2.047-2.229-3.636-2.229
		c-2.27,0-4.11,1.84-4.11,4.111c0,1.447,0.752,2.714,1.883,3.445c-4.34,3.639-9.082,6.993-14.258,10.097
		c-0.513,0.308-1.033,0.614-1.557,0.92v-63.885c14.215-5.871,30.406-15.746,44.858-25.971c0.648,1.418,2.071,2.408,3.732,2.408
		c2.27,0,4.111-1.84,4.111-4.109c0-1.195-0.518-2.261-1.332-3.013c3.356-2.486,6.581-4.96,9.61-7.369
		c13.778-10.953,28.185-24.129,36.395-35.017c13.898,8.284,24.271,20.336,31.272,36.286c13.126,29.901,13.189,68.758,13.252,106.333
		v0.549C295.918,387.047,295.036,461.728,294.875,475.043z"/>
	<circle fill="#FFFFFF" cx="172.026" cy="307.372" r="4.11"/>
	<circle fill="#FFFFFF" cx="188.403" cy="289.605" r="4.111"/>
	<circle fill="#FFFFFF" cx="249.499" cy="289.605" r="4.111"/>
	<path fill="#FFFFFF" d="M263.669,303.262c-2.268,0-4.109,1.839-4.109,4.111c0,2.27,1.842,4.108,4.109,4.108
		c2.272,0,4.113-1.839,4.113-4.108C267.783,305.101,265.942,303.262,263.669,303.262z"/>
	<circle fill="#FFFFFF" cx="280.047" cy="289.605" r="4.111"/>
	<circle fill="#FFFFFF" cx="249.499" cy="250.457" r="4.111"/>
	<path fill="#FFFFFF" d="M263.669,264.113c-2.268,0-4.109,1.841-4.109,4.112c0,2.27,1.842,4.109,4.109,4.109
		c2.272,0,4.113-1.84,4.113-4.109C267.783,265.954,265.942,264.113,263.669,264.113z"/>
	<circle fill="#FFFFFF" cx="233.123" cy="345.32" r="4.11"/>
	<circle fill="#FFFFFF" cx="249.499" cy="327.553" r="4.111"/>
	<path fill="#FFFFFF" d="M263.669,341.21c-2.268,0-4.109,1.84-4.109,4.111c0,2.269,1.842,4.109,4.109,4.109
		c2.272,0,4.113-1.841,4.113-4.109C267.783,343.05,265.942,341.21,263.669,341.21z"/>
	<circle fill="#FFFFFF" cx="280.047" cy="327.553" r="4.111"/>
	<circle fill="#FFFFFF" cx="202.576" cy="383.268" r="4.111"/>
	<circle fill="#FFFFFF" cx="218.951" cy="365.5" r="4.111"/>
	<circle fill="#FFFFFF" cx="233.123" cy="383.268" r="4.111"/>
	<circle fill="#FFFFFF" cx="249.499" cy="365.5" r="4.111"/>
	<path fill="#FFFFFF" d="M263.669,379.156c-2.268,0-4.109,1.841-4.109,4.113c0,2.27,1.842,4.109,4.109,4.109
		c2.272,0,4.113-1.84,4.113-4.109C267.783,380.997,265.942,379.156,263.669,379.156z"/>
	<circle fill="#FFFFFF" cx="280.047" cy="365.5" r="4.111"/>
	<circle fill="#FFFFFF" cx="172.026" cy="421.215" r="4.11"/>
	<circle fill="#FFFFFF" cx="188.403" cy="403.449" r="4.11"/>
	<circle fill="#FFFFFF" cx="202.576" cy="421.215" r="4.11"/>
	<circle fill="#FFFFFF" cx="218.951" cy="403.449" r="4.11"/>
	<circle fill="#FFFFFF" cx="233.123" cy="421.215" r="4.11"/>
	<circle fill="#FFFFFF" cx="249.499" cy="403.449" r="4.11"/>
	<path fill="#FFFFFF" d="M263.669,417.105c-2.268,0-4.109,1.839-4.109,4.111c0,2.27,1.842,4.108,4.109,4.108
		c2.272,0,4.113-1.839,4.113-4.108C267.783,418.944,265.942,417.105,263.669,417.105z"/>
	<circle fill="#FFFFFF" cx="280.047" cy="403.449" r="4.11"/>
	<circle fill="#FFFFFF" cx="172.026" cy="459.163" r="4.11"/>
	<circle fill="#FFFFFF" cx="188.403" cy="441.396" r="4.11"/>
	<circle fill="#FFFFFF" cx="202.576" cy="459.163" r="4.11"/>
	<circle fill="#FFFFFF" cx="218.951" cy="441.396" r="4.11"/>
	<circle fill="#FFFFFF" cx="233.123" cy="459.163" r="4.11"/>
	<circle fill="#FFFFFF" cx="249.499" cy="441.396" r="4.11"/>
	<path fill="#FFFFFF" d="M263.669,455.053c-2.268,0-4.109,1.84-4.109,4.111c0,2.27,1.842,4.109,4.109,4.109
		c2.272,0,4.113-1.84,4.113-4.109C267.783,456.893,265.942,455.053,263.669,455.053z"/>
	<circle fill="#FFFFFF" cx="280.047" cy="441.396" r="4.11"/>
	<path fill="#FFFFFF" d="M74.614,186.433c1.132-0.102,1.967-1.102,1.865-2.233c-0.102-1.131-1.097-1.958-2.233-1.865
		c-9.919,0.884-12.919-6.536-13.053-6.882c-0.399-1.059-1.579-1.599-2.642-1.202c-1.065,0.396-1.607,1.58-1.211,2.645
		c0.105,0.283,1.104,2.837,3.706,5.28c2.183,2.049,5.898,4.348,11.576,4.348C73.261,186.523,73.925,186.494,74.614,186.433z"/>
	<path fill="#FFFFFF" d="M71.272,173.235c5.521,0,10.012-4.491,10.012-10.012v-11.086c0-5.521-4.491-10.012-10.012-10.012
		c-5.521,0-10.013,4.491-10.013,10.012v11.086C61.259,168.744,65.751,173.235,71.272,173.235z M65.374,152.137
		c0-3.251,2.646-5.897,5.898-5.897c3.251,0,5.897,2.646,5.897,5.897v11.086c0,3.252-2.646,5.897-5.897,5.897
		c-3.252,0-5.898-2.646-5.898-5.897V152.137z"/>
	<path fill="#FFFFFF" d="M146.384,170.681c1.135-0.04,2.023-0.993,1.983-2.129c-0.04-1.135-0.983-2.027-2.129-1.983
		c-10.645,0.376-15.012,8.253-15.834,12.366c-0.222,1.11,0.496,2.185,1.605,2.413c0.139,0.028,0.277,0.042,0.414,0.042
		c0.954,0,1.81-0.669,2.014-1.638C134.512,179.395,136.389,171.034,146.384,170.681z"/>
	<path fill="#FFFFFF" d="M95.001,235.365c-27.117-8.079-24.508-36.084-24.384-37.273c0.119-1.128-0.698-2.141-1.827-2.262
		c-1.138-0.125-2.144,0.696-2.265,1.826c-0.035,0.325-3.132,32.584,27.301,41.652c0.196,0.058,0.394,0.086,0.588,0.086
		c0.886,0,1.705-0.577,1.971-1.47C96.709,236.835,96.09,235.689,95.001,235.365z"/>
</g>
</svg>
