<?xml version="1.0" encoding="utf-8"?>
<!-- Generator: Adobe Illustrator 16.0.0, SVG Export Plug-In . SVG Version: 6.00 Build 0)  -->
<!DOCTYPE svg PUBLIC "-//W3C//DTD SVG 1.1//EN" "http://www.w3.org/Graphics/SVG/1.1/DTD/svg11.dtd">
<svg version="1.1" id="Layer_1" xmlns="http://www.w3.org/2000/svg" xmlns:xlink="http://www.w3.org/1999/xlink" x="0px" y="0px"
	 width="88.146px" height="114.524px" viewBox="0 0 88.146 114.524" enable-background="new 0 0 88.146 114.524"
	 xml:space="preserve">
<g>
	<path fill="#2D8282" d="M85.146,114.524H3c-1.657,0-3-1.343-3-3V3c0-1.657,1.343-3,3-3h82.146c1.657,0,3,1.343,3,3v108.524
		C88.146,113.181,86.804,114.524,85.146,114.524z M6,108.524h76.146V6H6V108.524z"/>
</g>
<g>
	<path fill="#2D8282" d="M43.856,84.754c-14.491,0-26.28-11.789-26.28-26.281c0-14.493,11.789-26.282,26.28-26.282
		c14.492,0,26.281,11.789,26.281,26.282C70.138,72.965,58.349,84.754,43.856,84.754 M43.856,36.572
		c-12.077,0-21.9,9.826-21.9,21.901c0,12.074,9.823,21.9,21.9,21.9c12.078,0,21.901-9.826,21.901-21.9
		C65.758,46.398,55.935,36.572,43.856,36.572"/>
</g>
<g>
	<path fill="#2D8282" d="M41.664,69.424c-0.48,0-0.961-0.16-1.363-0.48l-10.951-8.76c-0.947-0.758-1.099-2.134-0.342-3.08
		c0.753-0.946,2.134-1.097,3.075-0.343l9.316,7.454l13.948-15.947c0.795-0.907,2.182-1.001,3.094-0.202
		c0.911,0.795,1,2.178,0.205,3.09l-15.33,17.522C42.885,69.168,42.276,69.424,41.664,69.424"/>
</g>
</svg>
