<?xml version="1.0" encoding="utf-8"?>
<!-- Generator: Adobe Illustrator 16.0.0, SVG Export Plug-In . SVG Version: 6.00 Build 0)  -->
<!DOCTYPE svg PUBLIC "-//W3C//DTD SVG 1.1//EN" "http://www.w3.org/Graphics/SVG/1.1/DTD/svg11.dtd">
<svg version="1.1" id="Layer_1" xmlns="http://www.w3.org/2000/svg" xmlns:xlink="http://www.w3.org/1999/xlink" x="0px" y="0px"
	 width="113.278px" height="105.4px" viewBox="0 0 113.278 105.4" enable-background="new 0 0 113.278 105.4" xml:space="preserve">
<g>
	<path fill="#2D8282" d="M93.794,66.615H73.575c-1.657,0-3-1.343-3-3s1.343-3,3-3h20.219c1.657,0,3,1.343,3,3
		S95.451,66.615,93.794,66.615z"/>
</g>
<g>
	<path fill="#2D8282" d="M93.794,80.644H73.575c-1.657,0-3-1.343-3-3s1.343-3,3-3h20.219c1.657,0,3,1.343,3,3
		S95.451,80.644,93.794,80.644z"/>
</g>
<g>
	<path fill="#2D8282" d="M38.504,71.734c-10.392,0-18.847-8.454-18.847-18.846s8.455-18.847,18.847-18.847
		c10.392,0,18.846,8.455,18.846,18.847S48.896,71.734,38.504,71.734z M38.504,40.041c-7.083,0-12.847,5.763-12.847,12.847
		s5.763,12.846,12.847,12.846c7.083,0,12.846-5.763,12.846-12.846S45.587,40.041,38.504,40.041z"/>
</g>
<g>
	<path fill="#2D8282" d="M20.758,93.848c-1.431,0-2.697-1.027-2.952-2.484c-0.382-2.187-2.022-13.323,3.256-17.867
		c1.583-1.363,4.413-2.673,8.901-1.175c8.457,2.825,9.148,3.056,20.446-0.433c1.659-0.511,3.286-0.212,4.587,0.843
		c3.797,3.08,3.508,12.844,2.999,18.39c-0.151,1.649-1.613,2.854-3.261,2.713c-1.649-0.151-2.864-1.611-2.713-3.261
		c0.472-5.167,0.188-10.777-0.584-12.724c-11.383,3.49-13.534,3.451-23.374,0.163c-1.458-0.486-2.497-0.478-3.086,0.03
		c-1.933,1.664-1.974,8.205-1.26,12.287c0.286,1.632-0.806,3.187-2.438,3.472C21.104,93.833,20.93,93.848,20.758,93.848z"/>
</g>
<g>
	<path fill="#2D8282" d="M93.794,51.761H73.575c-1.657,0-3-1.343-3-3s1.343-3,3-3h20.219c1.657,0,3,1.343,3,3
		S95.451,51.761,93.794,51.761z"/>
</g>
<path fill="#2D8282" d="M98.278,15.641H65.003V7c0-3.86-3.141-7-7-7h-7.267c-3.86,0-7,3.14-7,7v8.641H15c-8.271,0-15,6.729-15,15
	V90.4c0,8.271,6.729,15,15,15h83.278c8.271,0,15-6.729,15-15V30.641C113.278,22.37,106.55,15.641,98.278,15.641z M49.736,7
	c0-0.542,0.458-1,1-1h7.267c0.542,0,1,0.458,1,1v15.931c0,0.542-0.458,1-1,1h-7.267c-0.542,0-1-0.458-1-1V7z M107.278,90.4
	c0,4.963-4.037,9-9,9H15c-4.962,0-9-4.037-9-9V30.641c0-4.962,4.038-9,9-9h28.736v1.29c0,3.86,3.14,7,7,7h7.267c3.859,0,7-3.14,7-7
	v-1.29h33.275c4.963,0,9,4.038,9,9V90.4z"/>
</svg>
