<svg fill="#fff" xmlns="http://www.w3.org/2000/svg" width="300" height="541.728"><g fill="#FFF"><path d="M298.958 536.798c-.009-.157-.021-.325-.035-.521a.596.596 0 0 0-.005-.039c-.243-2.91-1.392-9.727-6.757-15.112-3.645-3.662-9.238-6.659-17.818-7.319a26.702 26.702 0 0 1-2.11-.251c-.24-.037-.478-.091-.716-.136a24.822 24.822 0 0 1-1.287-.265c-.327-.077-.647-.168-.97-.258-.311-.089-.623-.177-.927-.275a24.379 24.379 0 0 1-1.14-.396c-.203-.075-.402-.155-.603-.235-11.422-4.606-17.587-16.47-20.102-22.617 1.227-.219 2.451-.437 3.695-.662a2.092 2.092 0 0 0 1.702-2.344c-2.723-19.888-8.014-45.408-24.902-66.423-11.508-14.314-30.228-26.688-48.853-32.288-.282-.085-.548-.173-.825-.258a429.47 429.47 0 0 0 11.571-3.4 2.083 2.083 0 0 0 1.269-1.095 2.1 2.1 0 0 0 .058-1.677l-12.156-30.624c-7.114-17.445-14.392-35.811-20.416-55.177 19.068-.799 37.442-5.257 54.707-13.296.283-.008.563-.069.824-.191 15.417-7.229 30.094-17.413 43.584-30.233a23.19 23.19 0 0 0 1.838-1.878c1.813.423 3.733.648 5.77.649h.003c1.171 0 2.381-.077 3.6-.229 11.505-1.429 20.486-6.79 25.971-15.505 7.169-11.391 8.034-27.606 2.369-44.49a2.094 2.094 0 0 0-2.651-1.318c-8.408 2.822-29.653 9.962-29.653 9.962a2.096 2.096 0 0 0-1.325 2.629c.012.034 1.139 3.529 2.911 9.991.087.319.247.611.47.855.107.118.141.368.075.583a2.104 2.104 0 0 0-.084.781c.17 2.055-.487 4.053-1.804 5.482-1.009 1.096-2.267 1.699-3.54 1.7-2.072 0-4.078-1.613-5.651-4.543-3.084-5.746-9.349-18.038-16.658-35.798-3.625-8.803-8.633-13.267-14.884-13.267-4.574 0-9.568 2.454-14.889 7.299-.17-.513-.341-1.025-.507-1.539 2.777-2.698 5.271-6.935 6.306-11.327.137-.58.24-1.15.323-1.717.162-.936.269-1.981.263-3.096 2.627 1.97 5.737 3.125 8.706 3.125 10.896 0 15.741-9.664 16.643-18.708 1.853-18.592-1.318-32.692-9.424-41.91-6.561-7.461-14.488-9.513-18.152-10.077l.004-14.567c0-10.385-.822-25.856-7.929-40.249-5.19-10.509-12.919-18.663-23.07-24.406a2.091 2.091 0 0 0-1.521-.819c-5.938-3.146-12.65-5.518-20.155-7.069C152.873.757 144.816 0 136.152 0c-17.538 0-32.668 3.166-45.259 9.446-4.655.945-34.953 8.534-54.431 48.831-8.887 18.387-10.212 38.482-3.637 55.135 5.614 14.218 16.558 24.895 31.657 30.941 1.169 2.359 2.319 4.553 3.417 6.65 5.256 10.033 9.408 17.958 9.41 31.664v5.262l-6.91-4.677a2.094 2.094 0 0 0-3.207 1.238l-11.034 45.321c-.227.932.21 1.9 1.06 2.347l7.528 3.96c-7.357 13.996-9.991 34.803-8.027 63.05.378 5.425.786 11.293 1.227 17.4-4.467-24.107-7.846-42.659-8.036-43.697-.216-1.511-3.812-23.967-24.452-23.967-1.422 0-2.911.109-4.424.326-7.086 1.012-12.503 4.114-16.101 9.222-7.287 10.34-4.379 25.112-4.257 25.712.151.785 15.156 79.013 22.579 111.616.374 1.639.739 3.266 1.102 4.876 9.188 40.841 16.447 73.101 87.594 73.101 7.102 0 12.839.17 18.388.333 4.983.149 9.691.288 14.919.288 10.984 0 14.967 5.802 15.041 10.77.122 8.201-8.199 12.874-16.089 13.108-18.661.553-26.137.561-48.127.487-9.771-.033-21.93-.073-39.561-.073-15.76 0-24.007 10.947-24.007 21.762 0 10.256 7.606 21.295 24.308 21.295h86.205c17.161 0 31.736-4.658 42.149-13.473 10.937-9.255 16.718-22.688 16.718-38.85 0-13.769-.916-27.788-6.652-38.951 5.686 8.066 11.055 20.78 13.623 43.034a2.092 2.092 0 0 0 2.405 1.829c1.93-.304 3.872-.616 5.824-.931l.15 43.493c0 .02.006.037.006.057.004.121.014.24.037.355.023.114.061.226.103.333.007.019.01.038.017.056.053.123.116.24.19.352l.003.007c.077.112.163.221.263.317.097.098.203.183.316.258.015.01.031.017.046.024.101.064.204.121.313.167.015.007.032.01.048.015.111.043.226.08.342.104.008 0 .015 0 .021.002.126.023.255.039.388.039h.008l38.776-.134 38.777-.134a2.093 2.093 0 0 0 2.085-2.034v-.084a13.96 13.96 0 0 0-.026-.78zm-77.681-43.094a1754.403 1754.403 0 0 0 20.974-3.578c1.55 4.044 4.728 10.914 10.134 16.837a9025.907 9025.907 0 0 0-31.039 6.624l-.069-19.883zM56.52 502.856c17.623 0 29.779.041 39.546.074 22.061.073 29.556.065 48.266-.489 13.25-.393 20.271-9.234 20.151-17.354-.11-7.413-6.098-14.895-19.227-14.895-5.166 0-9.843-.139-14.795-.286-5.58-.165-11.349-.335-18.513-.335-67.798 0-74.389-29.292-83.51-69.833-.363-1.613-.73-3.244-1.104-4.888-7.406-32.531-22.397-110.688-22.553-111.498-.028-.136-2.684-13.609 3.572-22.488 2.908-4.127 7.372-6.647 13.271-7.49a27.283 27.283 0 0 1 3.832-.284c17.531 0 20.204 19.542 20.308 20.372.005.041.011.08.018.119.1.546 7.772 42.688 15.479 83.533 1.886 19.669 4.165 37.498 6.925 47.215a2.093 2.093 0 0 0 2.152 1.517c.881-.06 1.768-.125 2.655-.188 4.931 8.382 12.85 14.835 23.452 18.971 11.191 4.366 21.459 4.688 22.691 4.711 1.211.131 11.838 1.251 18.847 1.251 50.487 0 59.723 19.806 59.723 58.814 0 29.69-20.953 48.137-54.681 48.137H56.821c-13.899 0-20.122-8.594-20.122-17.109 0-8.465 6.203-17.577 19.821-17.577zm20.789-309.871l1.675 1.133.418.283.418.283 1.675 1.133 31.362 21.228 1.674 1.133.418.284.419.283 1.674 1.133 29.148 19.729.999 15.944a107.49 107.49 0 0 1-3.446-.265c-.716-.067-1.431-.136-2.15-.217-.188-.021-.377-.046-.565-.069l-.522-.062c-.743-.092-1.49-.19-2.238-.296-6.838-.977-13.889-2.611-21.226-4.92-.558-.176-1.114-.347-1.674-.53l-.419-.141-.418-.141c-.558-.185-1.114-.37-1.674-.562a184.51 184.51 0 0 1-6.706-2.456c-6.044-3.54-12.281-5.409-18.046-5.409-1.767 0-3.471.177-5.095.509l-1.516-.797-1.675-.88-.418-.221-.418-.219-1.675-.881-6.715-3.53-1.48-.779-.387-.203-.391-.206-1.483-.78-6.242-3.283 9.935-40.806 6.764 4.578zm-5.702-43.924c-.468-.892-.945-1.805-1.429-2.74 4.047 1.159 7.919 1.754 11.554 1.754 1.178 0 2.348-.062 3.483-.183a2.093 2.093 0 0 0 1.87-2.023c.08-2.855.253-5.516.508-8.004 4.733 3.141 10.713 4.809 17.728 4.809a2.093 2.093 0 1 0 0-4.186c-7.86 0-13.32-2.217-17.116-5.375a20.112 20.112 0 0 1-1.472-1.352c-.123-.124-.238-.25-.356-.375-.122-.129-.244-.256-.36-.388a21.576 21.576 0 0 1-1.382-1.716c-2.85-3.942-4.095-8.425-4.628-11.881l-.057-.365c-1.571-9.328 2.726-20.462 13.977-23.696 5.834-1.678 13.114-.675 18.71 5.788a24.026 24.026 0 0 1 1.611 2.083c.097.141.195.283.291.428 1.019 1.539 1.959 3.298 2.793 5.311.223.539.647.934 1.148 1.137l-.255.629 13.811 27.056a2.094 2.094 0 0 0 3.933-.634c.13-.85 1.426-9.474 1.867-20.138l30.45-2.965c1.433 11.006 6.723 18.959 13.213 18.959 6.079 0 11.166-6.773 12.958-17.254.322-1.876.522-3.822.602-5.805l13.524-1.163-.001 16.284.004 2.328c.015 5.396.033 11.949-.503 18.995a24.58 24.58 0 0 0-3.131-1.853c-.001-.002-.003-.002-.005-.002a10.15 10.15 0 0 0-4.565-1.079c-1.547 0-3.07.343-4.574.895-.408.149-.813.314-1.219.493-.421.186-.841.383-1.259.594-1.823.922-3.616 2.062-5.384 3.185l-.217.138c-2.338 1.485-4.748 2.999-7.086 3.9a92.875 92.875 0 0 1-7.681 2.566 111.215 111.215 0 0 1-4.911 1.288c-6.167 1.463-10.585 1.954-10.655 1.962a2.092 2.092 0 0 0-1.248 3.57c.163.161 1.252 1.215 3.24 2.71.417.314.881.649 1.378.997l.343.242c.115.079.24.162.36.242.446.304.919.615 1.421.934l.4.255a63.121 63.121 0 0 0 3.929 2.257 62.535 62.535 0 0 0 2.369 1.194 68.832 68.832 0 0 0 6.279 2.62c5.98 2.164 13.29 3.882 21.885 4.313-7.399 8.876-17.29 19.71-30.672 19.71-6.085 0-12.563-2.27-19.256-6.746-4.611-3.084-9.618-7.021-14.459-10.829-10.323-8.117-16.862-13.093-21.033-13.093-1.657 0-2.648.755-3.188 1.39-1.115 1.31-1.412 3.301-.933 6.266.433 2.682.726 5.642 1.036 8.774.716 7.249 1.542 15.568 4.505 23.616a2.091 2.091 0 0 0-.894 1.712v5.39l-31.362-21.227v-8.097c-.003-14.736-4.584-23.48-9.889-33.605zm-6.947-9.162c-.186-.08-.379-.152-.563-.234a59.503 59.503 0 0 1-2.337-1.092c-11.799-5.812-20.404-14.954-25.041-26.699-6.147-15.567-4.867-34.438 3.512-51.775 9.973-20.632 23.066-32.302 33.611-38.812a72.192 72.192 0 0 1 7.459-4.031 61.423 61.423 0 0 1 3.865-1.648 53.187 53.187 0 0 1 4.525-1.535c.006.237.013.488.024.752.157 3.996.862 11.029 3.557 19.437 3.811 11.888 12.508 28.863 32.297 42.222 6.975 4.708 8.515 20.575 8.183 35.212a2.078 2.078 0 0 0-.59 1.655c.043.447.23.842.503 1.159a197.1 197.1 0 0 1-.978 13.332l-11.53-22.588c-6.631-15.878-19.428-18.513-28.388-15.937-10.3 2.96-19.43 13.672-16.949 28.414l.049.309c1.071 6.937 3.777 12.559 7.874 16.673a105.57 105.57 0 0 0-.777 9.151c-4.716.198-9.882-.76-15.44-2.817-.253-.095-.504-.178-.76-.276-.518-.201-1.02-.418-1.528-.63-.191-.083-.387-.16-.578-.242zM136.152 4.186c5.682 0 11.075.343 16.131 1.006-6.85 3.461-17.258 10.294-23.304 21.903a2.093 2.093 0 0 0 3.714 1.934 38.614 38.614 0 0 1 3.263-5.186c5.388-7.259 12.616-11.973 17.801-14.665 2.854-1.483 5.085-2.354 6.045-2.705 5.483 1.168 10.491 2.771 15.037 4.802-6.63 3.04-18.709 10.044-25.416 22.923a2.091 2.091 0 0 0 1.855 3.06c.755 0 1.484-.411 1.857-1.127a38.619 38.619 0 0 1 3.264-5.186c5.388-7.259 12.616-11.973 17.8-14.665a54.406 54.406 0 0 1 5.575-2.528c19.34 10.877 28.816 31.024 28.816 61.038 0 0-.005 10.262-.007 27.777l-13.542 1.165c-.607-12.902-6.335-22.707-13.542-22.707-7.625 0-13.599 10.974-13.599 24.983 0 .625.016 1.24.04 1.851l-29.981 2.921c.252-14.835-1.489-31.992-10.047-37.769-32.315-21.81-34.034-53.936-34.041-60.339 11.801-5.638 25.93-8.486 42.281-8.486zm87.553 151.683c-6.568 0-10.927-6.757-10.927-11.225l.001-51.025c3.295.625 9.756 2.582 15.059 8.649 7.266 8.314 10.073 21.323 8.343 38.665-.349 3.504-2.28 14.936-12.476 14.936zm-17.793 23.828c.053.15.102.303.153.453l.159.471c.208.604.416 1.193.625 1.792.453 1.305.907 2.613 1.357 3.898l.422 1.207.624 1.784.155.448.156.45c.21.604.417 1.205.624 1.805 5.278 15.348 9.287 29.321 3.854 36.981-3.394 4.783-10.418 7.108-21.479 7.108-32.869 0-54.636-6.182-66.545-18.9a38.38 38.38 0 0 1-4.49-5.825 39.669 39.669 0 0 1-1.327-2.271c-.101-.187-.203-.374-.301-.561-.096-.186-.189-.372-.282-.557a42.686 42.686 0 0 1-1.024-2.196c-3.519-8.139-4.389-16.892-5.184-24.926-.315-3.199-.615-6.222-1.069-9.03-.292-1.81-.13-2.559-.045-2.8l.034-.002c2.935 0 11.176 6.48 18.446 12.198 4.904 3.856 9.974 7.843 14.719 11.018 7.394 4.945 14.655 7.453 21.583 7.453 12.282 0 21.586-7.554 28.886-15.464 1.912-2.07 3.684-4.165 5.338-6.155a837.157 837.157 0 0 0 1.308-1.581l.457-.55.209-.251.086-.024a7.38 7.38 0 0 0 1.057-.407l.1.292c.106.324.218.647.326.972.151.455.306.909.459 1.364.205.602.404 1.206.609 1.806zm64.324 34.056c.278-1.317.01-2.684-.731-3.747-.98-3.56-1.748-6.169-2.24-7.792 4.95-1.663 18.195-6.115 25.699-8.634 4.477 14.77 3.547 29.201-2.58 38.934-4.861 7.724-12.581 12.294-22.943 13.581-1.047.13-2.084.196-3.083.196h-.003c-1.068 0-2.097-.084-3.096-.229.08-.143.165-.283.24-.427 2.584-4.8 3.043-10.266 1.084-15.344a17.62 17.62 0 0 0-3.19-5.296 8.11 8.11 0 0 0 1.304.109c2.458-.001 4.81-1.083 6.619-3.051 2.027-2.201 3.08-5.21 2.92-8.3zM190.912 106.01a41.64 41.64 0 0 1-.582 7.022c-1.363 7.982-5.078 13.774-8.831 13.774-5.014 0-9.412-9.718-9.412-20.797s4.398-20.797 9.412-20.797c5.014.001 9.413 9.72 9.413 20.798zm-26.787 54.931c-.121-.08-.233-.157-.35-.237a51.66 51.66 0 0 1-1.14-.792 108.386 108.386 0 0 0 3.225-.623c.274-.057.549-.114.834-.176a112.2 112.2 0 0 0 3.36-.779c3.648-.904 7.82-2.132 12.092-3.779 2.8-1.079 5.467-2.773 8.045-4.412 3.651-2.32 7.1-4.513 10.189-4.513.702 0 1.365.116 2.013.348.232.083.462.179.69.293.478.239.927.489 1.36.744l.084.051c1.196.714 2.222 1.495 3.077 2.342a11.675 11.675 0 0 1 1.406 1.666c.136.196.262.397.381.599.108.182.218.361.312.547.631 1.224.989 2.55 1.086 3.974.067.974.012 1.992-.172 3.057-.054.311-.111.623-.187.943a18.088 18.088 0 0 1-1.221 3.476 21.848 21.848 0 0 1-3.15 4.884l-.015.018a16.814 16.814 0 0 1-1.387 1.456c-.844.788-1.61 1.328-2.186 1.56a1.92 1.92 0 0 1-.368.111c-.061.01-.128.03-.181.03-.266 0-.521-.01-.784-.013-9.764-.1-17.869-2.017-24.072-4.283a64.43 64.43 0 0 1-6.999-3.027 59.593 59.593 0 0 1-4.123-2.301c-.513-.314-.993-.62-1.45-.919-.12-.081-.249-.165-.369-.245zm-47.082 51.075a42.8 42.8 0 0 0 3.447 5.141l-3.447-2.333v-2.808zm81.65 32.623c-15.472 7.575-29.896 11.102-45.4 11.102-.63 0-1.263-.013-1.897-.026l-1.09-17.396a2.097 2.097 0 0 0-.916-1.603l-4.429-2.997c12.331 4.396 28.113 6.562 47.604 6.562 12.516 0 20.658-2.902 24.893-8.873 6.86-9.671 1.964-25.6-4.008-42.783.126-.121.245-.241.375-.361 2.054-1.92 3.312-2.323 4.006-2.323 3.003 0 6.088 8.459 8.743 16.388.372 1.107.748 2.242 1.131 3.4 1.785 5.397 3.763 11.363 6.181 17.134a36.948 36.948 0 0 0-2.976 1.92 342.636 342.636 0 0 1-10.313 7.162c-.182.121-.333.27-.463.432-7.529 5.004-14.15 8.866-20.61 12.053-.288.011-.57.082-.831.209zm25.73-10.222a350.398 350.398 0 0 0 8.933-6.239 31.62 31.62 0 0 1 2.234-1.458c.488-.296.979-.574 1.468-.831.116-.062.232-.117.349-.175a24.583 24.583 0 0 1 1.891-.865c2.382-.968 4.729-1.485 6.954-1.485 5.658 0 10.42 3.231 12.427 8.433 1.288 3.342 1.427 7.957-1.161 12.383-.152.262-.325.522-.497.782-.317.478-.659.954-1.045 1.423-.089.109-.191.216-.285.324-.088.103-.182.208-.274.311a19.53 19.53 0 0 1-1.263 1.287c-.056.051-.103.103-.158.154a176.092 176.092 0 0 1-16.323 13.732l-13.204-27.684-.046-.092zm-69.785 56.925c-.144.003-.29.002-.434.005-.146.003-.291.003-.438.007-.58.008-1.158.02-1.74.021-.215.002-.428.008-.644.008-31.179 0-56.037-10.063-65.512-14.516a91.562 91.562 0 0 1-3.394-1.674 41.069 41.069 0 0 1-.677-.363c-.027-.018-.051-.038-.077-.056-.196-.138-.378-.28-.567-.419a34.523 34.523 0 0 1-1.754-1.373c-.137-.116-.285-.229-.418-.345a29.667 29.667 0 0 1-1.675-1.587c-4.925-5.018-6.847-10.813-5.161-16.197.892-2.849 2.71-5.225 5.161-6.968a15.74 15.74 0 0 1 1.675-1.049c.136-.073.279-.137.418-.207a17.617 17.617 0 0 1 3.064-1.192 19.405 19.405 0 0 1 3.297-.632c.251-.026.502-.055.757-.073a21.758 21.758 0 0 1 1.585-.062c.686 0 1.383.037 2.086.099 4.483.396 9.273 2.036 13.981 4.815.097.058.199.107.304.149a184.706 184.706 0 0 0 8.381 3.031c.559.188 1.118.377 1.674.557.141.046.279.086.418.131l.419.132c.559.178 1.118.356 1.674.526 8.405 2.571 16.458 4.276 24.272 5.142.682.075 1.361.139 2.041.203l.491.046c.175.015.352.034.526.049.661.056 1.318.098 1.976.141.369.024.739.055 1.107.075.562.031 1.122.049 1.683.07l.42.018c.14.005.28.012.42.016.561.018 1.12.026 1.68.036.545.008 1.091.021 1.634.021 15.24 0 30.03-3.445 45.144-10.524l10.779 29.562c-16.695 7.562-34.441 11.69-52.848 12.323-.575.02-1.151.041-1.728.054zm58.813-14.181l-10.799-29.613c5.781-2.92 11.713-6.382 18.295-10.694l13.327 27.938c-6.749 4.755-13.704 8.89-20.823 12.369zm32.8-57.982c-2.84 0-5.728.625-8.634 1.823-2.259-5.466-4.162-11.215-5.939-16.588-.386-1.163-.763-2.303-1.135-3.415-3.895-11.625-6.883-19.244-12.714-19.244-1.849 0-3.78.85-5.879 2.584-.618-1.768-1.24-3.555-1.858-5.352 4.193-4.097 9.029-7.493 13.41-7.493 4.391 0 8.096 3.592 11.012 10.675 7.381 17.931 13.72 30.367 16.843 36.184.384.719.783 1.36 1.19 1.936a18.107 18.107 0 0 0-6.296-1.11zM77.309 242.725l.259.136c-.087.042-.173.085-.259.129-4.402 2.267-7.695 5.951-9.155 10.611-1.017 3.246-3.204 14.62 11.343 24.727.053.036.108.07.164.102 1.235.7 30.74 17.141 71.723 17.141.635 0 1.267-.017 1.9-.025 6.136 19.925 13.597 38.762 20.88 56.621l11.312 28.5a445.83 445.83 0 0 1-17.941 5.019c-.224.059-.446.118-.671.175a77.42 77.42 0 0 1-.648.171c-.868.222-1.743.441-2.617.658-23.369 5.85-48.645 10.407-72.682 13.097l-1.743.189c-.149.016-.299.033-.449.048l-.457.051c-.576.061-1.155.129-1.729.188-3.776.39-7.506.72-11.197 1.011-.587.048-1.176.095-1.761.14l-.464.035c-.144.012-.289.025-.433.035-.3.021-.607.051-.907.071a109.136 109.136 0 0 1-1.414-6.464c-.591-3.101-1.158-6.577-1.701-10.343a388.333 388.333 0 0 1-.979-7.316c-.815-6.488-1.572-13.573-2.275-20.931-1.854-19.415-3.333-40.675-4.512-57.621-1.885-27.114.672-47.473 7.601-60.789l8.812 4.634zm.334 162.574c3.614-.301 7.27-.649 10.959-1.042 9.967 17.102 26.618 18.404 40.615 19.5 2.263.177 4.4.344 6.494.569 6.777.73 12.768 1.707 18.073 2.854-4.832-.521-10.09-.775-15.8-.775-7.054 0-18.378-1.225-18.492-1.236a1.997 1.997 0 0 0-.205-.013c-.103 0-10.457-.162-21.432-4.471-8.999-3.533-15.755-8.684-20.212-15.386zm58.516 14.865c-2.155-.231-4.321-.402-6.616-.58-13.595-1.064-27.528-2.17-36.38-15.834 25.562-2.95 52.432-7.977 76.89-14.389a112.95 112.95 0 0 0 6.873 2.304c17.859 5.372 35.79 17.213 46.796 30.903 8.379 10.425 18.596 26.914 23.739 62.381l-2.417.432-1.835.327-2.031.358-2.035.357a1849.305 1849.305 0 0 1-17.88 3.042l-1.673.273-.419.068-.419.067c-.558.091-1.118.183-1.673.272-1.445.235-2.884.466-4.316.693-2.151-17.242-6.83-38.13-22.295-51.951-7.47-6.676-22.955-15.344-54.309-18.723zm133.2 97.094a29.51 29.51 0 0 0 1.886.373c.16.028.319.059.479.084a31.57 31.57 0 0 0 2.297.266c5.807.447 9.991 2.097 13.007 4.262 4.414 3.169 6.32 7.44 7.145 10.67.252.984.405 1.876.495 2.605v.001l-36.622.126-36.623.126-.062-17.904c4.827-1.04 19.491-4.192 34.656-7.393l.06-.012c3.931 3.325 8.268 5.57 12.944 6.716.112.028.226.054.338.08z"/><path d="M108.988 119.684a2.095 2.095 0 0 0 2.461 1.634 2.094 2.094 0 0 0 1.642-2.463c-.703-3.52-4.017-9.78-11.618-11.757a18.301 18.301 0 0 0-2.245-.451c-.183-.023-.379-.031-.566-.051-.211-.021-.428-.036-.645-.052-.257-.018-.502-.052-.768-.062a2.089 2.089 0 0 0-2.026 2.846c.059.154.141.295.234.429.075.11.161.212.257.306.36.354.844.585 1.388.604.111.003.209.021.319.028 1.139.061 2.179.219 3.11.467 3.979 1.062 6.152 3.591 7.294 5.625.851 1.515 1.132 2.754 1.163 2.897zM118.35 304.913a111.366 111.366 0 0 0 .458 2.127l.097.423c.127.554.26 1.122.401 1.702 2.58 10.606 7.69 25.241 16.487 26.918a9.38 9.38 0 0 0 1.755.167c.646 0 1.292-.077 1.941-.213a10.778 10.778 0 0 0 2.03-.647c.135-.058.27-.106.404-.169a14.393 14.393 0 0 0 1.571-.875c3.839-2.42 7.767-7.16 11.862-14.318a2.09 2.09 0 1 0-3.6-2.124c-.01.017-.023.029-.033.046-3.109 5.434-6.078 9.333-8.816 11.638-.528.444-1.048.827-1.559 1.152-.132.085-.265.172-.397.247-.136.08-.27.148-.404.219a7.893 7.893 0 0 1-1.612.645c-.816.218-1.603.264-2.356.119-5.573-1.061-10.103-11.896-12.868-22.515-.148-.569-.291-1.138-.429-1.707-.035-.141-.068-.283-.102-.425-.034-.142-.07-.285-.103-.427a108.035 108.035 0 0 1-1.738-9.07 2.094 2.094 0 0 0-4.143.599c.119.848.49 3.27 1.154 6.488zM161.918 69.655a26.475 26.475 0 0 0 2.078 1.374 31.115 31.115 0 0 0 3.354 1.723c4.359 1.92 10.464 3.488 18.8 3.488a2.094 2.094 0 1 0 0-4.186 53.2 53.2 0 0 1-7.102-.458c-3.176-.427-5.849-1.117-8.071-1.923a29.955 29.955 0 0 1-2.833-1.192 25.981 25.981 0 0 1-1.513-.792c-.136-.077-.272-.153-.402-.229-.113-.067-.221-.134-.329-.201a22.776 22.776 0 0 1-1.403-.931c-2.132-1.538-3.042-2.799-3.083-2.857a2.094 2.094 0 0 0-3.487 2.316c.114.171 1.282 1.88 3.991 3.868z"/></g></svg>