<?xml version="1.0" encoding="utf-8"?>
<!-- Generator: Adobe Illustrator 16.0.0, SVG Export Plug-In . SVG Version: 6.00 Build 0)  -->
<!DOCTYPE svg PUBLIC "-//W3C//DTD SVG 1.1//EN" "http://www.w3.org/Graphics/SVG/1.1/DTD/svg11.dtd">
<svg version="1.1" id="Layer_1" xmlns="http://www.w3.org/2000/svg" xmlns:xlink="http://www.w3.org/1999/xlink" x="0px" y="0px"
	 width="103.936px" height="104.292px" viewBox="0 0 103.936 104.292" enable-background="new 0 0 103.936 104.292"
	 xml:space="preserve">
<g>
	<path fill="#2D8282" d="M52.51,59.04c-11.146,0-20.215-9.068-20.215-20.215c0-11.146,9.068-20.213,20.215-20.213
		c11.146,0,20.214,9.067,20.214,20.213C72.724,49.971,63.655,59.04,52.51,59.04z M52.51,24.611c-7.838,0-14.215,6.376-14.215,14.213
		c0,7.838,6.377,14.215,14.215,14.215s14.214-6.377,14.214-14.215C66.724,30.987,60.348,24.611,52.51,24.611z"/>
</g>
<g>
	<path fill="#2D8282" d="M70.442,83.063c-0.092,0-0.185-0.004-0.277-0.013c-1.65-0.151-2.865-1.611-2.714-3.261
		c0.537-5.881,0.179-12.213-0.743-14.161c-12.486,3.832-14.772,3.815-25.459,0.247c-2.524-0.845-3.336-0.148-3.602,0.081
		c-2.261,1.943-2.206,9.26-1.456,13.593c0.282,1.631-0.811,3.185-2.442,3.468c-1.628,0.287-3.184-0.806-3.469-2.438
		c-2.343-13.4,2.463-18.319,3.451-19.169c1.67-1.437,4.66-2.814,9.419-1.227c9.261,3.094,10.016,3.345,22.37-0.468
		c1.715-0.529,3.398-0.221,4.743,0.869c4.183,3.393,3.605,14.943,3.163,19.752C73.283,81.894,71.975,83.063,70.442,83.063z"/>
</g>
<g>
	<path fill="#2D8282" d="M3.355,20.574c-1.657,0-3-1.343-3-3V3c0-1.657,1.343-3,3-3h14.042c1.657,0,3,1.343,3,3s-1.343,3-3,3H6.355
		v11.574C6.355,19.231,5.012,20.574,3.355,20.574z"/>
</g>
<g>
	<path fill="#2D8282" d="M100.936,104.292H86.895c-1.657,0-3-1.343-3-3s1.343-3,3-3h11.041V86.715c0-1.657,1.343-3,3-3s3,1.343,3,3
		v14.576C103.936,102.949,102.593,104.292,100.936,104.292z"/>
</g>
<g>
	<path fill="#2D8282" d="M17.575,104.024H3c-1.657,0-3-1.343-3-3V86.983c0-1.657,1.343-3,3-3s3,1.343,3,3v11.041h11.575
		c1.657,0,3,1.343,3,3S19.232,104.024,17.575,104.024z"/>
</g>
<g>
	<path fill="#2D8282" d="M100.936,20.309c-1.657,0-3-1.343-3-3V6.266H86.361c-1.657,0-3-1.343-3-3s1.343-3,3-3h14.574
		c1.657,0,3,1.343,3,3v14.043C103.936,18.965,102.593,20.309,100.936,20.309z"/>
</g>
</svg>
