<svg fill="#fff" xmlns="http://www.w3.org/2000/svg" width="103.936" height="104.292"><path fill="#2D8282" d="M52.51 59.04c-11.146 0-20.215-9.068-20.215-20.215 0-11.146 9.068-20.213 20.215-20.213 11.146 0 20.214 9.067 20.214 20.213S63.655 59.04 52.51 59.04zm0-34.429c-7.838 0-14.215 6.376-14.215 14.213 0 7.838 6.377 14.215 14.215 14.215s14.214-6.377 14.214-14.215c0-7.837-6.376-14.213-14.214-14.213zM70.442 83.063a3 3 0 0 1-2.991-3.274c.537-5.881.179-12.213-.743-14.161-12.486 3.832-14.772 3.815-25.459.247-2.524-.845-3.336-.148-3.602.081-2.261 1.943-2.206 9.26-1.456 13.593a3.001 3.001 0 0 1-5.911 1.03c-2.343-13.4 2.463-18.319 3.451-19.169 1.67-1.437 4.66-2.814 9.419-1.227 9.261 3.094 10.016 3.345 22.37-.468 1.715-.529 3.398-.221 4.743.869 4.183 3.393 3.605 14.943 3.163 19.752a3 3 0 0 1-2.984 2.727zM3.355 20.574a3 3 0 0 1-3-3V3a3 3 0 0 1 3-3h14.042a3 3 0 1 1 0 6H6.355v11.574a3 3 0 0 1-3 3zM100.936 104.292H86.895a3 3 0 1 1 0-6h11.041V86.715a3 3 0 1 1 6 0v14.576a3 3 0 0 1-3 3.001zM17.575 104.024H3a3 3 0 0 1-3-3V86.983a3 3 0 1 1 6 0v11.041h11.575a3 3 0 1 1 0 6zM100.936 20.309a3 3 0 0 1-3-3V6.266H86.361a3 3 0 1 1 0-6h14.574a3 3 0 0 1 3 3v14.043a2.999 2.999 0 0 1-2.999 3z"/></svg>