<?xml version="1.0" encoding="utf-8"?>
<!-- Generator: Adobe Illustrator 16.0.0, SVG Export Plug-In . SVG Version: 6.00 Build 0)  -->
<!DOCTYPE svg PUBLIC "-//W3C//DTD SVG 1.1//EN" "http://www.w3.org/Graphics/SVG/1.1/DTD/svg11.dtd">
<svg version="1.1" id="Layer_1" xmlns="http://www.w3.org/2000/svg" xmlns:xlink="http://www.w3.org/1999/xlink" x="0px" y="0px"
	 width="171.4px" height="112.244px" viewBox="0 0 171.4 112.244" enable-background="new 0 0 171.4 112.244" xml:space="preserve">
<g>
	<path fill="#2D8282" d="M156.4,0H15C6.729,0,0,6.729,0,15v82.244c0,8.271,6.729,15,15,15h141.4c8.271,0,15-6.729,15-15V15
		C171.4,6.729,164.672,0,156.4,0z M165.4,97.244c0,4.963-4.037,9-9,9H15c-4.963,0-9-4.037-9-9V15c0-4.963,4.037-9,9-9h141.4
		c4.963,0,9,4.037,9,9V97.244z"/>
	<path fill="#2D8282" d="M38.896,57.1c7.949,0,14.416-6.467,14.416-14.415c0-7.949-6.467-14.416-14.416-14.416
		s-14.416,6.467-14.416,14.416C24.479,50.633,30.946,57.1,38.896,57.1z M38.896,34.269c4.641,0,8.416,3.775,8.416,8.416
		c0,4.64-3.775,8.415-8.416,8.415s-8.416-3.775-8.416-8.415C30.479,38.044,34.255,34.269,38.896,34.269z"/>
	<path fill="#2D8282" d="M51.306,60.595c-1.146-0.93-2.634-1.205-4.081-0.758c-7.882,2.434-8.24,2.316-14.216,0.318
		c-3.609-1.205-5.92-0.117-7.226,1.006c-4.146,3.57-2.913,11.998-2.624,13.652c0.286,1.631,1.843,2.717,3.468,2.438
		c1.631-0.283,2.724-1.836,2.443-3.467c-0.581-3.375-0.275-7.301,0.628-8.076c0.135-0.115,0.635-0.121,1.409,0.139
		c7.001,2.338,8.873,2.441,16.527,0.139c0.348,1.701,0.438,5.037,0.164,8.037c-0.15,1.65,1.064,3.109,2.714,3.262
		c0.093,0.008,0.186,0.012,0.277,0.012c1.532,0,2.841-1.168,2.983-2.725C54.62,65.361,52.898,61.886,51.306,60.595z"/>
	<path fill="#2D8282" d="M149.903,32.745H79.518c-1.657,0-3,1.343-3,3v40.526c0,1.656,1.343,3,3,3h70.386c1.657,0,3-1.344,3-3
		V35.745C152.903,34.088,151.561,32.745,149.903,32.745z M123.626,55.922l-13.009-6.456c1.365-1.048,3.066-1.678,4.916-1.678
		c4.464,0,8.095,3.632,8.095,8.096C123.628,55.897,123.626,55.91,123.626,55.922z M107.544,54.64l13.811,6.854
		c-1.473,1.527-3.536,2.483-5.821,2.483c-4.464,0-8.095-3.631-8.095-8.094C107.438,55.46,107.481,55.047,107.544,54.64z
		 M101.608,57.959l-5.062-2.785l5.373-2.884c-0.304,1.149-0.481,2.349-0.481,3.593C101.438,56.591,101.508,57.281,101.608,57.959z
		 M129.374,53.26l4.397,2.611l-4.384,2.545c0.15-0.823,0.24-1.667,0.24-2.533C129.628,54.986,129.535,54.111,129.374,53.26z
		 M146.903,73.271H82.518V38.745h32.09c-0.158,0.053-0.318,0.098-0.469,0.179L88.845,52.498c-0.969,0.521-1.575,1.528-1.581,2.628
		s0.591,2.114,1.554,2.645l26.053,14.332c0.451,0.248,0.948,0.371,1.446,0.371c0.521,0,1.041-0.135,1.506-0.404l23.38-13.574
		c0.921-0.535,1.489-1.516,1.494-2.581c0.005-1.063-0.554-2.051-1.469-2.594l-24.139-14.333c-0.179-0.106-0.371-0.177-0.563-0.243
		h30.378V73.271z"/>
</g>
</svg>
