<?xml version="1.0" encoding="utf-8"?>
<!-- Generator: Adobe Illustrator 16.0.0, SVG Export Plug-In . SVG Version: 6.00 Build 0)  -->
<!DOCTYPE svg PUBLIC "-//W3C//DTD SVG 1.1//EN" "http://www.w3.org/Graphics/SVG/1.1/DTD/svg11.dtd">
<svg version="1.1" id="Layer_1" xmlns="http://www.w3.org/2000/svg" xmlns:xlink="http://www.w3.org/1999/xlink" x="0px" y="0px"
	 width="304.561px" height="296.999px" viewBox="0 0 304.561 296.999" enable-background="new 0 0 304.561 296.999"
	 xml:space="preserve">
<g>
	<path fill="#2D8282" d="M186.16,296.999l-33.88-25.086l-33.881,25.086L98.73,259.719l-41.408,7.837l-1.541-42.114L15.05,214.596
		l16.887-38.617L0,148.499l31.938-27.48L15.051,82.401l40.731-10.845l1.542-42.116l41.407,7.837L118.399,0l33.881,25.085L186.16,0
		l19.67,37.278l41.407-7.836l1.541,42.116l40.73,10.845l-16.886,38.617l31.938,27.48l-31.938,27.48l16.885,38.617l-40.729,10.846
		l-1.543,42.116l-41.406-7.839L186.16,296.999z M101.969,253l18.476,35.018l31.835-23.57l31.835,23.57L202.591,253l38.904,7.364
		l1.449-39.579l38.267-10.189l-15.861-36.274l30.012-25.823l-30.012-25.823l15.862-36.274l-38.268-10.189l-1.447-39.578
		l-38.905,7.363L184.115,8.98L152.28,32.551L120.445,8.98l-18.476,35.017l-38.904-7.364l-1.448,39.578l-38.267,10.19l15.862,36.275
		L9.199,148.499l30.012,25.824l-15.863,36.273l38.268,10.189l1.448,39.577L101.969,253z"/>
</g>
</svg>
