<?xml version="1.0" encoding="utf-8"?>
<!-- Generator: Adobe Illustrator 16.0.0, SVG Export Plug-In . SVG Version: 6.00 Build 0)  -->
<!DOCTYPE svg PUBLIC "-//W3C//DTD SVG 1.1//EN" "http://www.w3.org/Graphics/SVG/1.1/DTD/svg11.dtd">
<svg version="1.1" id="Layer_1" xmlns="http://www.w3.org/2000/svg" xmlns:xlink="http://www.w3.org/1999/xlink" x="0px" y="0px"
	 width="209.39px" height="100px" viewBox="0 0 209.39 100" enable-background="new 0 0 209.39 100" xml:space="preserve">
<g>
	<path d="M132.159,45.067c0.896,0.356,1.672,0.869,2.325,1.539c0.653,0.671,1.162,1.499,1.53,2.483
		c0.367,0.986,0.551,2.108,0.551,3.368c0,0.489-0.052,0.815-0.156,0.979c-0.104,0.164-0.305,0.245-0.595,0.245h-11.787
		c0.022,1.119,0.175,2.092,0.455,2.921c0.279,0.828,0.665,1.519,1.154,2.071c0.489,0.555,1.072,0.968,1.748,1.242
		c0.676,0.273,1.434,0.411,2.271,0.411c0.78,0,1.453-0.091,2.021-0.271c0.563-0.182,1.053-0.376,1.46-0.586
		c0.407-0.211,0.75-0.405,1.021-0.586c0.272-0.182,0.511-0.271,0.708-0.271c0.256,0,0.454,0.1,0.596,0.296l0.875,1.138
		c-0.386,0.465-0.849,0.871-1.383,1.215c-0.536,0.345-1.11,0.627-1.726,0.849c-0.61,0.222-1.244,0.388-1.896,0.499
		c-0.653,0.111-1.302,0.167-1.941,0.167c-1.224,0-2.354-0.207-3.384-0.621c-1.032-0.414-1.924-1.021-2.677-1.819
		c-0.752-0.799-1.339-1.787-1.759-2.963c-0.419-1.178-0.63-2.529-0.63-4.058c0-1.235,0.189-2.39,0.567-3.463
		c0.379-1.072,0.925-2.001,1.636-2.79c0.711-0.787,1.579-1.405,2.605-1.854c1.025-0.448,2.181-0.673,3.463-0.673
		C130.281,44.535,131.261,44.712,132.159,45.067z M125.741,48.129c-0.86,0.869-1.397,2.072-1.607,3.612h9.637
		c0-0.722-0.1-1.384-0.297-1.984c-0.199-0.6-0.489-1.119-0.875-1.556c-0.384-0.438-0.854-0.776-1.408-1.015
		c-0.554-0.239-1.187-0.358-1.896-0.358C127.786,46.826,126.603,47.26,125.741,48.129z"/>
	<path d="M147.718,50.727v2.64h-8.641v-2.64H147.718z"/>
	<path d="M166.284,54.922c0,2.285-0.729,4.151-2.188,5.598c-1.549,1.527-3.619,2.291-6.207,2.291c-1.084,0-2.23-0.111-3.439-0.332
		c-1.203-0.223-2.145-0.443-2.82-0.665l-0.998-0.351v-6.277h1.697c0.396,0,0.635,0.197,0.719,0.594
		c0.033,0.151,0.09,0.729,0.164,1.73c0.076,1.004,0.113,1.512,0.113,1.521c1.727,0.643,3.137,0.962,4.23,0.962
		s1.957-0.11,2.588-0.331c0.629-0.223,1.164-0.537,1.609-0.945c0.895-0.827,1.346-1.93,1.346-3.305c0-1.328-0.623-2.354-1.871-3.078
		c-0.561-0.326-1.193-0.606-1.904-0.84c-2.217-0.688-3.686-1.191-4.408-1.512c-0.721-0.321-1.363-0.731-1.922-1.233
		c-1.248-1.119-1.871-2.676-1.871-4.669c0-1.865,0.672-3.458,2.012-4.774c1.438-1.411,3.297-2.117,5.588-2.117
		s4.631,0.478,7.021,1.435v5.754h-1.697c-0.406,0-0.646-0.198-0.717-0.594c-0.023-0.07-0.115-1.108-0.279-3.113
		c-1.562-0.443-2.939-0.665-4.127-0.665c-1.471,0-2.625,0.378-3.465,1.137c-0.793,0.699-1.188,1.621-1.188,2.763
		c0,1.225,0.629,2.198,1.891,2.921c0.561,0.327,1.207,0.612,1.939,0.856c2.1,0.699,3.562,1.23,4.391,1.592
		C165.019,50.417,166.284,52.299,166.284,54.922z"/>
	<path d="M174.146,40.023v19.954c1.131,0.222,1.836,0.36,2.117,0.42s0.42,0.269,0.42,0.629v1.504h-8.447v-1.504
		c0-0.36,0.176-0.577,0.525-0.646l1.992-0.403V40.023c-1.117-0.222-1.818-0.361-2.102-0.42c-0.275-0.059-0.418-0.268-0.418-0.629
		V37.47h8.447v1.504c0,0.361-0.182,0.577-0.543,0.646L174.146,40.023z"/>
	<path d="M199.097,55.396c0,2.157-0.764,3.876-2.291,5.159c-1.574,1.318-3.742,1.977-6.506,1.977h-11.385v-1.504
		c0-0.361,0.176-0.577,0.523-0.646l1.994-0.402V40.023c-1.119-0.222-1.785-0.356-1.994-0.403c-0.352-0.069-0.523-0.285-0.523-0.647
		v-1.504h10.51c4.467,0,7.242,1.265,8.326,3.795c0.338,0.816,0.506,1.633,0.506,2.449s-0.096,1.51-0.287,2.081
		s-0.482,1.102-0.865,1.592c-0.828,1.026-2.01,1.778-3.551,2.256C197.249,50.377,199.097,52.295,199.097,55.396z M184.827,48.698
		h4.479c2.787,0,4.537-0.846,5.248-2.537c0.221-0.537,0.332-1.119,0.332-1.749c0-1.469-0.443-2.547-1.328-3.235
		c-0.887-0.688-2.262-1.032-4.129-1.032h-4.6L184.827,48.698L184.827,48.698z M195.441,57.127c0.211-0.547,0.314-1.153,0.314-1.818
		c0-1.294-0.457-2.317-1.373-3.069c-0.914-0.751-2.299-1.128-4.152-1.128h-5.402v8.727h5.424
		C193.036,59.838,194.767,58.935,195.441,57.127z"/>
	<path d="M206.853,40.023v19.954c1.131,0.222,1.836,0.36,2.117,0.42s0.42,0.269,0.42,0.629v1.504h-8.447v-1.504
		c0-0.36,0.176-0.577,0.525-0.646l1.992-0.403V40.023c-1.117-0.222-1.818-0.361-2.102-0.42c-0.275-0.059-0.418-0.268-0.418-0.629
		V37.47h8.447v1.504c0,0.361-0.182,0.577-0.543,0.646L206.853,40.023z"/>
</g>
<g>
	<path d="M0,50v41c0,4.971,4.028,9,9,9h41C22.385,100,0,77.614,0,50z"/>
	<path d="M50,100h41c4.97,0,9-4.029,9-9V50C100,77.614,77.614,100,50,100z"/>
	<path d="M50,0H9C4.029,0,0,4.029,0,9v41C0,22.386,22.385,0,50,0z"/>
	<path d="M91,0H50c27.614,0,50,22.386,50,50V9C100,4.029,95.969,0,91,0z"/>
	<path d="M50,10c-22.092,0-40,17.909-40,40c0,11.983,5.277,22.729,13.625,30.06V20.129h52.75V80.06C84.723,72.729,90,61.983,90,50
		C90,27.909,72.091,10,50,10z"/>
	<path d="M50,90c10.069,0,19.263-3.729,26.294-9.871H23.705C30.737,86.271,39.93,90,50,90z"/>
	<path d="M76.375,80.129V80.06c-0.027,0.023-0.054,0.046-0.081,0.069H76.375z"/>
	<path d="M23.625,80.129h0.08c-0.027-0.023-0.054-0.046-0.08-0.069V80.129z"/>
	<path d="M50,30c-11.046,0-20,8.954-20,20s8.954,20,20,20c11.045,0,20-8.954,20-20S61.045,30,50,30z M50,59.129
		c-4.971,0-9-4.029-9-9s4.029-9,9-9c4.97,0,9,4.029,9,9S54.969,59.129,50,59.129z"/>
</g>
</svg>
