<svg xmlns="http://www.w3.org/2000/svg" width="841.89" height="595.28"><path d="M19.826 460.02c-7.371 0-8.553-4.951-3.736-11.458 4.627-6.252 13.367-11.521 20.175-11.521 3.936 0 5.586 1.078 6.563 3.015a1858.303 1858.303 0 0 1-4.617 2.952c-.73-1.46-1.793-2.381-4.684-2.381-4.191 0-9.977 3.555-13.138 7.872-3.371 4.602-2.658 7.966 2.124 7.966 2.207 0 4.689-.666 6.842-1.683l2.942-4.156h-5.922l2.44-3.397h9.799l-6.537 9.332c-3.62 1.872-8.078 3.459-12.251 3.459M79.922 460.02c-7.236 0-9.013-5.174-5.039-11.458 3.973-6.284 12.189-11.521 19.126-11.521 6.938 0 8.736 5.173 5.04 11.458-3.695 6.283-11.89 11.521-19.127 11.521m11.836-19.393c-4.516 0-9.867 3.523-12.582 7.872-2.716 4.349-1.645 7.934 3.003 7.934s9.991-3.522 12.582-7.871c2.591-4.348 1.511-7.935-3.003-7.935M157.313 437.422h4.295a1601.271 1601.271 0 0 1-20.601 22.376h-3.633c.623-8.95 1.015-13.427 1.953-22.376h4.392a567.534 567.534 0 0 0-1.791 17.076 1369.321 1369.321 0 0 0 15.385-17.076M213.183 440.913h-12.871l-2.356 5.775h11.53l-1.35 3.492H196.53l-2.434 5.967H207.5l-1.34 3.491h-17.625l9.229-22.217h16.76c-.538 1.396-.806 2.096-1.341 3.492M259.796 459.639a405.199 405.199 0 0 1-3.479-7.744h-5.108l-2.378 7.744h-4.137l6.986-22.217h10.076c5.199 0 7.641 2.697 6.424 7.045-1.031 3.682-3.93 5.904-7.425 6.761a408.755 408.755 0 0 0 3.919 8.411h-4.878zm.584-18.663h-5.819l-2.29 7.459h5.932c2.901 0 5.166-1.46 5.823-3.746.703-2.444-.688-3.713-3.646-3.713M323.101 437.422h3.908l-3.853 22.217h-3.465c-4.057-6.322-6.012-9.484-9.775-15.806l-3.208 15.806h-4.071l4.673-22.217h3.681c3.594 6.144 5.461 9.217 9.334 15.361l2.776-15.361M374.038 460.02c-7.237 0-11.748-5.174-11.095-11.458.654-6.284 6.103-11.521 13.041-11.521s11.47 5.173 11.095 11.458c-.375 6.283-5.804 11.521-13.041 11.521m1.587-19.393c-4.516 0-8.005 3.523-8.424 7.872-.418 4.349 2.548 7.934 7.197 7.934s8.13-3.522 8.424-7.871c.294-4.348-2.68-7.935-7.197-7.935M484.056 440.976h-12.938c.231 2.426.348 3.638.581 6.062h11.604l.417 3.555h-11.681l.867 9.046h-4.139l-1.962-22.217h16.824l.427 3.554M537.799 440.913h-12.872l1.132 5.775h11.532l.758 3.492h-11.605l1.169 5.967h13.404l.768 3.491H524.46l-4.188-22.217h16.761l.766 3.492M589.399 459.639h-8.779l-6.43-22.217h8.428c7.104 0 13.583 4.792 15.644 11.076 2.058 6.285-1.462 11.141-8.863 11.141m-5.696-18.663h-4.485l4.484 15.108h4.612c4.913 0 7.116-3.143 5.715-7.523-1.4-4.379-5.547-7.585-10.326-7.585M649.979 440.913h-12.871l2.337 5.775h11.531l1.487 3.492h-11.606l2.415 5.967h13.403c.599 1.396.897 2.096 1.497 3.491h-17.625l-8.823-22.217h16.759l1.496 3.492M711.808 459.639a1283.61 1283.61 0 0 1-9.772-7.744h-5.107c1.565 3.098 2.349 4.646 3.915 7.744h-4.138l-11.065-22.217h10.075c5.198 0 9.831 2.697 12.147 7.045 1.961 3.682.869 5.904-1.93 6.761a1304.57 1304.57 0 0 0 10.752 8.411h-4.877zm-14.581-18.663h-5.819l3.771 7.459h5.932c2.901 0 3.979-1.46 2.78-3.746-1.285-2.444-3.706-3.713-6.664-3.713M777.18 459.639h-4.373a2046.246 2046.246 0 0 1-5.77-5.363h-11.025c.351 2.145.521 3.218.854 5.363h-4.237c-1.214-8.949-1.906-13.427-3.453-22.375h3.68a2941.443 2941.443 0 0 0 24.324 22.375m-23.335-17.71c.643 3.555.952 5.332 1.544 8.887h7.978c-3.836-3.555-5.74-5.333-9.522-8.887M799.051 437.422h3.971l13.398 18.662h12.298l2.631 3.555h-16.514l-15.784-22.217M672.346 297.48l46.07 82.989h71.769l29.267 42.437H686.86L629.235 297.48zM621.505 297.479h-43.11l3.87 11.167a121.57 121.57 0 0 0-13.833-5.765 122.482 122.482 0 0 0-14.546-4.033c-5-1.065-10.199-1.86-15.65-2.389-5.438-.527-11.14-.791-17.155-.791-3.085 0-6.016.116-8.813.328-9.13 18.074-22.92 33.391-39.792 44.375a28.908 28.908 0 0 0 4.086 6.588c3.657 4.446 8.676 8.074 14.707 11.102 6.103 3.062 13.211 5.493 20.962 7.535 7.813 2.057 16.255 3.713 24.973 5.225 4.178.711 7.643 1.376 10.509 2.04 2.873.666 5.143 1.331 6.923 2.039 1.784.71 3.078 1.465 3.995 2.31.92.848 1.462 1.785 1.74 2.861.242.937.215 1.775-.109 2.51s-.945 1.362-1.887 1.873c-.941.513-2.205.906-3.812 1.173-1.608.266-3.558.403-5.873.403-4.517 0-9.17-.301-13.9-.933a108.351 108.351 0 0 1-28.534-7.894 105.464 105.464 0 0 1-13.708-7.14l-14.223 17.431-21.654-38.524c-13.567 6.044-28.528 9.52-44.27 9.814l4.223 10.145h-27.325l5.475-11.16a113.504 113.504 0 0 1-40.27-13.448l-34.229 53.943-13.851-25.158c4.986-1.953 9.579-4.244 13.708-6.874 4.088-2.602 7.709-5.53 10.798-8.778 3.051-3.208 5.574-6.721 7.511-10.532a41.231 41.231 0 0 0 3.674-10.621 114.799 114.799 0 0 1-32.478-37.501 97.521 97.521 0 0 0-3.932-.531c-4.586-.516-9.705-.788-15.415-.788h-63.005l-8.001 18.485c.082-.991.07-1.931-.025-2.82a12.74 12.74 0 0 0-.524-2.511 11.97 11.97 0 0 0-.96-2.215 12.458 12.458 0 0 0-1.335-1.933c-1.253-1.488-2.81-2.798-4.718-3.923-1.898-1.119-4.149-2.058-6.801-2.811-2.643-.751-5.689-1.32-9.19-1.7-3.495-.38-7.449-.573-11.917-.573h-72.216L25.095 422.904h91.383c7.031 0 13.763-.534 20.142-1.543 6.357-1.006 12.343-2.479 17.912-4.357 5.532-1.866 10.638-4.126 15.278-6.714 4.598-2.566 8.728-5.449 12.36-8.588l-9.177 21.202h55.114l14.307-42.436h10.908l17.642 42.436h92.559l10.283-20.755h55.623l8.983 20.755h59.811l-4.964-8.841a139.95 139.95 0 0 0 14.27 5.095 155.605 155.605 0 0 0 15.296 3.716 169.196 169.196 0 0 0 16.062 2.265c5.456.507 10.983.763 16.551.763 8.212 0 15.7-.71 22.373-2.075 6.641-1.358 12.445-3.361 17.336-5.947 4.848-2.562 8.779-5.688 11.735-9.311 2.918-3.576 4.875-7.625 5.825-12.081l9.155 26.417h55.114l-55.471-125.426zm-472.066 77.153l-.201.389c-.749 1.447-1.797 2.793-3.125 4-1.334 1.212-2.949 2.283-4.822 3.171-1.878.893-4.015 1.601-6.383 2.086-2.373.487-4.976.749-7.781.749h-25.74l11.937-20.014h24.994c2.701 0 4.926.243 6.701.695 1.778.452 3.106 1.115 4.006 1.956.903.843 1.377 1.865 1.441 3.033.065 1.175-.283 2.497-1.027 3.935m18.798-43.242l-.172.328a11.562 11.562 0 0 1-2.667 3.36c-1.122.981-2.474 1.813-4.059 2.487-1.589.675-3.41 1.191-5.464 1.538-2.057.347-4.344.525-6.863.525h-20.548l9.48-15.896h19.691c2.437 0 4.478.167 6.129.493 1.653.328 2.917.816 3.797 1.458.881.644 1.378 1.444 1.491 2.394.115.954-.157 2.061-.815 3.313m30.822 31.296a15.416 15.416 0 0 0-2.728-4.351c-1.151-1.305-2.54-2.479-4.144-3.537-1.598-1.056-3.411-1.996-5.418-2.838-2-.84-4.193-1.581-6.559-2.24a87.628 87.628 0 0 0 10.07-3.227c3.179-1.243 6.181-2.66 8.967-4.258 2.769-1.587 5.322-3.349 7.623-5.291 2.283-1.927 4.315-4.026 6.061-6.307l-13.872 32.049zm96.114-25.061l-.087.336a12.24 12.24 0 0 1-2.506 4.837c-1.199 1.429-2.744 2.653-4.592 3.652-1.855 1.004-4.012 1.778-6.426 2.304-2.419.524-5.091.797-7.967.797h-20.758l7.691-22.812h20.011c2.649 0 5.001.219 7.012.659 2.014.441 3.688 1.105 4.973 1.996 1.291.896 2.192 2.022 2.652 3.385.463 1.37.48 2.984-.003 4.846m292.411 11.727c-4.375-2.406-9.24-4.455-14.548-6.229-5.27-1.763-10.985-3.259-17.097-4.563-6.08-1.299-12.559-2.412-19.384-3.414-3.823-.574-6.947-1.127-9.494-1.681-2.541-.555-4.507-1.108-6.014-1.688-1.505-.577-2.554-1.178-3.263-1.826-.708-.646-1.078-1.338-1.227-2.097l-.063-.322c-.133-.676-.059-1.301.233-1.856.291-.556.799-1.043 1.537-1.446.736-.403 1.7-.721 2.906-.939 1.205-.218 2.651-.335 4.353-.335 3.165 0 6.546.205 10.07.631a100.12 100.12 0 0 1 10.97 1.963c3.773.891 7.631 2.023 11.502 3.419a103.106 103.106 0 0 1 11.675 5.03l13.291-23.133 16.281 46.977c-3.385-3.262-7.313-6.063-11.728-8.491"/><path d="M420.886 213.577c-59.396-20.452-113.824-18.798-121.569 3.693-1.736 5.043-.976 10.706 1.914 16.687.112-1.163.243-2.32.391-3.473-1.288-4.116-1.39-8.018-.161-11.586 7.419-21.547 60.501-22.807 118.562-2.815 58.062 19.992 99.114 53.665 91.695 75.212-1.227 3.562-3.707 6.566-7.245 9.014-.596 1.006-1.208 2-1.835 2.985 5.952-2.934 10.037-6.923 11.771-11.962 7.744-22.491-34.128-57.303-93.523-77.755M316.348 190.062c.631-1.002 1.363-1.932 2.195-2.789s1.75-1.61 2.756-2.261a12.61 12.61 0 0 1 3.15-1.479c1.107-.339 2.028-.451 2.764-.334.735.117 1.288.42 1.656.909.369.488.558 1.136.567 1.941.009.806-.169 1.737-.532 2.792a14.404 14.404 0 0 1-1.472 3.027 16.677 16.677 0 0 1-2.181 2.749c-.828.844-1.74 1.586-2.737 2.228s-2.049 1.133-3.156 1.472c-1.094.336-2.013.449-2.757.341-.745-.108-1.304-.4-1.677-.876-.373-.475-.566-1.109-.58-1.902-.013-.792.157-1.703.511-2.732a14.842 14.842 0 0 1 1.493-3.086m1.263 3.79c-.053.518-.003.954.149 1.308.152.355.429.592.83.711.4.119.954.07 1.661-.146a6.636 6.636 0 0 0 1.941-.958 8.828 8.828 0 0 0 1.572-1.447c.461-.542.858-1.116 1.192-1.72.333-.603.602-1.202.806-1.796.214-.62.35-1.199.41-1.736.06-.538.015-.987-.135-1.348-.151-.361-.426-.601-.826-.721-.401-.119-.955-.07-1.662.147a6.633 6.633 0 0 0-1.941.957 8.715 8.715 0 0 0-1.575 1.457 10.547 10.547 0 0 0-1.206 1.759c-.34.624-.616 1.246-.83 1.866a7.504 7.504 0 0 0-.386 1.667"/><path d="M340.711 180.882c.666-.07 1.231-.03 1.695.119.464.15.826.382 1.085.699.259.317.408.699.448 1.146.04.448-.033.942-.219 1.483a6.424 6.424 0 0 1-1.295 2.215c-.577.645-1.336 1.169-2.278 1.572l-.013.039c.366.064.643.191.832.382.189.19.316.425.38.704.064.28.073.594.027.942a8.32 8.32 0 0 1-.212 1.053c-.064.223-.141.485-.231.787-.091.303-.173.61-.247.923a5.637 5.637 0 0 0-.144.883c-.022.276.01.505.095.687l-3.269.339c-.026-.43.047-.953.219-1.569a24.35 24.35 0 0 0 .426-1.761c.143-.728.094-1.244-.149-1.55-.243-.305-.774-.416-1.593-.331l-3.268.339-1.902 5.522-3.268.339 4.865-14.131 8.016-.831zm-3.367 6.514c.75-.078 1.366-.294 1.85-.65.484-.355.848-.889 1.094-1.602.236-.686.22-1.165-.048-1.436-.268-.271-.777-.368-1.526-.29l-3.581.371-1.37 3.978 3.581-.371zM353.284 180.481c.963.012 1.81.168 2.54.468.73.3 1.299.744 1.706 1.332.407.588.632 1.319.674 2.194s-.139 1.899-.544 3.074a12.327 12.327 0 0 1-1.4 2.845 9.868 9.868 0 0 1-2.043 2.241 9.244 9.244 0 0 1-2.628 1.469c-.97.353-2.026.522-3.17.508l-6.447-.077 4.866-14.131 6.446.077zm-4.197 11.516a5.11 5.11 0 0 0 1.456-.201c.497-.14.977-.376 1.442-.708a5.846 5.846 0 0 0 1.291-1.306c.395-.539.727-1.197.995-1.976.245-.712.394-1.356.445-1.932.051-.576-.021-1.07-.215-1.483s-.529-.732-1.005-.956c-.477-.224-1.119-.341-1.928-.351l-2.345-.028-3.066 8.906 2.93.035zM372.718 181.756l-.9 2.613-7.857-.726-1.043 3.028 7.212.666-.832 2.414-7.212-.665-1.192 3.463 8.025.741-.9 2.612-11.297-1.042 4.866-14.131zM378.905 182.658l.103 10.288.041.007 6.609-9.179 4.564.754-4.867 14.132-3.036-.502 3.45-10.014-.042-.007-7.062 9.417-2.499-.413-.199-10.514-.042-.006-3.414 9.915-3.036-.502 4.866-14.132zM408.208 188.836l-.9 2.612-7.657-1.904-1.043 3.028 7.028 1.748-.831 2.414-7.028-1.748-1.194 3.464 7.821 1.946-.899 2.611-11.01-2.737 4.866-14.132zM421.211 192.743c.892.282 1.605.65 2.143 1.105s.929.956 1.176 1.503c.247.546.367 1.118.36 1.716a5.703 5.703 0 0 1-1.156 3.354 4.271 4.271 0 0 1-1.359 1.184c-.538.298-1.164.476-1.877.536-.714.059-1.517-.052-2.408-.334l-3.293-1.042-1.745 5.067-3.133-.991 4.866-14.131 6.426 2.033zm-3.148 6.378a6.82 6.82 0 0 0 1.065.249c.351.053.678.043.984-.029.305-.071.581-.222.83-.451.248-.228.45-.567.604-1.015.155-.449.203-.836.146-1.162a1.71 1.71 0 0 0-.388-.835 2.467 2.467 0 0 0-.772-.585 6.771 6.771 0 0 0-1.011-.407l-2.434-.77-1.459 4.235 2.435.77zM434.656 197.4c.63.23 1.161.54 1.595.929s.771.827 1.009 1.316c.237.487.37 1.001.398 1.538a4.26 4.26 0 0 1-.235 1.619c-.286.831-.708 1.487-1.265 1.967-.556.479-1.281.734-2.177.763l-.014.039c.344.245.603.522.776.83.174.309.288.641.345.995.054.355.057.723.006 1.106a9.012 9.012 0 0 1-.221 1.122c-.064.23-.142.498-.233.807-.092.308-.175.626-.251.955-.077.328-.128.648-.153.958s-.001.59.076.841l-3.087-1.129c-.016-.511.063-1.083.237-1.718.175-.634.319-1.25.437-1.846.149-.777.113-1.4-.108-1.867-.224-.468-.722-.843-1.494-1.126l-3.086-1.129-1.902 5.522-3.086-1.129 4.866-14.131 7.567 2.768zm-3.302 5.99c.707.259 1.293.295 1.756.107.462-.187.817-.637 1.062-1.349.235-.686.23-1.249-.017-1.689-.246-.439-.725-.788-1.432-1.047l-3.381-1.237-1.37 3.978 3.382 1.237zM438.63 203.586c.619-.773 1.334-1.375 2.145-1.803a6.004 6.004 0 0 1 2.676-.683c.973-.026 1.987.183 3.041.628 1.066.451 1.952 1.045 2.656 1.78a7.28 7.28 0 0 1 1.575 2.48c.347.918.52 1.894.517 2.928s-.187 2.079-.549 3.134c-.355 1.029-.841 1.924-1.455 2.684a6.636 6.636 0 0 1-2.131 1.763 6.026 6.026 0 0 1-2.655.658c-.966.022-1.982-.191-3.048-.643-1.055-.445-1.938-1.034-2.65-1.766s-1.244-1.549-1.595-2.454c-.353-.904-.528-1.866-.53-2.887s.174-2.047.529-3.076c.362-1.055.854-1.97 1.474-2.743m1.158 5.84a5.315 5.315 0 0 0 .125 1.787 3.96 3.96 0 0 0 .785 1.568c.382.471.914.851 1.595 1.139s1.307.397 1.875.328a3.248 3.248 0 0 0 1.528-.59c.451-.324.84-.737 1.168-1.241s.594-1.052.798-1.646c.214-.62.353-1.249.418-1.887a5.424 5.424 0 0 0-.111-1.826 3.933 3.933 0 0 0-.781-1.578c-.383-.471-.914-.851-1.596-1.139s-1.307-.397-1.875-.328c-.568.07-1.08.269-1.531.6-.452.33-.847.757-1.182 1.28a8.088 8.088 0 0 0-1.216 3.533M457.635 223.489a5.144 5.144 0 0 1-2.082-.524c-1.027-.503-1.887-1.144-2.577-1.923a7.822 7.822 0 0 1-1.542-2.571 8.508 8.508 0 0 1-.496-2.962 9.647 9.647 0 0 1 .54-3.1c.363-1.056.851-1.962 1.463-2.718.611-.756 1.315-1.333 2.11-1.73.797-.396 1.67-.584 2.622-.565.953.02 1.943.282 2.971.785a7.77 7.77 0 0 1 1.889 1.308 7.348 7.348 0 0 1 1.418 1.817 6.67 6.67 0 0 1 .749 2.195c.125.786.086 1.6-.116 2.441l-2.818-1.382c.097-.878-.037-1.637-.401-2.279-.366-.641-.905-1.137-1.619-1.487-.665-.326-1.275-.467-1.831-.424-.557.043-1.058.222-1.503.536s-.833.729-1.165 1.245a7.937 7.937 0 0 0-.817 1.704 8.063 8.063 0 0 0-.398 1.829 5.68 5.68 0 0 0 .107 1.822c.135.59.387 1.134.758 1.632.37.498.887.909 1.551 1.235.978.479 1.822.589 2.534.328.712-.26 1.281-.863 1.711-1.81l-2.971-1.456.799-2.315 5.638 2.764-2.63 7.64-1.88-.922.252-1.75c-.775.454-1.529.667-2.266.637M474.739 216.068c.583.33 1.073.729 1.471 1.197.397.469.701.976.914 1.521.211.545.323 1.102.339 1.67a4.693 4.693 0 0 1-.257 1.663c-.286.831-.695 1.46-1.227 1.884-.531.425-1.215.59-2.053.495l-.015.04c.316.304.553.631.709.979.155.348.256.712.299 1.091.044.379.038.766-.019 1.16-.056.394-.133.776-.23 1.146-.066.231-.146.502-.237.812s-.178.632-.256.966a7.174 7.174 0 0 0-.164.983c-.032.322-.014.619.052.893l-2.86-1.617c-.005-.538.082-1.127.26-1.768.177-.641.327-1.265.449-1.874.156-.794.137-1.451-.062-1.973s-.655-.985-1.372-1.39l-2.861-1.617-1.9 5.522-2.861-1.617 4.866-14.13 7.015 3.964zm-3.221 5.816c.656.371 1.203.49 1.64.359.438-.131.778-.553 1.023-1.266.237-.685.244-1.276.022-1.772-.221-.495-.659-.928-1.315-1.299l-3.135-1.771-1.369 3.978 3.134 1.771zM489.209 225.127l-.9 2.612-6.613-4.306-1.043 3.029 6.07 3.951-.831 2.415-6.07-3.952-1.192 3.464 6.753 4.397-.9 2.612-9.506-6.19 4.865-14.131zM488.882 238.248c.029.44.129.853.298 1.24.167.387.395.752.683 1.097.287.345.604.649.947.911.232.178.49.346.772.503.281.157.562.259.84.305.277.046.533.013.77-.099.234-.113.413-.347.536-.703.131-.383.135-.771.012-1.166a4.654 4.654 0 0 0-.602-1.21 13.647 13.647 0 0 0-.988-1.28 52.7 52.7 0 0 1-1.144-1.374 19.135 19.135 0 0 1-1.13-1.477 8.35 8.35 0 0 1-.875-1.606 5.784 5.784 0 0 1-.415-1.755c-.05-.612.039-1.241.261-1.887.25-.726.597-1.257 1.042-1.592.444-.335.938-.52 1.482-.554.545-.034 1.111.066 1.702.301a7.162 7.162 0 0 1 1.687.963c.62.475 1.188 1.013 1.702 1.614a8.129 8.129 0 0 1 1.246 1.965 6.76 6.76 0 0 1 .567 2.222c.063.773-.046 1.569-.328 2.387l-2.526-1.932c.123-.44.168-.846.136-1.221s-.126-.722-.282-1.041c-.156-.319-.358-.615-.607-.889s-.534-.533-.855-.779a3.665 3.665 0 0 0-.66-.404 1.543 1.543 0 0 0-.669-.161 1.09 1.09 0 0 0-.594.17c-.179.113-.321.322-.425.625a1.713 1.713 0 0 0-.1.775c.029.239.15.531.36.875.211.345.521.765.931 1.262.41.497.948 1.141 1.614 1.933.203.223.479.553.824.993.346.439.66.959.943 1.559.284.6.479 1.262.588 1.986.107.724.025 1.482-.247 2.273-.224.647-.535 1.167-.937 1.56s-.879.632-1.434.717-1.178.004-1.87-.242c-.693-.247-1.444-.679-2.253-1.297a11.11 11.11 0 0 1-1.805-1.743 8.688 8.688 0 0 1-1.32-2.146 7.378 7.378 0 0 1-.584-2.421 6.2 6.2 0 0 1 .377-2.562l2.527 1.932a3.496 3.496 0 0 0-.197 1.373M499.344 246.713c.018.455.1.888.248 1.299.146.411.35.805.609 1.183.259.377.545.715.859 1.013.213.202.448.395.707.579.259.185.517.312.774.382.259.07.498.056.72-.04.221-.096.393-.323.516-.679.131-.383.146-.782.039-1.197a5.397 5.397 0 0 0-.532-1.293 15.134 15.134 0 0 0-.889-1.395 54.592 54.592 0 0 1-1.032-1.506 21.245 21.245 0 0 1-1.017-1.609 9.603 9.603 0 0 1-.777-1.722 6.775 6.775 0 0 1-.344-1.837 5.06 5.06 0 0 1 .288-1.919c.25-.726.586-1.243 1.007-1.552a2.236 2.236 0 0 1 1.394-.449c.508.008 1.033.158 1.578.447a7.06 7.06 0 0 1 1.546 1.127 11.968 11.968 0 0 1 1.546 1.797c.466.659.835 1.366 1.113 2.12s.438 1.53.478 2.33-.081 1.609-.362 2.427l-2.309-2.191c.125-.441.178-.856.157-1.243a3.404 3.404 0 0 0-.238-1.093 4.285 4.285 0 0 0-.545-.964 6.87 6.87 0 0 0-.777-.87 3.786 3.786 0 0 0-.604-.468 1.406 1.406 0 0 0-.619-.22.907.907 0 0 0-.557.127c-.17.102-.307.305-.411.608-.096.277-.133.54-.109.788.021.249.126.558.313.929.188.371.467.828.837 1.372s.855 1.25 1.456 2.118c.185.245.433.607.744 1.087s.592 1.039.841 1.679c.25.64.416 1.337.5 2.089.083.753-.012 1.526-.285 2.317-.222.647-.524 1.156-.907 1.527a2.14 2.14 0 0 1-1.353.621c-.518.043-1.096-.091-1.735-.4-.639-.309-1.327-.814-2.065-1.516-.598-.567-1.145-1.213-1.64-1.937s-.889-1.496-1.178-2.313a8.533 8.533 0 0 1-.486-2.536 6.85 6.85 0 0 1 .412-2.602l2.308 2.19c-.165.475-.238.94-.219 1.395M509.441 247.684c.506-.631 1.058-1.029 1.655-1.191.599-.163 1.229-.064 1.894.296.664.36 1.33 1.006 1.996 1.936.675.941 1.211 1.971 1.607 3.091s.662 2.272.796 3.455c.135 1.183.144 2.363.027 3.539a14.63 14.63 0 0 1-.719 3.347c-.354 1.029-.782 1.853-1.284 2.471-.502.619-1.05 1.003-1.642 1.152-.595.15-1.22.043-1.877-.318-.658-.361-1.325-1.012-1.999-1.953a12.527 12.527 0 0 1-1.605-3.074 15.423 15.423 0 0 1-.812-3.433 16.25 16.25 0 0 1-.041-3.499c.11-1.163.344-2.259.697-3.288.366-1.056.802-1.899 1.307-2.531m.142 7.112c-.108.68-.145 1.375-.113 2.084.033.709.153 1.409.36 2.099.208.69.527 1.336.959 1.937.43.601.843.976 1.237 1.125.394.15.761.13 1.103-.058.341-.187.651-.502.93-.944.278-.441.521-.959.725-1.553.214-.62.378-1.28.492-1.979.114-.7.156-1.408.127-2.124a8.608 8.608 0 0 0-.357-2.109c-.208-.69-.527-1.336-.958-1.937s-.844-.976-1.238-1.125c-.394-.149-.762-.127-1.105.068-.344.194-.659.522-.944.983a8.156 8.156 0 0 0-.748 1.623c-.206.593-.362 1.23-.47 1.91"/><path d="M410.221 135.053c-36.765 0-69.282 18.13-89.14 45.926 21.291-9.109 63.175-6.24 107.878 9.152 44.703 15.393 79.476 38.919 90.644 59.207.069-1.589.115-3.183.115-4.789 0-60.472-49.025-109.496-109.497-109.496m41.964 59.557l-4.955-3.238-4.938 2.821 1.25-5.415-4.447-3.746 5.644-.159 2.053-4.864 2.321 5.176 5.68.725-4.222 3.285 1.614 5.415zM419.331 218.092c-26.39-9.087-52.805-14.091-74.379-14.091-22.325 0-37.236 5.377-41.172 14.788a109.73 109.73 0 0 0-3.056 25.76c0 60.474 49.023 109.498 109.497 109.498 44.324 0 82.494-26.339 99.721-64.216 5.614-20.128-35.424-52.735-90.611-71.739m-107.98 4.16l1.543-4.199 1.035 4.062 3.651.098-3.027 3.085.645 4.296-2.831-2.266-3.027 2.48 1.035-4.374-2.363-2.635 3.339-.547zm2.965 64.25l-2.628-2.247-2.12 1.526.297-3.328-2.289-2.586 2.692.148.763-3.264 1.356 3.561 2.904.594-2.035 2.077 1.06 3.519zm9.476-7.63l-3.35-2.65-2.967 1.993.572-4.24-2.84-3.031 3.561-.021s1.081-4.028 1.166-4.113l1.632 4.346 3.858.593-2.841 2.693 1.209 4.43zm7.241-9.621l-1.894-1.407-1.777 1.192.41-2.382-1.64-1.738 2.09-.02.761-2.343.879 2.402 2.284.273-1.757 1.601.644 2.422zm157.641 15.54l1.793-4.332 1.11 4.104 3.876-.045-3.269 3.131.518 4.119-3.025-1.991-3.633 2.645 1.397-4.393-2.856-2.614 4.089-.624zm-53.896-46.195l1.394-3.443 1.335 3.502 3.559.27-2.786 2.302.853 3.56-3.019-1.993L433 244.71l.929-3.502-2.709-2.36 3.558-.252zM341.59 301.69l-2.681-1.901-2.343 1.354.442-2.968-2.369-2.239 2.864.104.859-2.812 1.354 3.073 3.02.546-2.109 1.796.963 3.047zm3.567-10.909l-3.228-2.213-2.89 1.667.651-3.541-2.838-2.682h3.463l1.171-3.462 1.588 3.723 3.619.52-2.682 2.291 1.146 3.697zm14.655 25.161l-3.881-2.534-3.479 1.79.684-3.881-3.539-3.057 4.283.161 1.347-3.861 1.951 4.182 4.485.686-3.238 2.413 1.387 4.101zm-.414-65.887l.958 3.99-3.342-2.28-3.316 2.15.881-4.041-2.954-2.643 3.912-.285 1.503-3.964 1.425 4.016 3.964.363-3.031 2.694zm33.22 33.411l-2.988-1.914-3.065 1.816.859-3.398-2.695-2.304 3.496-.176 1.366-3.26 1.348 3.339 3.573.273-2.753 2.284.859 3.34zm4.061 5.662l.664-2.538-2.011-1.66 2.656-.156.976-2.441 1.035 2.499 2.714.215-2.109 1.64.664 2.558-2.285-1.445-2.304 1.328zm11.789 50.827l-1.648-.845-1.746.845.549-1.465-1.506-1.056 1.957-.112.746-1.521.719 1.549 1.985.112-1.549 1.069.493 1.424zm2.247-31.217l-4.178-2.435-4.147 2.345 1.202-4.358-3.787-2.975 4.899-.271 1.893-4.329 1.834 4.418 4.869.331-3.757 2.885 1.172 4.389zm-.543-40.619l1.015 4.12-3.632-2.304-3.651 2.206 1.035-4.139-3.222-2.734 4.296-.254 1.62-4.061 1.601 4.14 4.277.253-3.339 2.773zm12.711 14.957l-3.554-2.226-3.651 2.167 1.093-3.963-3.182-2.695 4.198-.254 1.679-3.964 1.522 4.003 4.258.215-3.339 2.695.976 4.022zm9.073 33.791l-3.021 1.667.963-2.994-2.524-1.952 3.437-.286 1.405-3.046 1.172 2.968 3.384.104-2.707 2.136.678 2.862-2.787-1.459zm11.976 14.242l-3.072-1.511-3.41 1.797 1.146-3.124-2.838-2.005 3.931-.416 1.72-3.176 1.145 3.098 3.775-.027-3.072 2.267.675 3.097zm11.012-11.142l-2.577-1.433-2.864 1.744 1.094-2.915-2.395-1.771 3.228-.416 1.484-2.916.988 2.759 3.124-.026-2.576 2.083.494 2.891zm10.597 15.751l-2.239-.938-2.708 1.562 1.093-2.5-1.978-1.354 2.968-.573 1.51-2.525.677 2.291 2.838-.183-2.474 1.901.313 2.319zm1.666-12.186l.441 3.021-2.707-1.406-3.255 2.031 1.276-3.177-2.525-1.822 3.619-.573 1.744-3.281.938 2.97 3.463-.157-2.994 2.394zm.732-9.967l.427 2.781-2.417-1.308-2.843 1.794 1.079-2.919-2.174-1.732 3.162-.501 1.444-2.949.865 2.751 3.04-.091-2.583 2.174zm10.854 1.672l-2.266-1.231-2.659 1.794 1.049-2.858-2.006-1.657 2.948-.53 1.444-2.889.775 2.66 2.873-.168-2.493 2.145.335 2.734zm10.215-5.077l-2.432-1.443-3.025 2.173 1.277-3.404-2.235-1.916 3.375-.684 1.596-3.42.806 3.146 3.086-.183-2.722 2.522.274 3.209zm5.746-8.907l-2.356-1.521-2.948 2.174 1.185-3.466-2.234-2.036 3.299-.639 1.551-3.45.836 3.222 3.069-.167-2.704 2.584.302 3.299zm10.579-11.491l-1.839-1.322-2.312 1.839.943-3.01-1.718-1.733 2.554-.517 1.216-2.994.623 2.827 2.371-.106-2.037 2.113.199 2.903z"/></svg>