<svg xmlns="http://www.w3.org/2000/svg" width="99.407" height="66.78"><path d="M3.228 62.192h-.567c0-.271-.055-.438-.164-.502-.109-.065-.391-.098-.845-.098-.421 0-.688.034-.802.104-.113.068-.17.234-.17.496 0 .397.191.605.572.624l.458.024.58.028c.702.035 1.054.402 1.054 1.103 0 .435-.116.733-.349.896s-.66.243-1.279.243c-.635 0-1.072-.077-1.311-.23-.239-.154-.358-.437-.358-.848l.004-.211h.588l.004.183c0 .254.065.424.194.509.13.085.385.128.766.128.467 0 .774-.045.922-.134.147-.09.221-.275.221-.56 0-.408-.186-.612-.556-.612-.862 0-1.428-.072-1.7-.219-.272-.146-.408-.448-.408-.907 0-.436.107-.725.322-.869s.643-.218 1.283-.218c1.027 0 1.54.31 1.54.929v.141zM5.022 59.521v.637h-.567v-.637h.567zm0 1.659v3.874h-.567V61.18h.567zM9.317 62.192H8.75c0-.271-.055-.438-.164-.502-.109-.065-.391-.098-.845-.098-.421 0-.688.034-.802.104-.113.068-.17.234-.17.496 0 .397.191.605.572.624l.458.024.58.028c.702.035 1.054.402 1.054 1.103 0 .435-.116.733-.349.896s-.66.243-1.279.243c-.635 0-1.072-.077-1.311-.23-.239-.154-.358-.437-.358-.848l.004-.211h.588l.004.183c0 .254.065.424.194.509.13.085.385.128.766.128.467 0 .774-.045.922-.134.147-.09.221-.275.221-.56 0-.408-.186-.612-.556-.612-.862 0-1.428-.072-1.7-.219-.272-.146-.408-.448-.408-.907 0-.436.107-.725.322-.869s.643-.218 1.283-.218c1.027 0 1.54.31 1.54.929v.141zM12.598 61.18v.47h-1.49v2.371c0 .413.184.62.551.62.365 0 .547-.186.547-.556l.004-.19.008-.215h.527l.004.288c0 .762-.361 1.143-1.086 1.143-.748 0-1.122-.317-1.122-.952V61.65h-.535v-.47h.535v-.933h.567v.933h1.49zM16.241 63.883h.58l.004.142c0 .402-.122.685-.367.845-.244.161-.673.241-1.286.241-.714 0-1.182-.13-1.404-.391-.224-.261-.335-.809-.335-1.644 0-.772.112-1.292.337-1.557.224-.265.663-.397 1.316-.397.714 0 1.181.115 1.402.345s.333.714.333 1.451v.304h-2.789c0 .61.065 1 .197 1.167.131.168.437.252.918.252.456 0 .753-.04.89-.12.136-.079.204-.252.204-.517v-.121zm0-1.103l-.004-.183c0-.419-.068-.69-.207-.816-.138-.126-.435-.188-.892-.188-.459 0-.757.073-.894.221-.136.147-.204.47-.204.967h2.201zM18.015 61.18h.567l-.012.583.012.013c.22-.436.641-.653 1.265-.653.657 0 1.056.218 1.195.653h.017c.243-.436.688-.653 1.333-.653.914 0 1.37.467 1.37 1.398v2.533h-.567v-2.586c0-.34-.061-.571-.183-.692-.121-.122-.351-.183-.688-.183-.448 0-.753.084-.912.253s-.239.491-.239.967v2.241h-.567v-2.533l-.008-.178c0-.5-.285-.75-.855-.75-.772 0-1.159.42-1.159 1.261v2.2h-.567V61.18zM25.759 62.266h-.562c0-.451.102-.755.306-.91s.603-.233 1.197-.233c.646 0 1.082.096 1.31.286.227.19.34.554.34 1.088v2.558h-.567l.045-.417-.013-.005c-.216.319-.655.479-1.316.479-.979 0-1.468-.393-1.468-1.18 0-.467.109-.79.329-.968.219-.179.614-.268 1.187-.268.682 0 1.089.134 1.225.401l.012-.005v-.47c0-.443-.061-.73-.183-.861-.121-.131-.388-.196-.798-.196-.697 0-1.046.195-1.046.588-.002.018 0 .056.002.113zm.912.871c-.435 0-.718.046-.849.138-.132.092-.197.289-.197.592 0 .313.065.521.195.622.129.102.393.152.79.152.8 0 1.199-.243 1.199-.729 0-.306-.077-.511-.232-.616-.156-.107-.458-.159-.906-.159zM35.309 59.521v5.532h-.567l.028-.503-.016-.004c-.179.376-.594.563-1.244.563-.595 0-1.001-.145-1.218-.434-.218-.289-.326-.828-.326-1.617 0-.727.109-1.231.328-1.514s.61-.424 1.175-.424c.705 0 1.125.183 1.261.548l.012-.009v-2.14h.567zm-1.706 2.072c-.419 0-.697.097-.835.29-.138.192-.206.584-.206 1.173 0 .648.067 1.075.204 1.278.137.204.42.307.85.307.467 0 .771-.103.911-.307.141-.203.211-.647.211-1.331 0-.554-.077-.928-.232-1.12-.157-.194-.457-.29-.903-.29zM39.3 63.883h.58l.004.142c0 .402-.122.685-.367.845-.244.161-.673.241-1.286.241-.714 0-1.182-.13-1.404-.391-.224-.261-.335-.809-.335-1.644 0-.772.112-1.292.337-1.557.224-.265.663-.397 1.316-.397.714 0 1.181.115 1.402.345s.333.714.333 1.451v.304h-2.789c0 .61.065 1 .197 1.167.131.168.437.252.918.252.456 0 .753-.04.89-.12.136-.079.204-.252.204-.517v-.121zm0-1.103l-.004-.183c0-.419-.068-.69-.207-.816-.138-.126-.435-.188-.892-.188-.459 0-.757.073-.894.221-.136.147-.204.47-.204.967H39.3zM43.407 65.054v-5.532h.928v2.213l.021.008c.159-.407.563-.611 1.212-.611.557 0 .938.136 1.145.407.207.271.311.774.311 1.51 0 .802-.105 1.345-.314 1.627s-.611.424-1.206.424c-.602 0-.998-.219-1.187-.657h-.021l.04.612h-.929zm1.844-3.19c-.603 0-.903.374-.903 1.123 0 .586.051.962.153 1.128.104.166.335.249.697.249.379 0 .62-.076.726-.229s.158-.502.158-1.048c0-.508-.052-.839-.156-.993-.104-.153-.329-.23-.675-.23zM49.022 59.521v.774h-.928v-.774h.928zm0 1.659v3.874h-.928V61.18h.928zM50.233 65.054v-5.532h.928v2.213l.021.008c.159-.407.563-.611 1.212-.611.557 0 .938.136 1.145.407.207.271.311.774.311 1.51 0 .802-.105 1.345-.314 1.627s-.611.424-1.206.424c-.602 0-.998-.219-1.187-.657h-.021l.04.612h-.929zm1.844-3.19c-.603 0-.903.374-.903 1.123 0 .586.051.962.153 1.128.104.166.335.249.697.249.379 0 .62-.076.726-.229s.158-.502.158-1.048c0-.508-.052-.839-.156-.993-.104-.153-.329-.23-.675-.23zM55.85 59.521v5.532h-.928v-5.532h.928zM57.988 59.521v.774h-.928v-.774h.928zm0 1.659v3.874h-.928V61.18h.928zM60.901 61.135c.748 0 1.238.119 1.471.358s.349.744.349 1.514c0 .859-.113 1.423-.34 1.69-.228.268-.705.401-1.435.401-.792 0-1.305-.125-1.538-.373-.234-.249-.351-.796-.351-1.642 0-.813.114-1.342.344-1.585.231-.242.73-.363 1.5-.363zm-.007.733c-.387 0-.633.069-.738.209-.105.139-.158.464-.158.975 0 .584.051.948.15 1.094.1.146.35.219.75.219.386 0 .63-.076.731-.23s.151-.524.151-1.11c0-.494-.052-.811-.157-.948s-.349-.209-.729-.209zM66.295 61.18v.705h-1.492v1.945c0 .359.137.539.409.539.301 0 .45-.218.45-.653v-.153h.79v.194c0 .179-.005.331-.016.458-.052.592-.492.888-1.321.888-.827 0-1.24-.38-1.24-1.139v-2.079h-.503v-.705h.503v-.868h.928v.868h1.492zM69.758 63.813h.933v.15c0 .756-.567 1.135-1.702 1.135-.771 0-1.274-.132-1.512-.394s-.356-.817-.356-1.666c0-.753.124-1.26.373-1.52.248-.259.733-.389 1.454-.389.692 0 1.155.126 1.391.379s.353.749.353 1.489v.283H68.07a3.205 3.205 0 0 0-.009.171c0 .381.06.635.177.762s.352.19.703.19c.341 0 .562-.037.665-.111.101-.072.152-.232.152-.479zm.009-1.098l-.004-.153c0-.309-.054-.508-.16-.6-.107-.092-.339-.139-.695-.139-.346 0-.571.056-.675.167-.104.11-.156.353-.156.725h1.69zM74.231 63.574h.924v.134l-.057.588c-.113.535-.667.803-1.661.803-.729 0-1.215-.132-1.455-.396s-.36-.794-.36-1.591c0-.778.12-1.302.36-1.572s.708-.405 1.402-.405c.67 0 1.124.098 1.361.294.238.195.357.568.357 1.116h-.921c0-.451-.261-.677-.781-.677-.371 0-.603.071-.697.215s-.143.494-.143 1.054c0 .54.053.88.156 1.02.104.139.359.208.765.208.318 0 .523-.048.613-.144.093-.096.137-.312.137-.647zM77.1 62.302h-.948c0-.465.107-.775.324-.932.216-.157.644-.235 1.284-.235.697 0 1.169.096 1.414.288.246.191.369.558.369 1.098v2.533h-.928l.044-.531-.023-.004c-.179.387-.591.58-1.236.58-.938 0-1.406-.398-1.406-1.196 0-.805.479-1.207 1.438-1.207.641 0 1.029.147 1.167.441h.017v-.628c0-.303-.053-.503-.158-.602s-.321-.148-.648-.148c-.474 0-.71.18-.71.543zm.62 1.017c-.524 0-.787.181-.787.543 0 .251.055.416.162.494.108.078.336.118.682.118.564 0 .847-.19.847-.572-.001-.388-.302-.583-.904-.583zM84.001 62.245h-.908a1.312 1.312 0 0 1-.012-.073c-.02-.187-.072-.302-.16-.349-.088-.046-.301-.068-.639-.068-.483 0-.726.156-.726.47 0 .214.043.341.128.381.085.041.373.073.865.098.662.032 1.093.12 1.293.264.2.143.3.437.3.879 0 .473-.133.801-.399.983-.266.182-.743.273-1.433.273-.662 0-1.114-.083-1.357-.247-.243-.165-.365-.473-.365-.925v-.097h.965a.82.82 0 0 0-.024.13c-.038.343.228.515.795.515.586 0 .879-.171.879-.511 0-.327-.184-.49-.551-.49-.83 0-1.376-.079-1.64-.235s-.396-.482-.396-.977c0-.443.12-.743.361-.899.24-.157.702-.235 1.386-.235.646 0 1.08.075 1.303.227.224.15.335.446.335.886zM90.745 61.18v3.874h-.567l.041-.507-.012-.012c-.197.384-.619.575-1.265.575-.905 0-1.358-.451-1.358-1.354V61.18h.567v2.577c0 .352.059.586.175.705s.345.179.685.179c.446 0 .752-.089.918-.266s.249-.502.249-.975v-2.22h.567zM92.244 65.054V61.65h-.592v-.47h.592v-.576c0-.759.391-1.139 1.171-1.139.116 0 .253.01.409.028v.471a4.006 4.006 0 0 0-.4-.028c-.408 0-.612.205-.612.615v.629h1.013v.47h-1.013v3.404h-.568zM97.835 61.18v4.125c0 .562-.121.948-.364 1.159s-.689.316-1.338.316c-.578 0-.973-.089-1.183-.268-.211-.179-.316-.512-.316-1.001h.547c0 .332.062.549.185.648s.393.149.809.149c.433 0 .723-.064.871-.194s.223-.384.223-.762v-.778l-.012-.004c-.146.359-.567.539-1.265.539-.572 0-.967-.141-1.184-.424-.216-.282-.324-.797-.324-1.546 0-.775.11-1.306.331-1.591.22-.285.629-.428 1.226-.428.635 0 1.05.195 1.244.584l.012-.004-.028-.522h.566zm-1.689.413c-.446 0-.735.094-.867.281-.133.188-.199.6-.199 1.234 0 .641.066 1.056.199 1.246.132.19.421.286.867.286.451 0 .748-.104.892-.314.144-.209.215-.645.215-1.307 0-.584-.071-.968-.215-1.151s-.441-.275-.892-.275zM31.736 35.764l-4.361-.006s-.005-2.157-1.711-2.657-2.813-.981-9.907-.981-8.602.773-9.363 1.028-1.544 1.635-1.544 2.616-.169 1.818.916 2.914 6.335.975 6.335.975l6.86.036s5.229.046 7.848.417 4.405 1.68 5.058 3.157.84 2.846.84 3.921-.073 3.482-1.254 4.935-2.869 2.144-4.696 2.397-3.048.397-5.11.457-7.327.083-7.327.083-9.027.142-11.6-1.703S0 49.377 0 47.06l4.397-.021s-.016 1.469.594 2.641 2.938 1.422 3.062 1.422 3.484.438 7.969.359 9.312.172 11.078-1.156c.953-.703 1.3-2.026 1.234-2.922s-.061-2.895-2.358-3.518-5.423-.435-5.423-.435l-8.37-.124s-5.891.118-7.821-.737-2.418-1.302-3.051-2.416-.874-2.786-.829-4.552.553-3.206 1.742-4.58 3.345-2.043 7.72-2.31 10.219-.44 15.5.342c3.164.619 4.591 2.044 4.591 2.044s1.224 1.279 1.397 2.06.304 1.675.304 2.607zM93.218.17a6.188 6.188 0 1 0 0 12.376 6.188 6.188 0 0 0 0-12.376zm0 10.97a4.781 4.781 0 1 1 0-9.562 4.781 4.781 0 0 1 0 9.562zM88.572 15.875v5.486c-2.653-3.756-5.521-4.621-8.486-5.384s-8.548-1.026-10.01-1.051-8.897-.294-12.992 1.172-5.908 5.024-5.908 5.024h-.641V0H35.992v54.825h3.955v-26.04h5.821v26.04h3.917v-5.099h.85c.95 1.406 1.69 3.391 5.163 4.631s7.543 1.388 12.179 1.469 7.952-.36 10.413-.684 4.701-.994 6.868-2.304 3.414-3.501 3.414-3.501v5.492h9.305V15.875h-9.305zm-45.721 7.313a3.312 3.312 0 1 1 0-6.623 3.312 3.312 0 0 1 0 6.623zm33.457 12.523c-.056 1.61-.092 3.57-.634 5.223s-1.779 2.681-3.665 3.128-3.674.728-6.486.765-7.361.078-10.774-.854c0 0-2.08-.405-3.146-2.021-.76-1.15-1.008-3.552-1.066-5.367V34.79s.034-3.607.698-5.085 1.51-2.478 3.79-3.063 5.405-.769 8.39-.769 5.502.177 7.399.547 2.989.809 4.036 1.856 1.278 3.359 1.278 3.359.235 2.466.18 4.076z"/></svg>