<svg xmlns="http://www.w3.org/2000/svg" width="287.781" height="100" viewBox="1312.358 0 287.781 100"><g class="titulo"><g fill="#40B2B0"><path d="M1444.518 25.626a6.618 6.618 0 0 1 2.325 1.539c.653.671 1.162 1.499 1.53 2.483.367.986.551 2.108.551 3.367 0 .49-.052.816-.156.98s-.305.245-.595.245h-11.787c.022 1.119.175 2.092.455 2.921.279.828.665 1.518 1.154 2.072a4.628 4.628 0 0 0 1.748 1.242c.676.273 1.434.411 2.272.411.78 0 1.453-.091 2.021-.271a9.595 9.595 0 0 0 1.46-.586c.407-.21.75-.405 1.023-.586.272-.181.509-.271.708-.271.256 0 .454.099.594.296l.875 1.137a5.938 5.938 0 0 1-1.382 1.216 8.612 8.612 0 0 1-1.725.848c-.61.222-1.244.388-1.896.499-.653.111-1.3.167-1.941.167-1.224 0-2.353-.207-3.384-.621-1.032-.414-1.924-1.02-2.676-1.819s-1.338-1.787-1.758-2.964c-.419-1.177-.63-2.529-.63-4.057 0-1.236.189-2.39.567-3.463a8.196 8.196 0 0 1 1.636-2.79 7.52 7.52 0 0 1 2.606-1.854c1.026-.448 2.18-.673 3.462-.673 1.065 0 2.045.177 2.943.532zm-6.418 3.062c-.862.869-1.399 2.072-1.609 3.612h9.637c0-.722-.1-1.384-.297-1.984a4.417 4.417 0 0 0-.875-1.556 3.899 3.899 0 0 0-1.408-1.015c-.554-.239-1.187-.358-1.896-.358-1.507-.002-2.69.432-3.552 1.301zM1460.076 31.285v2.64h-8.641v-2.64h8.641zM1478.643 35.481c0 2.285-.729 4.151-2.187 5.597-1.55 1.527-3.62 2.291-6.208 2.291-1.084 0-2.229-.111-3.438-.332-1.205-.222-2.146-.443-2.823-.665l-.997-.35v-6.278h1.697c.396 0 .635.198.718.594.034.151.09.729.165 1.731.076 1.003.113 1.511.113 1.521 1.726.642 3.136.962 4.231.962s1.958-.11 2.588-.332a4.617 4.617 0 0 0 1.609-.944c.896-.828 1.347-1.93 1.347-3.305 0-1.329-.624-2.355-1.872-3.079a9.909 9.909 0 0 0-1.905-.839c-2.216-.688-3.685-1.191-4.408-1.512a7.275 7.275 0 0 1-1.922-1.233c-1.248-1.119-1.871-2.676-1.871-4.669 0-1.865.671-3.458 2.012-4.774 1.435-1.411 3.297-2.117 5.587-2.117 2.291 0 4.632.478 7.021 1.435v5.754h-1.696c-.407 0-.647-.198-.717-.594-.023-.07-.116-1.108-.28-3.113-1.562-.443-2.938-.665-4.127-.665-1.471 0-2.624.378-3.464 1.137-.793.699-1.188 1.621-1.188 2.763 0 1.225.63 2.198 1.889 2.921a10.3 10.3 0 0 0 1.941.856c2.099.699 3.562 1.23 4.39 1.592 2.53 1.142 3.795 3.024 3.795 5.647zM1486.505 20.582v19.954a243.2 243.2 0 0 1 2.116.42c.281.059.42.269.42.629v1.504h-8.447v-1.504c0-.361.176-.577.525-.646l1.993-.403V20.582a338.182 338.182 0 0 1-2.1-.42c-.278-.059-.419-.268-.419-.629v-1.504h8.447v1.504c0 .361-.182.577-.543.646l-1.992.403zM1511.456 35.954c0 2.157-.764 3.876-2.291 5.159-1.574 1.318-3.743 1.977-6.506 1.977h-11.385v-1.504c0-.361.175-.577.524-.646l1.994-.403V20.582a139.416 139.416 0 0 1-1.994-.403c-.351-.069-.524-.285-.524-.647v-1.504h10.51c4.466 0 7.241 1.265 8.326 3.795.338.816.506 1.633.506 2.449s-.097 1.51-.287 2.081a5.337 5.337 0 0 1-.865 1.592c-.828 1.026-2.011 1.778-3.551 2.256 3.694.735 5.543 2.652 5.543 5.753zm-14.27-6.697h4.478c2.787 0 4.537-.846 5.248-2.537a4.547 4.547 0 0 0 .331-1.749c0-1.469-.442-2.547-1.328-3.235-.887-.688-2.262-1.032-4.128-1.032h-4.601v8.553zm10.614 8.429a5.023 5.023 0 0 0 .314-1.819c0-1.294-.457-2.317-1.373-3.069-.914-.751-2.299-1.128-4.152-1.128h-5.403v8.726h5.423c2.786 0 4.516-.903 5.191-2.71zM1519.212 20.582v19.954a243.2 243.2 0 0 1 2.116.42c.281.059.42.269.42.629v1.504h-8.447v-1.504c0-.361.176-.577.525-.646l1.993-.403V20.582a338.182 338.182 0 0 1-2.1-.42c-.278-.059-.419-.268-.419-.629v-1.504h8.447v1.504c0 .361-.182.577-.543.646l-1.992.403z"/></g><g fill="#000100"><path d="M1440.626 54.74h-3.465v9.09h-.829v-9.09h-3.465v-.686h7.758l.001.686zM1444.82 57.258l-.616-.04c-.521 0-.948.144-1.282.427-.335.283-.572.674-.715 1.17v5.017h-.829v-7.265h.726l.104 1.209v.08c.217-.446.507-.795.872-1.047.362-.25.797-.375 1.299-.375a2.2 2.2 0 0 1 .553.072l-.112.752zM1448.73 63.973c-.936 0-1.713-.336-2.334-1.007-.619-.673-.931-1.522-.931-2.552v-.368c0-1.038.308-1.899.923-2.585.615-.684 1.361-1.027 2.237-1.027.917 0 1.638.281 2.164.846.524.564.788 1.316.788 2.257v.687h-5.283v.192c0 .817.223 1.5.671 2.049.447.552 1.035.824 1.765.824.517 0 .957-.069 1.32-.207.363-.142.675-.34.934-.599l.354.551a3.057 3.057 0 0 1-1.068.688c-.432.167-.945.251-1.54.251zm-.103-6.855c-.613 0-1.127.228-1.542.679-.414.453-.656 1.021-.727 1.704l.015.033h4.384v-.2c0-.63-.192-1.156-.573-1.58-.385-.424-.904-.636-1.557-.636zM1454.003 54.486h-.823v-1.127h.823v1.127zm0 9.344h-.823v-7.264h.823v7.264zM1456.882 56.566l.075 1.27c.239-.447.564-.793.972-1.037.408-.242.893-.365 1.449-.365.812 0 1.429.24 1.853.723.426.48.638 1.23.638 2.252v4.424h-.83v-4.426c0-.833-.159-1.424-.479-1.771-.32-.345-.776-.518-1.365-.518-.581 0-1.056.147-1.422.446a2.486 2.486 0 0 0-.793 1.188v5.078h-.828v-7.264h.73zM1468.626 63.83a6.364 6.364 0 0 1-.115-.639 4.39 4.39 0 0 1-.034-.541 3.293 3.293 0 0 1-1.106.945c-.461.25-.979.377-1.558.377-.729 0-1.293-.189-1.696-.564-.403-.376-.604-.881-.604-1.512 0-.67.297-1.207.896-1.61.598-.403 1.403-.604 2.417-.604h1.652v-.899c0-.521-.172-.927-.515-1.224-.345-.295-.824-.44-1.442-.44-.575 0-1.055.141-1.436.422-.38.282-.57.627-.57 1.035l-.76-.009-.015-.039c-.027-.543.228-1.026.764-1.454.538-.427 1.221-.642 2.052-.642.822 0 1.487.203 1.99.611.502.406.755.99.755 1.751v3.571c0 .256.015.504.044.746.03.24.08.479.148.717h-.865l-.002.002zm-2.717-.568c.596 0 1.121-.137 1.576-.406.457-.271.786-.615.987-1.037V60.3h-1.664c-.753 0-1.354.155-1.802.468-.45.312-.675.697-.675 1.158 0 .393.14.715.418.963.281.248.668.373 1.16.373zM1472.061 56.566l.075 1.201c.24-.426.561-.754.957-.986.399-.232.875-.35 1.429-.35.571 0 1.051.135 1.436.401.385.271.66.679.825 1.229.228-.512.548-.91.966-1.198.417-.29.925-.435 1.523-.435.798 0 1.412.256 1.848.771.433.516.648 1.311.648 2.39v4.235h-.828V59.57c0-.897-.161-1.53-.486-1.9-.325-.371-.778-.555-1.36-.555-.641 0-1.136.193-1.485.585-.352.39-.566.89-.65 1.5 0 .03.001.075.004.134l.003.129v4.364h-.836v-4.259c0-.877-.166-1.508-.494-1.885-.329-.379-.782-.568-1.358-.568-.586 0-1.051.145-1.395.435-.344.288-.584.679-.723 1.166v5.111h-.837v-7.263h.739v.002h-.001zM1486.578 63.973c-.938 0-1.714-.336-2.333-1.007-.62-.673-.931-1.522-.931-2.552v-.368c0-1.038.309-1.899.923-2.585.613-.684 1.361-1.027 2.236-1.027.918 0 1.641.281 2.165.846.525.566.788 1.316.788 2.257v.687h-5.282v.192c0 .817.224 1.5.67 2.049.447.552 1.034.824 1.765.824.517 0 .955-.069 1.319-.207.365-.142.678-.34.936-.599l.354.551a3.057 3.057 0 0 1-1.068.688c-.434.167-.948.251-1.542.251zm-.103-6.855a2.01 2.01 0 0 0-1.541.679c-.416.453-.657 1.021-.729 1.704l.015.033h4.386v-.2c0-.63-.191-1.156-.573-1.58-.387-.424-.905-.636-1.558-.636zM1491.657 56.566l.075 1.27c.238-.447.563-.793.972-1.037.408-.242.891-.365 1.449-.365.812 0 1.429.24 1.854.723s.638 1.23.638 2.252v4.424h-.832v-4.426c0-.833-.158-1.424-.479-1.771-.32-.345-.775-.518-1.366-.518-.58 0-1.056.147-1.422.446s-.631.693-.791 1.188v5.078h-.829v-7.264h.731zM1499.964 54.707v1.859h1.646v.658h-1.646v4.731c0 .476.09.812.268 1.011a.907.907 0 0 0 .709.299 4.559 4.559 0 0 0 .83-.077l.125.6a2.102 2.102 0 0 1-.506.134 3.817 3.817 0 0 1-.594.048c-.525 0-.936-.16-1.228-.482-.293-.322-.439-.832-.439-1.531v-4.732h-1.293v-.658h1.293v-1.858l.835-.002zM1502.625 60.092c0-1.07.302-1.947.905-2.632s1.403-1.026 2.398-1.026c1.001 0 1.804.342 2.406 1.026.604.687.905 1.563.905 2.632v.221c0 1.074-.301 1.955-.902 2.636-.602.684-1.399 1.024-2.396 1.024-1.005 0-1.81-.342-2.413-1.024-.604-.683-.905-1.562-.905-2.636l.002-.221zm.829.217c0 .842.219 1.547.656 2.121.438.571 1.049.857 1.832.857.771 0 1.375-.285 1.814-.857.441-.572.659-1.279.659-2.121v-.221c0-.827-.221-1.529-.662-2.105-.441-.575-1.052-.863-1.826-.863s-1.381.288-1.818.863c-.438.576-.656 1.278-.656 2.105l.001.221zM1520.153 60.4c0 1.086-.255 1.955-.761 2.602-.508.646-1.205.971-2.096.971-.525 0-.986-.098-1.379-.289a2.458 2.458 0 0 1-.965-.826v3.768h-.829v-10.06h.698l.104 1.129c.249-.402.57-.715.965-.935.396-.219.859-.329 1.394-.329.899 0 1.603.35 2.108 1.045.507.694.762 1.623.762 2.782l-.001.142zm-.831-.15c0-.924-.189-1.676-.566-2.258-.379-.584-.932-.874-1.661-.874-.558 0-1.011.129-1.356.386-.351.258-.61.594-.785 1.006v3.494c.189.398.462.713.818.941s.805.342 1.339.342c.724 0 1.273-.264 1.648-.791.376-.529.563-1.23.563-2.105v-.141zM1526.608 63.83a5.93 5.93 0 0 1-.118-.639 4.39 4.39 0 0 1-.033-.541 3.306 3.306 0 0 1-1.107.945 3.19 3.19 0 0 1-1.556.377c-.729 0-1.294-.189-1.699-.564-.401-.376-.604-.881-.604-1.512 0-.67.299-1.207.896-1.61.598-.403 1.402-.604 2.417-.604h1.654v-.899c0-.521-.173-.927-.517-1.224-.345-.295-.823-.44-1.442-.44-.575 0-1.054.141-1.436.422-.379.282-.569.627-.569 1.035l-.76-.009-.016-.039c-.026-.543.229-1.026.766-1.454.536-.427 1.22-.642 2.049-.642.826 0 1.489.203 1.993.611.503.406.753.99.753 1.751v3.571c0 .256.016.504.045.746.028.24.08.479.147.717h-.862v.002zm-2.717-.568c.595 0 1.118-.137 1.575-.406.456-.271.786-.615.989-1.037V60.3h-1.667c-.751 0-1.353.155-1.801.468-.449.312-.675.697-.675 1.158 0 .393.14.715.418.963.28.248.666.373 1.161.373zM1532.787 57.258l-.616-.04c-.521 0-.947.144-1.282.427-.334.283-.57.674-.715 1.17v5.017h-.829v-7.265h.726l.104 1.209v.08c.217-.446.506-.795.87-1.047.364-.25.799-.375 1.301-.375a2.248 2.248 0 0 1 .553.072l-.112.752zM1538.756 63.83a5.87 5.87 0 0 1-.116-.639 4.39 4.39 0 0 1-.034-.541 3.293 3.293 0 0 1-1.106.945c-.461.25-.979.377-1.557.377-.729 0-1.294-.189-1.697-.564-.403-.376-.604-.881-.604-1.512 0-.67.297-1.207.896-1.61.598-.403 1.403-.604 2.417-.604h1.652v-.899c0-.521-.172-.927-.515-1.224-.345-.295-.823-.44-1.442-.44-.574 0-1.055.141-1.436.422-.38.282-.568.627-.568 1.035l-.763-.009-.014-.039c-.027-.543.229-1.026.764-1.454.538-.427 1.222-.642 2.052-.642.823 0 1.487.203 1.99.611.502.406.755.99.755 1.751v3.571c0 .256.015.504.044.746.03.24.08.479.148.717h-.864l-.002.002zm-2.717-.568c.596 0 1.121-.137 1.576-.406.457-.271.786-.615.988-1.037V60.3h-1.666c-.752 0-1.352.155-1.801.468s-.675.697-.675 1.158c0 .393.14.715.418.963.282.248.667.373 1.16.373zM1544.331 60.092c0-1.07.302-1.947.904-2.632.604-.685 1.403-1.026 2.398-1.026 1.001 0 1.804.342 2.406 1.026.604.687.906 1.563.906 2.632v.221c0 1.074-.302 1.955-.903 2.636-.602.684-1.4 1.024-2.396 1.024-1.004 0-1.81-.342-2.413-1.024-.604-.683-.904-1.562-.904-2.636l.002-.221zm.83.217c0 .842.219 1.547.656 2.121.438.571 1.049.857 1.831.857.771 0 1.375-.285 1.814-.857.442-.572.66-1.279.66-2.121v-.221c0-.827-.221-1.529-.663-2.105-.44-.575-1.051-.863-1.826-.863-.773 0-1.38.288-1.819.863-.438.576-.654 1.278-.654 2.105l.001.221zM1439.637 81.943c0-.531-.206-.965-.615-1.303-.41-.339-1.125-.638-2.145-.896-1.102-.27-1.938-.618-2.503-1.049-.567-.43-.851-1.008-.851-1.737 0-.747.315-1.356.949-1.826.635-.47 1.448-.705 2.444-.705 1.037 0 1.874.279 2.511.839.637.561.945 1.241.926 2.047l-.021.043h-.761c0-.654-.238-1.191-.715-1.613-.479-.42-1.125-.631-1.939-.631-.807 0-1.438.176-1.893.523-.453.352-.681.782-.681 1.303 0 .492.21.903.629 1.232.42.328 1.145.618 2.173.868 1.082.271 1.905.631 2.472 1.088.565.457.847 1.06.847 1.806 0 .778-.328 1.399-.986 1.86-.655.461-1.494.69-2.513.69-1.005 0-1.882-.243-2.632-.733-.748-.491-1.111-1.206-1.088-2.146l.014-.039h.761c0 .758.293 1.319.878 1.687.586.365 1.274.548 2.067.548.798 0 1.44-.17 1.933-.509s.739-.788.739-1.347zM1442.946 74.999h-.823v-1.127h.823v1.127zm0 9.345h-.823V77.08h.823v7.264zM1449.573 82.494c0-.34-.146-.637-.433-.891-.289-.254-.809-.463-1.559-.623-.896-.188-1.556-.438-1.982-.746-.426-.309-.64-.744-.64-1.309 0-.556.241-1.023.724-1.406.481-.383 1.118-.574 1.911-.574.845 0 1.514.203 2.005.607.493.405.729.912.705 1.521l-.014.039h-.769c0-.398-.175-.745-.522-1.04-.347-.296-.816-.441-1.407-.441-.604 0-1.058.125-1.358.377-.301.253-.453.546-.453.886 0 .334.131.609.391.828.262.217.78.407 1.56.573.89.193 1.556.457 1.999.791.442.334.664.789.664 1.365 0 .604-.252 1.096-.758 1.471-.505.375-1.173.562-2.002.562-.908 0-1.621-.211-2.14-.631s-.764-.922-.736-1.504l.015-.039h.761c.032.521.253.9.66 1.135.407.236.889.354 1.44.354.601 0 1.071-.126 1.418-.382.347-.253.52-.562.52-.923zM1453.462 75.221v1.859h1.646v.658h-1.646v4.732c0 .475.09.812.267 1.01.179.199.414.299.711.299a5.143 5.143 0 0 0 .828-.076l.125.598c-.139.06-.307.104-.504.136-.198.03-.396.047-.595.047-.524 0-.935-.161-1.229-.482-.292-.322-.438-.832-.438-1.531V77.74h-1.293v-.66h1.293v-1.859h.835zM1459.531 84.486c-.937 0-1.713-.336-2.334-1.008-.619-.672-.93-1.521-.93-2.552v-.368c0-1.037.308-1.899.922-2.584.615-.686 1.361-1.027 2.236-1.027.918 0 1.639.281 2.166.846.525.564.787 1.316.787 2.256v.686h-5.282v.193c0 .818.224 1.5.671 2.049.447.551 1.035.823 1.765.823.517 0 .956-.067 1.319-.207a2.64 2.64 0 0 0 .936-.599l.354.551a3.02 3.02 0 0 1-1.068.688c-.436.167-.948.253-1.542.253zm-.105-6.855a2.01 2.01 0 0 0-1.541.68c-.415.453-.656 1.021-.727 1.703l.014.034h4.384v-.2c0-.631-.189-1.156-.571-1.58-.383-.424-.903-.637-1.559-.637zM1464.575 77.08l.077 1.202c.237-.427.558-.755.958-.987.397-.232.873-.35 1.426-.35.571 0 1.051.135 1.436.4.387.271.66.68.827 1.229.226-.511.547-.91.963-1.198.418-.29.928-.434 1.525-.434.799 0 1.413.257 1.847.771.435.516.65 1.311.65 2.389v4.236h-.829V80.08c0-.898-.163-1.531-.488-1.9-.324-.371-.777-.555-1.357-.555-.641 0-1.137.193-1.487.584-.35.391-.567.891-.649 1.501a3.692 3.692 0 0 0 .007.263v4.364h-.836v-4.258c0-.879-.164-1.509-.494-1.888-.33-.377-.783-.566-1.359-.566-.585 0-1.05.145-1.393.434-.345.289-.585.68-.725 1.168v5.11h-.837v-7.264h.74l-.002.007zM1481.021 84.344a5.664 5.664 0 0 1-.116-.638 4.233 4.233 0 0 1-.035-.543c-.275.38-.646.694-1.106.946-.461.25-.979.377-1.557.377-.729 0-1.293-.189-1.696-.565s-.604-.88-.604-1.511c0-.67.297-1.207.895-1.611.599-.402 1.403-.604 2.417-.604h1.653v-.901c0-.519-.172-.927-.515-1.222-.346-.295-.824-.441-1.443-.441-.575 0-1.054.141-1.435.422s-.57.627-.57 1.034l-.76-.008-.016-.04c-.026-.541.229-1.025.764-1.453.539-.427 1.222-.641 2.053-.641.822 0 1.486.203 1.99.609.502.407.755.991.755 1.752v3.571c0 .255.014.503.044.745.029.24.08.48.147.718h-.864v.004h-.001zm-2.718-.571c.597 0 1.121-.135 1.576-.405.457-.271.786-.616.988-1.037v-1.519h-1.665c-.752 0-1.354.155-1.801.467-.45.312-.675.697-.675 1.16 0 .393.14.713.418.961.28.25.667.373 1.159.373zM1486.734 80.773c0-1.16.253-2.088.757-2.783.505-.695 1.209-1.045 2.112-1.045.521 0 .973.106 1.355.322a2.7 2.7 0 0 1 .953.914V73.87h.822v10.472H1492l-.067-1.054c-.25.386-.569.682-.962.886-.392.206-.854.312-1.383.312-.895 0-1.594-.323-2.099-.971-.504-.648-.757-1.516-.757-2.604l.002-.138zm.828.142c0 .881.182 1.582.543 2.104.361.521.906.779 1.636.779.535 0 .98-.115 1.338-.351.356-.232.636-.558.833-.972v-3.426a2.574 2.574 0 0 0-.802-1.027c-.347-.266-.798-.396-1.356-.396-.728 0-1.273.291-1.642.873-.365.582-.55 1.339-.55 2.271v.145zM1497.607 84.486c-.938 0-1.715-.336-2.333-1.008-.62-.672-.932-1.521-.932-2.552v-.368c0-1.037.31-1.899.923-2.584.615-.686 1.362-1.027 2.237-1.027.918 0 1.64.281 2.165.846s.788 1.316.788 2.256v.686h-5.282v.193c0 .818.225 1.5.67 2.049.447.551 1.034.823 1.764.823.518 0 .957-.067 1.321-.207s.677-.339.935-.599l.354.551a3.03 3.03 0 0 1-1.068.688c-.433.167-.947.253-1.542.253zm-.104-6.855c-.612 0-1.127.229-1.541.68-.415.453-.657 1.021-.728 1.703l.015.034h4.385v-.2c0-.631-.189-1.156-.573-1.58-.386-.424-.904-.637-1.558-.637zM1505.483 84.344V74.57h2.938c1.047 0 1.861.214 2.445.642.583.429.875 1.071.875 1.933 0 .5-.147.938-.44 1.309-.293.373-.69.63-1.192.773.611.106 1.11.387 1.493.84.382.449.573.972.573 1.562 0 .873-.292 1.543-.875 2.015-.583.469-1.362.703-2.34.703h-3.477v-.003zm.822-5.391h2.317c.729 0 1.292-.154 1.69-.467.398-.312.598-.77.598-1.373 0-.616-.211-1.081-.636-1.393-.425-.312-1.041-.468-1.854-.468h-2.116l.001 3.701zm0 .686v4.021h2.656c.74 0 1.324-.178 1.749-.532s.636-.853.636-1.489c0-.584-.19-1.063-.578-1.438-.384-.375-.942-.562-1.676-.562h-2.787zM1514.814 74.999h-.822v-1.127h.822v1.127zm0 9.345h-.822V77.08h.822v7.264zM1522.992 80.913c0 1.088-.255 1.956-.762 2.603-.508.647-1.205.971-2.096.971-.549 0-1.021-.105-1.418-.318a2.517 2.517 0 0 1-.96-.916l-.09 1.094h-.712V73.872h.829v4.351c.249-.408.566-.723.954-.943.387-.221.848-.332 1.383-.332.898 0 1.602.349 2.109 1.044.507.694.761 1.623.761 2.782l.002.139zm-.838-.14c0-.932-.186-1.688-.553-2.271-.369-.582-.916-.873-1.639-.873-.576 0-1.041.14-1.394.418a2.505 2.505 0 0 0-.785 1.072v3.297c.185.422.46.76.826 1.009s.821.373 1.366.373c.724 0 1.268-.261 1.631-.779.365-.521.547-1.225.547-2.104v-.142h.001zM1525.629 84.344h-.822V73.872h.822v10.472zM1528.704 74.999h-.822v-1.127h.822v1.127zm0 9.345h-.822V77.08h.822v7.264zM1530.387 80.605c0-1.07.303-1.947.904-2.633.604-.685 1.405-1.027 2.398-1.027 1.002 0 1.805.344 2.406 1.027.605.687.906 1.562.906 2.633v.221c0 1.074-.302 1.953-.903 2.635-.601.684-1.399 1.025-2.396 1.025-1.005 0-1.811-.342-2.413-1.025-.604-.682-.905-1.561-.905-2.635l.003-.221zm.829.217c0 .842.22 1.547.655 2.121.439.57 1.05.856 1.833.856.771 0 1.375-.284 1.813-.856.442-.573.66-1.279.66-2.121v-.221c0-.828-.221-1.529-.663-2.105-.44-.576-1.051-.865-1.825-.865s-1.381.289-1.818.865-.656 1.277-.656 2.105l.001.221zM1539.891 75.221v1.859h1.646v.658h-1.646v4.732c0 .475.09.812.268 1.01.177.199.413.299.709.299a5.161 5.161 0 0 0 .83-.076l.124.598c-.138.06-.308.104-.504.136-.199.03-.397.047-.597.047-.524 0-.934-.161-1.228-.482-.293-.322-.44-.832-.44-1.531V77.74h-1.292v-.66h1.292v-1.859h.838zM1545.959 84.486c-.938 0-1.713-.336-2.333-1.008s-.93-1.521-.93-2.552v-.368c0-1.037.308-1.899.922-2.584.615-.686 1.362-1.027 2.237-1.027.918 0 1.64.281 2.166.846.524.564.787 1.316.787 2.256v.686h-5.282v.193c0 .818.224 1.5.67 2.049.446.551 1.034.823 1.764.823.517 0 .957-.067 1.321-.207.363-.14.676-.339.934-.599l.354.551a3.03 3.03 0 0 1-1.068.688c-.437.167-.947.253-1.542.253zm-.104-6.855c-.613 0-1.127.229-1.543.68-.413.453-.655 1.021-.727 1.703l.016.034h4.384v-.2c0-.631-.191-1.156-.573-1.58-.383-.424-.903-.637-1.557-.637zM1553.078 83.8c.548 0 1.032-.149 1.452-.454.418-.303.628-.725.628-1.264h.732l.016.04c.022.671-.255 1.233-.829 1.687a3.157 3.157 0 0 1-1.998.678c-1.021 0-1.808-.34-2.362-1.018-.556-.679-.833-1.551-.833-2.615v-.281c0-1.057.278-1.924.836-2.604.56-.681 1.343-1.021 2.353-1.021.82 0 1.504.232 2.051.705.546.47.811 1.087.791 1.853l-.014.04h-.74c0-.582-.2-1.046-.605-1.395-.403-.346-.897-.52-1.482-.52-.803 0-1.396.277-1.78.834-.387.557-.577 1.258-.577 2.104v.281c0 .857.19 1.564.573 2.117.38.556.976.833 1.788.833zM1562.236 84.344a5.93 5.93 0 0 1-.117-.638 4.233 4.233 0 0 1-.034-.543c-.276.38-.646.694-1.106.946s-.979.377-1.557.377c-.729 0-1.293-.189-1.698-.565-.402-.376-.604-.88-.604-1.511 0-.67.297-1.207.895-1.611.599-.402 1.403-.604 2.417-.604h1.653v-.901c0-.519-.173-.927-.516-1.222s-.823-.441-1.443-.441c-.575 0-1.054.141-1.435.422s-.568.627-.568 1.034l-.761-.008-.016-.04c-.026-.541.229-1.025.765-1.453.537-.427 1.221-.641 2.051-.641.824 0 1.488.203 1.991.609.502.407.754.991.754 1.752v3.571c0 .255.015.503.045.745.029.24.079.48.147.718h-.862l-.001.004zm-2.718-.571c.596 0 1.12-.135 1.576-.405s.786-.616.989-1.037v-1.519h-1.666c-.752 0-1.353.155-1.801.467-.45.312-.675.697-.675 1.16 0 .393.139.713.418.961.28.25.666.373 1.159.373zM1569.452 82.494c0-.34-.146-.637-.433-.891s-.809-.463-1.56-.623c-.896-.188-1.555-.438-1.981-.746s-.64-.744-.64-1.309c0-.556.24-1.023.724-1.406.482-.383 1.117-.574 1.912-.574.845 0 1.512.203 2.005.607.493.405.729.912.704 1.521l-.015.039h-.767c0-.398-.176-.745-.522-1.04-.349-.296-.817-.441-1.407-.441-.604 0-1.059.125-1.359.377-.301.253-.453.546-.453.886 0 .334.131.609.393.828.262.217.778.407 1.56.573.889.193 1.556.457 1.998.791.44.334.663.789.663 1.365 0 .604-.252 1.096-.758 1.471-.504.375-1.172.562-2 .562-.908 0-1.621-.211-2.141-.631s-.765-.922-.736-1.504l.015-.039h.761c.031.521.252.9.66 1.135.407.236.889.354 1.441.354.601 0 1.071-.126 1.418-.382.345-.253.518-.562.518-.923zM1582.611 74.57v6.625c0 1.065-.335 1.879-1.006 2.443-.672.565-1.547.848-2.625.848-1.065 0-1.928-.284-2.586-.851-.658-.567-.987-1.379-.987-2.44V74.57h.83v6.621c0 .83.253 1.475.76 1.928s1.169.681 1.985.681c.828 0 1.505-.226 2.024-.677.521-.452.781-1.096.781-1.932V74.57h.824zM1590.65 79.76h-4.896v4.584h-.822V74.57h6.424v.685h-5.602v3.82h4.896v.685zM1600.139 83.184c-.226.316-.637.613-1.233.89s-1.351.413-2.257.413c-1.172 0-2.131-.389-2.881-1.161-.748-.774-1.123-1.776-1.123-3.009v-1.791c0-1.209.356-2.192 1.068-2.955.713-.76 1.636-1.141 2.77-1.141 1.084 0 1.932.264 2.543.788.609.526.964 1.209 1.062 2.05l-.015.041h-.769c-.12-.654-.402-1.183-.851-1.588-.447-.404-1.104-.606-1.973-.606-.901 0-1.629.315-2.181.95-.55.637-.825 1.449-.825 2.442v1.804c0 1.021.292 1.857.879 2.51.584.652 1.351.979 2.295.979.668 0 1.235-.09 1.703-.271.469-.18.787-.379.957-.592v-2.545h-2.676v-.686h3.507v3.478z"/></g></g><g class="imago"><rect x="1312.358" width="100" height="100" rx="9" ry="9"/><circle cx="1362.358" cy="50" r="50"/><circle cx="1362.358" cy="50" r="40"/><path d="M1335.983 20.129h52.75v60h-52.75z"/><circle cx="1362.358" cy="50" r="20"/><circle cx="1362.358" cy="50.129" r="9"/></g></svg>