<?xml version="1.0" encoding="utf-8"?>
<!-- Generator: Adobe Illustrator 16.0.0, SVG Export Plug-In . SVG Version: 6.00 Build 0)  -->
<!DOCTYPE svg PUBLIC "-//W3C//DTD SVG 1.1//EN" "http://www.w3.org/Graphics/SVG/1.1/DTD/svg11.dtd">
<svg version="1.1" id="Layer_2" xmlns="http://www.w3.org/2000/svg" xmlns:xlink="http://www.w3.org/1999/xlink" x="0px" y="0px"
	 width="99.407px" height="66.78px" viewBox="0 0 99.407 66.78" enable-background="new 0 0 99.407 66.78" xml:space="preserve">
<g>
	<g>
		<path d="M3.228,62.192H2.661c0-0.271-0.055-0.438-0.164-0.502c-0.109-0.065-0.391-0.098-0.845-0.098
			c-0.421,0-0.688,0.034-0.802,0.104c-0.113,0.068-0.17,0.234-0.17,0.496c0,0.397,0.191,0.605,0.572,0.624l0.458,0.024l0.58,0.028
			c0.702,0.035,1.054,0.402,1.054,1.103c0,0.435-0.116,0.733-0.349,0.896S2.335,65.11,1.716,65.11c-0.635,0-1.072-0.077-1.311-0.23
			c-0.239-0.154-0.358-0.437-0.358-0.848l0.004-0.211h0.588l0.004,0.183c0,0.254,0.065,0.424,0.194,0.509
			c0.13,0.085,0.385,0.128,0.766,0.128c0.467,0,0.774-0.045,0.922-0.134c0.147-0.09,0.221-0.275,0.221-0.56
			c0-0.408-0.186-0.612-0.556-0.612c-0.862,0-1.428-0.072-1.7-0.219c-0.272-0.146-0.408-0.448-0.408-0.907
			c0-0.436,0.107-0.725,0.322-0.869s0.643-0.218,1.283-0.218c1.027,0,1.54,0.31,1.54,0.929V62.192z"/>
		<path d="M5.022,59.521v0.637H4.455v-0.637H5.022z M5.022,61.18v3.874H4.455V61.18H5.022z"/>
		<path d="M9.317,62.192H8.75c0-0.271-0.055-0.438-0.164-0.502c-0.109-0.065-0.391-0.098-0.845-0.098
			c-0.421,0-0.688,0.034-0.802,0.104c-0.113,0.068-0.17,0.234-0.17,0.496c0,0.397,0.191,0.605,0.572,0.624l0.458,0.024l0.58,0.028
			c0.702,0.035,1.054,0.402,1.054,1.103c0,0.435-0.116,0.733-0.349,0.896S8.424,65.11,7.805,65.11c-0.635,0-1.072-0.077-1.311-0.23
			c-0.239-0.154-0.358-0.437-0.358-0.848l0.004-0.211h0.588l0.004,0.183c0,0.254,0.065,0.424,0.194,0.509
			c0.13,0.085,0.385,0.128,0.766,0.128c0.467,0,0.774-0.045,0.922-0.134c0.147-0.09,0.221-0.275,0.221-0.56
			c0-0.408-0.186-0.612-0.556-0.612c-0.862,0-1.428-0.072-1.7-0.219c-0.272-0.146-0.408-0.448-0.408-0.907
			c0-0.436,0.107-0.725,0.322-0.869s0.643-0.218,1.283-0.218c1.027,0,1.54,0.31,1.54,0.929V62.192z"/>
		<path d="M12.598,61.18v0.47h-1.49v2.371c0,0.413,0.184,0.62,0.551,0.62c0.365,0,0.547-0.186,0.547-0.556l0.004-0.19l0.008-0.215
			h0.527l0.004,0.288c0,0.762-0.361,1.143-1.086,1.143c-0.748,0-1.122-0.317-1.122-0.952v-0.138v-2.371h-0.535v-0.47h0.535v-0.933
			h0.567v0.933H12.598z"/>
		<path d="M16.241,63.883h0.58l0.004,0.142c0,0.402-0.122,0.685-0.367,0.845c-0.244,0.161-0.673,0.241-1.286,0.241
			c-0.714,0-1.182-0.13-1.404-0.391c-0.224-0.261-0.335-0.809-0.335-1.644c0-0.772,0.112-1.292,0.337-1.557
			c0.224-0.265,0.663-0.397,1.316-0.397c0.714,0,1.181,0.115,1.402,0.345s0.333,0.714,0.333,1.451v0.304h-2.789
			c0,0.61,0.065,1,0.197,1.167c0.131,0.168,0.437,0.252,0.918,0.252c0.456,0,0.753-0.04,0.89-0.12
			c0.136-0.079,0.204-0.252,0.204-0.517V63.883z M16.241,62.78l-0.004-0.183c0-0.419-0.068-0.69-0.207-0.816
			c-0.138-0.126-0.435-0.188-0.892-0.188c-0.459,0-0.757,0.073-0.894,0.221c-0.136,0.147-0.204,0.47-0.204,0.967H16.241z"/>
		<path d="M18.015,61.18h0.567l-0.012,0.583l0.012,0.013c0.22-0.436,0.641-0.653,1.265-0.653c0.657,0,1.056,0.218,1.195,0.653h0.017
			c0.243-0.436,0.688-0.653,1.333-0.653c0.914,0,1.37,0.467,1.37,1.398v2.533h-0.567v-2.586c0-0.34-0.061-0.571-0.183-0.692
			c-0.121-0.122-0.351-0.183-0.688-0.183c-0.448,0-0.753,0.084-0.912,0.253s-0.239,0.491-0.239,0.967v2.241h-0.567v-2.533
			l-0.008-0.178c0-0.5-0.285-0.75-0.855-0.75c-0.772,0-1.159,0.42-1.159,1.261v2.2h-0.567V61.18z"/>
		<path d="M25.759,62.266h-0.562c0-0.451,0.102-0.755,0.306-0.91s0.603-0.233,1.197-0.233c0.646,0,1.082,0.096,1.31,0.286
			c0.227,0.19,0.34,0.554,0.34,1.088v2.558h-0.567l0.045-0.417l-0.013-0.005c-0.216,0.319-0.655,0.479-1.316,0.479
			c-0.979,0-1.468-0.393-1.468-1.18c0-0.467,0.109-0.79,0.329-0.968c0.219-0.179,0.614-0.268,1.187-0.268
			c0.682,0,1.089,0.134,1.225,0.401l0.012-0.005v-0.47c0-0.443-0.061-0.73-0.183-0.861c-0.121-0.131-0.388-0.196-0.798-0.196
			c-0.697,0-1.046,0.195-1.046,0.588C25.755,62.171,25.757,62.209,25.759,62.266z M26.671,63.137c-0.435,0-0.718,0.046-0.849,0.138
			c-0.132,0.092-0.197,0.289-0.197,0.592c0,0.313,0.065,0.521,0.195,0.622c0.129,0.102,0.393,0.152,0.79,0.152
			c0.8,0,1.199-0.243,1.199-0.729c0-0.306-0.077-0.511-0.232-0.616C27.421,63.189,27.119,63.137,26.671,63.137z"/>
		<path d="M35.309,59.521v5.532h-0.567l0.028-0.503l-0.016-0.004c-0.179,0.376-0.594,0.563-1.244,0.563
			c-0.595,0-1.001-0.145-1.218-0.434c-0.218-0.289-0.326-0.828-0.326-1.617c0-0.727,0.109-1.231,0.328-1.514s0.61-0.424,1.175-0.424
			c0.705,0,1.125,0.183,1.261,0.548l0.012-0.009v-2.14H35.309z M33.603,61.593c-0.419,0-0.697,0.097-0.835,0.29
			c-0.138,0.192-0.206,0.584-0.206,1.173c0,0.648,0.067,1.075,0.204,1.278c0.137,0.204,0.42,0.307,0.85,0.307
			c0.467,0,0.771-0.103,0.911-0.307c0.141-0.203,0.211-0.647,0.211-1.331c0-0.554-0.077-0.928-0.232-1.12
			C34.349,61.689,34.049,61.593,33.603,61.593z"/>
		<path d="M39.3,63.883h0.58l0.004,0.142c0,0.402-0.122,0.685-0.367,0.845c-0.244,0.161-0.673,0.241-1.286,0.241
			c-0.714,0-1.182-0.13-1.404-0.391c-0.224-0.261-0.335-0.809-0.335-1.644c0-0.772,0.112-1.292,0.337-1.557
			c0.224-0.265,0.663-0.397,1.316-0.397c0.714,0,1.181,0.115,1.402,0.345s0.333,0.714,0.333,1.451v0.304h-2.789
			c0,0.61,0.065,1,0.197,1.167c0.131,0.168,0.437,0.252,0.918,0.252c0.456,0,0.753-0.04,0.89-0.12
			c0.136-0.079,0.204-0.252,0.204-0.517V63.883z M39.3,62.78l-0.004-0.183c0-0.419-0.068-0.69-0.207-0.816
			c-0.138-0.126-0.435-0.188-0.892-0.188c-0.459,0-0.757,0.073-0.894,0.221c-0.136,0.147-0.204,0.47-0.204,0.967H39.3z"/>
		<path d="M43.407,65.054v-5.532h0.928v2.213l0.021,0.008c0.159-0.407,0.563-0.611,1.212-0.611c0.557,0,0.938,0.136,1.145,0.407
			c0.207,0.271,0.311,0.774,0.311,1.51c0,0.802-0.105,1.345-0.314,1.627s-0.611,0.424-1.206,0.424c-0.602,0-0.998-0.219-1.187-0.657
			h-0.021l0.04,0.612H43.407z M45.251,61.864c-0.603,0-0.903,0.374-0.903,1.123c0,0.586,0.051,0.962,0.153,1.128
			c0.104,0.166,0.335,0.249,0.697,0.249c0.379,0,0.62-0.076,0.726-0.229s0.158-0.502,0.158-1.048c0-0.508-0.052-0.839-0.156-0.993
			C45.822,61.941,45.597,61.864,45.251,61.864z"/>
		<path d="M49.022,59.521v0.774h-0.928v-0.774H49.022z M49.022,61.18v3.874h-0.928V61.18H49.022z"/>
		<path d="M50.233,65.054v-5.532h0.928v2.213l0.021,0.008c0.159-0.407,0.563-0.611,1.212-0.611c0.557,0,0.938,0.136,1.145,0.407
			c0.207,0.271,0.311,0.774,0.311,1.51c0,0.802-0.105,1.345-0.314,1.627s-0.611,0.424-1.206,0.424c-0.602,0-0.998-0.219-1.187-0.657
			h-0.021l0.04,0.612H50.233z M52.077,61.864c-0.603,0-0.903,0.374-0.903,1.123c0,0.586,0.051,0.962,0.153,1.128
			c0.104,0.166,0.335,0.249,0.697,0.249c0.379,0,0.62-0.076,0.726-0.229s0.158-0.502,0.158-1.048c0-0.508-0.052-0.839-0.156-0.993
			C52.648,61.941,52.423,61.864,52.077,61.864z"/>
		<path d="M55.85,59.521v5.532h-0.928v-5.532H55.85z"/>
		<path d="M57.988,59.521v0.774h-0.928v-0.774H57.988z M57.988,61.18v3.874h-0.928V61.18H57.988z"/>
		<path d="M60.901,61.135c0.748,0,1.238,0.119,1.471,0.358s0.349,0.744,0.349,1.514c0,0.859-0.113,1.423-0.34,1.69
			c-0.228,0.268-0.705,0.401-1.435,0.401c-0.792,0-1.305-0.125-1.538-0.373c-0.234-0.249-0.351-0.796-0.351-1.642
			c0-0.813,0.114-1.342,0.344-1.585C59.632,61.256,60.131,61.135,60.901,61.135z M60.894,61.868c-0.387,0-0.633,0.069-0.738,0.209
			c-0.105,0.139-0.158,0.464-0.158,0.975c0,0.584,0.051,0.948,0.15,1.094c0.1,0.146,0.35,0.219,0.75,0.219
			c0.386,0,0.63-0.076,0.731-0.23s0.151-0.524,0.151-1.11c0-0.494-0.052-0.811-0.157-0.948S61.274,61.868,60.894,61.868z"/>
		<path d="M66.295,61.18v0.705h-1.492v1.945c0,0.359,0.137,0.539,0.409,0.539c0.301,0,0.45-0.218,0.45-0.653v-0.153h0.79v0.194
			c0,0.179-0.005,0.331-0.016,0.458c-0.052,0.592-0.492,0.888-1.321,0.888c-0.827,0-1.24-0.38-1.24-1.139v-2.079h-0.503V61.18h0.503
			v-0.868h0.928v0.868H66.295z"/>
		<path d="M69.758,63.813h0.933v0.15c0,0.756-0.567,1.135-1.702,1.135c-0.771,0-1.274-0.132-1.512-0.394
			c-0.238-0.262-0.356-0.817-0.356-1.666c0-0.753,0.124-1.26,0.373-1.52c0.248-0.259,0.733-0.389,1.454-0.389
			c0.692,0,1.155,0.126,1.391,0.379s0.353,0.749,0.353,1.489v0.283h-2.622c-0.006,0.087-0.009,0.144-0.009,0.171
			c0,0.381,0.06,0.635,0.177,0.762s0.352,0.19,0.703,0.19c0.341,0,0.562-0.037,0.665-0.111C69.707,64.22,69.758,64.06,69.758,63.813
			z M69.767,62.715l-0.004-0.153c0-0.309-0.054-0.508-0.16-0.6c-0.107-0.092-0.339-0.139-0.695-0.139
			c-0.346,0-0.571,0.056-0.675,0.167c-0.104,0.11-0.156,0.353-0.156,0.725H69.767z"/>
		<path d="M74.231,63.574h0.924v0.134l-0.057,0.588c-0.113,0.535-0.667,0.803-1.661,0.803c-0.729,0-1.215-0.132-1.455-0.396
			s-0.36-0.794-0.36-1.591c0-0.778,0.12-1.302,0.36-1.572s0.708-0.405,1.402-0.405c0.67,0,1.124,0.098,1.361,0.294
			c0.238,0.195,0.357,0.568,0.357,1.116h-0.921c0-0.451-0.261-0.677-0.781-0.677c-0.371,0-0.603,0.071-0.697,0.215
			s-0.143,0.494-0.143,1.054c0,0.54,0.053,0.88,0.156,1.02c0.104,0.139,0.359,0.208,0.765,0.208c0.318,0,0.523-0.048,0.613-0.144
			C74.187,64.125,74.231,63.909,74.231,63.574z"/>
		<path d="M77.1,62.302h-0.948c0-0.465,0.107-0.775,0.324-0.932c0.216-0.157,0.644-0.235,1.284-0.235
			c0.697,0,1.169,0.096,1.414,0.288c0.246,0.191,0.369,0.558,0.369,1.098v2.533h-0.928l0.044-0.531l-0.023-0.004
			c-0.179,0.387-0.591,0.58-1.236,0.58c-0.938,0-1.406-0.398-1.406-1.196c0-0.805,0.479-1.207,1.438-1.207
			c0.641,0,1.029,0.147,1.167,0.441h0.017v-0.628c0-0.303-0.053-0.503-0.158-0.602s-0.321-0.148-0.648-0.148
			C77.336,61.759,77.1,61.939,77.1,62.302z M77.72,63.319c-0.524,0-0.787,0.181-0.787,0.543c0,0.251,0.055,0.416,0.162,0.494
			c0.108,0.078,0.336,0.118,0.682,0.118c0.564,0,0.847-0.19,0.847-0.572C78.623,63.514,78.322,63.319,77.72,63.319z"/>
		<path d="M84.001,62.245h-0.908c-0.006-0.032-0.01-0.057-0.012-0.073c-0.02-0.187-0.072-0.302-0.16-0.349
			c-0.088-0.046-0.301-0.068-0.639-0.068c-0.483,0-0.726,0.156-0.726,0.47c0,0.214,0.043,0.341,0.128,0.381
			c0.085,0.041,0.373,0.073,0.865,0.098c0.662,0.032,1.093,0.12,1.293,0.264c0.2,0.143,0.3,0.437,0.3,0.879
			c0,0.473-0.133,0.801-0.399,0.983c-0.266,0.182-0.743,0.273-1.433,0.273c-0.662,0-1.114-0.083-1.357-0.247
			c-0.243-0.165-0.365-0.473-0.365-0.925v-0.097h0.965c-0.014,0.054-0.021,0.097-0.024,0.13c-0.038,0.343,0.228,0.515,0.795,0.515
			c0.586,0,0.879-0.171,0.879-0.511c0-0.327-0.184-0.49-0.551-0.49c-0.83,0-1.376-0.079-1.64-0.235s-0.396-0.482-0.396-0.977
			c0-0.443,0.12-0.743,0.361-0.899c0.24-0.157,0.702-0.235,1.386-0.235c0.646,0,1.08,0.075,1.303,0.227
			C83.89,61.509,84.001,61.805,84.001,62.245z"/>
		<path d="M90.745,61.18v3.874h-0.567l0.041-0.507l-0.012-0.012c-0.197,0.384-0.619,0.575-1.265,0.575
			c-0.905,0-1.358-0.451-1.358-1.354V61.18h0.567v2.577c0,0.352,0.059,0.586,0.175,0.705s0.345,0.179,0.685,0.179
			c0.446,0,0.752-0.089,0.918-0.266s0.249-0.502,0.249-0.975V61.18H90.745z"/>
		<path d="M92.244,65.054v-3.404h-0.592v-0.47h0.592v-0.576c0-0.759,0.391-1.139,1.171-1.139c0.116,0,0.253,0.01,0.409,0.028v0.471
			c-0.184-0.02-0.317-0.028-0.4-0.028c-0.408,0-0.612,0.205-0.612,0.615v0.629h1.013v0.47h-1.013v3.404H92.244z"/>
		<path d="M97.835,61.18v4.125c0,0.562-0.121,0.948-0.364,1.159s-0.689,0.316-1.338,0.316c-0.578,0-0.973-0.089-1.183-0.268
			c-0.211-0.179-0.316-0.512-0.316-1.001h0.547c0,0.332,0.062,0.549,0.185,0.648s0.393,0.149,0.809,0.149
			c0.433,0,0.723-0.064,0.871-0.194s0.223-0.384,0.223-0.762v-0.778l-0.012-0.004c-0.146,0.359-0.567,0.539-1.265,0.539
			c-0.572,0-0.967-0.141-1.184-0.424c-0.216-0.282-0.324-0.797-0.324-1.546c0-0.775,0.11-1.306,0.331-1.591
			c0.22-0.285,0.629-0.428,1.226-0.428c0.635,0,1.05,0.195,1.244,0.584l0.012-0.004l-0.028-0.522H97.835z M96.146,61.593
			c-0.446,0-0.735,0.094-0.867,0.281c-0.133,0.188-0.199,0.6-0.199,1.234c0,0.641,0.066,1.056,0.199,1.246
			c0.132,0.19,0.421,0.286,0.867,0.286c0.451,0,0.748-0.104,0.892-0.314c0.144-0.209,0.215-0.645,0.215-1.307
			c0-0.584-0.071-0.968-0.215-1.151S96.597,61.593,96.146,61.593z"/>
	</g>
	<path d="M31.736,35.764l-4.361-0.006c0,0-0.005-2.157-1.711-2.657s-2.813-0.981-9.907-0.981s-8.602,0.773-9.363,1.028
		S4.85,34.783,4.85,35.764s-0.169,1.818,0.916,2.914s6.335,0.975,6.335,0.975l6.86,0.036c0,0,5.229,0.046,7.848,0.417
		s4.405,1.68,5.058,3.157s0.84,2.846,0.84,3.921s-0.073,3.482-1.254,4.935s-2.869,2.144-4.696,2.397s-3.048,0.397-5.11,0.457
		s-7.327,0.083-7.327,0.083s-9.027,0.142-11.6-1.703S0,49.377,0,47.06l4.397-0.021c0,0-0.016,1.469,0.594,2.641
		s2.938,1.422,3.062,1.422s3.484,0.438,7.969,0.359s9.312,0.172,11.078-1.156c0.953-0.703,1.3-2.026,1.234-2.922
		s-0.061-2.895-2.358-3.518s-5.423-0.435-5.423-0.435l-8.37-0.124c0,0-5.891,0.118-7.821-0.737s-2.418-1.302-3.051-2.416
		s-0.874-2.786-0.829-4.552s0.553-3.206,1.742-4.58s3.345-2.043,7.72-2.31s10.219-0.44,15.5,0.342
		c3.164,0.619,4.591,2.044,4.591,2.044s1.224,1.279,1.397,2.06S31.736,34.832,31.736,35.764z"/>
	<path d="M93.218,0.17c-3.418,0-6.188,2.771-6.188,6.188s2.77,6.188,6.188,6.188s6.189-2.771,6.189-6.188S96.636,0.17,93.218,0.17z
		 M93.218,11.14c-2.641,0-4.781-2.141-4.781-4.781s2.141-4.781,4.781-4.781s4.781,2.141,4.781,4.781S95.858,11.14,93.218,11.14z"/>
	<path d="M88.572,15.875v5.486c-2.653-3.756-5.521-4.621-8.486-5.384s-8.548-1.026-10.01-1.051s-8.897-0.294-12.992,1.172
		s-5.908,5.024-5.908,5.024h-0.641V0h-0.85h-1.96H35.992v54.825h3.955v-26.04h5.821v26.04h3.917v-5.099h0.85
		c0.95,1.406,1.69,3.391,5.163,4.631s7.543,1.388,12.179,1.469s7.952-0.36,10.413-0.684s4.701-0.994,6.868-2.304
		s3.414-3.501,3.414-3.501v5.492h9.305V15.875H88.572z M42.851,23.188c-1.83,0-3.312-1.483-3.312-3.312s1.483-3.312,3.312-3.312
		s3.312,1.483,3.312,3.312S44.68,23.188,42.851,23.188z M76.308,35.711c-0.056,1.61-0.092,3.57-0.634,5.223
		s-1.779,2.681-3.665,3.128s-3.674,0.728-6.486,0.765s-7.361,0.078-10.774-0.854c0,0-2.08-0.405-3.146-2.021
		c-0.76-1.15-1.008-3.552-1.066-5.367v-1.795c0,0,0.034-3.607,0.698-5.085s1.51-2.478,3.79-3.063s5.405-0.769,8.39-0.769
		s5.502,0.177,7.399,0.547s2.989,0.809,4.036,1.856s1.278,3.359,1.278,3.359S76.363,34.101,76.308,35.711z"/>
</g>
</svg>
