
<svg version="1.1" xmlns="http://www.w3.org/2000/svg" xmlns:xlink="http://www.w3.org/1999/xlink" x="0px" y="0px"
	 width="125px" height="26.582px" viewBox="0 0 125 26.582" enable-background="new 0 0 125 26.582"
	 xml:space="preserve">

<g id="cercomp">
	<path d="M13.469,21.61c-0.754,0.39-2.418,0.78-4.524,0.78C3.38,22.391,0,18.906,0,13.576C0,7.804,4.004,4.32,9.36,4.32
		c2.106,0,3.614,0.442,4.264,0.78l-0.702,2.548C12.09,7.284,10.946,6.972,9.49,6.972c-3.562,0-6.136,2.236-6.136,6.448
		c0,3.848,2.262,6.318,6.11,6.318c1.3,0,2.652-0.26,3.484-0.65L13.469,21.61z"/>
	<path d="M26,14.355h-6.604v5.148h7.384v2.627H16.198V4.606h10.192v2.626h-6.994v4.524H26V14.355z"/>
	<path d="M29.588,4.84c1.196-0.208,2.99-0.364,4.836-0.364c2.522,0,4.238,0.416,5.408,1.404c0.962,0.806,1.508,2.028,1.508,3.51
		c0,2.262-1.534,3.796-3.172,4.394v0.078c1.248,0.468,2.002,1.691,2.444,3.38c0.546,2.184,1.014,4.213,1.378,4.889h-3.302
		c-0.26-0.521-0.676-1.951-1.17-4.135c-0.494-2.288-1.326-3.016-3.146-3.068H32.76v7.203h-3.172V4.84z M32.76,12.588h1.898
		c2.158,0,3.51-1.144,3.51-2.886c0-1.924-1.352-2.808-3.432-2.808c-1.014,0-1.664,0.078-1.976,0.156V12.588z"/>
	<path d="M56.94,21.61c-0.754,0.39-2.418,0.78-4.524,0.78c-5.564,0-8.944-3.484-8.944-8.814c0-5.772,4.004-9.256,9.36-9.256
		c2.106,0,3.614,0.442,4.264,0.78l-0.702,2.548c-0.832-0.364-1.976-0.676-3.432-0.676c-3.562,0-6.136,2.236-6.136,6.448
		c0,3.848,2.262,6.318,6.11,6.318c1.3,0,2.652-0.26,3.484-0.65L56.94,21.61z"/>
	<path d="M74.542,13.186c0,5.876-3.562,9.23-8.398,9.23c-4.94,0-8.061-3.77-8.061-8.918c0-5.382,3.38-9.178,8.32-9.178
		C71.526,4.32,74.542,8.194,74.542,13.186z M61.464,13.446c0,3.562,1.794,6.396,4.862,6.396c3.094,0,4.836-2.859,4.836-6.526
		c0-3.302-1.638-6.422-4.836-6.422C63.154,6.894,61.464,9.832,61.464,13.446z"/>
	<path d="M92.092,14.98c-0.104-2.262-0.234-4.993-0.208-7.359h-0.078c-0.572,2.132-1.3,4.499-2.08,6.708l-2.548,7.592h-2.47
		l-2.34-7.488c-0.676-2.236-1.3-4.627-1.769-6.812h-0.052c-0.078,2.288-0.182,5.07-0.312,7.462l-0.39,7.047h-2.99l1.17-17.525h4.212
		l2.288,7.046c0.624,2.054,1.17,4.134,1.612,6.084h0.078c0.468-1.898,1.066-4.056,1.742-6.11l2.418-7.02h4.16l1.014,17.525h-3.12
		L92.092,14.98z"/>
	<path d="M98.8,4.84c1.144-0.208,2.73-0.364,4.888-0.364c2.34,0,4.056,0.494,5.174,1.43c1.04,0.858,1.716,2.236,1.716,3.874
		c0,1.664-0.52,3.042-1.508,3.979c-1.274,1.274-3.276,1.873-5.539,1.873c-0.598,0-1.144-0.027-1.56-0.105v6.605H98.8V4.84z
		 M101.972,13.004c0.39,0.104,0.91,0.13,1.56,0.13c2.392,0,3.848-1.17,3.848-3.225c0-1.95-1.352-2.99-3.562-2.99
		c-0.884,0-1.508,0.078-1.846,0.156V13.004z"/>
</g>
</svg>
