
<svg version="1.1" xmlns="http://www.w3.org/2000/svg" xmlns:xlink="http://www.w3.org/1999/xlink" x="0px" y="0px"
	 width="287.78px" height="100px" viewBox="1312.358 0 287.78 100" enable-background="new 1312.358 0 287.78 100"
	 xml:space="preserve">
<g>
	<g>
		<path fill="#40B2B0" d="M1444.518,25.626c0.896,0.356,1.672,0.869,2.325,1.539c0.653,0.671,1.162,1.499,1.53,2.483
			c0.367,0.986,0.551,2.108,0.551,3.367c0,0.49-0.052,0.816-0.156,0.98c-0.104,0.164-0.305,0.245-0.595,0.245h-11.787
			c0.022,1.119,0.175,2.092,0.455,2.921c0.279,0.828,0.665,1.518,1.154,2.072c0.489,0.554,1.072,0.967,1.748,1.242
			c0.676,0.273,1.434,0.411,2.271,0.411c0.78,0,1.453-0.091,2.021-0.271c0.564-0.181,1.053-0.376,1.46-0.586
			c0.407-0.21,0.75-0.405,1.022-0.586c0.272-0.181,0.51-0.271,0.708-0.271c0.256,0,0.454,0.099,0.595,0.296l0.875,1.137
			c-0.385,0.466-0.848,0.872-1.382,1.216c-0.537,0.344-1.111,0.626-1.726,0.848c-0.61,0.222-1.244,0.388-1.896,0.499
			c-0.653,0.111-1.301,0.167-1.941,0.167c-1.224,0-2.354-0.207-3.384-0.621c-1.032-0.414-1.924-1.02-2.677-1.819
			c-0.752-0.799-1.338-1.787-1.758-2.964c-0.419-1.177-0.63-2.529-0.63-4.057c0-1.236,0.189-2.39,0.567-3.463
			c0.379-1.072,0.925-2.001,1.636-2.79c0.711-0.787,1.579-1.405,2.606-1.854c1.025-0.448,2.18-0.673,3.462-0.673
			C1442.64,25.094,1443.62,25.271,1444.518,25.626z M1438.1,28.688c-0.861,0.869-1.398,2.072-1.608,3.612h9.637
			c0-0.722-0.1-1.384-0.297-1.984c-0.199-0.6-0.489-1.119-0.875-1.556c-0.384-0.438-0.854-0.776-1.408-1.015
			c-0.554-0.239-1.187-0.358-1.896-0.358C1440.145,27.385,1438.962,27.819,1438.1,28.688z"/>
		<path fill="#40B2B0" d="M1460.076,31.285v2.64h-8.641v-2.64H1460.076z"/>
		<path fill="#40B2B0" d="M1478.643,35.481c0,2.285-0.729,4.151-2.187,5.597c-1.55,1.527-3.62,2.291-6.208,2.291
			c-1.084,0-2.229-0.111-3.438-0.332c-1.204-0.222-2.146-0.443-2.822-0.665l-0.997-0.35v-6.278h1.697
			c0.396,0,0.635,0.198,0.718,0.594c0.034,0.151,0.09,0.729,0.165,1.731c0.076,1.003,0.113,1.511,0.113,1.521
			c1.726,0.642,3.136,0.962,4.23,0.962s1.958-0.11,2.588-0.332c0.63-0.222,1.165-0.537,1.609-0.944
			c0.896-0.828,1.347-1.93,1.347-3.305c0-1.329-0.624-2.355-1.872-3.079c-0.56-0.326-1.193-0.606-1.904-0.839
			c-2.217-0.688-3.686-1.191-4.408-1.512s-1.363-0.731-1.922-1.233c-1.248-1.119-1.871-2.676-1.871-4.669
			c0-1.865,0.671-3.458,2.012-4.774c1.436-1.411,3.297-2.117,5.587-2.117c2.291,0,4.632,0.478,7.021,1.435v5.754h-1.696
			c-0.407,0-0.647-0.198-0.717-0.594c-0.023-0.07-0.116-1.108-0.28-3.113c-1.562-0.443-2.938-0.665-4.127-0.665
			c-1.471,0-2.624,0.378-3.464,1.137c-0.793,0.699-1.188,1.621-1.188,2.763c0,1.225,0.63,2.198,1.89,2.921
			c0.561,0.327,1.207,0.612,1.94,0.856c2.1,0.699,3.562,1.23,4.391,1.592C1477.378,30.976,1478.643,32.858,1478.643,35.481z"/>
		<path fill="#40B2B0" d="M1486.505,20.582v19.954c1.131,0.222,1.836,0.361,2.116,0.42c0.281,0.059,0.42,0.269,0.42,0.629v1.504
			h-8.447v-1.504c0-0.361,0.176-0.577,0.525-0.646l1.993-0.403V20.582c-1.118-0.222-1.818-0.361-2.101-0.42
			c-0.277-0.059-0.419-0.268-0.419-0.629v-1.504h8.447v1.504c0,0.361-0.182,0.577-0.543,0.646L1486.505,20.582z"/>
		<path fill="#40B2B0" d="M1511.456,35.954c0,2.157-0.764,3.876-2.291,5.159c-1.574,1.318-3.743,1.977-6.506,1.977h-11.385v-1.504
			c0-0.361,0.175-0.577,0.523-0.646l1.994-0.403V20.582c-1.119-0.222-1.785-0.356-1.994-0.403c-0.351-0.069-0.523-0.285-0.523-0.647
			v-1.504h10.51c4.466,0,7.241,1.265,8.326,3.795c0.338,0.816,0.506,1.633,0.506,2.449s-0.097,1.51-0.287,2.081
			c-0.192,0.571-0.482,1.102-0.865,1.592c-0.828,1.026-2.011,1.778-3.551,2.256C1509.607,30.936,1511.456,32.853,1511.456,35.954z
			 M1497.186,29.257h4.479c2.787,0,4.537-0.846,5.248-2.537c0.221-0.537,0.331-1.119,0.331-1.749c0-1.469-0.442-2.547-1.328-3.235
			c-0.887-0.688-2.262-1.032-4.128-1.032h-4.601L1497.186,29.257L1497.186,29.257z M1507.8,37.686
			c0.211-0.548,0.314-1.154,0.314-1.819c0-1.294-0.457-2.317-1.373-3.069c-0.914-0.751-2.299-1.128-4.152-1.128h-5.403v8.726h5.424
			C1505.395,40.396,1507.125,39.493,1507.8,37.686z"/>
		<path fill="#40B2B0" d="M1519.212,20.582v19.954c1.131,0.222,1.836,0.361,2.116,0.42c0.281,0.059,0.42,0.269,0.42,0.629v1.504
			h-8.447v-1.504c0-0.361,0.176-0.577,0.525-0.646l1.993-0.403V20.582c-1.118-0.222-1.818-0.361-2.101-0.42
			c-0.277-0.059-0.419-0.268-0.419-0.629v-1.504h8.447v1.504c0,0.361-0.182,0.577-0.543,0.646L1519.212,20.582z"/>
	</g>
	<g>
		<path fill="#000100" d="M1440.626,54.74h-3.465v9.09h-0.829v-9.09h-3.465v-0.686h7.758L1440.626,54.74L1440.626,54.74z"/>
		<path fill="#000100" d="M1444.82,57.258l-0.616-0.04c-0.521,0-0.948,0.144-1.282,0.427c-0.335,0.283-0.572,0.674-0.715,1.17v5.018
			h-0.829v-7.266h0.726l0.104,1.209v0.08c0.217-0.445,0.507-0.795,0.872-1.047c0.362-0.25,0.797-0.375,1.299-0.375
			c0.105,0,0.209,0.008,0.308,0.022c0.101,0.015,0.183,0.03,0.245,0.05L1444.82,57.258z"/>
		<path fill="#000100" d="M1448.73,63.973c-0.937,0-1.714-0.336-2.334-1.007c-0.619-0.673-0.932-1.522-0.932-2.552v-0.368
			c0-1.038,0.309-1.899,0.923-2.585c0.615-0.684,1.361-1.027,2.237-1.027c0.917,0,1.638,0.281,2.164,0.846
			c0.523,0.564,0.788,1.316,0.788,2.258v0.688h-5.283v0.191c0,0.816,0.223,1.5,0.671,2.049c0.447,0.553,1.035,0.824,1.766,0.824
			c0.517,0,0.957-0.068,1.319-0.207c0.363-0.143,0.675-0.34,0.935-0.6l0.354,0.552c-0.282,0.286-0.638,0.517-1.068,0.688
			C1449.838,63.889,1449.325,63.973,1448.73,63.973z M1448.627,57.118c-0.613,0-1.127,0.228-1.542,0.679
			c-0.414,0.453-0.656,1.021-0.728,1.704l0.016,0.033h4.384v-0.2c0-0.63-0.192-1.156-0.573-1.58
			C1449.799,57.33,1449.28,57.118,1448.627,57.118z"/>
		<path fill="#000100" d="M1454.003,54.486h-0.823v-1.127h0.823V54.486z M1454.003,63.83h-0.823v-7.264h0.823V63.83z"/>
		<path fill="#000100" d="M1456.882,56.566l0.075,1.27c0.239-0.447,0.563-0.793,0.972-1.037c0.408-0.242,0.894-0.365,1.449-0.365
			c0.812,0,1.429,0.24,1.853,0.724c0.427,0.479,0.639,1.229,0.639,2.252v4.424h-0.83v-4.426c0-0.833-0.159-1.425-0.479-1.771
			c-0.319-0.345-0.775-0.518-1.364-0.518c-0.581,0-1.057,0.147-1.422,0.446c-0.367,0.299-0.632,0.692-0.793,1.188v5.078h-0.828
			v-7.264H1456.882z"/>
		<path fill="#000100" d="M1468.626,63.83c-0.055-0.246-0.094-0.458-0.115-0.639c-0.021-0.178-0.034-0.357-0.034-0.541
			c-0.274,0.379-0.646,0.692-1.105,0.945c-0.461,0.25-0.979,0.377-1.559,0.377c-0.729,0-1.293-0.189-1.695-0.564
			c-0.403-0.376-0.604-0.881-0.604-1.512c0-0.67,0.297-1.207,0.896-1.61c0.598-0.403,1.402-0.604,2.417-0.604h1.651v-0.898
			c0-0.521-0.172-0.928-0.515-1.225c-0.345-0.295-0.824-0.439-1.442-0.439c-0.574,0-1.055,0.141-1.436,0.422
			c-0.38,0.282-0.57,0.627-0.57,1.035l-0.76-0.01l-0.015-0.039c-0.027-0.543,0.228-1.025,0.764-1.453
			c0.538-0.428,1.221-0.643,2.052-0.643c0.822,0,1.487,0.203,1.99,0.611c0.502,0.406,0.755,0.99,0.755,1.751v3.571
			c0,0.256,0.016,0.504,0.044,0.746c0.03,0.24,0.08,0.479,0.148,0.717h-0.865L1468.626,63.83L1468.626,63.83z M1465.909,63.262
			c0.596,0,1.121-0.137,1.576-0.406c0.457-0.271,0.786-0.614,0.987-1.037V60.3h-1.664c-0.754,0-1.354,0.155-1.803,0.468
			c-0.449,0.312-0.675,0.697-0.675,1.158c0,0.393,0.14,0.715,0.418,0.963C1465.03,63.137,1465.417,63.262,1465.909,63.262z"/>
		<path fill="#000100" d="M1472.061,56.566l0.075,1.201c0.24-0.427,0.562-0.754,0.957-0.986c0.399-0.232,0.875-0.35,1.429-0.35
			c0.571,0,1.052,0.135,1.437,0.4c0.385,0.271,0.66,0.68,0.825,1.229c0.228-0.512,0.548-0.91,0.966-1.197
			c0.417-0.29,0.925-0.436,1.522-0.436c0.799,0,1.412,0.256,1.849,0.771c0.433,0.516,0.647,1.311,0.647,2.39v4.235h-0.828V59.57
			c0-0.897-0.16-1.53-0.485-1.9c-0.325-0.371-0.778-0.555-1.36-0.555c-0.641,0-1.136,0.193-1.484,0.585
			c-0.353,0.39-0.566,0.89-0.65,1.5c0,0.03,0.001,0.075,0.004,0.134c0.002,0.059,0.003,0.102,0.003,0.129v4.364h-0.836v-4.259
			c0-0.877-0.166-1.508-0.494-1.885c-0.329-0.379-0.782-0.568-1.358-0.568c-0.586,0-1.051,0.145-1.395,0.435
			c-0.344,0.288-0.584,0.679-0.723,1.166v5.111h-0.838v-7.263h0.739L1472.061,56.566L1472.061,56.566z"/>
		<path fill="#000100" d="M1486.578,63.973c-0.938,0-1.714-0.336-2.333-1.007c-0.62-0.673-0.931-1.522-0.931-2.552v-0.368
			c0-1.038,0.309-1.899,0.923-2.585c0.612-0.684,1.36-1.027,2.235-1.027c0.918,0,1.642,0.281,2.165,0.846
			c0.525,0.566,0.788,1.316,0.788,2.258v0.688h-5.282v0.191c0,0.816,0.225,1.5,0.671,2.049c0.446,0.553,1.033,0.824,1.765,0.824
			c0.517,0,0.955-0.068,1.319-0.207c0.364-0.143,0.678-0.34,0.936-0.6l0.354,0.552c-0.28,0.286-0.639,0.517-1.067,0.688
			C1487.686,63.889,1487.172,63.973,1486.578,63.973z M1486.475,57.118c-0.611,0-1.128,0.228-1.541,0.679
			c-0.416,0.453-0.656,1.021-0.729,1.704l0.015,0.033h4.386v-0.2c0-0.63-0.19-1.156-0.572-1.58
			C1487.646,57.33,1487.128,57.118,1486.475,57.118z"/>
		<path fill="#000100" d="M1491.657,56.566l0.075,1.27c0.237-0.447,0.562-0.793,0.972-1.037c0.408-0.242,0.891-0.365,1.449-0.365
			c0.812,0,1.429,0.24,1.854,0.724s0.638,1.229,0.638,2.252v4.424h-0.832v-4.426c0-0.833-0.157-1.425-0.479-1.771
			c-0.32-0.345-0.775-0.518-1.366-0.518c-0.58,0-1.056,0.147-1.422,0.446s-0.631,0.692-0.791,1.188v5.078h-0.829v-7.264H1491.657z"
			/>
		<path fill="#000100" d="M1499.964,54.707v1.859h1.646v0.658h-1.646v4.73c0,0.477,0.09,0.812,0.269,1.011
			c0.178,0.198,0.412,0.3,0.709,0.3c0.134,0,0.264-0.008,0.392-0.019c0.127-0.013,0.271-0.03,0.438-0.06l0.125,0.601
			c-0.139,0.06-0.307,0.104-0.506,0.134c-0.196,0.031-0.396,0.049-0.594,0.049c-0.525,0-0.937-0.16-1.228-0.482
			c-0.293-0.322-0.439-0.832-0.439-1.531v-4.732h-1.293v-0.658h1.293v-1.857L1499.964,54.707L1499.964,54.707z"/>
		<path fill="#000100" d="M1502.625,60.092c0-1.07,0.302-1.947,0.905-2.632c0.603-0.685,1.402-1.026,2.397-1.026
			c1.001,0,1.805,0.342,2.406,1.026c0.604,0.687,0.905,1.563,0.905,2.632v0.221c0,1.074-0.302,1.955-0.902,2.637
			c-0.602,0.684-1.399,1.023-2.396,1.023c-1.006,0-1.811-0.342-2.413-1.023c-0.604-0.684-0.905-1.562-0.905-2.637L1502.625,60.092
			L1502.625,60.092z M1503.454,60.309c0,0.842,0.219,1.547,0.656,2.121c0.438,0.571,1.049,0.857,1.832,0.857
			c0.771,0,1.375-0.285,1.813-0.857c0.441-0.572,0.659-1.279,0.659-2.121v-0.221c0-0.827-0.221-1.529-0.662-2.105
			c-0.44-0.574-1.052-0.862-1.826-0.862c-0.773,0-1.381,0.288-1.817,0.862c-0.438,0.576-0.656,1.278-0.656,2.105L1503.454,60.309
			L1503.454,60.309z"/>
		<path fill="#000100" d="M1520.153,60.4c0,1.086-0.255,1.955-0.762,2.602c-0.508,0.646-1.204,0.971-2.096,0.971
			c-0.524,0-0.985-0.098-1.379-0.289c-0.396-0.189-0.716-0.468-0.965-0.826v3.769h-0.829v-10.06h0.698l0.104,1.129
			c0.249-0.402,0.57-0.715,0.965-0.936c0.396-0.219,0.859-0.328,1.395-0.328c0.899,0,1.603,0.35,2.108,1.045
			c0.507,0.693,0.762,1.623,0.762,2.781L1520.153,60.4L1520.153,60.4z M1519.322,60.25c0-0.924-0.189-1.676-0.566-2.258
			c-0.379-0.584-0.932-0.874-1.661-0.874c-0.558,0-1.011,0.129-1.355,0.386c-0.352,0.258-0.61,0.594-0.785,1.006v3.494
			c0.188,0.398,0.462,0.713,0.817,0.941c0.356,0.228,0.806,0.342,1.34,0.342c0.724,0,1.272-0.264,1.647-0.791
			c0.376-0.529,0.563-1.23,0.563-2.105V60.25L1519.322,60.25z"/>
		<path fill="#000100" d="M1526.608,63.83c-0.058-0.246-0.098-0.458-0.118-0.639c-0.022-0.178-0.033-0.357-0.033-0.541
			c-0.277,0.379-0.646,0.692-1.107,0.945c-0.462,0.252-0.979,0.377-1.556,0.377c-0.729,0-1.294-0.189-1.699-0.564
			c-0.4-0.376-0.604-0.881-0.604-1.512c0-0.67,0.299-1.207,0.896-1.61c0.599-0.403,1.402-0.604,2.417-0.604h1.654v-0.898
			c0-0.521-0.173-0.928-0.517-1.225c-0.346-0.295-0.823-0.439-1.442-0.439c-0.575,0-1.054,0.141-1.437,0.422
			c-0.379,0.282-0.568,0.627-0.568,1.035l-0.76-0.01l-0.017-0.039c-0.025-0.543,0.229-1.025,0.767-1.453
			c0.535-0.428,1.22-0.643,2.049-0.643c0.826,0,1.488,0.203,1.993,0.611c0.503,0.406,0.753,0.99,0.753,1.751v3.571
			c0,0.256,0.016,0.504,0.045,0.746c0.027,0.24,0.08,0.479,0.146,0.717h-0.861L1526.608,63.83L1526.608,63.83z M1523.891,63.262
			c0.596,0,1.118-0.137,1.575-0.406c0.456-0.271,0.786-0.614,0.989-1.037V60.3h-1.667c-0.751,0-1.354,0.155-1.801,0.468
			c-0.449,0.312-0.676,0.697-0.676,1.158c0,0.393,0.141,0.715,0.418,0.963C1523.01,63.137,1523.396,63.262,1523.891,63.262z"/>
		<path fill="#000100" d="M1532.787,57.258l-0.616-0.04c-0.521,0-0.947,0.144-1.282,0.427c-0.334,0.283-0.569,0.674-0.715,1.17
			v5.018h-0.829v-7.266h0.727l0.104,1.209v0.08c0.218-0.445,0.506-0.795,0.87-1.047c0.364-0.25,0.799-0.375,1.301-0.375
			c0.104,0,0.209,0.008,0.31,0.022c0.1,0.015,0.182,0.03,0.244,0.05L1532.787,57.258z"/>
		<path fill="#000100" d="M1538.756,63.83c-0.056-0.246-0.096-0.458-0.116-0.639c-0.021-0.178-0.034-0.357-0.034-0.541
			c-0.274,0.379-0.646,0.692-1.105,0.945c-0.461,0.25-0.979,0.377-1.557,0.377c-0.729,0-1.294-0.189-1.697-0.564
			c-0.403-0.376-0.604-0.881-0.604-1.512c0-0.67,0.298-1.207,0.896-1.61c0.598-0.403,1.403-0.604,2.417-0.604h1.652v-0.898
			c0-0.521-0.173-0.928-0.516-1.225c-0.345-0.295-0.823-0.439-1.441-0.439c-0.574,0-1.056,0.141-1.437,0.422
			c-0.38,0.282-0.568,0.627-0.568,1.035l-0.763-0.01l-0.014-0.039c-0.027-0.543,0.229-1.025,0.764-1.453
			c0.538-0.428,1.223-0.643,2.052-0.643c0.823,0,1.487,0.203,1.99,0.611c0.502,0.406,0.755,0.99,0.755,1.751v3.571
			c0,0.256,0.016,0.504,0.044,0.746c0.03,0.24,0.08,0.479,0.148,0.717h-0.864L1538.756,63.83L1538.756,63.83z M1536.039,63.262
			c0.596,0,1.121-0.137,1.576-0.406c0.457-0.271,0.786-0.614,0.988-1.037V60.3h-1.666c-0.752,0-1.353,0.155-1.802,0.468
			c-0.448,0.313-0.675,0.697-0.675,1.158c0,0.393,0.14,0.715,0.418,0.963C1535.161,63.137,1535.546,63.262,1536.039,63.262z"/>
		<path fill="#000100" d="M1544.331,60.092c0-1.07,0.302-1.947,0.904-2.632c0.604-0.685,1.402-1.026,2.397-1.026
			c1.001,0,1.805,0.342,2.406,1.026c0.604,0.687,0.906,1.563,0.906,2.632v0.221c0,1.074-0.303,1.955-0.903,2.637
			c-0.602,0.684-1.399,1.023-2.396,1.023c-1.004,0-1.811-0.342-2.413-1.023c-0.604-0.684-0.904-1.562-0.904-2.637L1544.331,60.092
			L1544.331,60.092z M1545.161,60.309c0,0.842,0.219,1.547,0.656,2.121c0.438,0.571,1.049,0.857,1.831,0.857
			c0.771,0,1.375-0.285,1.813-0.857c0.442-0.572,0.66-1.279,0.66-2.121v-0.221c0-0.827-0.221-1.529-0.663-2.105
			c-0.439-0.574-1.051-0.862-1.826-0.862c-0.772,0-1.38,0.288-1.818,0.862c-0.438,0.576-0.654,1.278-0.654,2.105L1545.161,60.309
			L1545.161,60.309z"/>
		<path fill="#000100" d="M1439.637,81.943c0-0.531-0.206-0.965-0.615-1.303c-0.409-0.34-1.125-0.639-2.145-0.896
			c-1.102-0.27-1.938-0.618-2.503-1.049c-0.567-0.43-0.851-1.008-0.851-1.737c0-0.747,0.314-1.356,0.948-1.826
			c0.636-0.47,1.448-0.705,2.444-0.705c1.037,0,1.874,0.279,2.511,0.839c0.637,0.562,0.945,1.241,0.926,2.047l-0.021,0.043h-0.761
			c0-0.653-0.238-1.19-0.716-1.612c-0.479-0.42-1.125-0.632-1.938-0.632c-0.807,0-1.438,0.177-1.893,0.523
			c-0.453,0.352-0.682,0.782-0.682,1.303c0,0.492,0.21,0.903,0.629,1.232c0.421,0.328,1.146,0.618,2.173,0.868
			c1.082,0.271,1.905,0.631,2.473,1.088c0.564,0.457,0.847,1.06,0.847,1.806c0,0.778-0.328,1.399-0.985,1.86
			c-0.655,0.461-1.494,0.69-2.514,0.69c-1.005,0-1.882-0.243-2.632-0.733c-0.748-0.491-1.11-1.206-1.088-2.146l0.015-0.039h0.761
			c0,0.758,0.293,1.318,0.878,1.687c0.586,0.365,1.273,0.548,2.066,0.548c0.799,0,1.44-0.17,1.934-0.509
			S1439.637,82.502,1439.637,81.943z"/>
		<path fill="#000100" d="M1442.946,74.999h-0.823v-1.127h0.823V74.999z M1442.946,84.344h-0.823V77.08h0.823V84.344z"/>
		<path fill="#000100" d="M1449.573,82.494c0-0.34-0.146-0.637-0.434-0.891c-0.288-0.254-0.809-0.463-1.559-0.623
			c-0.896-0.188-1.556-0.438-1.982-0.746c-0.426-0.31-0.64-0.744-0.64-1.31c0-0.556,0.241-1.022,0.724-1.405
			c0.481-0.384,1.118-0.574,1.911-0.574c0.846,0,1.515,0.203,2.005,0.606c0.493,0.405,0.729,0.912,0.705,1.521l-0.014,0.038h-0.77
			c0-0.397-0.175-0.744-0.521-1.039c-0.347-0.297-0.816-0.441-1.407-0.441c-0.604,0-1.058,0.125-1.357,0.377
			c-0.302,0.254-0.453,0.547-0.453,0.887c0,0.334,0.131,0.608,0.391,0.828c0.262,0.217,0.78,0.406,1.561,0.572
			c0.89,0.193,1.556,0.457,1.998,0.791s0.664,0.789,0.664,1.365c0,0.604-0.252,1.096-0.758,1.471
			c-0.505,0.375-1.173,0.562-2.002,0.562c-0.908,0-1.621-0.211-2.14-0.631c-0.52-0.42-0.765-0.922-0.736-1.504l0.015-0.039h0.762
			c0.031,0.521,0.253,0.899,0.66,1.135c0.406,0.236,0.889,0.354,1.439,0.354c0.602,0,1.071-0.126,1.418-0.382
			C1449.4,83.164,1449.573,82.855,1449.573,82.494z"/>
		<path fill="#000100" d="M1453.462,75.221v1.859h1.646v0.658h-1.646v4.732c0,0.475,0.09,0.812,0.267,1.01
			c0.18,0.199,0.414,0.299,0.712,0.299c0.133,0,0.263-0.006,0.39-0.018c0.126-0.012,0.271-0.029,0.438-0.059l0.125,0.598
			c-0.139,0.061-0.307,0.104-0.504,0.137c-0.197,0.029-0.396,0.047-0.595,0.047c-0.524,0-0.935-0.161-1.229-0.482
			c-0.292-0.322-0.438-0.832-0.438-1.531v-4.73h-1.293v-0.66h1.293v-1.859H1453.462z"/>
		<path fill="#000100" d="M1459.531,84.486c-0.938,0-1.713-0.336-2.334-1.008c-0.619-0.672-0.931-1.521-0.931-2.553v-0.367
			c0-1.037,0.309-1.899,0.923-2.584c0.614-0.687,1.36-1.027,2.235-1.027c0.918,0,1.64,0.281,2.166,0.846
			c0.525,0.564,0.787,1.316,0.787,2.256v0.686h-5.282v0.193c0,0.818,0.225,1.5,0.671,2.049c0.447,0.551,1.035,0.823,1.766,0.823
			c0.517,0,0.956-0.067,1.318-0.207c0.364-0.14,0.678-0.339,0.937-0.599l0.354,0.551c-0.28,0.288-0.638,0.518-1.067,0.688
			C1460.637,84.4,1460.125,84.486,1459.531,84.486z M1459.426,77.631c-0.613,0-1.127,0.229-1.541,0.68
			c-0.415,0.453-0.656,1.021-0.727,1.703l0.014,0.034h4.384v-0.2c0-0.631-0.188-1.156-0.57-1.58
			C1460.602,77.844,1460.082,77.631,1459.426,77.631z"/>
		<path fill="#000100" d="M1464.575,77.08l0.077,1.202c0.236-0.427,0.558-0.755,0.958-0.987c0.396-0.232,0.873-0.35,1.426-0.35
			c0.571,0,1.051,0.135,1.436,0.4c0.388,0.271,0.66,0.68,0.827,1.229c0.227-0.512,0.547-0.91,0.963-1.198
			c0.418-0.29,0.929-0.435,1.525-0.435c0.799,0,1.413,0.258,1.847,0.771c0.436,0.516,0.65,1.311,0.65,2.389v4.236h-0.829V80.08
			c0-0.898-0.163-1.531-0.488-1.9c-0.323-0.371-0.776-0.555-1.356-0.555c-0.642,0-1.138,0.193-1.487,0.584s-0.567,0.891-0.649,1.501
			c0,0.031,0,0.075,0.002,0.134c0.003,0.061,0.005,0.104,0.005,0.129v4.364h-0.836v-4.258c0-0.879-0.164-1.509-0.494-1.888
			c-0.329-0.377-0.782-0.566-1.358-0.566c-0.585,0-1.05,0.145-1.394,0.434c-0.345,0.289-0.584,0.681-0.725,1.168v5.11h-0.837v-7.264
			h0.74L1464.575,77.08L1464.575,77.08z"/>
		<path fill="#000100" d="M1481.021,84.344c-0.058-0.246-0.097-0.458-0.116-0.638c-0.023-0.179-0.035-0.358-0.035-0.543
			c-0.275,0.38-0.646,0.694-1.106,0.946c-0.461,0.25-0.979,0.377-1.557,0.377c-0.729,0-1.293-0.189-1.696-0.565
			s-0.604-0.88-0.604-1.511c0-0.67,0.297-1.207,0.895-1.611c0.6-0.402,1.403-0.604,2.417-0.604h1.653v-0.901
			c0-0.519-0.172-0.927-0.515-1.222c-0.347-0.295-0.824-0.441-1.443-0.441c-0.575,0-1.054,0.141-1.436,0.422
			c-0.381,0.281-0.569,0.627-0.569,1.034l-0.761-0.008l-0.016-0.04c-0.025-0.541,0.229-1.025,0.764-1.453
			c0.539-0.427,1.223-0.641,2.054-0.641c0.821,0,1.485,0.203,1.989,0.609c0.502,0.406,0.756,0.99,0.756,1.752v3.57
			c0,0.255,0.014,0.503,0.044,0.745c0.028,0.239,0.079,0.479,0.146,0.718h-0.864V84.344L1481.021,84.344z M1478.303,83.773
			c0.598,0,1.121-0.135,1.576-0.405c0.457-0.271,0.786-0.616,0.988-1.037v-1.519h-1.665c-0.752,0-1.354,0.154-1.801,0.467
			c-0.45,0.312-0.676,0.697-0.676,1.16c0,0.393,0.141,0.713,0.418,0.961C1477.424,83.65,1477.811,83.773,1478.303,83.773z"/>
		<path fill="#000100" d="M1486.734,80.773c0-1.16,0.253-2.088,0.757-2.783c0.505-0.695,1.209-1.045,2.112-1.045
			c0.521,0,0.973,0.105,1.354,0.322c0.383,0.215,0.699,0.52,0.953,0.914V73.87h0.822v10.472H1492l-0.067-1.054
			c-0.25,0.386-0.568,0.683-0.962,0.886c-0.392,0.206-0.854,0.312-1.383,0.312c-0.895,0-1.594-0.323-2.099-0.971
			c-0.505-0.648-0.757-1.517-0.757-2.604L1486.734,80.773L1486.734,80.773z M1487.562,80.915c0,0.881,0.182,1.582,0.543,2.104
			c0.36,0.521,0.905,0.778,1.636,0.778c0.535,0,0.979-0.114,1.338-0.351c0.355-0.232,0.636-0.559,0.833-0.973v-3.426
			c-0.189-0.423-0.456-0.766-0.802-1.027c-0.348-0.266-0.798-0.396-1.356-0.396c-0.728,0-1.272,0.291-1.642,0.873
			c-0.365,0.582-0.55,1.339-0.55,2.271V80.915L1487.562,80.915z"/>
		<path fill="#000100" d="M1497.607,84.486c-0.938,0-1.715-0.336-2.333-1.008c-0.62-0.672-0.933-1.521-0.933-2.553v-0.367
			c0-1.037,0.311-1.899,0.923-2.584c0.615-0.687,1.362-1.027,2.237-1.027c0.918,0,1.641,0.281,2.165,0.846
			c0.525,0.564,0.788,1.316,0.788,2.256v0.686h-5.282v0.193c0,0.818,0.226,1.5,0.67,2.049c0.447,0.551,1.034,0.823,1.765,0.823
			c0.518,0,0.957-0.067,1.32-0.207c0.364-0.14,0.678-0.339,0.936-0.599l0.354,0.551c-0.28,0.288-0.639,0.518-1.067,0.688
			C1498.716,84.4,1498.202,84.486,1497.607,84.486z M1497.503,77.631c-0.612,0-1.127,0.229-1.541,0.68
			c-0.415,0.453-0.657,1.021-0.728,1.703l0.015,0.034h4.385v-0.2c0-0.631-0.188-1.156-0.573-1.58
			C1498.675,77.844,1498.157,77.631,1497.503,77.631z"/>
		<path fill="#000100" d="M1505.483,84.344V74.57h2.938c1.047,0,1.861,0.214,2.445,0.642c0.583,0.429,0.875,1.071,0.875,1.933
			c0,0.5-0.147,0.938-0.44,1.31c-0.293,0.373-0.689,0.63-1.191,0.772c0.61,0.106,1.109,0.388,1.492,0.84
			c0.383,0.449,0.573,0.973,0.573,1.562c0,0.873-0.292,1.543-0.875,2.016c-0.583,0.469-1.362,0.703-2.34,0.703h-3.477V84.344z
			 M1506.305,78.953h2.317c0.729,0,1.292-0.154,1.69-0.467c0.397-0.312,0.598-0.771,0.598-1.373c0-0.616-0.211-1.081-0.636-1.393
			c-0.426-0.312-1.041-0.469-1.854-0.469h-2.116L1506.305,78.953L1506.305,78.953z M1506.305,79.639v4.021h2.656
			c0.74,0,1.324-0.178,1.749-0.532s0.636-0.853,0.636-1.489c0-0.584-0.189-1.062-0.578-1.438c-0.384-0.375-0.941-0.562-1.676-0.562
			H1506.305L1506.305,79.639z"/>
		<path fill="#000100" d="M1514.814,74.999h-0.822v-1.127h0.822V74.999z M1514.814,84.344h-0.822V77.08h0.822V84.344z"/>
		<path fill="#000100" d="M1522.992,80.913c0,1.088-0.255,1.956-0.762,2.603c-0.509,0.647-1.205,0.971-2.097,0.971
			c-0.549,0-1.021-0.104-1.418-0.317c-0.396-0.213-0.716-0.521-0.96-0.916l-0.09,1.095h-0.712V73.872h0.829v4.351
			c0.249-0.408,0.566-0.723,0.954-0.943c0.387-0.221,0.848-0.331,1.383-0.331c0.897,0,1.603,0.349,2.109,1.044
			c0.507,0.693,0.761,1.623,0.761,2.781L1522.992,80.913L1522.992,80.913z M1522.154,80.773c0-0.933-0.187-1.688-0.553-2.271
			c-0.369-0.582-0.916-0.873-1.64-0.873c-0.576,0-1.041,0.141-1.394,0.418c-0.354,0.279-0.614,0.639-0.785,1.072v3.297
			c0.185,0.422,0.46,0.76,0.826,1.009c0.365,0.249,0.82,0.373,1.365,0.373c0.725,0,1.269-0.261,1.631-0.778
			c0.365-0.521,0.548-1.226,0.548-2.104L1522.154,80.773L1522.154,80.773z"/>
		<path fill="#000100" d="M1525.629,84.344h-0.822V73.872h0.822V84.344z"/>
		<path fill="#000100" d="M1528.704,74.999h-0.822v-1.127h0.822V74.999z M1528.704,84.344h-0.822V77.08h0.822V84.344z"/>
		<path fill="#000100" d="M1530.387,80.605c0-1.07,0.303-1.947,0.904-2.633c0.604-0.686,1.405-1.027,2.398-1.027
			c1.002,0,1.805,0.344,2.405,1.027c0.605,0.687,0.906,1.562,0.906,2.633v0.221c0,1.074-0.302,1.953-0.903,2.635
			c-0.601,0.684-1.398,1.025-2.396,1.025c-1.005,0-1.812-0.342-2.413-1.025c-0.604-0.682-0.905-1.561-0.905-2.635L1530.387,80.605
			L1530.387,80.605z M1531.216,80.822c0,0.842,0.22,1.547,0.655,2.121c0.438,0.57,1.05,0.855,1.833,0.855
			c0.771,0,1.375-0.283,1.812-0.855c0.442-0.573,0.66-1.279,0.66-2.121v-0.221c0-0.828-0.221-1.529-0.663-2.105
			c-0.439-0.576-1.051-0.865-1.824-0.865c-0.774,0-1.381,0.289-1.818,0.865s-0.656,1.277-0.656,2.105L1531.216,80.822
			L1531.216,80.822z"/>
		<path fill="#000100" d="M1539.891,75.221v1.859h1.646v0.658h-1.646v4.732c0,0.475,0.09,0.812,0.269,1.01
			c0.177,0.199,0.413,0.299,0.709,0.299c0.133,0,0.264-0.006,0.391-0.018c0.126-0.012,0.273-0.029,0.439-0.059l0.124,0.598
			c-0.139,0.061-0.309,0.104-0.504,0.137c-0.199,0.029-0.397,0.047-0.598,0.047c-0.523,0-0.934-0.161-1.228-0.482
			c-0.293-0.322-0.44-0.832-0.44-1.531v-4.73h-1.292v-0.66h1.292v-1.859H1539.891z"/>
		<path fill="#000100" d="M1545.959,84.486c-0.938,0-1.713-0.336-2.333-1.008s-0.93-1.521-0.93-2.553v-0.367
			c0-1.037,0.308-1.899,0.922-2.584c0.614-0.687,1.362-1.027,2.237-1.027c0.918,0,1.64,0.281,2.166,0.846
			c0.523,0.564,0.786,1.316,0.786,2.256v0.686h-5.281v0.193c0,0.818,0.224,1.5,0.67,2.049c0.446,0.551,1.034,0.823,1.764,0.823
			c0.517,0,0.957-0.067,1.321-0.207c0.363-0.14,0.676-0.339,0.934-0.599l0.354,0.551c-0.281,0.288-0.64,0.518-1.068,0.688
			C1547.064,84.4,1546.554,84.486,1545.959,84.486z M1545.855,77.631c-0.613,0-1.127,0.229-1.543,0.68
			c-0.413,0.453-0.655,1.021-0.728,1.703l0.016,0.034h4.385v-0.2c0-0.631-0.191-1.156-0.573-1.58
			C1547.029,77.844,1546.509,77.631,1545.855,77.631z"/>
		<path fill="#000100" d="M1553.078,83.8c0.548,0,1.032-0.149,1.452-0.454c0.418-0.303,0.628-0.725,0.628-1.264h0.732l0.016,0.04
			c0.021,0.671-0.255,1.233-0.829,1.687c-0.576,0.45-1.242,0.678-1.998,0.678c-1.021,0-1.808-0.34-2.362-1.018
			c-0.556-0.679-0.833-1.551-0.833-2.615v-0.28c0-1.058,0.278-1.925,0.836-2.604c0.561-0.681,1.344-1.021,2.354-1.021
			c0.819,0,1.504,0.231,2.051,0.704c0.546,0.471,0.812,1.088,0.791,1.854l-0.014,0.04h-0.74c0-0.582-0.2-1.046-0.604-1.396
			c-0.403-0.346-0.897-0.52-1.482-0.52c-0.803,0-1.396,0.277-1.78,0.834c-0.387,0.557-0.577,1.258-0.577,2.104v0.281
			c0,0.857,0.19,1.564,0.573,2.117C1551.67,83.523,1552.266,83.8,1553.078,83.8z"/>
		<path fill="#000100" d="M1562.236,84.344c-0.058-0.246-0.097-0.458-0.117-0.638c-0.023-0.179-0.034-0.358-0.034-0.543
			c-0.276,0.38-0.646,0.694-1.106,0.946c-0.459,0.252-0.979,0.377-1.557,0.377c-0.729,0-1.293-0.189-1.698-0.565
			c-0.401-0.376-0.604-0.88-0.604-1.511c0-0.67,0.297-1.207,0.895-1.611c0.6-0.402,1.403-0.604,2.417-0.604h1.653v-0.901
			c0-0.519-0.173-0.927-0.516-1.222c-0.344-0.295-0.823-0.441-1.443-0.441c-0.575,0-1.054,0.141-1.435,0.422
			c-0.382,0.281-0.568,0.627-0.568,1.034l-0.761-0.008l-0.017-0.04c-0.025-0.541,0.229-1.025,0.766-1.453
			c0.537-0.427,1.221-0.641,2.051-0.641c0.824,0,1.488,0.203,1.991,0.609c0.502,0.406,0.754,0.99,0.754,1.752v3.57
			c0,0.255,0.015,0.503,0.045,0.745c0.029,0.239,0.079,0.479,0.146,0.718h-0.861L1562.236,84.344L1562.236,84.344z M1559.518,83.773
			c0.597,0,1.12-0.135,1.576-0.405s0.786-0.616,0.989-1.037v-1.519h-1.666c-0.752,0-1.353,0.154-1.801,0.467
			c-0.45,0.312-0.675,0.697-0.675,1.16c0,0.393,0.139,0.713,0.418,0.961C1558.639,83.65,1559.025,83.773,1559.518,83.773z"/>
		<path fill="#000100" d="M1569.452,82.494c0-0.34-0.146-0.637-0.433-0.891c-0.287-0.254-0.81-0.463-1.561-0.623
			c-0.896-0.188-1.555-0.438-1.98-0.746c-0.427-0.309-0.641-0.744-0.641-1.31c0-0.556,0.24-1.022,0.725-1.405
			c0.481-0.384,1.116-0.574,1.911-0.574c0.846,0,1.513,0.203,2.005,0.606c0.493,0.405,0.729,0.912,0.704,1.521l-0.015,0.038h-0.767
			c0-0.397-0.177-0.744-0.522-1.039c-0.349-0.297-0.816-0.441-1.407-0.441c-0.604,0-1.059,0.125-1.358,0.377
			c-0.301,0.254-0.453,0.547-0.453,0.887c0,0.334,0.131,0.608,0.393,0.828c0.262,0.217,0.778,0.406,1.561,0.572
			c0.889,0.193,1.556,0.457,1.998,0.791c0.439,0.334,0.663,0.789,0.663,1.365c0,0.604-0.252,1.096-0.759,1.471
			c-0.504,0.375-1.172,0.562-2,0.562c-0.907,0-1.621-0.211-2.141-0.631s-0.765-0.922-0.736-1.504l0.016-0.039h0.761
			c0.031,0.521,0.252,0.899,0.66,1.135c0.407,0.236,0.889,0.354,1.44,0.354c0.602,0,1.071-0.126,1.418-0.382
			C1569.279,83.164,1569.452,82.855,1569.452,82.494z"/>
		<path fill="#000100" d="M1582.611,74.57v6.625c0,1.064-0.335,1.879-1.006,2.443c-0.673,0.564-1.548,0.848-2.625,0.848
			c-1.065,0-1.929-0.284-2.587-0.852c-0.657-0.566-0.986-1.379-0.986-2.439V74.57h0.829v6.621c0,0.83,0.254,1.475,0.761,1.928
			s1.169,0.681,1.984,0.681c0.828,0,1.505-0.226,2.024-0.677c0.521-0.452,0.781-1.096,0.781-1.932V74.57H1582.611z"/>
		<path fill="#000100" d="M1590.65,79.76h-4.896v4.584h-0.822V74.57h6.424v0.685h-5.602v3.82h4.896V79.76L1590.65,79.76z"/>
		<path fill="#000100" d="M1600.139,83.184c-0.226,0.316-0.637,0.613-1.232,0.891c-0.597,0.277-1.352,0.412-2.257,0.412
			c-1.173,0-2.132-0.389-2.882-1.16c-0.748-0.774-1.123-1.776-1.123-3.01v-1.791c0-1.209,0.356-2.191,1.068-2.955
			c0.713-0.76,1.636-1.141,2.771-1.141c1.084,0,1.932,0.264,2.543,0.788c0.608,0.526,0.964,1.209,1.062,2.05l-0.015,0.041h-0.77
			c-0.12-0.654-0.401-1.183-0.851-1.588c-0.447-0.404-1.104-0.605-1.973-0.605c-0.901,0-1.63,0.314-2.182,0.949
			c-0.55,0.638-0.825,1.449-0.825,2.442v1.804c0,1.021,0.292,1.857,0.88,2.51c0.584,0.652,1.351,0.979,2.295,0.979
			c0.668,0,1.234-0.09,1.703-0.271c0.469-0.18,0.786-0.379,0.957-0.592v-2.545h-2.677v-0.687h3.507V83.184L1600.139,83.184z"/>
	</g>
</g>
<g>
	<path d="M1321.358,0h82c4.97,0,9,4.029,9,9v82c0,4.971-4.03,9-9,9h-82c-4.971,0-9-4.029-9-9V9
		C1312.358,4.029,1316.388,0,1321.358,0z"/>
	<circle cx="1362.358" cy="50" r="50"/>
	<circle cx="1362.358" cy="50" r="40"/>
	<rect x="1335.983" y="20.129" width="52.75" height="60"/>
	<circle cx="1362.358" cy="50" r="20"/>
	<circle cx="1362.358" cy="50.129" r="9"/>
</g>
</svg>
