<svg xmlns="http://www.w3.org/2000/svg" width="287.78" height="100" viewBox="1312.358 0 287.78 100"><g fill="#40B2B0"><path d="M1444.518 25.626a6.618 6.618 0 0 1 2.325 1.539c.653.671 1.162 1.499 1.53 2.483.367.986.551 2.108.551 3.367 0 .49-.052.816-.156.98-.104.164-.305.245-.595.245h-11.787c.022 1.119.175 2.092.455 2.921.279.828.665 1.518 1.154 2.072a4.628 4.628 0 0 0 1.748 1.242c.676.273 1.434.411 2.271.411.78 0 1.453-.091 2.021-.271a9.637 9.637 0 0 0 1.46-.586c.407-.21.75-.405 1.022-.586.272-.181.51-.271.708-.271a.69.69 0 0 1 .595.296l.875 1.137a5.979 5.979 0 0 1-1.382 1.216 8.594 8.594 0 0 1-1.726.848c-.61.222-1.244.388-1.896.499-.653.111-1.301.167-1.941.167-1.224 0-2.354-.207-3.384-.621a7.436 7.436 0 0 1-2.677-1.819c-.752-.799-1.338-1.787-1.758-2.964-.419-1.177-.63-2.529-.63-4.057 0-1.236.189-2.39.567-3.463a8.196 8.196 0 0 1 1.636-2.79 7.52 7.52 0 0 1 2.606-1.854c1.025-.448 2.18-.673 3.462-.673 1.068 0 2.048.177 2.946.532zm-6.418 3.062c-.861.869-1.398 2.072-1.608 3.612h9.637c0-.722-.1-1.384-.297-1.984a4.417 4.417 0 0 0-.875-1.556 3.899 3.899 0 0 0-1.408-1.015c-.554-.239-1.187-.358-1.896-.358-1.508-.002-2.691.432-3.553 1.301zM1460.076 31.285v2.64h-8.641v-2.64h8.641zM1478.643 35.481c0 2.285-.729 4.151-2.187 5.597-1.55 1.527-3.62 2.291-6.208 2.291-1.084 0-2.229-.111-3.438-.332-1.204-.222-2.146-.443-2.822-.665l-.997-.35v-6.278h1.697c.396 0 .635.198.718.594.034.151.09.729.165 1.731.076 1.003.113 1.511.113 1.521 1.726.642 3.136.962 4.23.962s1.958-.11 2.588-.332a4.617 4.617 0 0 0 1.609-.944c.896-.828 1.347-1.93 1.347-3.305 0-1.329-.624-2.355-1.872-3.079a9.899 9.899 0 0 0-1.904-.839c-2.217-.688-3.686-1.191-4.408-1.512s-1.363-.731-1.922-1.233c-1.248-1.119-1.871-2.676-1.871-4.669 0-1.865.671-3.458 2.012-4.774 1.436-1.411 3.297-2.117 5.587-2.117 2.291 0 4.632.478 7.021 1.435v5.754h-1.696c-.407 0-.647-.198-.717-.594-.023-.07-.116-1.108-.28-3.113-1.562-.443-2.938-.665-4.127-.665-1.471 0-2.624.378-3.464 1.137-.793.699-1.188 1.621-1.188 2.763 0 1.225.63 2.198 1.89 2.921.561.327 1.207.612 1.94.856 2.1.699 3.562 1.23 4.391 1.592 2.528 1.142 3.793 3.024 3.793 5.647zM1486.505 20.582v19.954a243.2 243.2 0 0 1 2.116.42c.281.059.42.269.42.629v1.504h-8.447v-1.504c0-.361.176-.577.525-.646l1.993-.403V20.582a362.73 362.73 0 0 1-2.101-.42c-.277-.059-.419-.268-.419-.629v-1.504h8.447v1.504c0 .361-.182.577-.543.646l-1.991.403zM1511.456 35.954c0 2.157-.764 3.876-2.291 5.159-1.574 1.318-3.743 1.977-6.506 1.977h-11.385v-1.504c0-.361.175-.577.523-.646l1.994-.403V20.582a139.416 139.416 0 0 1-1.994-.403c-.351-.069-.523-.285-.523-.647v-1.504h10.51c4.466 0 7.241 1.265 8.326 3.795.338.816.506 1.633.506 2.449s-.097 1.51-.287 2.081a5.337 5.337 0 0 1-.865 1.592c-.828 1.026-2.011 1.778-3.551 2.256 3.694.735 5.543 2.652 5.543 5.753zm-14.27-6.697h4.479c2.787 0 4.537-.846 5.248-2.537a4.547 4.547 0 0 0 .331-1.749c0-1.469-.442-2.547-1.328-3.235-.887-.688-2.262-1.032-4.128-1.032h-4.601l-.001 8.553zm10.614 8.429a5.023 5.023 0 0 0 .314-1.819c0-1.294-.457-2.317-1.373-3.069-.914-.751-2.299-1.128-4.152-1.128h-5.403v8.726h5.424c2.785 0 4.515-.903 5.19-2.71zM1519.212 20.582v19.954a243.2 243.2 0 0 1 2.116.42c.281.059.42.269.42.629v1.504h-8.447v-1.504c0-.361.176-.577.525-.646l1.993-.403V20.582a362.73 362.73 0 0 1-2.101-.42c-.277-.059-.419-.268-.419-.629v-1.504h8.447v1.504c0 .361-.182.577-.543.646l-1.991.403z"/></g><g fill="#000100"><path d="M1440.626 54.74h-3.465v9.09h-.829v-9.09h-3.465v-.686h7.758l.001.686zM1444.82 57.258l-.616-.04c-.521 0-.948.144-1.282.427-.335.283-.572.674-.715 1.17v5.018h-.829v-7.266h.726l.104 1.209v.08a2.65 2.65 0 0 1 .872-1.047c.362-.25.797-.375 1.299-.375a2.21 2.21 0 0 1 .553.072l-.112.752zM1448.73 63.973c-.937 0-1.714-.336-2.334-1.007-.619-.673-.932-1.522-.932-2.552v-.368c0-1.038.309-1.899.923-2.585.615-.684 1.361-1.027 2.237-1.027.917 0 1.638.281 2.164.846.523.564.788 1.316.788 2.258v.688h-5.283v.191c0 .816.223 1.5.671 2.049.447.553 1.035.824 1.766.824.517 0 .957-.068 1.319-.207.363-.143.675-.34.935-.6l.354.552a3.072 3.072 0 0 1-1.068.688c-.432.166-.945.25-1.54.25zm-.103-6.855c-.613 0-1.127.228-1.542.679-.414.453-.656 1.021-.728 1.704l.016.033h4.384v-.2c0-.63-.192-1.156-.573-1.58-.385-.424-.904-.636-1.557-.636zM1454.003 54.486h-.823v-1.127h.823v1.127zm0 9.344h-.823v-7.264h.823v7.264zM1456.882 56.566l.075 1.27a2.61 2.61 0 0 1 .972-1.037c.408-.242.894-.365 1.449-.365.812 0 1.429.24 1.853.724.427.479.639 1.229.639 2.252v4.424h-.83v-4.426c0-.833-.159-1.425-.479-1.771-.319-.345-.775-.518-1.364-.518-.581 0-1.057.147-1.422.446a2.474 2.474 0 0 0-.793 1.188v5.078h-.828v-7.264h.728zM1468.626 63.83a6.364 6.364 0 0 1-.115-.639 4.595 4.595 0 0 1-.034-.541c-.274.379-.646.692-1.105.945-.461.25-.979.377-1.559.377-.729 0-1.293-.189-1.695-.564-.403-.376-.604-.881-.604-1.512 0-.67.297-1.207.896-1.61.598-.403 1.402-.604 2.417-.604h1.651v-.898c0-.521-.172-.928-.515-1.225-.345-.295-.824-.439-1.442-.439-.574 0-1.055.141-1.436.422-.38.282-.57.627-.57 1.035l-.76-.01-.015-.039c-.027-.543.228-1.025.764-1.453.538-.428 1.221-.643 2.052-.643.822 0 1.487.203 1.99.611.502.406.755.99.755 1.751v3.571c0 .256.016.504.044.746.03.24.08.479.148.717h-.865l-.002.002zm-2.717-.568c.596 0 1.121-.137 1.576-.406.457-.271.786-.614.987-1.037V60.3h-1.664c-.754 0-1.354.155-1.803.468-.449.312-.675.697-.675 1.158 0 .393.14.715.418.963.282.248.669.373 1.161.373zM1472.061 56.566l.075 1.201c.24-.427.562-.754.957-.986.399-.232.875-.35 1.429-.35.571 0 1.052.135 1.437.4.385.271.66.68.825 1.229.228-.512.548-.91.966-1.197.417-.29.925-.436 1.522-.436.799 0 1.412.256 1.849.771.433.516.647 1.311.647 2.39v4.235h-.828V59.57c0-.897-.16-1.53-.485-1.9-.325-.371-.778-.555-1.36-.555-.641 0-1.136.193-1.484.585-.353.39-.566.89-.65 1.5 0 .03.001.075.004.134l.003.129v4.364h-.836v-4.259c0-.877-.166-1.508-.494-1.885-.329-.379-.782-.568-1.358-.568-.586 0-1.051.145-1.395.435-.344.288-.584.679-.723 1.166v5.111h-.838v-7.263h.739l-.002.002zM1486.578 63.973c-.938 0-1.714-.336-2.333-1.007-.62-.673-.931-1.522-.931-2.552v-.368c0-1.038.309-1.899.923-2.585.612-.684 1.36-1.027 2.235-1.027.918 0 1.642.281 2.165.846.525.566.788 1.316.788 2.258v.688h-5.282v.191c0 .816.225 1.5.671 2.049.446.553 1.033.824 1.765.824.517 0 .955-.068 1.319-.207.364-.143.678-.34.936-.6l.354.552c-.28.286-.639.517-1.067.688-.435.166-.949.25-1.543.25zm-.103-6.855c-.611 0-1.128.228-1.541.679-.416.453-.656 1.021-.729 1.704l.015.033h4.386v-.2c0-.63-.19-1.156-.572-1.58-.388-.424-.906-.636-1.559-.636zM1491.657 56.566l.075 1.27a2.59 2.59 0 0 1 .972-1.037c.408-.242.891-.365 1.449-.365.812 0 1.429.24 1.854.724s.638 1.229.638 2.252v4.424h-.832v-4.426c0-.833-.157-1.425-.479-1.771-.32-.345-.775-.518-1.366-.518-.58 0-1.056.147-1.422.446s-.631.692-.791 1.188v5.078h-.829v-7.264h.731zM1499.964 54.707v1.859h1.646v.658h-1.646v4.73c0 .477.09.812.269 1.011.178.198.412.3.709.3a4.554 4.554 0 0 0 .83-.079l.125.601c-.139.06-.307.104-.506.134a3.818 3.818 0 0 1-.594.049c-.525 0-.937-.16-1.228-.482-.293-.322-.439-.832-.439-1.531v-4.732h-1.293v-.658h1.293V54.71l.834-.003zM1502.625 60.092c0-1.07.302-1.947.905-2.632s1.402-1.026 2.397-1.026c1.001 0 1.805.342 2.406 1.026.604.687.905 1.563.905 2.632v.221c0 1.074-.302 1.955-.902 2.637-.602.684-1.399 1.023-2.396 1.023-1.006 0-1.811-.342-2.413-1.023-.604-.684-.905-1.562-.905-2.637l.003-.221zm.829.217c0 .842.219 1.547.656 2.121.438.571 1.049.857 1.832.857.771 0 1.375-.285 1.813-.857.441-.572.659-1.279.659-2.121v-.221c0-.827-.221-1.529-.662-2.105-.44-.574-1.052-.862-1.826-.862-.773 0-1.381.288-1.817.862-.438.576-.656 1.278-.656 2.105l.001.221zM1520.153 60.4c0 1.086-.255 1.955-.762 2.602-.508.646-1.204.971-2.096.971-.524 0-.985-.098-1.379-.289a2.443 2.443 0 0 1-.965-.826v3.769h-.829v-10.06h.698l.104 1.129c.249-.402.57-.715.965-.936.396-.219.859-.328 1.395-.328.899 0 1.603.35 2.108 1.045.507.693.762 1.623.762 2.781l-.001.142zm-.831-.15c0-.924-.189-1.676-.566-2.258-.379-.584-.932-.874-1.661-.874-.558 0-1.011.129-1.355.386a2.36 2.36 0 0 0-.785 1.006v3.494c.188.398.462.713.817.941.356.228.806.342 1.34.342.724 0 1.272-.264 1.647-.791.376-.529.563-1.23.563-2.105v-.141zM1526.608 63.83a5.474 5.474 0 0 1-.118-.639 4.39 4.39 0 0 1-.033-.541 3.317 3.317 0 0 1-1.107.945 3.19 3.19 0 0 1-1.556.377c-.729 0-1.294-.189-1.699-.564-.4-.376-.604-.881-.604-1.512 0-.67.299-1.207.896-1.61.599-.403 1.402-.604 2.417-.604h1.654v-.898c0-.521-.173-.928-.517-1.225-.346-.295-.823-.439-1.442-.439-.575 0-1.054.141-1.437.422-.379.282-.568.627-.568 1.035l-.76-.01-.017-.039c-.025-.543.229-1.025.767-1.453.535-.428 1.22-.643 2.049-.643.826 0 1.488.203 1.993.611.503.406.753.99.753 1.751v3.571c0 .256.016.504.045.746.027.24.08.479.146.717h-.861l-.001.002zm-2.717-.568c.596 0 1.118-.137 1.575-.406.456-.271.786-.614.989-1.037V60.3h-1.667c-.751 0-1.354.155-1.801.468-.449.312-.676.697-.676 1.158 0 .393.141.715.418.963.281.248.667.373 1.162.373zM1532.787 57.258l-.616-.04c-.521 0-.947.144-1.282.427-.334.283-.569.674-.715 1.17v5.018h-.829v-7.266h.727l.104 1.209v.08c.218-.445.506-.795.87-1.047.364-.25.799-.375 1.301-.375a2.273 2.273 0 0 1 .554.072l-.114.752zM1538.756 63.83a5.87 5.87 0 0 1-.116-.639 4.595 4.595 0 0 1-.034-.541c-.274.379-.646.692-1.105.945-.461.25-.979.377-1.557.377-.729 0-1.294-.189-1.697-.564-.403-.376-.604-.881-.604-1.512 0-.67.298-1.207.896-1.61.598-.403 1.403-.604 2.417-.604h1.652v-.898c0-.521-.173-.928-.516-1.225-.345-.295-.823-.439-1.441-.439-.574 0-1.056.141-1.437.422-.38.282-.568.627-.568 1.035l-.763-.01-.014-.039c-.027-.543.229-1.025.764-1.453.538-.428 1.223-.643 2.052-.643.823 0 1.487.203 1.99.611.502.406.755.99.755 1.751v3.571c0 .256.016.504.044.746.03.24.08.479.148.717h-.864l-.002.002zm-2.717-.568c.596 0 1.121-.137 1.576-.406.457-.271.786-.614.988-1.037V60.3h-1.666c-.752 0-1.353.155-1.802.468-.448.313-.675.697-.675 1.158 0 .393.14.715.418.963.283.248.668.373 1.161.373zM1544.331 60.092c0-1.07.302-1.947.904-2.632.604-.685 1.402-1.026 2.397-1.026 1.001 0 1.805.342 2.406 1.026.604.687.906 1.563.906 2.632v.221c0 1.074-.303 1.955-.903 2.637-.602.684-1.399 1.023-2.396 1.023-1.004 0-1.811-.342-2.413-1.023-.604-.684-.904-1.562-.904-2.637l.003-.221zm.83.217c0 .842.219 1.547.656 2.121.438.571 1.049.857 1.831.857.771 0 1.375-.285 1.813-.857.442-.572.66-1.279.66-2.121v-.221c0-.827-.221-1.529-.663-2.105-.439-.574-1.051-.862-1.826-.862-.772 0-1.38.288-1.818.862-.438.576-.654 1.278-.654 2.105l.001.221zM1439.637 81.943c0-.531-.206-.965-.615-1.303-.409-.34-1.125-.639-2.145-.896-1.102-.27-1.938-.618-2.503-1.049-.567-.43-.851-1.008-.851-1.737 0-.747.314-1.356.948-1.826.636-.47 1.448-.705 2.444-.705 1.037 0 1.874.279 2.511.839.637.562.945 1.241.926 2.047l-.021.043h-.761c0-.653-.238-1.19-.716-1.612-.479-.42-1.125-.632-1.938-.632-.807 0-1.438.177-1.893.523-.453.352-.682.782-.682 1.303 0 .492.21.903.629 1.232.421.328 1.146.618 2.173.868 1.082.271 1.905.631 2.473 1.088.564.457.847 1.06.847 1.806 0 .778-.328 1.399-.985 1.86-.655.461-1.494.69-2.514.69-1.005 0-1.882-.243-2.632-.733-.748-.491-1.11-1.206-1.088-2.146l.015-.039h.761c0 .758.293 1.318.878 1.687.586.365 1.273.548 2.066.548.799 0 1.44-.17 1.934-.509s.739-.788.739-1.347zM1442.946 74.999h-.823v-1.127h.823v1.127zm0 9.345h-.823V77.08h.823v7.264zM1449.573 82.494c0-.34-.146-.637-.434-.891-.288-.254-.809-.463-1.559-.623-.896-.188-1.556-.438-1.982-.746-.426-.31-.64-.744-.64-1.31 0-.556.241-1.022.724-1.405.481-.384 1.118-.574 1.911-.574.846 0 1.515.203 2.005.606.493.405.729.912.705 1.521l-.014.038h-.77c0-.397-.175-.744-.521-1.039-.347-.297-.816-.441-1.407-.441-.604 0-1.058.125-1.357.377-.302.254-.453.547-.453.887 0 .334.131.608.391.828.262.217.78.406 1.561.572.89.193 1.556.457 1.998.791s.664.789.664 1.365c0 .604-.252 1.096-.758 1.471-.505.375-1.173.562-2.002.562-.908 0-1.621-.211-2.14-.631-.52-.42-.765-.922-.736-1.504l.015-.039h.762c.031.521.253.899.66 1.135.406.236.889.354 1.439.354.602 0 1.071-.126 1.418-.382.347-.252.52-.561.52-.922zM1453.462 75.221v1.859h1.646v.658h-1.646v4.732c0 .475.09.812.267 1.01.18.199.414.299.712.299.133 0 .263-.006.39-.018a5.24 5.24 0 0 0 .438-.059l.125.598a2.15 2.15 0 0 1-.504.137 4.09 4.09 0 0 1-.595.047c-.524 0-.935-.161-1.229-.482-.292-.322-.438-.832-.438-1.531v-4.73h-1.293v-.66h1.293v-1.859h.834zM1459.531 84.486c-.938 0-1.713-.336-2.334-1.008-.619-.672-.931-1.521-.931-2.553v-.367c0-1.037.309-1.899.923-2.584.614-.687 1.36-1.027 2.235-1.027.918 0 1.64.281 2.166.846.525.564.787 1.316.787 2.256v.686h-5.282v.193c0 .818.225 1.5.671 2.049.447.551 1.035.823 1.766.823.517 0 .956-.067 1.318-.207.364-.14.678-.339.937-.599l.354.551c-.28.288-.638.518-1.067.688-.437.167-.949.253-1.543.253zm-.105-6.855a2.01 2.01 0 0 0-1.541.68c-.415.453-.656 1.021-.727 1.703l.014.034h4.384v-.2c0-.631-.188-1.156-.57-1.58-.384-.424-.904-.637-1.56-.637zM1464.575 77.08l.077 1.202c.236-.427.558-.755.958-.987.396-.232.873-.35 1.426-.35.571 0 1.051.135 1.436.4.388.271.66.68.827 1.229.227-.512.547-.91.963-1.198.418-.29.929-.435 1.525-.435.799 0 1.413.258 1.847.771.436.516.65 1.311.65 2.389v4.236h-.829V80.08c0-.898-.163-1.531-.488-1.9-.323-.371-.776-.555-1.356-.555-.642 0-1.138.193-1.487.584s-.567.891-.649 1.501a3.692 3.692 0 0 0 .007.263v4.364h-.836v-4.258c0-.879-.164-1.509-.494-1.888-.329-.377-.782-.566-1.358-.566-.585 0-1.05.145-1.394.434-.345.289-.584.681-.725 1.168v5.11h-.837v-7.264h.74l-.003.007zM1481.021 84.344a5.245 5.245 0 0 1-.151-1.181c-.275.38-.646.694-1.106.946-.461.25-.979.377-1.557.377-.729 0-1.293-.189-1.696-.565s-.604-.88-.604-1.511c0-.67.297-1.207.895-1.611.6-.402 1.403-.604 2.417-.604h1.653v-.901c0-.519-.172-.927-.515-1.222-.347-.295-.824-.441-1.443-.441-.575 0-1.054.141-1.436.422-.381.281-.569.627-.569 1.034l-.761-.008-.016-.04c-.025-.541.229-1.025.764-1.453.539-.427 1.223-.641 2.054-.641.821 0 1.485.203 1.989.609.502.406.756.99.756 1.752v3.57c0 .255.014.503.044.745.028.239.079.479.146.718h-.864v.005zm-2.718-.571c.598 0 1.121-.135 1.576-.405.457-.271.786-.616.988-1.037v-1.519h-1.665c-.752 0-1.354.154-1.801.467-.45.312-.676.697-.676 1.16 0 .393.141.713.418.961.281.25.668.373 1.16.373zM1486.734 80.773c0-1.16.253-2.088.757-2.783.505-.695 1.209-1.045 2.112-1.045.521 0 .973.105 1.354.322a2.7 2.7 0 0 1 .953.914V73.87h.822v10.472H1492l-.067-1.054a2.5 2.5 0 0 1-.962.886c-.392.206-.854.312-1.383.312-.895 0-1.594-.323-2.099-.971-.505-.648-.757-1.517-.757-2.604l.002-.138zm.828.142c0 .881.182 1.582.543 2.104.36.521.905.778 1.636.778.535 0 .979-.114 1.338-.351.355-.232.636-.559.833-.973v-3.426a2.574 2.574 0 0 0-.802-1.027c-.348-.266-.798-.396-1.356-.396-.728 0-1.272.291-1.642.873-.365.582-.55 1.339-.55 2.271v.147zM1497.607 84.486c-.938 0-1.715-.336-2.333-1.008-.62-.672-.933-1.521-.933-2.553v-.367c0-1.037.311-1.899.923-2.584.615-.687 1.362-1.027 2.237-1.027.918 0 1.641.281 2.165.846.525.564.788 1.316.788 2.256v.686h-5.282v.193c0 .818.226 1.5.67 2.049.447.551 1.034.823 1.765.823.518 0 .957-.067 1.32-.207a2.63 2.63 0 0 0 .936-.599l.354.551c-.28.288-.639.518-1.067.688-.434.167-.948.253-1.543.253zm-.104-6.855c-.612 0-1.127.229-1.541.68-.415.453-.657 1.021-.728 1.703l.015.034h4.385v-.2c0-.631-.188-1.156-.573-1.58-.386-.424-.904-.637-1.558-.637zM1505.483 84.344V74.57h2.938c1.047 0 1.861.214 2.445.642.583.429.875 1.071.875 1.933 0 .5-.147.938-.44 1.31-.293.373-.689.63-1.191.772.61.106 1.109.388 1.492.84.383.449.573.973.573 1.562 0 .873-.292 1.543-.875 2.016-.583.469-1.362.703-2.34.703h-3.477v-.004zm.822-5.391h2.317c.729 0 1.292-.154 1.69-.467.397-.312.598-.771.598-1.373 0-.616-.211-1.081-.636-1.393-.426-.312-1.041-.469-1.854-.469h-2.116l.001 3.702zm0 .686v4.021h2.656c.74 0 1.324-.178 1.749-.532s.636-.853.636-1.489c0-.584-.189-1.062-.578-1.438-.384-.375-.941-.562-1.676-.562h-2.787zM1514.814 74.999h-.822v-1.127h.822v1.127zm0 9.345h-.822V77.08h.822v7.264zM1522.992 80.913c0 1.088-.255 1.956-.762 2.603-.509.647-1.205.971-2.097.971-.549 0-1.021-.104-1.418-.317a2.525 2.525 0 0 1-.96-.916l-.09 1.095h-.712V73.872h.829v4.351c.249-.408.566-.723.954-.943.387-.221.848-.331 1.383-.331.897 0 1.603.349 2.109 1.044.507.693.761 1.623.761 2.781l.003.139zm-.838-.14c0-.933-.187-1.688-.553-2.271-.369-.582-.916-.873-1.64-.873-.576 0-1.041.141-1.394.418a2.51 2.51 0 0 0-.785 1.072v3.297c.185.422.46.76.826 1.009.365.249.82.373 1.365.373.725 0 1.269-.261 1.631-.778.365-.521.548-1.226.548-2.104l.002-.143zM1525.629 84.344h-.822V73.872h.822v10.472zM1528.704 74.999h-.822v-1.127h.822v1.127zm0 9.345h-.822V77.08h.822v7.264zM1530.387 80.605c0-1.07.303-1.947.904-2.633.604-.686 1.405-1.027 2.398-1.027 1.002 0 1.805.344 2.405 1.027.605.687.906 1.562.906 2.633v.221c0 1.074-.302 1.953-.903 2.635-.601.684-1.398 1.025-2.396 1.025-1.005 0-1.812-.342-2.413-1.025-.604-.682-.905-1.561-.905-2.635l.004-.221zm.829.217c0 .842.22 1.547.655 2.121.438.57 1.05.855 1.833.855.771 0 1.375-.283 1.812-.855.442-.573.66-1.279.66-2.121v-.221c0-.828-.221-1.529-.663-2.105-.439-.576-1.051-.865-1.824-.865-.774 0-1.381.289-1.818.865s-.656 1.277-.656 2.105l.001.221zM1539.891 75.221v1.859h1.646v.658h-1.646v4.732c0 .475.09.812.269 1.01.177.199.413.299.709.299.133 0 .264-.006.391-.018.126-.012.273-.029.439-.059l.124.598a2.178 2.178 0 0 1-.504.137 4.132 4.132 0 0 1-.598.047c-.523 0-.934-.161-1.228-.482-.293-.322-.44-.832-.44-1.531v-4.73h-1.292v-.66h1.292v-1.859h.838zM1545.959 84.486c-.938 0-1.713-.336-2.333-1.008s-.93-1.521-.93-2.553v-.367c0-1.037.308-1.899.922-2.584.614-.687 1.362-1.027 2.237-1.027.918 0 1.64.281 2.166.846.523.564.786 1.316.786 2.256v.686h-5.281v.193c0 .818.224 1.5.67 2.049.446.551 1.034.823 1.764.823.517 0 .957-.067 1.321-.207.363-.14.676-.339.934-.599l.354.551c-.281.288-.64.518-1.068.688-.437.167-.947.253-1.542.253zm-.104-6.855c-.613 0-1.127.229-1.543.68-.413.453-.655 1.021-.728 1.703l.016.034h4.385v-.2c0-.631-.191-1.156-.573-1.58-.383-.424-.903-.637-1.557-.637zM1553.078 83.8c.548 0 1.032-.149 1.452-.454.418-.303.628-.725.628-1.264h.732l.016.04c.021.671-.255 1.233-.829 1.687a3.157 3.157 0 0 1-1.998.678c-1.021 0-1.808-.34-2.362-1.018-.556-.679-.833-1.551-.833-2.615v-.28c0-1.058.278-1.925.836-2.604.561-.681 1.344-1.021 2.354-1.021.819 0 1.504.231 2.051.704.546.471.812 1.088.791 1.854l-.014.04h-.74c0-.582-.2-1.046-.604-1.396-.403-.346-.897-.52-1.482-.52-.803 0-1.396.277-1.78.834-.387.557-.577 1.258-.577 2.104v.281c0 .857.19 1.564.573 2.117.378.556.974.833 1.786.833zM1562.236 84.344a5.473 5.473 0 0 1-.117-.638 4.233 4.233 0 0 1-.034-.543c-.276.38-.646.694-1.106.946a3.183 3.183 0 0 1-1.557.377c-.729 0-1.293-.189-1.698-.565-.401-.376-.604-.88-.604-1.511 0-.67.297-1.207.895-1.611.6-.402 1.403-.604 2.417-.604h1.653v-.901c0-.519-.173-.927-.516-1.222-.344-.295-.823-.441-1.443-.441-.575 0-1.054.141-1.435.422-.382.281-.568.627-.568 1.034l-.761-.008-.017-.04c-.025-.541.229-1.025.766-1.453.537-.427 1.221-.641 2.051-.641.824 0 1.488.203 1.991.609.502.406.754.99.754 1.752v3.57c0 .255.015.503.045.745.029.239.079.479.146.718h-.861l-.001.005zm-2.718-.571c.597 0 1.12-.135 1.576-.405s.786-.616.989-1.037v-1.519h-1.666c-.752 0-1.353.154-1.801.467-.45.312-.675.697-.675 1.16 0 .393.139.713.418.961.28.25.666.373 1.159.373zM1569.452 82.494c0-.34-.146-.637-.433-.891-.287-.254-.81-.463-1.561-.623-.896-.188-1.555-.438-1.98-.746-.427-.309-.641-.744-.641-1.31 0-.556.24-1.022.725-1.405.481-.384 1.116-.574 1.911-.574.846 0 1.513.203 2.005.606.493.405.729.912.704 1.521l-.015.038h-.767c0-.397-.177-.744-.522-1.039-.349-.297-.816-.441-1.407-.441-.604 0-1.059.125-1.358.377-.301.254-.453.547-.453.887 0 .334.131.608.393.828.262.217.778.406 1.561.572.889.193 1.556.457 1.998.791.439.334.663.789.663 1.365 0 .604-.252 1.096-.759 1.471-.504.375-1.172.562-2 .562-.907 0-1.621-.211-2.141-.631s-.765-.922-.736-1.504l.016-.039h.761c.031.521.252.899.66 1.135.407.236.889.354 1.44.354.602 0 1.071-.126 1.418-.382.345-.252.518-.561.518-.922zM1582.611 74.57v6.625c0 1.064-.335 1.879-1.006 2.443-.673.564-1.548.848-2.625.848-1.065 0-1.929-.284-2.587-.852-.657-.566-.986-1.379-.986-2.439V74.57h.829v6.621c0 .83.254 1.475.761 1.928s1.169.681 1.984.681c.828 0 1.505-.226 2.024-.677.521-.452.781-1.096.781-1.932V74.57h.825zM1590.65 79.76h-4.896v4.584h-.822V74.57h6.424v.685h-5.602v3.82h4.896v.685zM1600.139 83.184c-.226.316-.637.613-1.232.891-.597.277-1.352.412-2.257.412-1.173 0-2.132-.389-2.882-1.16-.748-.774-1.123-1.776-1.123-3.01v-1.791c0-1.209.356-2.191 1.068-2.955.713-.76 1.636-1.141 2.771-1.141 1.084 0 1.932.264 2.543.788.608.526.964 1.209 1.062 2.05l-.015.041h-.77c-.12-.654-.401-1.183-.851-1.588-.447-.404-1.104-.605-1.973-.605-.901 0-1.63.314-2.182.949-.55.638-.825 1.449-.825 2.442v1.804c0 1.021.292 1.857.88 2.51.584.652 1.351.979 2.295.979.668 0 1.234-.09 1.703-.271.469-.18.786-.379.957-.592v-2.545h-2.677v-.687h3.507v3.479h.001z"/></g><g><path d="M1321.358 0h82a9 9 0 0 1 9 9v82a9 9 0 0 1-9 9h-82a9 9 0 0 1-9-9V9a9 9 0 0 1 9-9z"/><circle cx="1362.358" cy="50" r="50"/><circle cx="1362.358" cy="50" r="40"/><path d="M1335.983 20.129h52.75v60h-52.75z"/><circle cx="1362.358" cy="50" r="20"/><circle cx="1362.358" cy="50.129" r="9"/></g></svg>