<svg xmlns="http://www.w3.org/2000/svg" width="209.39" height="100"><path d="M132.159 45.067a6.618 6.618 0 0 1 2.325 1.539c.653.671 1.162 1.499 1.53 2.483.367.986.551 2.108.551 3.368 0 .489-.052.815-.156.979-.104.164-.305.245-.595.245h-11.787c.022 1.119.175 2.092.455 2.921.279.828.665 1.519 1.154 2.071a4.606 4.606 0 0 0 1.748 1.242c.676.273 1.434.411 2.271.411.78 0 1.453-.091 2.021-.271a9.786 9.786 0 0 0 1.46-.586c.407-.211.75-.405 1.021-.586.272-.182.511-.271.708-.271.256 0 .454.1.596.296l.875 1.138a6.025 6.025 0 0 1-1.383 1.215 8.493 8.493 0 0 1-1.726.849c-.61.222-1.244.388-1.896.499-.653.111-1.302.167-1.941.167-1.224 0-2.354-.207-3.384-.621a7.449 7.449 0 0 1-2.677-1.819c-.752-.799-1.339-1.787-1.759-2.963-.419-1.178-.63-2.529-.63-4.058 0-1.235.189-2.39.567-3.463a8.196 8.196 0 0 1 1.636-2.79 7.525 7.525 0 0 1 2.605-1.854c1.025-.448 2.181-.673 3.463-.673 1.07 0 2.05.177 2.948.532zm-6.418 3.062c-.86.869-1.397 2.072-1.607 3.612h9.637c0-.722-.1-1.384-.297-1.984a4.417 4.417 0 0 0-.875-1.556 3.899 3.899 0 0 0-1.408-1.015c-.554-.239-1.187-.358-1.896-.358-1.509-.002-2.692.432-3.554 1.301zM147.718 50.727v2.64h-8.641v-2.64h8.641zM166.284 54.922c0 2.285-.729 4.151-2.188 5.598-1.549 1.527-3.619 2.291-6.207 2.291-1.084 0-2.23-.111-3.439-.332-1.203-.223-2.145-.443-2.82-.665l-.998-.351v-6.277h1.697c.396 0 .635.197.719.594.033.151.09.729.164 1.73.076 1.004.113 1.512.113 1.521 1.727.643 3.137.962 4.23.962s1.957-.11 2.588-.331a4.637 4.637 0 0 0 1.609-.945c.895-.827 1.346-1.93 1.346-3.305 0-1.328-.623-2.354-1.871-3.078a9.99 9.99 0 0 0-1.904-.84c-2.217-.688-3.686-1.191-4.408-1.512a7.291 7.291 0 0 1-1.922-1.233c-1.248-1.119-1.871-2.676-1.871-4.669 0-1.865.672-3.458 2.012-4.774 1.438-1.411 3.297-2.117 5.588-2.117s4.631.478 7.021 1.435v5.754h-1.697c-.406 0-.646-.198-.717-.594-.023-.07-.115-1.108-.279-3.113-1.562-.443-2.939-.665-4.127-.665-1.471 0-2.625.378-3.465 1.137-.793.699-1.188 1.621-1.188 2.763 0 1.225.629 2.198 1.891 2.921.561.327 1.207.612 1.939.856 2.1.699 3.562 1.23 4.391 1.592 2.528 1.142 3.793 3.024 3.793 5.647zM174.146 40.023v19.954c1.131.222 1.836.36 2.117.42s.42.269.42.629v1.504h-8.447v-1.504c0-.36.176-.577.525-.646l1.992-.403V40.023c-1.117-.222-1.818-.361-2.102-.42-.275-.059-.418-.268-.418-.629V37.47h8.447v1.504c0 .361-.182.577-.543.646l-1.991.403zM199.097 55.396c0 2.157-.764 3.876-2.291 5.159-1.574 1.318-3.742 1.977-6.506 1.977h-11.385v-1.504c0-.361.176-.577.523-.646l1.994-.402V40.023a139.416 139.416 0 0 1-1.994-.403c-.352-.069-.523-.285-.523-.647v-1.504h10.51c4.467 0 7.242 1.265 8.326 3.795.338.816.506 1.633.506 2.449s-.096 1.51-.287 2.081-.482 1.102-.865 1.592c-.828 1.026-2.01 1.778-3.551 2.256 3.695.735 5.543 2.653 5.543 5.754zm-14.27-6.698h4.479c2.787 0 4.537-.846 5.248-2.537a4.548 4.548 0 0 0 .332-1.749c0-1.469-.443-2.547-1.328-3.235-.887-.688-2.262-1.032-4.129-1.032h-4.6l-.002 8.553zm10.614 8.429a5.014 5.014 0 0 0 .314-1.818c0-1.294-.457-2.317-1.373-3.069-.914-.751-2.299-1.128-4.152-1.128h-5.402v8.727h5.424c2.784-.001 4.515-.904 5.189-2.712zM206.853 40.023v19.954c1.131.222 1.836.36 2.117.42s.42.269.42.629v1.504h-8.447v-1.504c0-.36.176-.577.525-.646l1.992-.403V40.023c-1.117-.222-1.818-.361-2.102-.42-.275-.059-.418-.268-.418-.629V37.47h8.447v1.504c0 .361-.182.577-.543.646l-1.991.403z"/><g><path d="M0 50v41c0 4.971 4.028 9 9 9h41C22.385 100 0 77.614 0 50zM50 100h41a9 9 0 0 0 9-9V50c0 27.614-22.386 50-50 50zM50 0H9a9 9 0 0 0-9 9v41C0 22.386 22.385 0 50 0zM91 0H50c27.614 0 50 22.386 50 50V9a9 9 0 0 0-9-9z"/><path d="M50 10c-22.092 0-40 17.909-40 40 0 11.983 5.277 22.729 13.625 30.06V20.129h52.75V80.06C84.723 72.729 90 61.983 90 50c0-22.091-17.909-40-40-40zM50 90c10.069 0 19.263-3.729 26.294-9.871H23.705C30.737 86.271 39.93 90 50 90zM76.375 80.129v-.069l-.081.069h.081zM23.625 80.129h.08l-.08-.069v.069z"/><path d="M50 30c-11.046 0-20 8.954-20 20s8.954 20 20 20c11.045 0 20-8.954 20-20s-8.955-20-20-20zm0 29.129c-4.971 0-9-4.029-9-9s4.029-9 9-9a9 9 0 0 1 0 18z"/></g></svg>