
<svg version="1.1" xmlns="http://www.w3.org/2000/svg" xmlns:xlink="http://www.w3.org/1999/xlink" x="0px" y="0px"
	 width="72.886px" height="26.582px" viewBox="0 0 72.886 26.582" enable-background="new 0 0 72.886 26.582" xml:space="preserve">
<g id="ufg">
	<g>
		<polygon points="21.051,10.651 24.386,12.542 24.411,16.373 21.105,18.313 
			17.777,16.422 17.75,12.59 21.051,10.651 		"/>
		<polygon points="17.415,26.582 21.364,24.262 21.331,19.68 17.349,17.417 13.395,19.736 
			13.431,24.32 17.415,26.582 		"/>
		<polygon points="10.167,18.57 12.745,20.031 12.767,22.998 10.21,24.498 7.634,23.034 
			7.612,20.068 10.167,18.57 		"/>
		<polygon points="3.92,10.671 7.873,12.916 7.904,17.461 3.984,19.762 0.032,17.517 
			0,12.972 3.92,10.671 		"/>
		<polygon points="7.921,4.574 11.12,6.391 11.146,10.069 7.974,11.932 4.776,10.114 
			4.751,6.438 7.921,4.574 		"/>
		<polygon points="17.66,11.892 22.786,8.883 22.743,2.937 17.573,0 12.442,3.009 
			12.486,8.956 17.66,11.892 		"/>
	</g>
	<g>
		<g>
			<path d="M31.475,4.578v9.895c0,2.989,1.149,4.498,3.118,4.498c2.043,0,3.17-1.432,3.17-4.498V4.578h3.887v9.664
				c0,5.318-2.687,7.848-7.186,7.848c-4.346,0-6.875-2.429-6.875-7.9V4.578H31.475z"/>
			<path d="M45.046,4.578h10.51v3.195h-6.623v3.937h6.188v3.171h-6.188v6.928h-3.887V4.578z"/>
			<path d="M72.886,21.016c-1.203,0.41-3.477,0.973-5.75,0.973c-3.146,0-5.422-0.793-7.008-2.301
				c-1.559-1.51-2.428-3.758-2.428-6.29c0.026-5.726,4.191-8.999,9.842-8.999c2.225,0,3.938,0.438,4.781,0.82l-0.818,3.143
				c-0.945-0.436-2.096-0.74-3.99-0.74c-3.244,0-5.725,1.84-5.725,5.572c0,3.58,2.25,5.648,5.445,5.648
				c0.869,0,1.585-0.1,1.892-0.229v-3.629H66.47V11.94h6.416V21.016z"/>
		</g>
	</g>
</g>

</svg>
