
<svg version="1.1" id="Layer_1" xmlns="http://www.w3.org/2000/svg" xmlns:xlink="http://www.w3.org/1999/xlink" x="0px" y="0px"
	 width="818.148px" height="324.967px" viewBox="0 0 818.148 324.967" enable-background="new 0 0 818.148 324.967"
	 xml:space="preserve">
<path d="M6.625,324.967c-7.371,0-8.553-4.949-3.736-11.457c4.627-6.252,13.367-11.521,20.175-11.521
	c3.936,0,5.586,1.078,6.563,3.016c-1.538,0.986-3.077,1.971-4.617,2.951c-0.73-1.459-1.793-2.381-4.684-2.381
	c-4.191,0-9.977,3.555-13.138,7.873c-3.371,4.602-2.658,7.965,2.124,7.965c2.207,0,4.689-0.666,6.842-1.682l2.942-4.156h-5.922
	l2.44-3.398h9.799l-6.537,9.332C15.256,323.381,10.798,324.967,6.625,324.967 M66.721,324.967c-7.236,0-9.013-5.174-5.039-11.457
	c3.973-6.283,12.189-11.521,19.126-11.521c6.938,0,8.736,5.174,5.04,11.459C82.153,319.73,73.958,324.967,66.721,324.967
	 M78.557,305.574c-4.516,0-9.867,3.523-12.582,7.873c-2.716,4.348-1.645,7.934,3.003,7.934s9.991-3.521,12.582-7.871
	C84.151,309.162,83.071,305.574,78.557,305.574 M144.112,302.369h4.295c-6.796,7.523-13.663,14.982-20.601,22.377h-3.633
	c0.623-8.951,1.015-13.428,1.953-22.377h4.392c-0.683,5.684-1.28,11.375-1.791,17.076
	C133.903,313.797,139.031,308.105,144.112,302.369 M199.982,305.861h-12.871l-2.356,5.773h11.53l-1.35,3.492h-11.606l-2.434,5.969
	h13.404l-1.34,3.49h-17.625l9.229-22.217h16.76C200.785,303.766,200.517,304.465,199.982,305.861 M246.595,324.586
	c-1.187-2.568-2.346-5.15-3.479-7.744h-5.108l-2.378,7.744h-4.137l6.986-22.217h10.076c5.199,0,7.641,2.697,6.424,7.045
	c-1.031,3.684-3.93,5.904-7.425,6.762c1.274,2.818,2.581,5.623,3.919,8.41H246.595L246.595,324.586z M247.179,305.924h-5.819
	l-2.29,7.459h5.932c2.901,0,5.166-1.461,5.823-3.746C251.528,307.193,250.137,305.924,247.179,305.924 M309.9,302.369h3.908
	l-3.853,22.217h-3.465c-4.057-6.32-6.012-9.482-9.775-15.805l-3.208,15.805h-4.071l4.673-22.217h3.681
	c3.594,6.145,5.461,9.217,9.334,15.361L309.9,302.369 M360.837,324.967c-7.237,0-11.748-5.174-11.095-11.457
	c0.654-6.283,6.103-11.521,13.041-11.521s11.47,5.174,11.095,11.459C373.503,319.73,368.074,324.967,360.837,324.967
	 M362.424,305.574c-4.516,0-8.005,3.523-8.424,7.873c-0.418,4.348,2.548,7.934,7.197,7.934s8.13-3.521,8.424-7.871
	C369.915,309.162,366.941,305.574,362.424,305.574 M470.855,305.924h-12.938c0.23,2.426,0.348,3.639,0.58,6.062h11.604l0.418,3.555
	h-11.682l0.867,9.045h-4.139l-1.963-22.217h16.824L470.855,305.924 M524.598,305.861h-12.871l1.131,5.773h11.533l0.758,3.492
	h-11.605l1.17,5.969h13.404l0.768,3.49H511.26l-4.188-22.217h16.76L524.598,305.861 M576.199,324.586h-8.779l-6.43-22.217h8.428
	c7.104,0,13.582,4.793,15.643,11.076C587.119,319.73,583.6,324.586,576.199,324.586 M570.502,305.924h-4.484l4.484,15.107h4.611
	c4.912,0,7.115-3.143,5.715-7.523C579.428,309.129,575.281,305.924,570.502,305.924 M636.777,305.861h-12.869l2.336,5.773h11.531
	l1.486,3.492h-11.605l2.414,5.969h13.404c0.6,1.395,0.896,2.096,1.496,3.49h-17.625l-8.822-22.217h16.76L636.777,305.861
	 M698.607,324.586c-3.27-2.564-6.527-5.146-9.771-7.744h-5.107c1.564,3.1,2.35,4.646,3.914,7.744h-4.137l-11.066-22.217h10.076
	c5.197,0,9.83,2.697,12.146,7.045c1.961,3.684,0.869,5.904-1.93,6.762c3.568,2.822,7.152,5.627,10.752,8.41H698.607z
	 M684.025,305.924h-5.818l3.771,7.459h5.932c2.9,0,3.979-1.461,2.779-3.746C689.406,307.193,686.984,305.924,684.025,305.924
	 M763.979,324.586h-4.373c-1.926-1.783-3.85-3.57-5.77-5.361h-11.025c0.352,2.145,0.521,3.217,0.855,5.361h-4.238
	c-1.213-8.947-1.906-13.426-3.453-22.375h3.68C747.721,309.715,755.83,317.174,763.979,324.586 M740.645,306.877
	c0.643,3.555,0.951,5.332,1.543,8.887h7.979C746.33,312.209,744.426,310.432,740.645,306.877 M785.85,302.369h3.973l13.396,18.662
	h12.299l2.631,3.555h-16.514L785.85,302.369 M659.145,162.427l46.07,82.989h71.77l29.268,42.438H673.66l-57.625-125.426H659.145z
	 M608.305,162.426h-43.111l3.871,11.167c-4.488-2.205-9.107-4.129-13.834-5.766c-4.76-1.641-9.619-2.988-14.545-4.033
	c-5-1.064-10.199-1.86-15.65-2.389c-5.438-0.527-11.141-0.791-17.154-0.791c-3.086,0-6.018,0.116-8.814,0.328
	c-9.129,18.074-22.92,33.391-39.791,44.375c1.061,2.369,2.434,4.586,4.086,6.588c3.656,4.447,8.676,8.074,14.707,11.102
	c6.104,3.062,13.211,5.494,20.961,7.535c7.814,2.059,16.256,3.713,24.975,5.227c4.178,0.711,7.643,1.375,10.508,2.039
	c2.873,0.666,5.143,1.332,6.924,2.039c1.783,0.711,3.078,1.465,3.994,2.311c0.92,0.848,1.463,1.785,1.74,2.861
	c0.242,0.936,0.215,1.773-0.109,2.51c-0.324,0.734-0.945,1.361-1.887,1.873s-2.205,0.906-3.812,1.172s-3.557,0.404-5.873,0.404
	c-4.516,0-9.17-0.301-13.898-0.934c-9.828-1.314-19.43-3.969-28.535-7.895c-4.738-2.041-9.318-4.428-13.707-7.141l-14.223,17.432
	l-21.654-38.523c-13.568,6.043-28.529,9.52-44.271,9.814l4.223,10.145h-27.325l5.475-11.16c-14.15-1.91-27.812-6.473-40.27-13.447
	l-34.229,53.941l-13.851-25.156c4.986-1.953,9.579-4.244,13.708-6.875c4.088-2.602,7.709-5.529,10.798-8.777
	c3.051-3.209,5.574-6.721,7.511-10.533c1.704-3.355,2.94-6.93,3.674-10.621c-13.43-9.982-24.515-22.783-32.478-37.5
	c-1.307-0.203-2.618-0.381-3.932-0.531c-4.586-0.517-9.705-0.789-15.415-0.789h-63.005l-8.001,18.486
	c0.082-0.992,0.07-1.932-0.025-2.82c-0.09-0.854-0.265-1.693-0.524-2.512c-0.245-0.768-0.566-1.51-0.96-2.215
	c-0.383-0.684-0.83-1.332-1.335-1.932c-1.253-1.488-2.81-2.799-4.718-3.924c-1.898-1.119-4.149-2.059-6.801-2.811
	c-2.643-0.752-5.689-1.32-9.19-1.701c-3.495-0.38-7.449-0.573-11.917-0.573H98.396L11.894,287.852h91.383
	c7.031,0,13.763-0.533,20.142-1.543c6.357-1.006,12.343-2.479,17.912-4.357c5.532-1.865,10.638-4.125,15.278-6.713
	c4.598-2.566,8.728-5.449,12.36-8.588l-9.177,21.201h55.114l14.307-42.436h10.908l17.642,42.436h92.559l10.283-20.754h55.624
	l8.982,20.754h59.811l-4.963-8.842c4.66,1.955,9.424,3.656,14.27,5.096c5.033,1.496,10.139,2.736,15.297,3.717
	c5.314,1.012,10.674,1.768,16.061,2.264c5.457,0.508,10.984,0.764,16.553,0.764c8.211,0,15.699-0.709,22.371-2.074
	c6.643-1.359,12.445-3.361,17.338-5.947c4.848-2.562,8.777-5.688,11.734-9.311c2.918-3.576,4.875-7.625,5.824-12.082l9.156,26.418
	h55.113L608.305,162.426L608.305,162.426z M136.238,239.58l-0.201,0.389c-0.749,1.447-1.797,2.793-3.125,4
	c-1.334,1.213-2.949,2.283-4.822,3.172c-1.878,0.893-4.015,1.6-6.383,2.086c-2.373,0.486-4.976,0.748-7.781,0.748h-25.74
	l11.937-20.014h24.994c2.701,0,4.926,0.242,6.701,0.695c1.778,0.451,3.106,1.115,4.006,1.955c0.903,0.844,1.377,1.865,1.441,3.033
	C137.33,236.82,136.982,238.143,136.238,239.58 M155.036,196.338l-0.172,0.328c-0.671,1.275-1.576,2.416-2.667,3.359
	c-1.122,0.98-2.474,1.812-4.059,2.488c-1.589,0.674-3.41,1.189-5.464,1.537c-2.057,0.348-4.344,0.525-6.863,0.525h-20.548
	l9.48-15.896h19.691c2.437,0,4.478,0.168,6.129,0.492c1.653,0.328,2.917,0.816,3.797,1.459c0.881,0.645,1.378,1.443,1.491,2.395
	C155.966,193.979,155.694,195.086,155.036,196.338 M185.858,227.633c-0.66-1.592-1.582-3.062-2.728-4.35
	c-1.151-1.305-2.54-2.48-4.144-3.537c-1.598-1.057-3.411-1.996-5.418-2.838c-2-0.84-4.193-1.582-6.559-2.24
	c3.418-0.873,6.781-1.949,10.07-3.227c3.179-1.244,6.181-2.66,8.967-4.258c2.769-1.588,5.322-3.35,7.623-5.291
	c2.283-1.928,4.315-4.027,6.061-6.309L185.858,227.633L185.858,227.633z M281.972,202.572l-0.087,0.336
	c-0.461,1.781-1.318,3.434-2.506,4.838c-1.199,1.428-2.744,2.652-4.592,3.652c-1.855,1.004-4.012,1.777-6.426,2.303
	c-2.419,0.525-5.091,0.797-7.967,0.797h-20.758l7.691-22.811h20.011c2.649,0,5.001,0.219,7.012,0.658
	c2.014,0.441,3.688,1.105,4.973,1.996c1.291,0.896,2.192,2.021,2.652,3.385C282.438,199.098,282.455,200.711,281.972,202.572
	 M574.383,214.299c-4.375-2.404-9.24-4.455-14.547-6.229c-5.271-1.762-10.986-3.258-17.098-4.562
	c-6.08-1.299-12.559-2.412-19.385-3.414c-3.822-0.574-6.945-1.127-9.494-1.682c-2.541-0.555-4.506-1.107-6.014-1.688
	c-1.504-0.576-2.553-1.178-3.262-1.826c-0.709-0.646-1.078-1.338-1.229-2.098l-0.062-0.32c-0.133-0.676-0.059-1.301,0.232-1.857
	c0.291-0.555,0.801-1.043,1.537-1.445s1.701-0.721,2.906-0.939c1.205-0.217,2.652-0.334,4.354-0.334
	c3.166,0,6.547,0.205,10.07,0.631c3.689,0.449,7.352,1.105,10.971,1.963c3.771,0.891,7.631,2.023,11.502,3.418
	c3.99,1.436,7.889,3.115,11.674,5.031l13.291-23.133l16.281,46.977C582.727,219.529,578.799,216.729,574.383,214.299"/>
<path d="M407.685,78.524c-59.396-20.452-113.824-18.798-121.569,3.693c-1.736,5.043-0.976,10.706,1.914,16.687
	c0.112-1.163,0.243-2.32,0.391-3.473c-1.288-4.116-1.39-8.018-0.161-11.586c7.419-21.547,60.501-22.807,118.562-2.815
	c58.063,19.992,99.114,53.665,91.696,75.212c-1.227,3.562-3.707,6.566-7.246,9.014c-0.596,1.008-1.207,2-1.834,2.986
	c5.951-2.934,10.037-6.924,11.771-11.963C508.953,133.788,467.08,98.976,407.685,78.524 M303.147,55.009
	c0.631-1.002,1.363-1.932,2.195-2.789s1.75-1.61,2.756-2.261c0.977-0.636,2.037-1.134,3.15-1.479
	c1.107-0.339,2.028-0.451,2.764-0.334c0.735,0.117,1.288,0.42,1.656,0.909c0.369,0.488,0.558,1.136,0.567,1.941
	c0.009,0.806-0.169,1.737-0.532,2.792c-0.371,1.063-0.865,2.079-1.472,3.027c-0.628,0.99-1.359,1.912-2.181,2.749
	c-0.828,0.844-1.74,1.586-2.737,2.228c-0.997,0.642-2.049,1.133-3.156,1.472c-1.094,0.336-2.013,0.449-2.757,0.341
	c-0.745-0.108-1.304-0.4-1.677-0.876c-0.373-0.475-0.566-1.109-0.58-1.902c-0.013-0.792,0.157-1.703,0.511-2.732
	C302.031,57.012,302.532,55.977,303.147,55.009 M304.41,58.799c-0.053,0.518-0.003,0.954,0.149,1.308
	c0.152,0.355,0.429,0.592,0.83,0.711c0.4,0.119,0.954,0.07,1.661-0.146c0.695-0.211,1.351-0.535,1.941-0.958
	c0.581-0.417,1.109-0.903,1.572-1.447c0.461-0.542,0.858-1.116,1.192-1.72c0.333-0.603,0.602-1.202,0.806-1.796
	c0.214-0.62,0.35-1.199,0.41-1.736c0.06-0.538,0.015-0.987-0.135-1.348c-0.151-0.361-0.426-0.601-0.826-0.721
	c-0.401-0.119-0.955-0.07-1.662,0.147c-0.695,0.21-1.351,0.534-1.941,0.957c-0.583,0.419-1.112,0.908-1.575,1.457
	c-0.46,0.544-0.865,1.133-1.206,1.759c-0.34,0.624-0.616,1.246-0.83,1.866C304.604,57.671,304.475,58.23,304.41,58.799"/>
<path d="M327.51,45.829c0.666-0.07,1.231-0.03,1.695,0.119c0.464,0.15,0.826,0.382,1.085,0.699c0.259,0.317,0.408,0.699,0.448,1.146
	c0.04,0.448-0.033,0.942-0.219,1.483c-0.278,0.818-0.719,1.571-1.295,2.215c-0.577,0.645-1.336,1.169-2.278,1.572l-0.013,0.039
	c0.366,0.063,0.643,0.191,0.832,0.382c0.189,0.19,0.316,0.425,0.38,0.704c0.064,0.28,0.073,0.594,0.027,0.942
	c-0.048,0.355-0.119,0.707-0.212,1.053c-0.064,0.223-0.141,0.485-0.231,0.787c-0.091,0.303-0.173,0.61-0.247,0.923
	c-0.071,0.291-0.12,0.585-0.144,0.883c-0.022,0.276,0.01,0.505,0.095,0.687l-3.269,0.339c-0.026-0.43,0.047-0.953,0.219-1.569
	c0.164-0.582,0.306-1.169,0.426-1.761c0.143-0.728,0.094-1.244-0.149-1.55c-0.243-0.305-0.774-0.416-1.593-0.331l-3.268,0.339
	l-1.902,5.522l-3.268,0.339l4.865-14.131L327.51,45.829L327.51,45.829z M324.143,52.343c0.75-0.078,1.366-0.294,1.85-0.65
	c0.484-0.355,0.848-0.889,1.094-1.602c0.236-0.686,0.22-1.165-0.048-1.436c-0.268-0.271-0.777-0.368-1.526-0.29l-3.581,0.371
	l-1.37,3.978L324.143,52.343z M340.083,45.428c0.963,0.012,1.81,0.168,2.54,0.468c0.73,0.3,1.299,0.744,1.706,1.332
	c0.407,0.588,0.632,1.319,0.674,2.194s-0.139,1.899-0.544,3.074c-0.342,1.005-0.813,1.961-1.4,2.845
	c-0.561,0.848-1.25,1.604-2.043,2.241c-0.79,0.63-1.677,1.126-2.628,1.469c-0.97,0.353-2.026,0.522-3.17,0.508l-6.447-0.077
	l4.866-14.131L340.083,45.428L340.083,45.428z M335.886,56.944c0.493,0.003,0.983-0.064,1.456-0.201
	c0.497-0.14,0.977-0.376,1.442-0.708c0.497-0.364,0.932-0.805,1.291-1.306c0.395-0.539,0.727-1.197,0.995-1.976
	c0.245-0.712,0.394-1.356,0.445-1.932c0.051-0.576-0.021-1.07-0.215-1.483s-0.529-0.732-1.005-0.956
	c-0.477-0.224-1.119-0.341-1.928-0.351l-2.345-0.028l-3.066,8.906L335.886,56.944L335.886,56.944z M359.517,46.703l-0.9,2.613
	l-7.857-0.726l-1.043,3.028l7.212,0.666l-0.832,2.414l-7.212-0.665l-1.192,3.463l8.025,0.741l-0.9,2.612l-11.297-1.042l4.866-14.131
	L359.517,46.703z M365.704,47.605l0.103,10.288l0.041,0.007l6.609-9.179l4.564,0.754l-4.867,14.132l-3.036-0.502l3.45-10.014
	l-0.042-0.007l-7.062,9.417l-2.499-0.413l-0.199-10.514l-0.042-0.006l-3.414,9.915l-3.036-0.502l4.866-14.132L365.704,47.605z
	 M395.007,53.783l-0.9,2.612l-7.657-1.904l-1.043,3.028l7.028,1.748l-0.831,2.414l-7.028-1.748l-1.194,3.464l7.821,1.946
	l-0.899,2.611l-11.01-2.737l4.866-14.132L395.007,53.783z M408.01,57.69c0.893,0.282,1.605,0.65,2.143,1.105
	c0.539,0.455,0.93,0.956,1.178,1.503c0.246,0.546,0.367,1.118,0.359,1.716c-0.02,1.212-0.424,2.387-1.156,3.354
	c-0.363,0.487-0.826,0.891-1.359,1.184c-0.538,0.298-1.164,0.476-1.877,0.536c-0.714,0.059-1.517-0.052-2.408-0.334l-3.293-1.042
	l-1.745,5.067l-3.133-0.991l4.866-14.131L408.01,57.69L408.01,57.69z M404.862,64.068c0.348,0.111,0.704,0.194,1.065,0.249
	c0.351,0.053,0.678,0.043,0.984-0.029c0.305-0.071,0.581-0.222,0.83-0.451c0.249-0.228,0.45-0.567,0.604-1.015
	c0.154-0.449,0.203-0.836,0.146-1.162c-0.051-0.309-0.186-0.597-0.389-0.835c-0.216-0.244-0.479-0.443-0.771-0.585
	c-0.326-0.163-0.664-0.299-1.011-0.407l-2.434-0.77l-1.459,4.235L404.862,64.068L404.862,64.068z M421.455,62.347
	c0.631,0.23,1.162,0.54,1.596,0.929c0.434,0.389,0.771,0.827,1.008,1.316c0.238,0.487,0.371,1.001,0.398,1.538
	c0.027,0.55-0.053,1.1-0.234,1.619c-0.287,0.831-0.709,1.487-1.266,1.967c-0.557,0.479-1.281,0.734-2.176,0.763l-0.016,0.039
	c0.344,0.245,0.604,0.522,0.777,0.83c0.174,0.309,0.287,0.641,0.344,0.995c0.055,0.355,0.057,0.723,0.006,1.106
	c-0.049,0.378-0.123,0.753-0.221,1.122c-0.064,0.23-0.141,0.498-0.232,0.807c-0.092,0.308-0.176,0.626-0.252,0.955
	c-0.076,0.328-0.127,0.648-0.152,0.958c-0.025,0.31,0,0.59,0.076,0.841l-3.088-1.129c-0.016-0.511,0.064-1.083,0.238-1.718
	c0.174-0.634,0.318-1.25,0.438-1.846c0.148-0.777,0.111-1.4-0.109-1.867c-0.223-0.468-0.721-0.843-1.494-1.126l-3.086-1.129
	l-1.902,5.522l-3.086-1.129l4.867-14.131L421.455,62.347L421.455,62.347z M418.152,68.337c0.707,0.259,1.295,0.295,1.758,0.107
	c0.461-0.187,0.816-0.637,1.061-1.349c0.236-0.686,0.23-1.249-0.016-1.689c-0.246-0.439-0.727-0.788-1.434-1.047l-3.381-1.237
	l-1.369,3.978L418.152,68.337z M425.43,68.533c0.619-0.773,1.334-1.375,2.145-1.803c0.826-0.433,1.742-0.667,2.676-0.683
	c0.973-0.026,1.986,0.183,3.041,0.628c1.066,0.451,1.953,1.045,2.656,1.78c0.688,0.711,1.225,1.555,1.574,2.48
	c0.348,0.918,0.521,1.894,0.518,2.928c-0.002,1.034-0.188,2.079-0.549,3.134c-0.355,1.029-0.842,1.924-1.455,2.684
	c-0.578,0.731-1.305,1.332-2.131,1.763c-0.822,0.42-1.73,0.645-2.654,0.658c-0.967,0.021-1.982-0.191-3.049-0.643
	c-1.055-0.445-1.938-1.034-2.65-1.766c-0.711-0.732-1.244-1.549-1.594-2.454c-0.354-0.904-0.529-1.866-0.531-2.887
	c-0.002-1.021,0.174-2.047,0.529-3.076C424.316,70.221,424.809,69.306,425.43,68.533 M426.588,74.373
	c-0.061,0.599-0.018,1.203,0.125,1.787c0.141,0.575,0.408,1.111,0.785,1.568c0.381,0.471,0.914,0.851,1.594,1.139
	c0.682,0.288,1.307,0.397,1.875,0.328c0.553-0.063,1.078-0.266,1.529-0.59c0.449-0.324,0.84-0.737,1.168-1.241
	s0.594-1.052,0.797-1.646c0.215-0.62,0.354-1.249,0.418-1.887c0.066-0.61,0.029-1.228-0.111-1.826
	c-0.137-0.578-0.404-1.118-0.781-1.578c-0.383-0.471-0.912-0.851-1.596-1.139c-0.682-0.288-1.307-0.397-1.875-0.328
	c-0.566,0.07-1.08,0.269-1.531,0.6c-0.451,0.33-0.846,0.757-1.182,1.28C427.127,71.907,426.711,73.117,426.588,74.373
	 M444.434,88.437c-0.723-0.026-1.432-0.205-2.082-0.524c-1.025-0.503-1.887-1.144-2.576-1.923c-0.676-0.75-1.199-1.623-1.543-2.571
	c-0.338-0.95-0.506-1.953-0.494-2.962c0.008-1.056,0.191-2.103,0.539-3.1c0.363-1.056,0.852-1.962,1.463-2.718
	s1.314-1.333,2.109-1.73c0.797-0.396,1.67-0.584,2.623-0.565c0.953,0.02,1.943,0.282,2.971,0.785
	c0.691,0.34,1.328,0.781,1.889,1.308c0.566,0.527,1.045,1.141,1.418,1.817c0.377,0.682,0.629,1.425,0.75,2.195
	c0.125,0.786,0.086,1.6-0.117,2.441l-2.818-1.382c0.098-0.878-0.035-1.637-0.4-2.279c-0.365-0.641-0.904-1.137-1.619-1.487
	c-0.664-0.326-1.275-0.467-1.83-0.424c-0.557,0.043-1.059,0.222-1.504,0.536s-0.832,0.729-1.164,1.245
	c-0.34,0.534-0.613,1.105-0.818,1.704c-0.203,0.592-0.336,1.206-0.396,1.829c-0.062,0.609-0.027,1.224,0.105,1.822
	c0.137,0.59,0.389,1.134,0.76,1.632c0.369,0.498,0.887,0.909,1.551,1.235c0.977,0.479,1.82,0.589,2.533,0.328
	c0.713-0.26,1.281-0.863,1.711-1.81l-2.971-1.456l0.799-2.315l5.639,2.764l-2.631,7.64l-1.879-0.922l0.252-1.75
	C445.926,88.253,445.172,88.466,444.434,88.437 M461.539,81.015c0.582,0.33,1.072,0.729,1.471,1.197
	c0.396,0.469,0.701,0.976,0.914,1.521c0.211,0.545,0.322,1.102,0.338,1.67c0.016,0.565-0.07,1.128-0.256,1.663
	c-0.287,0.831-0.695,1.46-1.229,1.884c-0.529,0.425-1.215,0.59-2.053,0.495l-0.014,0.04c0.314,0.304,0.553,0.631,0.709,0.979
	c0.154,0.348,0.256,0.712,0.299,1.091s0.037,0.766-0.02,1.16s-0.133,0.776-0.23,1.146c-0.066,0.231-0.145,0.502-0.236,0.812
	s-0.178,0.632-0.256,0.966c-0.078,0.324-0.133,0.652-0.164,0.983c-0.033,0.322-0.014,0.619,0.053,0.893l-2.861-1.617
	c-0.004-0.538,0.082-1.127,0.26-1.768s0.328-1.265,0.449-1.874c0.156-0.794,0.137-1.451-0.062-1.973
	c-0.197-0.522-0.654-0.985-1.371-1.39l-2.861-1.617l-1.9,5.522l-2.859-1.617l4.865-14.13L461.539,81.015z M458.316,86.831
	c0.656,0.371,1.203,0.49,1.641,0.359c0.438-0.131,0.777-0.553,1.023-1.266c0.236-0.685,0.244-1.276,0.021-1.772
	c-0.221-0.495-0.658-0.928-1.314-1.299l-3.135-1.771l-1.369,3.978L458.316,86.831L458.316,86.831z M476.008,90.074l-0.9,2.612
	l-6.611-4.306l-1.043,3.029l6.068,3.951l-0.83,2.415l-6.07-3.952l-1.191,3.464l6.752,4.397l-0.898,2.612l-9.508-6.19l4.865-14.131
	L476.008,90.074z M475.682,103.195c0.029,0.44,0.129,0.853,0.297,1.24c0.168,0.387,0.396,0.752,0.684,1.097
	c0.287,0.345,0.604,0.649,0.947,0.911c0.232,0.178,0.49,0.346,0.771,0.503s0.562,0.259,0.84,0.305
	c0.277,0.046,0.533,0.013,0.771-0.099c0.232-0.113,0.412-0.347,0.535-0.703c0.131-0.383,0.135-0.771,0.012-1.166
	c-0.141-0.431-0.344-0.838-0.602-1.21c-0.305-0.446-0.635-0.873-0.988-1.28c-0.389-0.452-0.77-0.91-1.145-1.374
	c-0.4-0.474-0.777-0.967-1.129-1.477c-0.35-0.502-0.643-1.041-0.875-1.606c-0.23-0.56-0.369-1.152-0.416-1.755
	c-0.049-0.612,0.039-1.241,0.262-1.887c0.25-0.726,0.598-1.257,1.041-1.592c0.445-0.335,0.939-0.52,1.482-0.554
	c0.545-0.034,1.111,0.066,1.703,0.301c0.604,0.243,1.17,0.567,1.686,0.963c0.621,0.475,1.189,1.013,1.703,1.614
	c0.508,0.592,0.926,1.253,1.246,1.965c0.314,0.703,0.506,1.455,0.566,2.222c0.062,0.773-0.047,1.569-0.328,2.387l-2.525-1.932
	c0.123-0.44,0.168-0.846,0.135-1.221c-0.031-0.375-0.125-0.722-0.281-1.041s-0.357-0.615-0.607-0.889
	c-0.248-0.274-0.533-0.533-0.855-0.779c-0.205-0.158-0.426-0.293-0.658-0.404c-0.209-0.104-0.438-0.159-0.67-0.161
	c-0.211-0.002-0.416,0.057-0.594,0.17c-0.18,0.113-0.322,0.322-0.426,0.625c-0.092,0.247-0.127,0.513-0.1,0.775
	c0.029,0.239,0.15,0.531,0.359,0.875c0.211,0.345,0.521,0.765,0.932,1.262s0.947,1.141,1.613,1.933
	c0.203,0.223,0.48,0.553,0.824,0.993c0.346,0.439,0.66,0.959,0.943,1.559c0.285,0.6,0.479,1.262,0.588,1.986
	c0.107,0.724,0.025,1.482-0.246,2.273c-0.225,0.647-0.535,1.167-0.938,1.56c-0.402,0.393-0.879,0.632-1.434,0.717
	s-1.178,0.004-1.871-0.242c-0.691-0.247-1.443-0.679-2.252-1.297c-0.666-0.511-1.271-1.096-1.805-1.743
	c-0.543-0.647-0.988-1.37-1.32-2.146c-0.33-0.768-0.529-1.586-0.584-2.421c-0.057-0.871,0.072-1.744,0.377-2.562l2.527,1.932
	C475.721,102.262,475.654,102.729,475.682,103.195 M486.143,111.66c0.02,0.455,0.102,0.888,0.248,1.299
	c0.146,0.411,0.352,0.805,0.609,1.183c0.26,0.377,0.545,0.715,0.859,1.013c0.213,0.202,0.447,0.395,0.707,0.579
	c0.26,0.185,0.518,0.312,0.773,0.382c0.26,0.07,0.498,0.056,0.721-0.04c0.221-0.096,0.393-0.323,0.516-0.679
	c0.131-0.383,0.146-0.782,0.039-1.197c-0.121-0.452-0.299-0.887-0.531-1.293c-0.271-0.481-0.568-0.946-0.891-1.395
	c-0.352-0.496-0.695-0.998-1.031-1.506c-0.363-0.521-0.701-1.058-1.018-1.609c-0.314-0.547-0.574-1.124-0.775-1.722
	c-0.199-0.594-0.316-1.212-0.346-1.837c-0.027-0.652,0.07-1.304,0.289-1.919c0.25-0.726,0.586-1.243,1.006-1.552
	c0.402-0.302,0.893-0.46,1.395-0.449c0.508,0.008,1.033,0.158,1.578,0.447c0.564,0.304,1.084,0.683,1.547,1.127
	c0.572,0.546,1.09,1.148,1.545,1.797c0.467,0.659,0.836,1.366,1.113,2.12s0.438,1.53,0.479,2.33c0.039,0.8-0.082,1.609-0.363,2.427
	l-2.309-2.191c0.125-0.441,0.178-0.856,0.158-1.243c-0.02-0.375-0.1-0.745-0.238-1.093c-0.141-0.343-0.322-0.667-0.545-0.964
	c-0.234-0.312-0.494-0.603-0.777-0.87c-0.186-0.176-0.387-0.333-0.604-0.468c-0.188-0.122-0.398-0.197-0.619-0.22
	c-0.195-0.019-0.391,0.026-0.557,0.127c-0.172,0.102-0.309,0.305-0.412,0.608c-0.096,0.277-0.133,0.54-0.109,0.788
	c0.021,0.249,0.127,0.558,0.314,0.929s0.467,0.828,0.836,1.372c0.371,0.544,0.855,1.25,1.457,2.118
	c0.184,0.245,0.432,0.607,0.742,1.087c0.312,0.48,0.594,1.039,0.842,1.679c0.25,0.64,0.416,1.337,0.5,2.089
	c0.084,0.753-0.012,1.526-0.285,2.317c-0.223,0.647-0.523,1.156-0.906,1.527c-0.363,0.362-0.842,0.583-1.354,0.621
	c-0.518,0.043-1.096-0.091-1.734-0.4c-0.639-0.309-1.328-0.814-2.066-1.516c-0.598-0.567-1.145-1.213-1.639-1.937
	c-0.496-0.724-0.889-1.496-1.178-2.313c-0.291-0.816-0.455-1.671-0.486-2.536c-0.033-0.886,0.107-1.77,0.412-2.602l2.307,2.19
	C486.197,110.74,486.125,111.205,486.143,111.66 M496.24,112.631c0.506-0.631,1.059-1.029,1.654-1.191
	c0.6-0.163,1.23-0.064,1.895,0.296s1.33,1.006,1.996,1.936c0.676,0.941,1.211,1.971,1.607,3.091s0.662,2.272,0.795,3.455
	c0.137,1.183,0.145,2.363,0.027,3.539c-0.107,1.14-0.35,2.263-0.719,3.347c-0.354,1.029-0.781,1.853-1.283,2.471
	c-0.502,0.619-1.051,1.003-1.643,1.152c-0.596,0.15-1.221,0.043-1.877-0.318c-0.658-0.361-1.324-1.012-2-1.953
	c-0.674-0.945-1.215-1.979-1.604-3.074c-0.402-1.109-0.674-2.261-0.812-3.433c-0.141-1.161-0.154-2.334-0.041-3.499
	c0.109-1.163,0.344-2.259,0.697-3.288C495.299,114.106,495.734,113.263,496.24,112.631 M496.383,119.743
	c-0.109,0.68-0.146,1.375-0.113,2.084s0.152,1.409,0.359,2.099c0.209,0.69,0.527,1.336,0.959,1.937
	c0.43,0.601,0.844,0.976,1.238,1.125c0.393,0.15,0.76,0.13,1.102-0.058c0.342-0.187,0.652-0.502,0.93-0.944
	c0.279-0.441,0.521-0.959,0.727-1.553c0.213-0.62,0.377-1.28,0.492-1.979c0.113-0.7,0.154-1.408,0.127-2.124
	c-0.031-0.715-0.152-1.423-0.357-2.109c-0.209-0.69-0.527-1.336-0.959-1.937c-0.43-0.601-0.844-0.976-1.238-1.125
	c-0.393-0.149-0.762-0.127-1.104,0.068c-0.344,0.194-0.66,0.522-0.945,0.983c-0.307,0.512-0.559,1.056-0.748,1.623
	C496.646,118.426,496.49,119.063,496.383,119.743"/>
<path d="M397.02,0c-36.765,0-69.282,18.13-89.14,45.926c21.291-9.109,63.175-6.24,107.878,9.152
	c44.703,15.393,79.477,38.919,90.645,59.207c0.068-1.589,0.115-3.183,0.115-4.789C506.518,49.024,457.492,0,397.02,0
	 M438.984,59.557l-4.955-3.238l-4.938,2.821l1.25-5.415l-4.447-3.746l5.645-0.159l2.053-4.864l2.32,5.176l5.68,0.725l-4.221,3.285
	L438.984,59.557L438.984,59.557z M406.13,83.039c-26.39-9.087-52.805-14.091-74.379-14.091c-22.325,0-37.236,5.377-41.172,14.788
	c-2.033,8.436-3.059,17.083-3.056,25.76c0,60.475,49.023,109.498,109.497,109.498c44.324,0,82.494-26.338,99.722-64.216
	C502.355,134.65,461.316,102.043,406.13,83.039 M298.15,87.199L299.693,83l1.035,4.062l3.651,0.098l-3.027,3.085l0.645,4.296
	l-2.831-2.266l-3.027,2.48l1.035-4.374l-2.363-2.635L298.15,87.199L298.15,87.199z M301.115,151.449l-2.628-2.247l-2.12,1.526
	l0.297-3.328l-2.289-2.586l2.692,0.148l0.763-3.264l1.356,3.561l2.904,0.594l-2.035,2.077L301.115,151.449L301.115,151.449z
	 M310.591,143.819l-3.35-2.65l-2.967,1.993l0.572-4.24l-2.84-3.031l3.561-0.021c0,0,1.081-4.028,1.166-4.113l1.632,4.346
	l3.858,0.593l-2.841,2.693L310.591,143.819L310.591,143.819z M317.832,134.198l-1.894-1.407l-1.777,1.192l0.41-2.382l-1.64-1.738
	l2.09-0.02l0.761-2.343l0.879,2.402l2.284,0.273l-1.757,1.601L317.832,134.198L317.832,134.198z M475.473,149.738l1.793-4.332
	l1.111,4.104l3.875-0.045l-3.27,3.131l0.52,4.119l-3.025-1.991l-3.633,2.645l1.396-4.393l-2.855-2.614L475.473,149.738
	L475.473,149.738z M421.578,103.543l1.393-3.443l1.336,3.502l3.559,0.27l-2.785,2.302l0.852,3.56l-3.018-1.993l-3.115,1.916
	l0.93-3.502l-2.709-2.36L421.578,103.543L421.578,103.543z M328.389,166.639l-2.681-1.902l-2.343,1.354l0.442-2.967l-2.369-2.24
	l2.864,0.104l0.859-2.812l1.354,3.073l3.02,0.546l-2.109,1.795L328.389,166.639L328.389,166.639z M331.956,155.729l-3.228-2.213
	l-2.89,1.667l0.651-3.541l-2.838-2.682h3.463l1.171-3.462l1.588,3.723l3.619,0.52l-2.682,2.291L331.956,155.729L331.956,155.729z
	 M346.611,180.891l-3.881-2.535l-3.479,1.791l0.684-3.881l-3.539-3.059l4.283,0.162l1.347-3.861l1.951,4.182l4.485,0.686
	l-3.238,2.414L346.611,180.891L346.611,180.891z M346.197,115.002l0.958,3.99l-3.342-2.28l-3.316,2.15l0.881-4.041l-2.954-2.643
	l3.912-0.285l1.503-3.964l1.425,4.016l3.964,0.363L346.197,115.002L346.197,115.002z M379.417,148.413l-2.988-1.914l-3.065,1.816
	l0.859-3.398l-2.695-2.304l3.496-0.176l1.366-3.26l1.348,3.339l3.573,0.273l-2.753,2.284L379.417,148.413z M383.478,154.075
	l0.664-2.538l-2.011-1.66l2.656-0.156l0.976-2.441l1.035,2.499l2.714,0.215l-2.109,1.64l0.664,2.558l-2.285-1.445L383.478,154.075
	L383.478,154.075z M395.267,204.902l-1.648-0.844l-1.746,0.844l0.549-1.465l-1.506-1.057l1.957-0.111l0.746-1.521l0.719,1.549
	l1.985,0.113l-1.549,1.068L395.267,204.902L395.267,204.902z M397.514,173.686l-4.178-2.436l-4.147,2.346l1.202-4.357l-3.787-2.975
	l4.899-0.271l1.893-4.33l1.834,4.418l4.869,0.332l-3.757,2.885L397.514,173.686z M396.971,133.066l1.015,4.12l-3.632-2.304
	l-3.651,2.206l1.035-4.139l-3.222-2.734l4.296-0.254l1.62-4.061l1.601,4.14l4.277,0.253L396.971,133.066L396.971,133.066z
	 M409.682,148.023l-3.554-2.226l-3.651,2.167l1.093-3.963l-3.182-2.695l4.198-0.254l1.679-3.964l1.522,4.003l4.258,0.215
	l-3.338,2.695L409.682,148.023L409.682,148.023z M418.756,181.814l-3.021,1.668l0.963-2.994l-2.523-1.953l3.436-0.285l1.406-3.047
	l1.172,2.969l3.385,0.104l-2.707,2.137l0.678,2.861L418.756,181.814L418.756,181.814z M430.73,196.057l-3.07-1.512l-3.41,1.797
	l1.145-3.123l-2.838-2.006l3.932-0.416l1.721-3.176l1.145,3.1l3.775-0.027l-3.072,2.266L430.73,196.057L430.73,196.057z
	 M441.744,184.914l-2.578-1.432l-2.863,1.744l1.094-2.916l-2.395-1.771l3.227-0.416l1.484-2.916l0.988,2.76l3.125-0.025
	l-2.576,2.082L441.744,184.914z M452.34,200.666l-2.238-0.938l-2.709,1.561l1.094-2.5l-1.979-1.354l2.969-0.572l1.51-2.525
	l0.678,2.291l2.838-0.184l-2.475,1.902L452.34,200.666z M454.006,188.48l0.441,3.02l-2.707-1.404l-3.256,2.029l1.277-3.176
	l-2.525-1.822l3.619-0.572l1.744-3.281l0.938,2.969l3.463-0.156L454.006,188.48z M454.738,178.514l0.428,2.779l-2.418-1.307
	l-2.842,1.793l1.078-2.918l-2.174-1.732l3.162-0.502l1.443-2.947l0.865,2.75l3.039-0.092L454.738,178.514z M465.592,180.186
	l-2.266-1.232l-2.658,1.795l1.049-2.857l-2.006-1.658l2.947-0.529l1.443-2.889l0.775,2.66l2.873-0.168l-2.492,2.145L465.592,180.186
	z M475.807,175.107l-2.432-1.443l-3.025,2.174l1.277-3.404l-2.234-1.916l3.375-0.684l1.596-3.42l0.807,3.146l3.086-0.184
	l-2.723,2.521L475.807,175.107L475.807,175.107z M481.553,166.201l-2.355-1.521l-2.947,2.174l1.184-3.465l-2.232-2.038l3.299-0.639
	l1.551-3.45l0.836,3.222l3.068-0.167l-2.703,2.584L481.553,166.201z M492.133,154.709l-1.84-1.322l-2.312,1.839l0.943-3.01
	l-1.717-1.733l2.553-0.517l1.217-2.994l0.623,2.827l2.371-0.106l-2.037,2.113L492.133,154.709L492.133,154.709z"/>
</svg>
