<svg xmlns="http://www.w3.org/2000/svg" width="140.699" height="26.582"><g fill-rule="evenodd" clip-rule="evenodd"><path d="M88.864 10.651l3.335 1.891.026 3.831-3.306 1.94-3.328-1.891-.028-3.832 3.301-1.939zM85.229 26.582l3.949-2.32-.033-4.582-3.983-2.263-3.954 2.319.036 4.584 3.985 2.262zM77.98 18.57l2.579 1.461.021 2.967-2.557 1.5-2.576-1.464-.021-2.966 2.554-1.498zM71.733 10.671l3.954 2.245.031 4.545-3.92 2.301-3.952-2.245-.033-4.545 3.92-2.301zM75.734 4.574l3.2 1.817.026 3.678-3.173 1.863-3.197-1.818-.026-3.676 3.17-1.864zM85.474 11.892L90.6 8.883l-.043-5.946L85.387 0l-5.131 3.009.044 5.947 5.174 2.936z"/></g><path d="M99.288 4.578v9.895c0 2.989 1.149 4.498 3.118 4.498 2.043 0 3.17-1.432 3.17-4.498V4.578h3.887v9.664c0 5.318-2.687 7.848-7.186 7.848-4.346 0-6.875-2.429-6.875-7.9V4.578h3.886zM112.859 4.578h10.51v3.195h-6.623v3.937h6.188v3.171h-6.188v6.928h-3.887V4.578zM140.699 21.016c-1.203.41-3.477.973-5.75.973-3.146 0-5.422-.793-7.008-2.301-1.559-1.51-2.428-3.758-2.428-6.29.026-5.726 4.191-8.999 9.842-8.999 2.225 0 3.938.438 4.781.82l-.818 3.143c-.945-.436-2.096-.74-3.99-.74-3.244 0-5.725 1.84-5.725 5.572 0 3.58 2.25 5.648 5.445 5.648.869 0 1.585-.1 1.892-.229v-3.629h-2.657V11.94h6.416v9.076z"/><g><path d="M13.121 21.371c-.734.356-2.352.76-4.424.76C3.289 22.131 0 18.743 0 13.537c0-5.613 3.918-9 9.127-9 2.047 0 3.487.43 4.121.757l-.661 2.478c-.808-.353-1.944-.656-3.335-.656-3.462 0-5.963 2.174-5.963 6.269 0 3.767 2.172 6.142 5.939 6.142 1.238 0 2.551-.252 3.386-.605l.507 2.449zM21.412 4.813v17.038h-3.108V4.813h3.108zM30.92 17.024l-1.467 4.827h-3.211l5.463-17.038h3.967l5.537 17.038h-3.364l-1.54-4.827H30.92zm4.877-2.351l-1.338-4.196c-.33-1.037-.607-2.198-.859-3.186h-.052c-.252.987-.532 2.174-.809 3.186l-1.313 4.196h4.371zM46.111 5.066c1.189-.227 2.908-.379 4.703-.379 2.45 0 4.096.406 5.259 1.366.937.782 1.468 1.971 1.468 3.438 0 2.199-1.492 3.689-3.109 4.248v.073c1.238.454 1.972 1.646 2.374 3.287.558 2.122 1.011 4.095 1.341 4.751h-3.185c-.251-.505-.683-1.895-1.14-4.019-.503-2.224-1.285-2.931-3.059-2.981h-1.566v7h-3.086V5.066zm3.086 7.51h1.846c2.098 0 3.389-1.113 3.389-2.807 0-1.846-1.291-2.731-3.314-2.731-.985 0-1.618.077-1.92.151v5.387z"/></g></svg>