
<svg version="1.1" id="Layer_1" xmlns="http://www.w3.org/2000/svg" xmlns:xlink="http://www.w3.org/1999/xlink" x="0px" y="0px"
	 width="734.511px" height="569.63px" viewBox="0 0 734.511 569.63" enable-background="new 0 0 734.511 569.63"
	 xml:space="preserve">
<path class='preenchimento' d="M210.063,189.827c2.471-2.791,4.941-5.583,7.471-8.44c-1.71-3.05-1.898-5.842,1.268-8.754
	c1.507-1.386,1.852-4.072,2.632-6.203c1.307-3.568,2.981-7.074,3.713-10.763c1.492-7.526,7.386-15.155,0.719-21.943
	c1.147-4.875,2.14-9.164,3.177-13.442c0.361-1.49,0.703-3.006,1.28-4.417c1.608-3.926,3.337-7.801,5.319-12.394
	c1.16-0.192,3.277-0.542,6.324-1.046c-0.754-4.819-1.508-9.642-2.248-14.381c4.682-7.595-0.586-15.182,0.226-23.791
	c7.802-0.191,7.629-7.935,9.021-13.594c1.146-4.65,0.392-8.917,6.451-11.141c1.813-0.666,6.26-5.528,3.615-9.857
	c5.055-5.391,8.5-10.604,6.994-18.818c-0.863-4.719-2.588-10.696,2.127-15.199c0.196-0.188-0.773-1.597-0.562-1.183
	c1.748-3.237,3.428-5.606,4.375-8.239c3.317-9.217,5.381-19.04,9.814-27.658c4.846-9.422,19.309-22.267,30.079-26.062
	c-7.529,2.549-9.494,6.835-6.955,15.174c-6.531,7.009-10.521,18.182-9.441,26.89c3.869,1.936,7.791,4.298,12.004,5.902
	c5.346,2.036,10.82,4.113,16.428,5.008c12.173,1.944,21.238,9.904,31.535,15.413c9.74,5.209,18.963,11.381,28.543,16.903
	c2.824,1.627,5.541,0.966,6.285-0.872c0-6.274,0-10.896,0-16.067c8.629-7.696,8.256-23.287,22.23-27.689
	c1.155,1.284,3.057,3.389,5.153,5.712c-0.459,0.918-0.963,1.931-1.891,3.794c2.479,0.168,4.59,0.312,7.738,0.527
	c0.539,0.681,1.826,2.309,3.313,4.195c3.847-5.046,7.396-9.708,11.203-14.709c4.23,3.898,8.508,7.843,13.271,12.234
	c0.256,1.749,0.598,4.103,0.967,6.638c2.881,0.357,5.215,0.646,7.496,0.929c3.231,4.926,7.442,9.092,6.639,15.917
	c-0.32,2.708,2.156,5.747,3.254,8.381c-1.961,2.203-3.567,4.008-5.176,5.813c0.656,0.5,1.311,1.001,1.965,1.501
	c0.746-1.448,1.49-2.896,2.234-4.344c0.633-1.264,2.33-10.286,3.215-11.335c0.992-1.177,2.396-2.005,4.104-3.372
	c1.05,6.083,1.855,10.777,2.796,16.235c10.524-5.207,20.17-9.977,30.03-14.856c0,6.167,0,11.021,0,15.874
	c3.961-2.691,10.023-2.078,9.804-8.237c3.213,1.798,6.426,6.126,8.129,7.08c6.039,1.077,10.569,1.885,16.42,2.929
	c3.479,3.48,8.117,8.117,13.047,13.047c1.926-2.812,3.809-5.562,5.598-8.172c-3.393-3.941-6.209-7.601-1.887-11.974
	c-3.564-6.444-2.654-10.629,2.6-14.654c1.998,0.692,3.763,1.302,4.447,1.541c0.689,2.987,1.17,5.08,1.738,7.54
	c2.244-0.714,3.895-1.24,5.885-1.873c1.959,2.935,3.842,6.055,6.107,8.864c0.395,0.49,2.403-0.322,3.67-0.533l1.264,1.897
	c0.652-0.1,1.305-0.199,2.258-0.345c-1.521-1.206-2.684-2.124-3.844-3.042c1.697-0.917,2.938-0.759,4.108-0.388
	c3.921,1.238,7.354,2.736,10.425-2.365c1.18-1.959,5.766-1.868,8.799-2.71c0.242,0.63,0.486,1.26,0.729,1.891
	c9.58-5.267,19.158-10.534,28.738-15.801l3.16-0.632c1.477-1.475,2.69-3.525,4.471-4.331c10.01-4.527,20.623-6.159,31.416-5.054
	c2.236-4.326,4.148-8.019,6.072-11.742c1.945,1.016,3.44,1.798,5.145,2.687c0,4.346,0,8.563,0,12.972
	c4.295-1.167,7.648-2.08,11.004-2.991c-0.11,0.539-0.223,1.078-0.334,1.618c2.238,0.805,5.232,2.912,6.56,2.143
	c2.69-1.562,8.723-0.436,7.006-7.104c-3.988,1.412-7.945,2.813-11.904,4.215l-0.633,2.529c-2.27,3.403-4.537,6.807-7.188,10.783
	c4.215,7.072-3.558,17.521,6.03,24.108c6.435-2.625,12.923-5.272,19.683-8.031c3.485,6.834-3.943,7.417-6.217,10.163
	c-2.324,2.804-7.363,3.357-11.591,5.044c0.978,1.882,1.711,3.303,2.265,4.371c-0.945,3.432-1.814,6.586-2.828,10.263
	c2.979,0.555,5.578,1.037,9.377,1.744c-4.033,3.728-7.195,6.652-10.359,9.577c0.414,0.196,0.828,0.393,1.244,0.589
	c-0.561,1.788-1.119,3.575-1.68,5.362l1.896,0.633c0.021,1.378-1.51,3.821-3.457,5.278c1.25,1.748,2.502,3.502,3.812,5.332
	c-1.111,2.702-2.123,5.161-3.125,7.597c1.121,4.254,8.338,6.379,4.037,12.141l-3.162,1.264c0.844,0,1.686,0,2.824,0
	c-0.545,1.336-1.045,2.569-1.548,3.803c7.519,5.43,7.519,5.43,10.494,5.135c5.906,4.704,11.31,9.006,17.148,13.659
	c1.398,2.076,3.262,4.84,5.559,8.246c-0.541,0.898-1.657,2.759-2.85,4.744c-1.891,0.358-3.799,0.721-5.707,1.084
	c0.631,6.744,0.588,9.699,1.281,16.437c0.406,3.948-0.769,7.003-4.582,8.601c4.318,7.811,1.977,16.118-5.557,23.651
	c-4.4,0.838-7.318,1.393-10.757,2.046c-2.26-0.564-5.227-1.341-8.209-2.042c-2.918-0.686-2.325-2.544-2.938-4.962
	c-1.517-5.974-6.928-9.626-12.234-12.746c-1.805-1.06-3.639-2.067-6.19-3.513c-2.007,2.369-4.619,5.454-7.599,8.97
	c5.021,2.994,6.719,6.049,3.131,10.417c-0.809,0.984-0.973,3-0.627,4.33c0.818,3.144,2.123,6.16,3.121,8.928
	c-6.408,6.646-12.442,6.4-19.072,1.922c-2.854-1.931-6.295-4.265-9.426-4.205c-4.358,0.084-8.68,2.246-13.016,3.519
	c-0.301,0.836-0.603,1.672-0.9,2.508c2.107,0.843,4.215,1.688,6.359,2.543c-2.688,5.199-4.596,8.89-6.445,12.47
	c3.695,3.455,7.293,6.819,11.244,10.516c-3.186,3.484-5.699,6.234-8.979,9.822c-0.781,3.193-1.861,7.611-2.988,12.213
	c9.217,8.703,13.861,19.361,13.422,32.563c-9.197,2.601-18.557,5.245-28.674,8.104c-0.967-0.431-2.783-1.235-5.17-2.292
	c-2.599,2.57-5.037,4.986-7.125,7.05c-2.908,0.645-5.611,1.248-8.314,1.848h-2.529c-1.686-1.688-3.37-3.371-5.194-5.195
	c0.838-1.225,1.694-2.479,2.771-4.046c-2.053-4.26-2.166-8.703,1.146-12.896c2.916-3.693,3.266-7.462,1.518-12.092
	c-0.924-2.441,0.607-5.811,0.859-7.577c-4.178-3.415-7.873-6.437-11.57-9.459c0.33-0.509,0.658-1.017,0.988-1.525
	c-25.711,0-51.422,0-77.211,0c-1.9,5.183,1.735,11.218-3.084,15.49l-1.898,0.626c1.476,2.318,3.572,4.469,4.26,7
	c0.771,2.838,0.252,5.838-3.596,7.014c-1.586,0.484-2.82,2.123-2.742,3.623c0.334,6.986,0.666,13.975,1,20.932
	c31.222,0,62.623,0,94.244,0c0.129,0.242,0.566,1.078,1.162,2.219c-1.283,2.051-2.686,4.289-4.086,6.525
	c0.822,3.523,1.611,6.906,2.645,11.342c-4.284,7.279-9.069,15.416-14.051,23.877c2.045,4.979,5.377,8.189,10.799,10.719
	c6.076,2.83,11.293,7.436,12.373,15.471c0.783,5.84,3.406,11.475,5.547,17.07c0.998,2.609,2.795,4.912,4.82,8.359
	c-7.397,5.582-14.463,10.912-21.529,16.244c-5.914,4.988-6.096,15.068-15.557,17.195c-1.338,1.627-2.674,3.26-3.854,4.691
	c1.221,4.746,2.364,9.207,3.575,13.916c5.494,0,10.765,0,16.779,0c3.936,3.137,7.385,7.209,6.062,13.676
	c-7.755,2.611-4.31,12.285-10.205,16.5c2.653,6.93,5.328,13.91,8.428,21.998c-6.275,4.508-12.752,9.969-20.81,13.34
	c-3.979,1.666-7.932,3.75-11.266,6.432c-1.422,1.145-1.234,4.293-2.092,7.832c-4.697,2.543-10.828,5.861-16.959,9.184
	c-0.117-0.266-0.234-0.533-0.353-0.799c-4.655,2.707-9.312,5.414-14.051,8.17c-5.555-4.91-10.654-9.885-17.121-8.242
	c-3.42-2.277-5.896-3.928-8.373-5.578l1.267-2.529c-1.045,0.432-2.092,0.861-3.521,1.451c-2.35-1.832-5.731,0.285-7.646,1.709
	c-5.486,0-9.521,0.33-13.479-0.094c-3.84-0.41-7.59-1.623-11.393-2.422c-2.308-0.486-5.299-1.979-6.83-1.068
	c-4.742,2.809-9.721,1.961-14.658,2.396c-1.938,0.17-3.799,1.188-5.697,1.818l-0.631-1.266c-7.559-6.613-7.143-5.928-15.36-0.938
	c-3.757,2.277-7.379,9.094-13.312,3.906c-2.895,1.326-5.387,2.469-6.941,3.182c-1.809,3.602-2.771,7.158-5.006,9.51
	c-2.239,2.359-7.098,2.84-8.369,5.369c-1.784,3.553-3.418,6.309-7.864,7.873c-3.658-5.027-7.306-10.037-11.111-15.27
	c-6.213,6.84-15.49,9.473-24.865,11.75c-0.967,1.129-1.936,2.258-2.131,2.486c-8.817-1.285-16.606-2.422-24.006-3.5
	c-1.461,2.877-2.443,4.811-2.93,5.768c-9.072,1.01-17.308,1.924-24.029,2.672c-6.07,8.617-11.049,15.686-16.214,23.016
	c-1.374,0.35-3.133,0.793-4.95,1.252c3.047,7.836,2.021,13.229-4.337,17.395c-4.601,3.02-10.174,4.51-15.021,7.207
	c-2.327,1.295-3.977,3.809-5.932,5.77c0.262,0.35,0.521,0.699,0.783,1.049c-2.492,2.369-7.639,1.604-7.219,7.631
	c0.221,3.193-2.545,6.594-3.93,9.822c1.721,2.145,3.143,3.92,4.709,5.875c-8.805,1.578-14.989-1.82-19.586-9.316
	c-1.971-3.213-4.996-6.094-8.164-8.188c-6.871-4.543-15.682-3.578-22.935-8.609c-6.646-4.607-15.354-6.24-23.544-9.332
	c-7.104,4.76-12.438-1.549-18.561-3.695c-7.071-2.479-13.399-6.199-17.926-11.693c-11.74,2.072-18.328-5.281-26.356-12.811
	c-3.051-0.451-7.439-1.102-11.827-1.75c-0.31,0.545-0.617,1.092-0.927,1.637c-4.352-5.123-8.701-10.248-13.611-16.031
	c-2.072-0.414-5.945-2.516-8.254-1.393c-5.775,2.809-11.473,1.416-17.211,1.604c-10.641,0.354-19.688-2.205-23.646-13.291
	c3.317-3.914,6.805-8.021,10.018-11.811c3.568-1.742,7.042-3.439,10.516-5.137c-0.033-0.693-0.066-1.395-0.099-2.094
	c-2.087-1.66-4.175-3.316-6.263-4.979c-0.07,0.395-0.144,0.793-0.215,1.188c-4.402-0.811-8.805-1.627-13.604-2.514
	c-1.318,0.988-3.247,2.416-5.156,3.867c-4.708,3.58-8.621,1.967-9.516-3.791c-0.692-4.449-1.854-8.83-2.43-13.291
	c-0.373-2.902-0.069-5.891-0.069-9.23c1.647-0.57,3.409-1.18,6.657-2.305c-6.434-11.117-6.283-24.893-18.039-34.047
	c0-4.777-0.492-10.941,0.141-16.986c0.625-5.969,4.826-12.688,3.1-17.52c-2.783-7.787,7.652-10.562,4.558-16.342
	c3.549-4.613,6.735-8.756,9.922-12.898c-0.349-0.121-0.697-0.242-1.046-0.363c2.044-6.553,4.088-13.104,6.132-19.658
	c0.634,0.416,1.269,0.834,1.899,1.252c1.881-1.344,3.764-2.688,5.646-4.029l-1.897-2.529c2.516,1.615,4.307,0.094,6.354-1.213
	c3.168-2.021,6.55-3.709,10.424-5.861c2.031-4.277,4.418-9.301,6.511-13.711c3.315-1.668,6.262-3.152,7.932-3.994
	c1.471-3.625,2.396-5.91,3.443-8.488c-2.938-3.523-6.125-7.346-10.146-12.168c3.639-2.9,6.51-5.465,9.656-7.625
	c3.312-2.271,6.478-4.236,7.121-8.873c0.229-1.648,2.5-3.498,4.273-4.355c5.35-2.588,10.911-4.734,15.614-6.727
	c3.569-6.428,6.815-12.277,10.36-18.662c7.896,0,15.911,0,23.926,0c3.889-7.484,4.864-8.094,10.903-6.057
	c4.262-5.629,8.819-11.394,13.008-17.414c0.791-1.137,0.734-3.648,0.008-4.918c-3.256-5.69-1.137-8.642,5.099-9.83
	c0.822-6.371,1.608-12.455,2.595-20.092c0.881-2.824,2.269-7.277,3.36-10.785c4.354-4.33,8.265-8.217,10.483-10.423
	c5.799-3.69,9.689-6.166,13.873-8.828c0.56,0.415,1.541,1.145,2.619,1.944c1.886-1.511,3.658-2.932,5.664-4.541
	c1.15,2.4,2.088,4.354,3.428,7.145c4.021-1.61,7.847-4.22,11.8-4.433"/>


<path class='borda' d="M239.308,639.628c-7.333,0.002-13.117-3.594-17.595-10.896c-1.671-2.723-4.304-5.355-7.411-7.408
	c-2.959-1.957-6.452-2.797-10.149-3.686c-4.279-1.027-8.704-2.092-12.832-4.955c-4.28-2.969-9.588-4.646-15.206-6.424
	c-2.181-0.689-4.424-1.398-6.646-2.201c-5.927,3.256-10.985,0.434-15.098-1.863c-1.578-0.881-3.068-1.713-4.557-2.234
	c-7.617-2.67-13.696-6.494-18.092-11.377c-11.222,1.385-18.048-5.102-25.259-11.947c-0.413-0.393-0.828-0.785-1.246-1.182
	l-9.354-1.383l-0.083,0.146c-0.403,0.709-1.127,1.178-1.939,1.254c-0.821,0.082-1.612-0.246-2.141-0.869l-13.097-15.426
	c-0.495-0.146-1.013-0.324-1.549-0.51c-1.135-0.393-3.496-1.209-4.221-0.859c-4.767,2.318-9.317,2.125-13.712,1.936
	c-1.561-0.066-3.035-0.129-4.511-0.08c-8.815,0.293-21.081-0.945-26.083-14.951c-0.3-0.84-0.13-1.775,0.447-2.457l10.018-11.811
	c0.224-0.266,0.5-0.479,0.811-0.631l8.526-4.164l-2.782-2.211c-0.373,0.109-0.77,0.133-1.162,0.061l-12.528-2.316l-0.508,0.379
	c-1.123,0.84-2.444,1.824-3.756,2.822c-3.002,2.283-6.068,2.973-8.639,1.936c-2.561-1.031-4.287-3.637-4.861-7.33
	c-0.299-1.924-0.701-3.896-1.09-5.803c-0.5-2.451-1.018-4.988-1.349-7.555c-0.279-2.176-0.217-4.295-0.149-6.539
	c0.029-0.975,0.06-1.975,0.06-3.012c0-1.064,0.675-2.012,1.681-2.361l3.904-1.352c-1.648-3.4-2.846-6.939-4.012-10.387
	c-2.584-7.639-5.025-14.855-11.991-20.279c-0.608-0.473-0.964-1.201-0.964-1.973c0-1.355-0.041-2.824-0.083-4.371
	c-0.108-3.941-0.23-8.408,0.237-12.875c0.268-2.557,1.086-5.111,1.877-7.582c1.096-3.428,2.132-6.662,1.354-8.836
	c-1.91-5.346,0.929-8.951,3.001-11.586c1.937-2.461,2.339-3.236,1.707-4.418c-0.464-0.867-0.377-1.926,0.223-2.705l8.467-11.006
	c-0.143-0.465-0.151-0.977,0.004-1.475l6.132-19.658c0.233-0.748,0.806-1.346,1.544-1.609c0.735-0.264,1.558-0.168,2.215,0.264
	l0.471,0.311l2.166-1.547l-0.361-0.48c-0.726-0.971-0.654-2.316,0.169-3.203c0.825-0.887,2.164-1.057,3.183-0.4
	c0.769,0.494,1.067,0.479,3.047-0.82l0.611-0.396c2.272-1.449,4.639-2.727,7.144-4.08c0.878-0.475,1.78-0.961,2.712-1.473
	l6.165-12.982c0.239-0.504,0.638-0.912,1.135-1.162l7.092-3.57l2.527-6.229l-9.187-11.018c-0.431-0.518-0.636-1.186-0.567-1.854
	c0.068-0.67,0.403-1.283,0.929-1.703c1.151-0.916,2.225-1.801,3.254-2.646c2.219-1.826,4.314-3.553,6.546-5.084l0.451-0.309
	c3.287-2.246,5.168-3.67,5.608-6.848c0.416-2.984,3.755-5.34,5.662-6.264c3.951-1.91,8.076-3.609,11.716-5.109
	c1.104-0.455,2.181-0.898,3.22-1.334l9.941-17.908c0.44-0.794,1.277-1.286,2.186-1.286H125.1c3.452-6.379,5.64-8.071,11.475-6.461
	c0.739-0.971,1.486-1.946,2.236-2.926c3.225-4.21,6.559-8.565,9.653-13.012c0.194-0.38,0.179-1.743-0.11-2.249
	c-1.919-3.354-2.341-6.25-1.255-8.609c0.979-2.126,3.036-3.608,6.267-4.504l2.372-18.37c0.019-0.144,0.05-0.286,0.093-0.424
	l3.36-10.784c0.121-0.389,0.335-0.742,0.624-1.03l10.483-10.423c0.128-0.127,0.269-0.24,0.421-0.336l13.873-8.828
	c0.872-0.555,1.998-0.516,2.831,0.102l1.071,0.795l4.158-3.334c0.596-0.478,1.378-0.656,2.119-0.487
	c0.744,0.169,1.37,0.669,1.699,1.357l2.381,4.961c0.45-0.213,0.906-0.434,1.372-0.659c2.49-1.206,5.054-2.447,7.8-2.871
	c0.052-0.074,0.108-0.145,0.169-0.214l6.373-7.2c-1.521-3.804-0.669-7.221,2.545-10.177c0.57-0.524,0.977-1.936,1.335-3.18
	c0.193-0.671,0.394-1.364,0.642-2.042c0.372-1.016,0.773-2.027,1.175-3.039c1.003-2.527,1.95-4.915,2.434-7.351
	c0.426-2.149,1.16-4.245,1.871-6.271c2.072-5.914,3.158-9.726-0.483-13.434c-0.602-0.612-0.847-1.49-0.65-2.325l0.913-3.892
	c0.783-3.341,1.514-6.457,2.268-9.567l0.097-0.401c0.346-1.432,0.702-2.914,1.3-4.373c1.148-2.804,2.37-5.61,3.663-8.581
	c0.539-1.237,1.096-2.517,1.675-3.857c0.337-0.781,1.048-1.337,1.887-1.476l3.88-0.642l-1.865-11.933
	c-0.092-0.588,0.029-1.19,0.342-1.698c2.364-3.836,1.618-7.82,0.755-12.434c-0.608-3.246-1.237-6.603-0.891-10.28
	c0.119-1.261,1.162-2.234,2.428-2.265c4.014-0.098,4.909-2.663,5.995-8.491c0.198-1.06,0.402-2.156,0.659-3.2
	c0.212-0.858,0.358-1.744,0.501-2.601c0.592-3.572,1.329-8.019,7.517-10.29c0.518-0.235,2.067-1.721,2.611-3.487
	c0.314-1.021,0.227-1.91-0.269-2.719c-0.586-0.959-0.459-2.193,0.31-3.013c4.987-5.318,7.626-9.749,6.359-16.658
	c-0.077-0.421-0.161-0.852-0.246-1.291c-0.836-4.289-1.954-10.025,1.874-14.825c-0.252-0.833-0.071-1.762,0.477-2.42
	c0.497-0.9,0.985-1.736,1.452-2.532c1.037-1.774,1.934-3.307,2.489-4.851c1.122-3.119,2.124-6.389,3.092-9.552
	c1.89-6.173,3.844-12.556,6.853-18.403c4.906-9.54,18.04-21.335,28.797-26.197c0.825-0.396,1.727-0.759,2.701-1.09
	c1.304-0.44,2.717,0.252,3.165,1.552c0.448,1.299-0.235,2.717-1.531,3.174c-0.808,0.284-1.645,0.628-2.502,1.026
	c-4.048,2.061-4.715,5.079-2.894,11.062c0.26,0.853,0.046,1.78-0.562,2.432c-5.746,6.167-9.365,15.868-8.907,23.585
	c0.781,0.405,1.564,0.822,2.354,1.241c2.648,1.408,5.388,2.864,8.176,3.925c5.184,1.975,10.543,4.016,15.932,4.876
	c9.167,1.464,16.591,6.105,23.771,10.593c2.782,1.739,5.658,3.538,8.552,5.085c5.865,3.137,11.61,6.659,17.166,10.065
	c3.736,2.291,7.602,4.66,11.444,6.876c1.092,0.628,1.99,0.677,2.472,0.511c0.022-0.008,0.046-0.017,0.065-0.025V0.853
	c0-0.712,0.305-1.392,0.836-1.866c3.015-2.688,4.866-6.621,6.827-10.785c3.186-6.761,6.795-14.424,16.316-17.423
	c0.933-0.293,1.954-0.016,2.607,0.711l5.152,5.71c0.688,0.764,0.841,1.873,0.381,2.793l-0.218,0.436l3.999,0.272
	c0.703,0.048,1.354,0.39,1.79,0.943l1.317,1.668c3.117-4.09,6.097-8.001,9.25-12.145c0.428-0.56,1.069-0.915,1.771-0.976
	c0.7-0.06,1.396,0.174,1.914,0.652l13.27,12.234c0.422,0.388,0.696,0.909,0.779,1.476l0.692,4.753L460.047-10
	c0.729,0.09,1.38,0.496,1.782,1.109c0.564,0.862,1.163,1.699,1.756,2.533c2.835,3.983,6.048,8.497,5.275,15.049
	c-0.018,0.142-0.016,0.295,0.004,0.458c0.382-1.22,0.7-1.879,1.095-2.347c0.858-1.019,1.883-1.777,2.967-2.58
	c0.463-0.343,0.961-0.71,1.488-1.132c0.69-0.553,1.621-0.699,2.448-0.385s1.427,1.041,1.577,1.913l2.227,12.933l27.027-13.37
	c0.771-0.383,1.691-0.339,2.427,0.117s1.182,1.259,1.182,2.124v11.924c0.234-0.086,0.465-0.17,0.69-0.251
	c3.405-1.229,4.192-1.742,4.114-3.946c-0.032-0.902,0.425-1.752,1.194-2.223c0.771-0.47,1.735-0.488,2.523-0.048
	c2.171,1.214,4.209,3.285,5.847,4.948c0.657,0.667,1.516,1.538,2.021,1.946l15.899,2.836c0.503,0.09,0.967,0.332,1.329,0.693
	l10.917,10.918l2.821-4.119c-2.573-3.173-5.313-7.641-1.738-12.482c-3.15-6.672-1.859-11.745,4.068-16.287
	c0.666-0.511,1.544-0.652,2.339-0.378l4.451,1.542c0.812,0.282,1.421,0.961,1.612,1.798l1.129,4.897l3.302-1.05
	c1.06-0.337,2.218,0.067,2.837,0.995c0.498,0.746,0.991,1.504,1.486,2.266c1.125,1.728,2.279,3.503,3.52,5.167
	c0.2-0.593,0.618-1.098,1.182-1.403c2.572-1.39,4.587-1.036,6.054-0.572l0.717,0.229c3.841,1.237,5.026,1.462,6.811-1.5
	c1.413-2.347,4.458-2.823,7.402-3.283c1.06-0.166,2.06-0.322,2.869-0.546c0.963-0.269,1.966,0.068,2.58,0.796l26.352-14.488
	c0.223-0.123,0.464-0.21,0.714-0.261l2.376-0.475c0.231-0.261,0.467-0.541,0.71-0.83c1.064-1.265,2.271-2.699,4.003-3.484
	c9.79-4.427,20.216-6.245,30.999-5.416l5.302-10.25c0.305-0.591,0.833-1.036,1.467-1.236c0.632-0.201,1.32-0.141,1.911,0.168
	l5.145,2.687c0.825,0.431,1.343,1.285,1.343,2.216v9.702l7.85-2.133c0.806-0.218,1.664-0.021,2.292,0.522l10.76-3.81
	c0.659-0.235,1.39-0.18,2.009,0.15s1.071,0.904,1.246,1.583c0.635,2.464,0.482,4.425-0.465,5.996
	c-1.36,2.253-3.895,2.854-5.743,3.293c-0.771,0.183-1.568,0.372-1.964,0.601c-1.628,0.944-3.424,0.436-5.22-0.364l-5.872,8.81
	c1.306,3.162,1.038,6.552,0.777,9.845c-0.398,5.048-0.477,8.438,2.751,11.223l18.357-7.49c1.203-0.491,2.581,0.021,3.171,1.178
	c3.566,6.991-1.57,9.878-4.331,11.43c-0.854,0.48-1.823,1.025-2.187,1.464c-2.088,2.519-5.47,3.527-8.739,4.502
	c-0.405,0.121-0.815,0.243-1.225,0.369L704,36.592c0.289,0.559,0.356,1.206,0.188,1.813l-2.104,7.639l6.7,1.246
	c0.93,0.173,1.683,0.856,1.944,1.765c0.263,0.909-0.011,1.887-0.704,2.529l-8.382,7.748c0.104,0.427,0.095,0.885-0.046,1.33
	l-0.959,3.06c0.774,0.428,1.277,1.244,1.29,2.152c0.025,1.843-1.165,3.978-2.65,5.64l2.538,3.551c0.501,0.7,0.605,1.609,0.278,2.405
	l-2.742,6.666c0.396,0.702,1.089,1.446,1.812,2.224c2.056,2.208,5.478,5.883,1.692,11.175c-0.003,0.314-0.062,0.63-0.187,0.93
	l-0.806,1.981c5.171,3.724,5.331,3.711,7.191,3.525c0.646-0.062,1.295,0.127,1.805,0.532l17.147,13.66
	c0.199,0.159,0.373,0.347,0.517,0.558l5.558,8.245c0.544,0.807,0.571,1.855,0.069,2.688l-2.849,4.741
	c-0.367,0.611-0.978,1.037-1.679,1.17l-3.483,0.661c0.175,2.098,0.284,3.838,0.394,5.535c0.165,2.604,0.322,5.063,0.688,8.612
	c0.533,5.183-1.438,8.168-3.808,9.886c3.253,7.963,0.803,16.537-7.051,24.39c-0.354,0.354-0.809,0.594-1.301,0.688l-10.757,2.046
	c-0.354,0.068-0.722,0.057-1.071-0.03l-2.179-0.55c-1.832-0.465-3.911-0.993-5.998-1.484c-3.893-0.915-4.303-3.748-4.549-5.439
	c-0.065-0.464-0.13-0.902-0.241-1.341c-1.291-5.089-6.181-8.326-11.078-11.206c-1.186-0.696-2.385-1.37-3.798-2.163l-0.555-0.313
	l-4.462,5.269c1.726,1.352,3.329,3.146,3.735,5.48c0.396,2.263-0.406,4.629-2.382,7.033c-0.184,0.277-0.331,1.371-0.139,2.114
	c0.551,2.119,1.354,4.221,2.132,6.254c0.32,0.836,0.634,1.655,0.921,2.454c0.323,0.896,0.109,1.898-0.552,2.583
	c-6.799,7.049-14.083,7.791-22.271,2.258c-2.503-1.694-5.584-3.778-7.906-3.778c-0.024,0-0.049,0-0.072,0
	c-2.646,0.051-5.406,1.032-8.331,2.071c-0.444,0.158-0.896,0.318-1.35,0.477l3.003,1.201c0.655,0.262,1.169,0.788,1.416,1.448
	c0.246,0.661,0.202,1.395-0.122,2.021l-5.576,10.789l9.862,9.223c1,0.936,1.062,2.502,0.137,3.513l-8.547,9.35l-2.496,10.202
	c9.163,9.146,13.586,20.39,13.152,33.443c-0.037,1.087-0.771,2.027-1.818,2.323l-28.675,8.104c-0.562,0.158-1.161,0.115-1.695-0.121
	l-3.607-1.602l-5.913,5.852c-0.335,0.332-0.756,0.562-1.215,0.664l-6.946,1.543l0.427,0.814c0.412,0.787,0.376,1.73-0.096,2.484
	l-3.534,5.646l2.408,10.326c0.146,0.625,0.046,1.283-0.28,1.836L580.65,338.9c1.791,3.684,4.56,6.203,9.047,8.295
	c8.108,3.775,12.75,9.633,13.795,17.402c0.589,4.395,2.373,8.865,4.099,13.191c0.442,1.107,0.883,2.215,1.307,3.32
	c0.573,1.502,1.495,2.949,2.663,4.785c0.617,0.973,1.284,2.021,1.978,3.199c0.644,1.096,0.364,2.498-0.649,3.262l-21.472,16.201
	c-1.88,1.609-3.147,3.984-4.491,6.498c-2.307,4.32-4.907,9.193-11.219,10.971l-2.528,3.076l2.777,10.809h14.841
	c0.566,0,1.115,0.191,1.56,0.545c3.784,3.018,8.622,7.971,6.953,16.131c-0.18,0.873-0.809,1.584-1.651,1.869
	c-2.813,0.947-3.479,3.102-4.409,6.826c-0.675,2.697-1.424,5.695-3.638,8.033l7.806,20.375c0.407,1.061,0.047,2.264-0.876,2.926
	c-1.229,0.885-2.469,1.805-3.726,2.74c-5.325,3.959-10.832,8.053-17.576,10.875c-4.368,1.828-7.856,3.814-10.664,6.072
	c-0.194,0.291-0.409,1.752-0.566,2.82c-0.159,1.092-0.342,2.33-0.661,3.65c-0.167,0.688-0.617,1.271-1.239,1.609l-16.959,9.186
	c-0.615,0.332-1.341,0.393-2.001,0.166c-0.002,0-0.004-0.002-0.007-0.002l-12.328,7.168c-0.931,0.541-2.105,0.426-2.913-0.287
	l-0.94-0.836c-4.878-4.334-9.086-8.078-13.909-6.855c-0.684,0.176-1.41,0.049-2.001-0.344l-8.38-5.576
	c-0.271-0.182-0.499-0.408-0.675-0.666c-0.603,0.047-1.231-0.131-1.732-0.52c-0.534-0.42-2.029-0.184-4.614,1.742
	c-0.433,0.32-0.955,0.494-1.493,0.494c-1.761,0-3.368,0.035-4.872,0.066c-3.241,0.068-6.039,0.129-8.872-0.174
	c-2.702-0.289-5.323-0.939-7.856-1.57c-1.246-0.309-2.533-0.629-3.785-0.893c-0.781-0.164-1.578-0.412-2.35-0.65
	c-0.856-0.266-2.265-0.697-2.795-0.652c-4.046,2.355-8.233,2.443-11.931,2.52c-1.276,0.025-2.481,0.051-3.681,0.156
	c-0.965,0.084-2.059,0.521-3.216,0.982c-0.635,0.254-1.271,0.506-1.909,0.719c-1.183,0.395-2.473-0.141-3.027-1.256l-0.41-0.822
	c-2.321-2.029-4.305-3.729-5.326-3.869c-0.851-0.111-2.473,0.896-4.95,2.424c-0.543,0.336-1.131,0.697-1.771,1.086
	c-0.724,0.438-1.547,1.191-2.419,1.99c-2.668,2.439-7.002,6.406-12.521,2.682l-4.755,2.178c-0.386,0.82-0.741,1.646-1.087,2.451
	c-1.093,2.545-2.126,4.949-3.963,6.883c-1.367,1.439-3.25,2.266-4.911,2.992c-1.16,0.508-2.749,1.205-3.037,1.777
	c-1.953,3.887-3.998,7.256-9.269,9.109c-1.047,0.367-2.202,0.004-2.853-0.889l-9.402-12.922c-6.26,5.561-14.516,8.041-23.178,10.168
	l-1.607,1.877c-0.56,0.65-1.408,0.969-2.259,0.846l-22.229-3.24l-2.118,4.17c-0.382,0.75-1.115,1.256-1.951,1.35l-22.91,2.549
	l-15.565,22.096c-0.344,0.486-0.851,0.838-1.429,0.982l-2.324,0.588c2.277,7.809,0.269,13.482-6.208,17.729
	c-2.772,1.816-5.819,3.098-8.767,4.334c-2.264,0.951-4.402,1.848-6.408,2.965c-1.221,0.68-2.326,1.947-3.496,3.289
	c-0.162,0.186-0.326,0.373-0.493,0.561c0.295,0.896,0.064,1.912-0.653,2.596c-1.13,1.072-2.486,1.633-3.684,2.125
	c-2.188,0.898-2.924,1.205-2.763,3.52c0.203,2.941-1.33,5.719-2.683,8.17c-0.282,0.51-0.557,1.008-0.808,1.49l3.727,4.648
	c0.552,0.688,0.699,1.613,0.39,2.439c-0.311,0.826-1.032,1.428-1.899,1.582C242.287,639.486,240.767,639.628,239.308,639.628z
	 M169.201,598.796c0.298,0,0.597,0.053,0.883,0.16c2.468,0.932,5.045,1.746,7.538,2.535c5.726,1.811,11.646,3.684,16.548,7.082
	c3.357,2.33,7.144,3.238,11.151,4.203c3.955,0.949,8.045,1.934,11.737,4.375c3.704,2.447,6.871,5.633,8.916,8.965
	c3.375,5.506,7.349,8.234,12.541,8.492l-1.745-2.18c-0.578-0.721-0.711-1.699-0.348-2.549c0.478-1.113,1.079-2.203,1.661-3.258
	c1.069-1.936,2.174-3.938,2.072-5.408c-0.412-5.91,3.507-7.523,5.848-8.488c0.198-0.08,0.395-0.16,0.585-0.242
	c-0.032-0.684,0.214-1.369,0.727-1.885c0.55-0.553,1.086-1.168,1.653-1.816c1.401-1.605,2.85-3.268,4.833-4.371
	c2.247-1.25,4.615-2.244,6.904-3.205c2.865-1.203,5.571-2.34,7.961-3.906c5.148-3.373,6.096-7.41,3.378-14.398
	c-0.26-0.668-0.221-1.414,0.108-2.053c0.328-0.637,0.915-1.102,1.609-1.277l4.052-1.023l15.681-22.26
	c0.412-0.584,1.056-0.965,1.768-1.045l22.688-2.523l2.317-4.562c0.486-0.957,1.527-1.502,2.591-1.342l22.644,3.301l1.233-1.439
	c0.341-0.396,0.799-0.68,1.31-0.803c9.204-2.236,17.936-4.76,23.604-11.002c0.506-0.557,1.213-0.861,1.985-0.814
	c0.751,0.041,1.443,0.418,1.887,1.025l9.93,13.646c2.327-1.281,3.425-3.182,4.792-5.902c1.097-2.184,3.435-3.207,5.497-4.111
	c1.288-0.562,2.62-1.146,3.293-1.855c1.221-1.285,2.043-3.197,2.994-5.412c0.483-1.127,0.984-2.293,1.59-3.498
	c0.256-0.508,0.677-0.914,1.192-1.15l6.941-3.182c0.896-0.41,1.947-0.256,2.687,0.391c2.562,2.24,3.851,1.451,7.172-1.588
	c1.012-0.924,2.058-1.881,3.198-2.574c0.629-0.381,1.206-0.736,1.741-1.066c7.51-4.633,8.904-4.441,16.563,2.262
	c0.021,0.02,0.045,0.041,0.066,0.061c1.316-0.521,2.794-1.084,4.396-1.225c1.364-0.121,2.711-0.148,4.014-0.176
	c3.416-0.07,6.644-0.137,9.589-1.881c2.039-1.213,4.527-0.441,6.722,0.238c0.69,0.215,1.345,0.416,1.897,0.533
	c1.34,0.281,2.672,0.613,3.961,0.934c2.479,0.615,4.821,1.197,7.184,1.449c2.515,0.27,5.166,0.213,8.233,0.148
	c1.304-0.029,2.686-0.059,4.172-0.066c3.934-2.713,6.727-2.762,8.619-1.982l2.399-0.99c0.967-0.398,2.075-0.156,2.786,0.607
	s0.873,1.889,0.404,2.82l-0.276,0.557l5.666,3.773c6.652-1.096,11.878,3.363,16.91,7.832l12.487-7.262
	c0.616-0.357,1.355-0.438,2.031-0.215c0.04,0.012,0.078,0.023,0.117,0.041l14.218-7.701c0.139-0.729,0.244-1.439,0.347-2.137
	c0.35-2.377,0.68-4.623,2.38-5.99c3.18-2.559,7.062-4.777,11.867-6.789c6.182-2.586,11.438-6.494,16.522-10.275
	c0.749-0.557,1.492-1.109,2.229-1.652l-7.742-20.209c-0.406-1.062-0.045-2.266,0.882-2.928c1.919-1.371,2.511-3.74,3.196-6.484
	c0.855-3.422,1.901-7.604,6.206-9.75c0.345-3.514-1.085-6.348-4.701-9.408H574.01c-1.141,0-2.137-0.771-2.421-1.877l-3.576-13.916
	c-0.199-0.773-0.017-1.596,0.491-2.211l3.854-4.691c0.353-0.43,0.84-0.729,1.382-0.85c4.706-1.059,6.588-4.584,8.768-8.664
	c1.518-2.84,3.085-5.777,5.727-8.006c0.034-0.029,0.069-0.059,0.105-0.086l19.724-14.881c-0.249-0.396-0.493-0.779-0.729-1.15
	c-1.267-1.99-2.359-3.709-3.114-5.684c-0.414-1.082-0.847-2.166-1.279-3.254c-1.839-4.607-3.738-9.371-4.409-14.377
	c-0.814-6.057-4.396-10.484-10.951-13.537c-6.084-2.834-9.802-6.547-12.056-12.035c-0.297-0.723-0.238-1.545,0.157-2.219
	l13.544-23.014l-2.418-10.365c-0.15-0.646-0.037-1.33,0.315-1.895l3.079-4.92h-92.28c-1.334,0-2.434-1.049-2.497-2.381l-1-20.932
	c-0.137-2.621,1.845-5.32,4.51-6.134c1.434-0.438,2.657-1.222,1.912-3.968c-0.354-1.305-1.343-2.65-2.389-4.075
	c-0.526-0.716-1.07-1.457-1.567-2.238c-0.413-0.651-0.504-1.456-0.244-2.182c0.259-0.727,0.839-1.292,1.57-1.534l1.365-0.45
	c1.57-1.629,1.552-3.584,1.383-6.757c-0.122-2.278-0.26-4.859,0.671-7.396c0.36-0.984,1.299-1.639,2.348-1.639h77.211
	c0.916,0,1.76,0.501,2.195,1.307c0.369,0.678,0.4,1.481,0.104,2.177l9.865,8.065c0.678,0.554,1.017,1.422,0.893,2.289
	c-0.092,0.644-0.283,1.344-0.486,2.085c-0.376,1.371-0.89,3.248-0.51,4.254c2.114,5.598,1.512,10.213-1.894,14.526
	c-2.425,3.069-2.705,6.426-0.856,10.262c0.391,0.808,0.316,1.762-0.19,2.501l-1.598,2.331l2.995,2.994h1.22l7.344-1.631l6.611-6.543
	c0.732-0.723,1.83-0.926,2.772-0.508l4.345,1.927l26.014-7.353c-0.046-11.4-4.199-20.852-12.667-28.846
	c-0.652-0.618-0.926-1.539-0.712-2.413l2.988-12.212c0.1-0.407,0.301-0.783,0.583-1.092l7.312-7.998l-9.438-8.827
	c-0.818-0.765-1.028-1.979-0.514-2.974l5.181-10.023l-3.803-1.521c-1.248-0.5-1.878-1.896-1.426-3.163l0.901-2.513
	c0.271-0.751,0.883-1.328,1.648-1.553c1.231-0.361,2.461-0.798,3.763-1.261c3.171-1.126,6.45-2.292,9.909-2.358
	c3.921-0.085,7.763,2.528,10.853,4.619c5.737,3.875,10.107,3.765,14.783-0.49c-0.107-0.286-0.219-0.574-0.329-0.864
	c-0.825-2.16-1.68-4.394-2.301-6.781c-0.51-1.959-0.29-4.837,1.114-6.547c1.008-1.228,1.452-2.237,1.318-3
	c-0.125-0.721-0.888-1.946-3.799-3.683c-0.632-0.376-1.064-1.011-1.186-1.736s0.083-1.466,0.559-2.027l7.598-8.969
	c0.776-0.917,2.096-1.152,3.141-0.56l2.344,1.321c1.443,0.811,2.669,1.5,3.881,2.211c5.556,3.266,11.627,7.332,13.393,14.287
	c0.176,0.693,0.266,1.31,0.345,1.854c0.06,0.404,0.138,0.954,0.221,1.128c-0.003,0.009,0.163,0.077,0.523,0.161
	c2.117,0.498,4.227,1.033,6.084,1.505l1.629,0.412l9.442-1.796c4.676-4.874,9.012-12.163,4.605-20.132
	c-0.344-0.621-0.406-1.359-0.174-2.03c0.233-0.67,0.74-1.21,1.396-1.485c2.508-1.051,3.395-2.8,3.061-6.04
	c-0.375-3.646-0.534-6.152-0.703-8.806c-0.143-2.236-0.289-4.547-0.58-7.654c-0.12-1.284,0.756-2.448,2.022-2.689l4.606-0.875
	l1.453-2.419l-4.454-6.607l-16.073-12.803c-3.079,0.179-4.238-0.671-11.175-5.68c-0.935-0.675-1.286-1.901-0.852-2.969l0.204-0.504
	c-0.817-0.29-1.449-0.994-1.621-1.885c-0.228-1.177,0.414-2.349,1.527-2.794l2.471-0.988c0.96-1.504,0.508-2.213-1.571-4.445
	c-1.271-1.364-2.71-2.911-3.264-5.013c-0.141-0.527-0.104-1.084,0.104-1.588l2.601-6.318l-3.006-4.206
	c-0.791-1.106-0.554-2.641,0.534-3.456c0.719-0.537,1.298-1.202,1.714-1.801c-0.932-0.593-1.386-1.756-1.041-2.856l1.071-3.417
	c-0.381-0.374-0.638-0.864-0.721-1.406c-0.126-0.821,0.164-1.651,0.772-2.214l6.701-6.195l-4.479-0.833
	c-0.688-0.128-1.291-0.539-1.662-1.132c-0.371-0.593-0.477-1.315-0.29-1.99l2.568-9.318l-1.812-3.5
	c-0.325-0.626-0.37-1.361-0.124-2.023s0.761-1.188,1.416-1.45c1.416-0.565,2.869-0.999,4.275-1.417
	c2.673-0.797,5.196-1.55,6.315-2.9c0.954-1.153,2.293-1.905,3.588-2.633c1.885-1.059,2.846-1.649,2.971-2.588l-17.153,6.999
	c-0.778,0.317-1.667,0.222-2.36-0.254c-6.873-4.722-6.354-11.271-5.938-16.532c0.25-3.167,0.485-6.159-0.823-8.356
	c-0.493-0.828-0.467-1.865,0.067-2.667l6.355-9.536c-0.017-0.018-0.032-0.036-0.047-0.055L687.75-6.69
	c-0.752,0.204-1.555,0.047-2.174-0.427c-0.618-0.473-0.981-1.207-0.981-1.986v-11.462l-1.577-0.824l-4.919,9.512
	c-0.472,0.913-1.45,1.442-2.476,1.339c-10.505-1.074-20.646,0.555-30.131,4.845c-0.698,0.316-1.481,1.248-2.239,2.148
	c-0.468,0.556-0.951,1.131-1.495,1.674c-0.349,0.349-0.793,0.586-1.275,0.683L637.7-0.631l-28.4,15.615
	c-0.632,0.349-1.386,0.406-2.062,0.157c-0.646-0.236-1.163-0.727-1.436-1.354c-0.399,0.068-0.803,0.131-1.2,0.193
	c-1.3,0.203-3.475,0.543-3.941,0.99c-3.104,5.169-6.976,5.125-10.284,4.294c0.015,0.26-0.011,0.524-0.08,0.785
	c-0.255,0.961-1.056,1.68-2.039,1.83L586,22.224c-0.965,0.151-1.92-0.277-2.46-1.085l-0.293-0.44
	c-1.533,0.398-3.322,0.729-4.507-0.741c-1.774-2.201-3.306-4.553-4.785-6.828c-0.141-0.216-0.281-0.432-0.422-0.647l-4.08,1.298
	c-0.664,0.211-1.389,0.135-1.995-0.21c-0.606-0.346-1.041-0.929-1.198-1.609l-1.428-6.194l-1.82-0.63
	c-3.384,2.997-3.567,5.826-0.914,10.624c0.537,0.97,0.37,2.179-0.408,2.967c-2.368,2.396-2.014,3.921,2.003,8.586
	c0.739,0.859,0.809,2.109,0.168,3.044l-5.599,8.172c-0.42,0.613-1.092,1.008-1.832,1.077c-0.744,0.072-1.473-0.196-1.998-0.722
	L541.94,26.393l-15.646-2.791c-0.275-0.049-0.54-0.144-0.783-0.28c-1.026-0.576-2.075-1.64-3.401-2.987
	c-0.602-0.61-1.265-1.283-1.946-1.922c-1.438,2.567-4.24,3.579-6.472,4.386c-1.294,0.467-2.518,0.909-3.484,1.567
	c-0.769,0.521-1.758,0.574-2.575,0.142c-0.817-0.434-1.33-1.284-1.33-2.209v-11.85L479.878,23.52
	c-0.707,0.35-1.538,0.345-2.241-0.012c-0.704-0.358-1.196-1.027-1.331-1.805l-2.088-12.129c-0.117,0.108-0.225,0.217-0.324,0.326
	c-0.385,0.872-1.134,4.007-1.588,5.91c-0.063,0.269-0.125,0.522-0.184,0.764c0.045,0.538-0.085,1.08-0.376,1.542
	c-0.372,1.487-0.604,2.25-0.856,2.756l-2.247,4.37c-0.34,0.658-0.951,1.132-1.674,1.294c-0.724,0.164-1.479-0.003-2.065-0.453
	l-1.962-1.499c-0.556-0.422-0.907-1.056-0.975-1.749c-0.066-0.693,0.158-1.383,0.621-1.902l4.064-4.564
	c-0.155-0.291-0.32-0.589-0.488-0.895c-1.212-2.199-2.586-4.691-2.271-7.366c0.547-4.636-1.737-7.846-4.384-11.563
	c-0.404-0.569-0.812-1.141-1.21-1.72l-6.366-0.789c-1.116-0.138-2.004-1.007-2.166-2.121l-0.839-5.761l-10.599-9.771
	c-3.193,4.194-6.259,8.219-9.54,12.524c-0.468,0.615-1.194,0.979-1.967,0.985c-0.008,0-0.016,0-0.021,0
	c-0.765,0-1.487-0.35-1.963-0.952l-2.627-3.325l-6.632-0.452c-0.834-0.056-1.584-0.526-2-1.251c-0.416-0.725-0.441-1.61-0.069-2.357
	l1.131-2.27l-2.886-3.198c-6.349,2.642-9.009,8.29-11.813,14.246c-1.93,4.096-3.919,8.321-7.188,11.595V16.92
	c0,0.322-0.062,0.64-0.183,0.938c-0.572,1.413-1.729,2.48-3.256,3.006c-1.998,0.688-4.401,0.358-6.596-0.906
	c-3.902-2.25-7.797-4.637-11.562-6.945c-5.493-3.368-11.175-6.851-16.911-9.919c-3.041-1.627-5.99-3.471-8.843-5.253
	c-7.067-4.418-13.743-8.592-21.908-9.896c-5.898-0.941-11.503-3.076-16.923-5.141c-3.08-1.173-5.959-2.703-8.743-4.183
	c-1.172-0.623-2.333-1.241-3.49-1.819c-0.748-0.375-1.259-1.098-1.361-1.928c-1.112-8.963,2.62-20.201,9.145-27.838
	c-0.555-2.142-0.81-4.072-0.756-5.809c-7.266,5.312-14.33,12.577-17.366,18.481c-2.805,5.451-4.608,11.342-6.518,17.58
	c-0.985,3.22-2.005,6.55-3.168,9.782c-0.712,1.977-1.765,3.777-2.879,5.682c-0.315,0.539-0.642,1.097-0.975,1.683
	c0.425,1.165,0.235,2.233-0.582,3.016c-3.07,2.932-2.648,6.495-1.654,11.597c0.089,0.458,0.177,0.907,0.257,1.346
	c1.67,9.106-2.25,15.008-6.5,19.749c0.538,1.689,0.49,3.511-0.154,5.361c-1.081,3.103-3.672,5.671-5.552,6.362
	c-3.455,1.268-3.74,2.988-4.308,6.414c-0.158,0.951-0.321,1.934-0.578,2.979c-0.223,0.904-0.405,1.884-0.599,2.921
	c-0.826,4.429-2.031,10.893-8.435,12.301c0.036,2.284,0.459,4.54,0.9,6.898c0.918,4.9,1.865,9.959-0.935,15.15l2.111,13.51
	c0.212,1.355-0.708,2.629-2.062,2.853l-4.979,0.824c-0.389,0.896-0.768,1.768-1.138,2.618c-1.282,2.945-2.493,5.727-3.621,8.479
	c-0.452,1.106-0.75,2.342-1.065,3.65l-0.099,0.408c-0.751,3.098-1.479,6.201-2.259,9.529l-0.616,2.626
	c4.784,5.847,2.524,12.296,0.688,17.537c-0.684,1.948-1.328,3.788-1.686,5.59c-0.571,2.884-1.648,5.598-2.69,8.223
	c-0.385,0.97-0.771,1.939-1.127,2.914c-0.188,0.512-0.354,1.093-0.532,1.707c-0.54,1.876-1.153,4.002-2.755,5.476
	c-1.983,1.824-2.172,3.207-0.779,5.691c0.521,0.928,0.396,2.083-0.309,2.88l-7.471,8.44c-0.052,0.058-0.105,0.113-0.161,0.166
	c-0.345,0.887-1.185,1.537-2.196,1.591c-2.233,0.12-4.635,1.283-7.176,2.513c-1.233,0.598-2.51,1.215-3.829,1.744
	c-1.227,0.489-2.615-0.053-3.184-1.239l-2.066-4.307l-3.208,2.573c-0.886,0.71-2.141,0.734-3.052,0.058l-1.24-0.92l-12.193,7.759
	l-9.852,9.795l-3.111,9.985l-2.566,19.875c-0.139,1.072-0.95,1.934-2.012,2.136c-2.427,0.462-4.049,1.227-4.449,2.097
	c-0.361,0.785,0.013,2.218,1.053,4.035c1.101,1.922,1.319,5.511-0.126,7.587c-3.158,4.541-6.528,8.941-9.786,13.196
	c-1.105,1.443-2.202,2.875-3.28,4.299c-0.648,0.858-1.773,1.206-2.792,0.86c-4.569-1.541-4.571-1.542-7.886,4.841
	c-0.431,0.828-1.286,1.347-2.219,1.347h-22.454l-9.646,17.376c-0.271,0.486-0.697,0.869-1.21,1.088
	c-1.296,0.549-2.655,1.107-4.058,1.688c-3.749,1.543-7.626,3.141-11.443,4.986c-1.48,0.717-2.755,1.979-2.892,2.479
	c-0.761,5.496-4.467,8.027-7.735,10.26l-0.442,0.303c-2.052,1.408-3.973,2.99-6.198,4.82c-0.434,0.357-0.875,0.721-1.327,1.092
	l8.521,10.219c0.592,0.709,0.744,1.688,0.396,2.543l-3.443,8.484c-0.228,0.562-0.65,1.021-1.191,1.293l-7.166,3.609l-6.143,12.938
	c-0.224,0.471-0.589,0.857-1.045,1.111c-1.198,0.666-2.351,1.287-3.464,1.891c-2.423,1.307-4.711,2.543-6.829,3.895l-0.558,0.361
	c-0.768,0.504-1.692,1.109-2.756,1.512c-0.004,0.047-0.01,0.096-0.018,0.143c-0.103,0.666-0.47,1.262-1.018,1.652l-5.645,4.031
	c-0.56,0.4-1.247,0.545-1.893,0.428l-4.599,14.742c0.2,0.248,0.354,0.537,0.447,0.852c0.229,0.77,0.076,1.604-0.414,2.24
	l-9.056,11.771c0.968,3.465-1.194,6.213-2.829,8.291c-2.045,2.6-3.156,4.195-2.222,6.811c1.346,3.77,0,7.975-1.302,12.043
	c-0.714,2.23-1.452,4.535-1.666,6.578c-0.434,4.139-0.315,8.432-0.212,12.219c0.031,1.148,0.062,2.256,0.076,3.309
	c7.419,6.236,10.102,14.168,12.7,21.85c1.46,4.314,2.839,8.391,5.012,12.146c0.374,0.645,0.439,1.426,0.179,2.125
	c-0.26,0.697-0.82,1.246-1.525,1.488l-4.998,1.73c-0.011,0.463-0.024,0.92-0.038,1.373c-0.062,2.039-0.119,3.967,0.11,5.75
	c0.308,2.383,0.784,4.721,1.289,7.193c0.4,1.963,0.814,3.992,1.132,6.031c0.284,1.832,0.953,3.125,1.79,3.463
	c0.841,0.338,2.244-0.137,3.741-1.277c1.325-1.006,2.658-2.002,3.794-2.85l1.376-1.027c0.559-0.418,1.269-0.584,1.955-0.459
	l11.494,2.125c0.264-0.299,0.6-0.533,0.984-0.68c0.823-0.311,1.75-0.166,2.44,0.383l6.264,4.979c0.564,0.449,0.907,1.121,0.94,1.842
	l0.099,2.09c0.048,0.998-0.503,1.928-1.4,2.365l-10.045,4.906l-8.715,10.275c3.226,7.58,9.498,10.686,20.694,10.311
	c1.666-0.055,3.304,0.016,4.888,0.084c3.954,0.17,7.685,0.328,11.312-1.438c2.586-1.256,5.611-0.211,8.042,0.631
	c0.707,0.244,1.375,0.475,1.797,0.559c0.552,0.111,1.05,0.404,1.414,0.834l11.646,13.715c0.417-0.18,0.887-0.246,1.353-0.176
	l11.828,1.75c0.504,0.074,0.973,0.301,1.344,0.648c0.62,0.582,1.231,1.162,1.837,1.736c7.14,6.777,12.782,12.127,22.375,10.438
	c0.893-0.158,1.791,0.176,2.364,0.871c3.863,4.689,9.523,8.365,16.823,10.926c1.895,0.664,3.646,1.641,5.339,2.586
	c4.557,2.543,7.312,3.861,11.003,1.391C168.227,598.939,168.711,598.796,169.201,598.796z M500.309,292.279h86.229l-2.82-2.818
	c-0.851-0.852-0.975-2.188-0.296-3.18l1.99-2.906c-1.991-5.085-1.301-9.959,2.029-14.175c2.301-2.913,2.631-5.712,1.141-9.659
	c-0.956-2.526-0.193-5.31,0.364-7.343c0.016-0.056,0.029-0.112,0.046-0.167l-10.364-8.473c-0.325-0.266-0.566-0.597-0.721-0.961
	h-71.947c-0.137,1.17-0.069,2.445,0.001,3.769c0.18,3.365,0.402,7.536-3.167,10.88c1.173,1.604,2.331,3.282,2.883,5.312
	c1.306,4.812-0.718,8.667-5.277,10.06c-0.577,0.176-0.99,0.838-0.977,1.102L500.309,292.279z"/>
</svg>
