<svg fill="#fff" xmlns="http://www.w3.org/2000/svg" width="734.511" height="569.63"><path fill="#3FB2B0" class="preenchimento" d="M210.063 189.827l7.471-8.44c-1.71-3.05-1.898-5.842 1.268-8.754 1.507-1.386 1.852-4.072 2.632-6.203 1.307-3.568 2.981-7.074 3.713-10.763 1.492-7.526 7.386-15.155.719-21.943 1.147-4.875 2.14-9.164 3.177-13.442.361-1.49.703-3.006 1.28-4.417 1.608-3.926 3.337-7.801 5.319-12.394l6.324-1.046-2.248-14.381c4.682-7.595-.586-15.182.226-23.791 7.802-.191 7.629-7.935 9.021-13.594 1.146-4.65.392-8.917 6.451-11.141 1.813-.666 6.26-5.528 3.615-9.857 5.055-5.391 8.5-10.604 6.994-18.818-.863-4.719-2.588-10.696 2.127-15.199.196-.188-.773-1.597-.562-1.183 1.748-3.237 3.428-5.606 4.375-8.239 3.317-9.217 5.381-19.04 9.814-27.658 4.846-9.422 19.309-22.267 30.079-26.062-7.529 2.549-9.494 6.835-6.955 15.174-6.531 7.009-10.521 18.182-9.441 26.89 3.869 1.936 7.791 4.298 12.004 5.902 5.346 2.036 10.82 4.113 16.428 5.008C336.067-12.58 345.132-4.62 355.429.889c9.74 5.209 18.963 11.381 28.543 16.903 2.824 1.627 5.541.966 6.285-.872V.853c8.629-7.696 8.256-23.287 22.23-27.689 1.155 1.284 3.057 3.389 5.153 5.712-.459.918-.963 1.931-1.891 3.794l7.738.527c.539.681 1.826 2.309 3.313 4.195 3.847-5.046 7.396-9.708 11.203-14.709 4.23 3.898 8.508 7.843 13.271 12.234.256 1.749.598 4.103.967 6.638l7.496.929c3.231 4.926 7.442 9.092 6.639 15.917-.32 2.708 2.156 5.747 3.254 8.381-1.961 2.203-3.567 4.008-5.176 5.813l1.965 1.501c.746-1.448 1.49-2.896 2.234-4.344.633-1.264 2.33-10.286 3.215-11.335.992-1.177 2.396-2.005 4.104-3.372 1.05 6.083 1.855 10.777 2.796 16.235 10.524-5.207 20.17-9.977 30.03-14.856v15.874c3.961-2.691 10.023-2.078 9.804-8.237 3.213 1.798 6.426 6.126 8.129 7.08l16.42 2.929 13.047 13.047 5.598-8.172c-3.393-3.941-6.209-7.601-1.887-11.974-3.564-6.444-2.654-10.629 2.6-14.654 1.998.692 3.763 1.302 4.447 1.541l1.738 7.54 5.885-1.873c1.959 2.935 3.842 6.055 6.107 8.864.395.49 2.403-.322 3.67-.533l1.264 1.897 2.258-.345c-1.521-1.206-2.684-2.124-3.844-3.042 1.697-.917 2.938-.759 4.108-.388 3.921 1.238 7.354 2.736 10.425-2.365 1.18-1.959 5.766-1.868 8.799-2.71l.729 1.891 28.738-15.801 3.16-.632c1.477-1.475 2.69-3.525 4.471-4.331 10.01-4.527 20.623-6.159 31.416-5.054 2.236-4.326 4.148-8.019 6.072-11.742 1.945 1.016 3.44 1.798 5.145 2.687v12.972c4.295-1.167 7.648-2.08 11.004-2.991-.11.539-.223 1.078-.334 1.618 2.238.805 5.232 2.912 6.56 2.143 2.69-1.562 8.723-.436 7.006-7.104l-11.904 4.215-.633 2.529c-2.27 3.403-4.537 6.807-7.188 10.783 4.215 7.072-3.558 17.521 6.03 24.108l19.683-8.031c3.485 6.834-3.943 7.417-6.217 10.163-2.324 2.804-7.363 3.357-11.591 5.044.978 1.882 1.711 3.303 2.265 4.371l-2.828 10.263 9.377 1.744-10.359 9.577 1.244.589c-.561 1.788-1.119 3.575-1.68 5.362l1.896.633c.021 1.378-1.51 3.821-3.457 5.278 1.25 1.748 2.502 3.502 3.812 5.332l-3.125 7.597c1.121 4.254 8.338 6.379 4.037 12.141l-3.162 1.264h2.824c-.545 1.336-1.045 2.569-1.548 3.803 7.519 5.43 7.519 5.43 10.494 5.135 5.906 4.704 11.31 9.006 17.148 13.659 1.398 2.076 3.262 4.84 5.559 8.246-.541.898-1.657 2.759-2.85 4.744-1.891.358-3.799.721-5.707 1.084.631 6.744.588 9.699 1.281 16.437.406 3.948-.769 7.003-4.582 8.601 4.318 7.811 1.977 16.118-5.557 23.651-4.4.838-7.318 1.393-10.757 2.046-2.26-.564-5.227-1.341-8.209-2.042-2.918-.686-2.325-2.544-2.938-4.962-1.517-5.974-6.928-9.626-12.234-12.746-1.805-1.06-3.639-2.067-6.19-3.513-2.007 2.369-4.619 5.454-7.599 8.97 5.021 2.994 6.719 6.049 3.131 10.417-.809.984-.973 3-.627 4.33.818 3.144 2.123 6.16 3.121 8.928-6.408 6.646-12.442 6.4-19.072 1.922-2.854-1.931-6.295-4.265-9.426-4.205-4.358.084-8.68 2.246-13.016 3.519-.301.836-.603 1.672-.9 2.508 2.107.843 4.215 1.688 6.359 2.543-2.688 5.199-4.596 8.89-6.445 12.47 3.695 3.455 7.293 6.819 11.244 10.516l-8.979 9.822c-.781 3.193-1.861 7.611-2.988 12.213 9.217 8.703 13.861 19.361 13.422 32.563-9.197 2.601-18.557 5.245-28.674 8.104-.967-.431-2.783-1.235-5.17-2.292-2.599 2.57-5.037 4.986-7.125 7.05-2.908.645-5.611 1.248-8.314 1.848h-2.529c-1.686-1.688-3.37-3.371-5.194-5.195.838-1.225 1.694-2.479 2.771-4.046-2.053-4.26-2.166-8.703 1.146-12.896 2.916-3.693 3.266-7.462 1.518-12.092-.924-2.441.607-5.811.859-7.577l-11.57-9.459.988-1.525h-77.211c-1.9 5.183 1.735 11.218-3.084 15.49l-1.898.626c1.476 2.318 3.572 4.469 4.26 7 .771 2.838.252 5.838-3.596 7.014-1.586.484-2.82 2.123-2.742 3.623.334 6.986.666 13.975 1 20.932h94.244c.129.242.566 1.078 1.162 2.219-1.283 2.051-2.686 4.289-4.086 6.525l2.645 11.342c-4.284 7.279-9.069 15.416-14.051 23.877 2.045 4.979 5.377 8.189 10.799 10.719 6.076 2.83 11.293 7.436 12.373 15.471.783 5.84 3.406 11.475 5.547 17.07.998 2.609 2.795 4.912 4.82 8.359l-21.529 16.244c-5.914 4.988-6.096 15.068-15.557 17.195-1.338 1.627-2.674 3.26-3.854 4.691 1.221 4.746 2.364 9.207 3.575 13.916h16.779c3.936 3.137 7.385 7.209 6.062 13.676-7.755 2.611-4.31 12.285-10.205 16.5 2.653 6.93 5.328 13.91 8.428 21.998-6.275 4.508-12.752 9.969-20.81 13.34-3.979 1.666-7.932 3.75-11.266 6.432-1.422 1.145-1.234 4.293-2.092 7.832-4.697 2.543-10.828 5.861-16.959 9.184-.117-.266-.234-.533-.353-.799l-14.051 8.17c-5.555-4.91-10.654-9.885-17.121-8.242-3.42-2.277-5.896-3.928-8.373-5.578l1.267-2.529c-1.045.432-2.092.861-3.521 1.451-2.35-1.832-5.731.285-7.646 1.709-5.486 0-9.521.33-13.479-.094-3.84-.41-7.59-1.623-11.393-2.422-2.308-.486-5.299-1.979-6.83-1.068-4.742 2.809-9.721 1.961-14.658 2.396-1.938.17-3.799 1.188-5.697 1.818l-.631-1.266c-7.559-6.613-7.143-5.928-15.36-.938-3.757 2.277-7.379 9.094-13.312 3.906a11879.92 11879.92 0 0 0-6.941 3.182c-1.809 3.602-2.771 7.158-5.006 9.51-2.239 2.359-7.098 2.84-8.369 5.369-1.784 3.553-3.418 6.309-7.864 7.873-3.658-5.027-7.306-10.037-11.111-15.27-6.213 6.84-15.49 9.473-24.865 11.75l-2.131 2.486-24.006-3.5-2.93 5.768c-9.072 1.01-17.308 1.924-24.029 2.672-6.07 8.617-11.049 15.686-16.214 23.016-1.374.35-3.133.793-4.95 1.252 3.047 7.836 2.021 13.229-4.337 17.395-4.601 3.02-10.174 4.51-15.021 7.207-2.327 1.295-3.977 3.809-5.932 5.77l.783 1.049c-2.492 2.369-7.639 1.604-7.219 7.631.221 3.193-2.545 6.594-3.93 9.822 1.721 2.145 3.143 3.92 4.709 5.875-8.805 1.578-14.989-1.82-19.586-9.316-1.971-3.213-4.996-6.094-8.164-8.188-6.871-4.543-15.682-3.578-22.935-8.609-6.646-4.607-15.354-6.24-23.544-9.332-7.104 4.76-12.438-1.549-18.561-3.695-7.071-2.479-13.399-6.199-17.926-11.693-11.74 2.072-18.328-5.281-26.356-12.811-3.051-.451-7.439-1.102-11.827-1.75-.31.545-.617 1.092-.927 1.637-4.352-5.123-8.701-10.248-13.611-16.031-2.072-.414-5.945-2.516-8.254-1.393-5.775 2.809-11.473 1.416-17.211 1.604-10.641.354-19.688-2.205-23.646-13.291 3.317-3.914 6.805-8.021 10.018-11.811l10.516-5.137-.099-2.094c-2.087-1.66-4.175-3.316-6.263-4.979-.07.395-.144.793-.215 1.188-4.402-.811-8.805-1.627-13.604-2.514-1.318.988-3.247 2.416-5.156 3.867-4.708 3.58-8.621 1.967-9.516-3.791-.692-4.449-1.854-8.83-2.43-13.291-.373-2.902-.069-5.891-.069-9.23l6.657-2.305c-6.434-11.117-6.283-24.893-18.039-34.047 0-4.777-.492-10.941.141-16.986.625-5.969 4.826-12.688 3.1-17.52-2.783-7.787 7.652-10.562 4.558-16.342l9.922-12.898-1.046-.363 6.132-19.658c.634.416 1.269.834 1.899 1.252a5305.15 5305.15 0 0 1 5.646-4.029l-1.897-2.529c2.516 1.615 4.307.094 6.354-1.213 3.168-2.021 6.55-3.709 10.424-5.861 2.031-4.277 4.418-9.301 6.511-13.711 3.315-1.668 6.262-3.152 7.932-3.994 1.471-3.625 2.396-5.91 3.443-8.488l-10.146-12.168c3.639-2.9 6.51-5.465 9.656-7.625 3.312-2.271 6.478-4.236 7.121-8.873.229-1.648 2.5-3.498 4.273-4.355 5.35-2.588 10.911-4.734 15.614-6.727l10.36-18.662h23.926c3.889-7.484 4.864-8.094 10.903-6.057 4.262-5.629 8.819-11.394 13.008-17.414.791-1.137.734-3.648.008-4.918-3.256-5.69-1.137-8.642 5.099-9.83l2.595-20.092c.881-2.824 2.269-7.277 3.36-10.785l10.483-10.423 13.873-8.828 2.619 1.944 5.664-4.541c1.15 2.4 2.088 4.354 3.428 7.145 4.021-1.61 7.847-4.22 11.8-4.433"/><path class="borda" d="M239.308 639.628c-7.333.002-13.117-3.594-17.595-10.896-1.671-2.723-4.304-5.355-7.411-7.408-2.959-1.957-6.452-2.797-10.149-3.686-4.279-1.027-8.704-2.092-12.832-4.955-4.28-2.969-9.588-4.646-15.206-6.424-2.181-.689-4.424-1.398-6.646-2.201-5.927 3.256-10.985.434-15.098-1.863-1.578-.881-3.068-1.713-4.557-2.234-7.617-2.67-13.696-6.494-18.092-11.377-11.222 1.385-18.048-5.102-25.259-11.947l-1.246-1.182-9.354-1.383-.083.146a2.5 2.5 0 0 1-1.939 1.254 2.475 2.475 0 0 1-2.141-.869l-13.097-15.426a35.203 35.203 0 0 1-1.549-.51c-1.135-.393-3.496-1.209-4.221-.859-4.767 2.318-9.317 2.125-13.712 1.936-1.561-.066-3.035-.129-4.511-.08-8.815.293-21.081-.945-26.083-14.951a2.5 2.5 0 0 1 .447-2.457l10.018-11.811c.224-.266.5-.479.811-.631l8.526-4.164-2.782-2.211c-.373.109-.77.133-1.162.061l-12.528-2.316-.508.379c-1.123.84-2.444 1.824-3.756 2.822-3.002 2.283-6.068 2.973-8.639 1.936-2.561-1.031-4.287-3.637-4.861-7.33-.299-1.924-.701-3.896-1.09-5.803-.5-2.451-1.018-4.988-1.349-7.555-.279-2.176-.217-4.295-.149-6.539.029-.975.06-1.975.06-3.012a2.5 2.5 0 0 1 1.681-2.361l3.904-1.352c-1.648-3.4-2.846-6.939-4.012-10.387-2.584-7.639-5.025-14.855-11.991-20.279a2.5 2.5 0 0 1-.964-1.973c0-1.355-.041-2.824-.083-4.371-.108-3.941-.23-8.408.237-12.875.268-2.557 1.086-5.111 1.877-7.582 1.096-3.428 2.132-6.662 1.354-8.836-1.91-5.346.929-8.951 3.001-11.586 1.937-2.461 2.339-3.236 1.707-4.418a2.5 2.5 0 0 1 .223-2.705l8.467-11.006a2.49 2.49 0 0 1 .004-1.475l6.132-19.658a2.499 2.499 0 0 1 3.759-1.345l.471.311 2.166-1.547-.361-.48a2.501 2.501 0 0 1 .169-3.203 2.496 2.496 0 0 1 3.183-.4c.769.494 1.067.479 3.047-.82l.611-.396c2.272-1.449 4.639-2.727 7.144-4.08.878-.475 1.78-.961 2.712-1.473l6.165-12.982a2.497 2.497 0 0 1 1.135-1.162l7.092-3.57 2.527-6.229-9.187-11.018a2.498 2.498 0 0 1 .362-3.557c1.151-.916 2.225-1.801 3.254-2.646 2.219-1.826 4.314-3.553 6.546-5.084l.451-.309c3.287-2.246 5.168-3.67 5.608-6.848.416-2.984 3.755-5.34 5.662-6.264 3.951-1.91 8.076-3.609 11.716-5.109 1.104-.455 2.181-.898 3.22-1.334l9.941-17.908a2.498 2.498 0 0 1 2.186-1.286H125.1c3.452-6.379 5.64-8.071 11.475-6.461.739-.971 1.486-1.946 2.236-2.926 3.225-4.21 6.559-8.565 9.653-13.012.194-.38.179-1.743-.11-2.249-1.919-3.354-2.341-6.25-1.255-8.609.979-2.126 3.036-3.608 6.267-4.504l2.372-18.37c.019-.144.05-.286.093-.424l3.36-10.784c.121-.389.335-.742.624-1.03l10.483-10.423c.128-.127.269-.24.421-.336l13.873-8.828a2.5 2.5 0 0 1 2.831.102l1.071.795 4.158-3.334a2.5 2.5 0 0 1 3.818.87l2.381 4.961c.45-.213.906-.434 1.372-.659 2.49-1.206 5.054-2.447 7.8-2.871a2.44 2.44 0 0 1 .169-.214l6.373-7.2c-1.521-3.804-.669-7.221 2.545-10.177.57-.524.977-1.936 1.335-3.18a30.33 30.33 0 0 1 .642-2.042c.372-1.016.773-2.027 1.175-3.039 1.003-2.527 1.95-4.915 2.434-7.351.426-2.149 1.16-4.245 1.871-6.271 2.072-5.914 3.158-9.726-.483-13.434a2.497 2.497 0 0 1-.65-2.325l.913-3.892c.783-3.341 1.514-6.457 2.268-9.567l.097-.401c.346-1.432.702-2.914 1.3-4.373 1.148-2.804 2.37-5.61 3.663-8.581.539-1.237 1.096-2.517 1.675-3.857a2.5 2.5 0 0 1 1.887-1.476l3.88-.642-1.865-11.933a2.5 2.5 0 0 1 .342-1.698c2.364-3.836 1.618-7.82.755-12.434-.608-3.246-1.237-6.603-.891-10.28a2.5 2.5 0 0 1 2.428-2.265c4.014-.098 4.909-2.663 5.995-8.491.198-1.06.402-2.156.659-3.2.212-.858.358-1.744.501-2.601.592-3.572 1.329-8.019 7.517-10.29.518-.235 2.067-1.721 2.611-3.487.314-1.021.227-1.91-.269-2.719a2.5 2.5 0 0 1 .31-3.013c4.987-5.318 7.626-9.749 6.359-16.658-.077-.421-.161-.852-.246-1.291-.836-4.289-1.954-10.025 1.874-14.825a2.63 2.63 0 0 1 .477-2.42c.497-.9.985-1.736 1.452-2.532 1.037-1.774 1.934-3.307 2.489-4.851 1.122-3.119 2.124-6.389 3.092-9.552 1.89-6.173 3.844-12.556 6.853-18.403 4.906-9.54 18.04-21.335 28.797-26.197a24.37 24.37 0 0 1 2.701-1.09 2.5 2.5 0 0 1 1.634 4.726c-.808.284-1.645.628-2.502 1.026-4.048 2.061-4.715 5.079-2.894 11.062.26.853.046 1.78-.562 2.432-5.746 6.167-9.365 15.868-8.907 23.585.781.405 1.564.822 2.354 1.241 2.648 1.408 5.388 2.864 8.176 3.925 5.184 1.975 10.543 4.016 15.932 4.876 9.167 1.464 16.591 6.105 23.771 10.593 2.782 1.739 5.658 3.538 8.552 5.085 5.865 3.137 11.61 6.659 17.166 10.065 3.736 2.291 7.602 4.66 11.444 6.876 1.092.628 1.99.677 2.472.511a1.5 1.5 0 0 0 .065-.025V.853c0-.712.305-1.392.836-1.866 3.015-2.688 4.866-6.621 6.827-10.785 3.186-6.761 6.795-14.424 16.316-17.423a2.5 2.5 0 0 1 2.607.711l5.152 5.71c.688.764.841 1.873.381 2.793l-.218.436 3.999.272c.703.048 1.354.39 1.79.943l1.317 1.668c3.117-4.09 6.097-8.001 9.25-12.145a2.501 2.501 0 0 1 3.685-.324l13.27 12.234c.422.388.696.909.779 1.476l.692 4.753 5.605.694c.729.09 1.38.496 1.782 1.109.564.862 1.163 1.699 1.756 2.533 2.835 3.983 6.048 8.497 5.275 15.049-.018.142-.016.295.004.458.382-1.22.7-1.879 1.095-2.347.858-1.019 1.883-1.777 2.967-2.58.463-.343.961-.71 1.488-1.132a2.5 2.5 0 0 1 4.025 1.528l2.227 12.933 27.027-13.37a2.501 2.501 0 0 1 3.609 2.241v11.924l.69-.251c3.405-1.229 4.192-1.742 4.114-3.946a2.504 2.504 0 0 1 1.194-2.223 2.503 2.503 0 0 1 2.523-.048c2.171 1.214 4.209 3.285 5.847 4.948.657.667 1.516 1.538 2.021 1.946l15.899 2.836c.503.09.967.332 1.329.693l10.917 10.918 2.821-4.119c-2.573-3.173-5.313-7.641-1.738-12.482-3.15-6.672-1.859-11.745 4.068-16.287a2.501 2.501 0 0 1 2.339-.378l4.451 1.542a2.49 2.49 0 0 1 1.612 1.798l1.129 4.897 3.302-1.05a2.5 2.5 0 0 1 2.837.995c.498.746.991 1.504 1.486 2.266 1.125 1.728 2.279 3.503 3.52 5.167.2-.593.618-1.098 1.182-1.403 2.572-1.39 4.587-1.036 6.054-.572l.717.229c3.841 1.237 5.026 1.462 6.811-1.5 1.413-2.347 4.458-2.823 7.402-3.283 1.06-.166 2.06-.322 2.869-.546a2.5 2.5 0 0 1 2.58.796L635.63-5.199a2.52 2.52 0 0 1 .714-.261l2.376-.475c.231-.261.467-.541.71-.83 1.064-1.265 2.271-2.699 4.003-3.484 9.79-4.427 20.216-6.245 30.999-5.416l5.302-10.25a2.496 2.496 0 0 1 3.378-1.068l5.145 2.687a2.5 2.5 0 0 1 1.343 2.216v9.702l7.85-2.133a2.503 2.503 0 0 1 2.292.522l10.76-3.81a2.501 2.501 0 0 1 3.255 1.733c.635 2.464.482 4.425-.465 5.996-1.36 2.253-3.895 2.854-5.743 3.293-.771.183-1.568.372-1.964.601-1.628.944-3.424.436-5.22-.364l-5.872 8.81c1.306 3.162 1.038 6.552.777 9.845-.398 5.048-.477 8.438 2.751 11.223l18.357-7.49a2.499 2.499 0 0 1 3.171 1.178c3.566 6.991-1.57 9.878-4.331 11.43-.854.48-1.823 1.025-2.187 1.464-2.088 2.519-5.47 3.527-8.739 4.502-.405.121-.815.243-1.225.369l.933 1.801c.289.559.356 1.206.188 1.813l-2.104 7.639 6.7 1.246a2.5 2.5 0 1 1 1.24 4.294l-8.382 7.748c.104.427.095.885-.046 1.33l-.959 3.06a2.501 2.501 0 0 1 1.29 2.152c.025 1.843-1.165 3.978-2.65 5.64l2.538 3.551a2.5 2.5 0 0 1 .278 2.405l-2.742 6.666c.396.702 1.089 1.446 1.812 2.224 2.056 2.208 5.478 5.883 1.692 11.175-.003.314-.062.63-.187.93l-.806 1.981c5.171 3.724 5.331 3.711 7.191 3.525a2.518 2.518 0 0 1 1.805.532l17.147 13.66c.199.159.373.347.517.558l5.558 8.245a2.5 2.5 0 0 1 .069 2.688l-2.849 4.741a2.503 2.503 0 0 1-1.679 1.17l-3.483.661c.175 2.098.284 3.838.394 5.535.165 2.604.322 5.063.688 8.612.533 5.183-1.438 8.168-3.808 9.886 3.253 7.963.803 16.537-7.051 24.39a2.508 2.508 0 0 1-1.301.688l-10.757 2.046a2.497 2.497 0 0 1-1.071-.03l-2.179-.55c-1.832-.465-3.911-.993-5.998-1.484-3.893-.915-4.303-3.748-4.549-5.439a12.46 12.46 0 0 0-.241-1.341c-1.291-5.089-6.181-8.326-11.078-11.206a226.627 226.627 0 0 0-3.798-2.163l-.555-.313-4.462 5.269c1.726 1.352 3.329 3.146 3.735 5.48.396 2.263-.406 4.629-2.382 7.033-.184.277-.331 1.371-.139 2.114.551 2.119 1.354 4.221 2.132 6.254.32.836.634 1.655.921 2.454a2.5 2.5 0 0 1-.552 2.583c-6.799 7.049-14.083 7.791-22.271 2.258-2.503-1.694-5.584-3.778-7.906-3.778h-.072c-2.646.051-5.406 1.032-8.331 2.071-.444.158-.896.318-1.35.477l3.003 1.201a2.5 2.5 0 0 1 1.294 3.469l-5.576 10.789 9.862 9.223a2.5 2.5 0 0 1 .137 3.513l-8.547 9.35-2.496 10.202c9.163 9.146 13.586 20.39 13.152 33.443a2.501 2.501 0 0 1-1.818 2.323l-28.675 8.104a2.51 2.51 0 0 1-1.695-.121l-3.607-1.602-5.913 5.852a2.495 2.495 0 0 1-1.215.664l-6.946 1.543.427.814c.412.787.376 1.73-.096 2.484l-3.534 5.646 2.408 10.326a2.498 2.498 0 0 1-.28 1.836L580.65 338.9c1.791 3.684 4.56 6.203 9.047 8.295 8.108 3.775 12.75 9.633 13.795 17.402.589 4.395 2.373 8.865 4.099 13.191.442 1.107.883 2.215 1.307 3.32.573 1.502 1.495 2.949 2.663 4.785.617.973 1.284 2.021 1.978 3.199a2.499 2.499 0 0 1-.649 3.262l-21.472 16.201c-1.88 1.609-3.147 3.984-4.491 6.498-2.307 4.32-4.907 9.193-11.219 10.971l-2.528 3.076 2.777 10.809h14.841c.566 0 1.115.191 1.56.545 3.784 3.018 8.622 7.971 6.953 16.131a2.507 2.507 0 0 1-1.651 1.869c-2.813.947-3.479 3.102-4.409 6.826-.675 2.697-1.424 5.695-3.638 8.033l7.806 20.375a2.5 2.5 0 0 1-.876 2.926 300.926 300.926 0 0 0-3.726 2.74c-5.325 3.959-10.832 8.053-17.576 10.875-4.368 1.828-7.856 3.814-10.664 6.072-.194.291-.409 1.752-.566 2.82-.159 1.092-.342 2.33-.661 3.65a2.502 2.502 0 0 1-1.239 1.609l-16.959 9.186a2.501 2.501 0 0 1-2.001.166l-.007-.002-12.328 7.168a2.503 2.503 0 0 1-2.913-.287l-.94-.836c-4.878-4.334-9.086-8.078-13.909-6.855a2.492 2.492 0 0 1-2.001-.344l-8.38-5.576a2.503 2.503 0 0 1-.675-.666 2.523 2.523 0 0 1-1.732-.52c-.534-.42-2.029-.184-4.614 1.742a2.51 2.51 0 0 1-1.493.494c-1.761 0-3.368.035-4.872.066-3.241.068-6.039.129-8.872-.174-2.702-.289-5.323-.939-7.856-1.57-1.246-.309-2.533-.629-3.785-.893-.781-.164-1.578-.412-2.35-.65-.856-.266-2.265-.697-2.795-.652-4.046 2.355-8.233 2.443-11.931 2.52-1.276.025-2.481.051-3.681.156-.965.084-2.059.521-3.216.982-.635.254-1.271.506-1.909.719a2.495 2.495 0 0 1-3.027-1.256l-.41-.822c-2.321-2.029-4.305-3.729-5.326-3.869-.851-.111-2.473.896-4.95 2.424-.543.336-1.131.697-1.771 1.086-.724.438-1.547 1.191-2.419 1.99-2.668 2.439-7.002 6.406-12.521 2.682l-4.755 2.178c-.386.82-.741 1.646-1.087 2.451-1.093 2.545-2.126 4.949-3.963 6.883-1.367 1.439-3.25 2.266-4.911 2.992-1.16.508-2.749 1.205-3.037 1.777-1.953 3.887-3.998 7.256-9.269 9.109a2.501 2.501 0 0 1-2.853-.889l-9.402-12.922c-6.26 5.561-14.516 8.041-23.178 10.168l-1.607 1.877c-.56.65-1.408.969-2.259.846l-22.229-3.24-2.118 4.17a2.501 2.501 0 0 1-1.951 1.35l-22.91 2.549-15.565 22.096a2.496 2.496 0 0 1-1.429.982l-2.324.588c2.277 7.809.269 13.482-6.208 17.729-2.772 1.816-5.819 3.098-8.767 4.334-2.264.951-4.402 1.848-6.408 2.965-1.221.68-2.326 1.947-3.496 3.289-.162.186-.326.373-.493.561a2.505 2.505 0 0 1-.653 2.596c-1.13 1.072-2.486 1.633-3.684 2.125-2.188.898-2.924 1.205-2.763 3.52.203 2.941-1.33 5.719-2.683 8.17a68.86 68.86 0 0 0-.808 1.49l3.727 4.648a2.496 2.496 0 0 1-1.509 4.021 25.952 25.952 0 0 1-4.568.426zm-70.107-40.832c.298 0 .597.053.883.16 2.468.932 5.045 1.746 7.538 2.535 5.726 1.811 11.646 3.684 16.548 7.082 3.357 2.33 7.144 3.238 11.151 4.203 3.955.949 8.045 1.934 11.737 4.375 3.704 2.447 6.871 5.633 8.916 8.965 3.375 5.506 7.349 8.234 12.541 8.492l-1.745-2.18a2.5 2.5 0 0 1-.348-2.549c.478-1.113 1.079-2.203 1.661-3.258 1.069-1.936 2.174-3.938 2.072-5.408-.412-5.91 3.507-7.523 5.848-8.488.198-.08.395-.16.585-.242a2.498 2.498 0 0 1 .727-1.885c.55-.553 1.086-1.168 1.653-1.816 1.401-1.605 2.85-3.268 4.833-4.371 2.247-1.25 4.615-2.244 6.904-3.205 2.865-1.203 5.571-2.34 7.961-3.906 5.148-3.373 6.096-7.41 3.378-14.398a2.5 2.5 0 0 1 1.717-3.33l4.052-1.023 15.681-22.26a2.507 2.507 0 0 1 1.768-1.045l22.688-2.523 2.317-4.562a2.492 2.492 0 0 1 2.591-1.342l22.644 3.301 1.233-1.439c.341-.396.799-.68 1.31-.803 9.204-2.236 17.936-4.76 23.604-11.002a2.45 2.45 0 0 1 1.985-.814 2.508 2.508 0 0 1 1.887 1.025l9.93 13.646c2.327-1.281 3.425-3.182 4.792-5.902 1.097-2.184 3.435-3.207 5.497-4.111 1.288-.562 2.62-1.146 3.293-1.855 1.221-1.285 2.043-3.197 2.994-5.412.483-1.127.984-2.293 1.59-3.498a2.505 2.505 0 0 1 1.192-1.15l6.941-3.182a2.5 2.5 0 0 1 2.687.391c2.562 2.24 3.851 1.451 7.172-1.588 1.012-.924 2.058-1.881 3.198-2.574.629-.381 1.206-.736 1.741-1.066 7.51-4.633 8.904-4.441 16.563 2.262l.066.061c1.316-.521 2.794-1.084 4.396-1.225 1.364-.121 2.711-.148 4.014-.176 3.416-.07 6.644-.137 9.589-1.881 2.039-1.213 4.527-.441 6.722.238.69.215 1.345.416 1.897.533 1.34.281 2.672.613 3.961.934 2.479.615 4.821 1.197 7.184 1.449 2.515.27 5.166.213 8.233.148 1.304-.029 2.686-.059 4.172-.066 3.934-2.713 6.727-2.762 8.619-1.982l2.399-.99c.967-.398 2.075-.156 2.786.607s.873 1.889.404 2.82l-.276.557 5.666 3.773c6.652-1.096 11.878 3.363 16.91 7.832l12.487-7.262a2.494 2.494 0 0 1 2.031-.215c.04.012.078.023.117.041l14.218-7.701c.139-.729.244-1.439.347-2.137.35-2.377.68-4.623 2.38-5.99 3.18-2.559 7.062-4.777 11.867-6.789 6.182-2.586 11.438-6.494 16.522-10.275a625.43 625.43 0 0 1 2.229-1.652l-7.742-20.209a2.5 2.5 0 0 1 .882-2.928c1.919-1.371 2.511-3.74 3.196-6.484.855-3.422 1.901-7.604 6.206-9.75.345-3.514-1.085-6.348-4.701-9.408H574.01a2.498 2.498 0 0 1-2.421-1.877l-3.576-13.916a2.496 2.496 0 0 1 .491-2.211l3.854-4.691a2.49 2.49 0 0 1 1.382-.85c4.706-1.059 6.588-4.584 8.768-8.664 1.518-2.84 3.085-5.777 5.727-8.006.034-.029.069-.059.105-.086l19.724-14.881c-.249-.396-.493-.779-.729-1.15-1.267-1.99-2.359-3.709-3.114-5.684-.414-1.082-.847-2.166-1.279-3.254-1.839-4.607-3.738-9.371-4.409-14.377-.814-6.057-4.396-10.484-10.951-13.537-6.084-2.834-9.802-6.547-12.056-12.035a2.508 2.508 0 0 1 .157-2.219l13.544-23.014-2.418-10.365a2.514 2.514 0 0 1 .315-1.895l3.079-4.92h-92.28a2.5 2.5 0 0 1-2.497-2.381l-1-20.932c-.137-2.621 1.845-5.32 4.51-6.134 1.434-.438 2.657-1.222 1.912-3.968-.354-1.305-1.343-2.65-2.389-4.075-.526-.716-1.07-1.457-1.567-2.238a2.5 2.5 0 0 1 1.326-3.716l1.365-.45c1.57-1.629 1.552-3.584 1.383-6.757-.122-2.278-.26-4.859.671-7.396a2.5 2.5 0 0 1 2.348-1.639h77.211a2.505 2.505 0 0 1 2.299 3.484l9.865 8.065a2.499 2.499 0 0 1 .893 2.289c-.092.644-.283 1.344-.486 2.085-.376 1.371-.89 3.248-.51 4.254 2.114 5.598 1.512 10.213-1.894 14.526-2.425 3.069-2.705 6.426-.856 10.262a2.5 2.5 0 0 1-.19 2.501l-1.598 2.331 2.995 2.994h1.22l7.344-1.631 6.611-6.543a2.5 2.5 0 0 1 2.772-.508l4.345 1.927 26.014-7.353c-.046-11.4-4.199-20.852-12.667-28.846a2.506 2.506 0 0 1-.712-2.413l2.988-12.212c.1-.407.301-.783.583-1.092l7.312-7.998-9.438-8.827a2.5 2.5 0 0 1-.514-2.974l5.181-10.023-3.803-1.521a2.501 2.501 0 0 1-1.426-3.163l.901-2.513a2.504 2.504 0 0 1 1.648-1.553c1.231-.361 2.461-.798 3.763-1.261 3.171-1.126 6.45-2.292 9.909-2.358 3.921-.085 7.763 2.528 10.853 4.619 5.737 3.875 10.107 3.765 14.783-.49-.107-.286-.219-.574-.329-.864-.825-2.16-1.68-4.394-2.301-6.781-.51-1.959-.29-4.837 1.114-6.547 1.008-1.228 1.452-2.237 1.318-3-.125-.721-.888-1.946-3.799-3.683a2.5 2.5 0 0 1-.627-3.763l7.598-8.969a2.501 2.501 0 0 1 3.141-.56l2.344 1.321c1.443.811 2.669 1.5 3.881 2.211 5.556 3.266 11.627 7.332 13.393 14.287.176.693.266 1.31.345 1.854.06.404.138.954.221 1.128-.003.009.163.077.523.161 2.117.498 4.227 1.033 6.084 1.505l1.629.412 9.442-1.796c4.676-4.874 9.012-12.163 4.605-20.132a2.502 2.502 0 0 1 1.222-3.515c2.508-1.051 3.395-2.8 3.061-6.04-.375-3.646-.534-6.152-.703-8.806-.143-2.236-.289-4.547-.58-7.654a2.5 2.5 0 0 1 2.022-2.689l4.606-.875 1.453-2.419-4.454-6.607-16.073-12.803c-3.079.179-4.238-.671-11.175-5.68a2.5 2.5 0 0 1-.852-2.969l.204-.504a2.504 2.504 0 0 1-1.621-1.885 2.498 2.498 0 0 1 1.527-2.794l2.471-.988c.96-1.504.508-2.213-1.571-4.445-1.271-1.364-2.71-2.911-3.264-5.013a2.48 2.48 0 0 1 .104-1.588l2.601-6.318-3.006-4.206a2.5 2.5 0 0 1 .534-3.456 7.888 7.888 0 0 0 1.714-1.801 2.5 2.5 0 0 1-1.041-2.856l1.071-3.417a2.499 2.499 0 0 1 .051-3.62l6.701-6.195-4.479-.833a2.5 2.5 0 0 1-1.952-3.122l2.568-9.318-1.812-3.5a2.5 2.5 0 0 1 1.292-3.473c1.416-.565 2.869-.999 4.275-1.417 2.673-.797 5.196-1.55 6.315-2.9.954-1.153 2.293-1.905 3.588-2.633 1.885-1.059 2.846-1.649 2.971-2.588l-17.153 6.999a2.504 2.504 0 0 1-2.36-.254c-6.873-4.722-6.354-11.271-5.938-16.532.25-3.167.485-6.159-.823-8.356a2.502 2.502 0 0 1 .067-2.667l6.355-9.536a.804.804 0 0 1-.047-.055L687.75-6.69a2.498 2.498 0 0 1-3.155-2.413v-11.462l-1.577-.824-4.919 9.512a2.5 2.5 0 0 1-2.476 1.339c-10.505-1.074-20.646.555-30.131 4.845-.698.316-1.481 1.248-2.239 2.148-.468.556-.951 1.131-1.495 1.674a2.5 2.5 0 0 1-1.275.683l-2.783.557-28.4 15.615a2.49 2.49 0 0 1-2.062.157 2.504 2.504 0 0 1-1.436-1.354c-.399.068-.803.131-1.2.193-1.3.203-3.475.543-3.941.99-3.104 5.169-6.976 5.125-10.284 4.294a2.502 2.502 0 0 1-2.119 2.615l-2.258.345a2.494 2.494 0 0 1-2.46-1.085l-.293-.44c-1.533.398-3.322.729-4.507-.741-1.774-2.201-3.306-4.553-4.785-6.828l-.422-.647-4.08 1.298a2.502 2.502 0 0 1-3.193-1.819l-1.428-6.194-1.82-.63c-3.384 2.997-3.567 5.826-.914 10.624.537.97.37 2.179-.408 2.967-2.368 2.396-2.014 3.921 2.003 8.586a2.5 2.5 0 0 1 .168 3.044l-5.599 8.172a2.504 2.504 0 0 1-1.832 1.077 2.482 2.482 0 0 1-1.998-.722L541.94 26.393l-15.646-2.791a2.504 2.504 0 0 1-.783-.28c-1.026-.576-2.075-1.64-3.401-2.987-.602-.61-1.265-1.283-1.946-1.922-1.438 2.567-4.24 3.579-6.472 4.386-1.294.467-2.518.909-3.484 1.567a2.502 2.502 0 0 1-2.575.142 2.504 2.504 0 0 1-1.33-2.209v-11.85L479.878 23.52a2.5 2.5 0 0 1-3.572-1.817l-2.088-12.129a5.227 5.227 0 0 0-.324.326c-.385.872-1.134 4.007-1.588 5.91-.063.269-.125.522-.184.764a2.502 2.502 0 0 1-.376 1.542c-.372 1.487-.604 2.25-.856 2.756l-2.247 4.37a2.499 2.499 0 0 1-3.739.841l-1.962-1.499a2.5 2.5 0 0 1-.354-3.651l4.064-4.564c-.155-.291-.32-.589-.488-.895-1.212-2.199-2.586-4.691-2.271-7.366.547-4.636-1.737-7.846-4.384-11.563-.404-.569-.812-1.141-1.21-1.72l-6.366-.789a2.5 2.5 0 0 1-2.166-2.121l-.839-5.761-10.599-9.771c-3.193 4.194-6.259 8.219-9.54 12.524a2.496 2.496 0 0 1-1.967.985h-.021c-.765 0-1.487-.35-1.963-.952l-2.627-3.325-6.632-.452a2.5 2.5 0 0 1-2.069-3.608l1.131-2.27-2.886-3.198c-6.349 2.642-9.009 8.29-11.813 14.246-1.93 4.096-3.919 8.321-7.188 11.595V16.92c0 .322-.062.64-.183.938-.572 1.413-1.729 2.48-3.256 3.006-1.998.688-4.401.358-6.596-.906-3.902-2.25-7.797-4.637-11.562-6.945-5.493-3.368-11.175-6.851-16.911-9.919-3.041-1.627-5.99-3.471-8.843-5.253-7.067-4.418-13.743-8.592-21.908-9.896-5.898-.941-11.503-3.076-16.923-5.141-3.08-1.173-5.959-2.703-8.743-4.183-1.172-.623-2.333-1.241-3.49-1.819a2.498 2.498 0 0 1-1.361-1.928c-1.112-8.963 2.62-20.201 9.145-27.838-.555-2.142-.81-4.072-.756-5.809-7.266 5.312-14.33 12.577-17.366 18.481-2.805 5.451-4.608 11.342-6.518 17.58-.985 3.22-2.005 6.55-3.168 9.782-.712 1.977-1.765 3.777-2.879 5.682-.315.539-.642 1.097-.975 1.683.425 1.165.235 2.233-.582 3.016-3.07 2.932-2.648 6.495-1.654 11.597.089.458.177.907.257 1.346 1.67 9.106-2.25 15.008-6.5 19.749.538 1.689.49 3.511-.154 5.361-1.081 3.103-3.672 5.671-5.552 6.362-3.455 1.268-3.74 2.988-4.308 6.414-.158.951-.321 1.934-.578 2.979-.223.904-.405 1.884-.599 2.921-.826 4.429-2.031 10.893-8.435 12.301.036 2.284.459 4.54.9 6.898.918 4.9 1.865 9.959-.935 15.15l2.111 13.51a2.5 2.5 0 0 1-2.062 2.853l-4.979.824-1.138 2.618c-1.282 2.945-2.493 5.727-3.621 8.479-.452 1.106-.75 2.342-1.065 3.65l-.099.408a1286.74 1286.74 0 0 0-2.259 9.529l-.616 2.626c4.784 5.847 2.524 12.296.688 17.537-.684 1.948-1.328 3.788-1.686 5.59-.571 2.884-1.648 5.598-2.69 8.223-.385.97-.771 1.939-1.127 2.914-.188.512-.354 1.093-.532 1.707-.54 1.876-1.153 4.002-2.755 5.476-1.983 1.824-2.172 3.207-.779 5.691a2.5 2.5 0 0 1-.309 2.88l-7.471 8.44a2.807 2.807 0 0 1-.161.166 2.5 2.5 0 0 1-2.196 1.591c-2.233.12-4.635 1.283-7.176 2.513-1.233.598-2.51 1.215-3.829 1.744a2.5 2.5 0 0 1-3.184-1.239l-2.066-4.307-3.208 2.573a2.5 2.5 0 0 1-3.052.058l-1.24-.92-12.193 7.759-9.852 9.795-3.111 9.985-2.566 19.875a2.5 2.5 0 0 1-2.012 2.136c-2.427.462-4.049 1.227-4.449 2.097-.361.785.013 2.218 1.053 4.035 1.101 1.922 1.319 5.511-.126 7.587-3.158 4.541-6.528 8.941-9.786 13.196-1.105 1.443-2.202 2.875-3.28 4.299a2.494 2.494 0 0 1-2.792.86c-4.569-1.541-4.571-1.542-7.886 4.841a2.501 2.501 0 0 1-2.219 1.347h-22.454l-9.646 17.376a2.517 2.517 0 0 1-1.21 1.088c-1.296.549-2.655 1.107-4.058 1.688-3.749 1.543-7.626 3.141-11.443 4.986-1.48.717-2.755 1.979-2.892 2.479-.761 5.496-4.467 8.027-7.735 10.26l-.442.303c-2.052 1.408-3.973 2.99-6.198 4.82l-1.327 1.092 8.521 10.219a2.5 2.5 0 0 1 .396 2.543l-3.443 8.484a2.494 2.494 0 0 1-1.191 1.293l-7.166 3.609-6.143 12.938a2.5 2.5 0 0 1-1.045 1.111c-1.198.666-2.351 1.287-3.464 1.891-2.423 1.307-4.711 2.543-6.829 3.895l-.558.361c-.768.504-1.692 1.109-2.756 1.512a2.495 2.495 0 0 1-1.036 1.795l-5.645 4.031c-.56.4-1.247.545-1.893.428l-4.599 14.742a2.502 2.502 0 0 1 .033 3.092l-9.056 11.771c.968 3.465-1.194 6.213-2.829 8.291-2.045 2.6-3.156 4.195-2.222 6.811 1.346 3.77 0 7.975-1.302 12.043-.714 2.23-1.452 4.535-1.666 6.578-.434 4.139-.315 8.432-.212 12.219.031 1.148.062 2.256.076 3.309 7.419 6.236 10.102 14.168 12.7 21.85 1.46 4.314 2.839 8.391 5.012 12.146a2.497 2.497 0 0 1-1.346 3.613l-4.998 1.73c-.011.463-.024.92-.038 1.373-.062 2.039-.119 3.967.11 5.75.308 2.383.784 4.721 1.289 7.193.4 1.963.814 3.992 1.132 6.031.284 1.832.953 3.125 1.79 3.463.841.338 2.244-.137 3.741-1.277a584.884 584.884 0 0 1 3.794-2.85l1.376-1.027a2.515 2.515 0 0 1 1.955-.459l11.494 2.125a2.5 2.5 0 0 1 3.424-.297l6.264 4.979c.564.449.907 1.121.94 1.842l.099 2.09a2.497 2.497 0 0 1-1.4 2.365l-10.045 4.906-8.715 10.275c3.226 7.58 9.498 10.686 20.694 10.311 1.666-.055 3.304.016 4.888.084 3.954.17 7.685.328 11.312-1.438 2.586-1.256 5.611-.211 8.042.631.707.244 1.375.475 1.797.559.552.111 1.05.404 1.414.834l11.646 13.715c.417-.18.887-.246 1.353-.176l11.828 1.75a2.5 2.5 0 0 1 1.344.648c.62.582 1.231 1.162 1.837 1.736 7.14 6.777 12.782 12.127 22.375 10.438a2.493 2.493 0 0 1 2.364.871c3.863 4.689 9.523 8.365 16.823 10.926 1.895.664 3.646 1.641 5.339 2.586 4.557 2.543 7.312 3.861 11.003 1.391a2.518 2.518 0 0 1 1.397-.424zm331.108-306.517h86.229l-2.82-2.818a2.501 2.501 0 0 1-.296-3.18l1.99-2.906c-1.991-5.085-1.301-9.959 2.029-14.175 2.301-2.913 2.631-5.712 1.141-9.659-.956-2.526-.193-5.31.364-7.343.016-.056.029-.112.046-.167l-10.364-8.473a2.506 2.506 0 0 1-.721-.961H505.96c-.137 1.17-.069 2.445.001 3.769.18 3.365.402 7.536-3.167 10.88 1.173 1.604 2.331 3.282 2.883 5.312 1.306 4.812-.718 8.667-5.277 10.06-.577.176-.99.838-.977 1.102l.886 18.559z"/></svg>